<svg width="1131" height="189" viewBox="0 0 1131 189" fill="none" xmlns="http://www.w3.org/2000/svg">
<g clip-path="url(#clip0_33_17707)">
<path d="M1110.47 124H20.3223C7.40309 124 -2.12656 111.934 0.866444 99.3666L20.871 15.3666C23.0165 6.35771 31.0661 0 40.3269 0H1089.78C1098.98 0 1107 6.28009 1109.2 15.2158L1129.89 99.2158C1133 111.822 1123.46 124 1110.47 124Z" fill="#2846AA"/>
<path d="M1105.53 135H25.271C12.368 135 2.84151 122.963 5.80594 110.405L25.6352 26.405C27.7662 17.3776 35.8247 11 45.1003 11H1085.02C1094.23 11 1102.26 17.3004 1104.44 26.2554L1124.96 110.255C1128.03 122.852 1118.49 135 1105.53 135Z" fill="url(#paint0_linear_33_17707)"/>
<path d="M383 28H61.726C57.1753 28 53.1985 31.0725 52.0498 35.4758L36.2485 96.0474C34.6015 102.361 39.3443 108.535 45.8691 108.571L382.944 110.444C388.489 110.475 393 105.989 393 100.444V38C393 32.4772 388.523 28 383 28Z" fill="#3A46B8"/>
<path d="M745 28H1066.27C1070.82 28 1074.8 31.0725 1075.95 35.4758L1091.75 96.0474C1093.4 102.361 1088.66 108.535 1082.13 108.571L745.056 110.444C739.511 110.475 735 105.989 735 100.444V38C735 32.4772 739.477 28 745 28Z" fill="#3A46B8"/>
<path d="M453.2 177.573L433 135H698L678.47 177.372C675.203 184.46 668.111 189 660.307 189H471.269C463.545 189 456.511 184.552 453.2 177.573Z" fill="url(#paint1_linear_33_17707)"/>
</g>
<defs>
<linearGradient id="paint0_linear_33_17707" x1="565.5" y1="11" x2="565.5" y2="135" gradientUnits="userSpaceOnUse">
<stop stop-color="#3658F7"/>
<stop offset="0.555" stop-color="#434BC4"/>
<stop offset="1" stop-color="#3A3189"/>
</linearGradient>
<linearGradient id="paint1_linear_33_17707" x1="565.5" y1="135" x2="565.5" y2="189" gradientUnits="userSpaceOnUse">
<stop offset="0.241666" stop-color="#302B7C"/>
<stop offset="1" stop-color="#4E44B4"/>
</linearGradient>
<clipPath id="clip0_33_17707">
<rect width="1131" height="189" fill="white"/>
</clipPath>
</defs>
</svg>
