<svg width="36" height="35" viewBox="0 0 36 35" fill="none" xmlns="http://www.w3.org/2000/svg">
<rect x="1.91992" y="1" width="33" height="33" rx="16.5" stroke="url(#paint0_linear_317_48069)" stroke-width="2"/>
<path d="M11.4714 16.1938C11.6645 16.0007 11.9264 15.8922 12.1994 15.8922C12.4725 15.8922 12.7344 16.0007 12.9275 16.1938L16.5686 19.8366L23.8489 12.5521C23.9445 12.4563 24.058 12.3804 24.183 12.3286C24.3079 12.2767 24.4419 12.25 24.5771 12.25C24.7124 12.25 24.8463 12.2766 24.9713 12.3283C25.0963 12.38 25.2098 12.4559 25.3055 12.5515C25.4012 12.6472 25.4771 12.7608 25.5289 12.8858C25.5807 13.0107 25.6074 13.1447 25.6074 13.28C25.6075 13.4154 25.5809 13.5494 25.5292 13.6744C25.4774 13.7994 25.4016 13.913 25.306 14.0088L16.5686 22.75L11.4714 17.6505C11.2784 17.4573 11.1699 17.1953 11.1699 16.9222C11.1699 16.649 11.2784 16.387 11.4714 16.1938Z" fill="url(#paint1_linear_317_48069)"/>
<defs>
<linearGradient id="paint0_linear_317_48069" x1="18.4199" y1="0" x2="18.4199" y2="35" gradientUnits="userSpaceOnUse">
<stop stop-color="#3A7A18"/>
<stop offset="1" stop-color="#68B31E"/>
</linearGradient>
<linearGradient id="paint1_linear_317_48069" x1="18.3887" y1="12.25" x2="18.3887" y2="22.75" gradientUnits="userSpaceOnUse">
<stop stop-color="#3A7A18"/>
<stop offset="1" stop-color="#68B31E"/>
</linearGradient>
</defs>
</svg>
