<svg width="73" height="73" viewBox="0 0 73 73" fill="none" xmlns="http://www.w3.org/2000/svg">
<g id="jam:check">
<path id="Vector" d="M31.8935 50.8865C31.0873 50.8871 30.3138 50.5677 29.743 49.9983L16.8403 37.0925C16.5496 36.8122 16.3176 36.4767 16.1579 36.1057C15.9983 35.7347 15.9141 35.3357 15.9103 34.9318C15.9065 34.5279 15.9832 34.1274 16.1358 33.7534C16.2885 33.3795 16.5141 33.0398 16.7995 32.754C17.0849 32.4682 17.4243 32.2421 17.798 32.0889C18.1717 31.9357 18.5722 31.8584 18.9761 31.8617C19.3799 31.8649 19.7791 31.9485 20.1503 32.1077C20.5215 32.2668 20.8573 32.4983 21.1381 32.7886L31.8904 43.5409L51.2506 24.1867C51.821 23.616 52.5947 23.2952 53.4015 23.2949C54.2084 23.2946 54.9823 23.6149 55.5531 24.1852C56.1238 24.7556 56.4446 25.5293 56.4449 26.3361C56.4452 27.143 56.1249 27.9169 55.5546 28.4877L34.0439 49.9983C33.4731 50.5677 32.6997 50.8871 31.8935 50.8865Z" fill="white"/>
</g>
</svg>
