<svg width="69" height="69" viewBox="0 0 69 69" fill="none" xmlns="http://www.w3.org/2000/svg">
<rect x="3.5" y="3.5" width="62" height="62" rx="31" stroke="white" stroke-width="7"/>
<path d="M27.3798 33.0952L27.3798 33.0952L30.0255 35.8172L30.384 36.186L30.7425 35.8172L41.6203 24.6262L41.2618 24.2777L41.6203 24.6262C43.0798 23.1246 45.4402 23.1247 46.8996 24.6262C48.3668 26.1357 48.3668 28.5888 46.8996 30.0984L33.0236 44.3738L33.0236 44.3739C32.2923 45.1264 31.3375 45.5 30.3841 45.5C29.4308 45.5 28.476 45.1264 27.7445 44.3738L22.1005 38.5674C20.6332 37.0578 20.6332 34.6048 22.1005 33.0952C23.5599 31.5938 25.9204 31.5936 27.3798 33.0952Z" fill="white" stroke="white"/>
</svg>
