<svg width="100" height="100" viewBox="0 0 100 100" fill="none" xmlns="http://www.w3.org/2000/svg">
<g id="Frame 78">
<g id="Group 171">
<path id="Vector 6" d="M17.0468 24.6433V20C17.0468 16.6863 19.7331 14 23.0468 14H79C82.3137 14 85 16.6863 85 20V24.6433M17.0468 24.6433H85M17.0468 24.6433L23.1871 45.9298M85 24.6433L77.6316 45.9298M23.1871 45.9298H21C17.6863 45.9298 15 48.6161 15 51.9298V70.0819V79.2281C15 82.5418 17.6863 85.2281 21 85.2281H79C82.3137 85.2281 85 82.5418 85 79.2281V51.9298C85 48.6161 82.3137 45.9298 79 45.9298H77.6316M23.1871 45.9298H42.0175M77.6316 45.9298H42.0175M42.0175 45.9298V58.7602C42.0175 62.0739 44.7038 64.7602 48.0175 64.7602H52.8012C56.1149 64.7602 58.8012 62.0739 58.8012 58.7602V46.7485" stroke="white" stroke-width="5" stroke-linecap="round"/>
<path id="Vector 7" d="M15.4082 68.8535C24.099 73.6258 26.8453 77.1341 29.3263 84.4091" stroke="white" stroke-width="5" stroke-linecap="round"/>
<path id="Vector 8" d="M85 68.8535C76.3092 73.6258 73.5629 77.1341 71.0819 84.4091" stroke="white" stroke-width="5" stroke-linecap="round"/>
<circle id="Ellipse 14" cx="50.6124" cy="56.5723" r="2.45614" fill="white"/>
</g>
</g>
</svg>
