<svg width="25" height="25" viewBox="0 0 25 25" fill="none" xmlns="http://www.w3.org/2000/svg">
<g id="Frame 107">
<g id="Group 171">
<path id="Vector 6" d="M3.55556 5.88889V4C3.55556 3.44772 4.00327 3 4.55555 3H21C21.5523 3 22 3.44772 22 4V5.88889M3.55556 5.88889H22M3.55556 5.88889L5.22222 11.6667M22 5.88889L20 11.6667M5.22222 11.6667H4C3.44772 11.6667 3 12.1144 3 12.6667V18.2222V21.3333C3 21.8856 3.44772 22.3333 4 22.3333H21C21.5523 22.3333 22 21.8856 22 21.3333V12.6667C22 12.1144 21.5523 11.6667 21 11.6667H20M5.22222 11.6667H10.3333M20 11.6667H10.3333M10.3333 11.6667V15.7778C10.3333 16.3301 10.781 16.7778 11.3333 16.7778H13.8889C14.4412 16.7778 14.8889 16.3301 14.8889 15.7778V11.8889" stroke="#383D91" stroke-width="2" stroke-linecap="round"/>
<path id="Vector 7" d="M3.10938 17.8887C5.46832 19.184 6.21373 20.1363 6.88715 22.1109" stroke="#383D91" stroke-width="2" stroke-linecap="round"/>
<path id="Vector 8" d="M22 17.8887C19.6411 19.184 18.8956 20.1363 18.2222 22.1109" stroke="#383D91" stroke-width="2" stroke-linecap="round"/>
<circle id="Ellipse 14" cx="12.6667" cy="14.5553" r="0.666667" fill="#383D91"/>
</g>
</g>
</svg>
