<svg width="30" height="30" viewBox="0 0 30 30" fill="none" xmlns="http://www.w3.org/2000/svg">
<g id="mingcute:time-fill">
<g id="Group">
<path id="Vector" d="M15.6055 25.2832L15.5942 25.2852L15.5218 25.3209L15.5014 25.325L15.4871 25.3209L15.4147 25.2852C15.4038 25.2818 15.3957 25.2835 15.3902 25.2903L15.3862 25.3005L15.3688 25.7371L15.3739 25.7575L15.3841 25.7707L15.4902 25.8462L15.5055 25.8503L15.5177 25.8462L15.6238 25.7707L15.6361 25.7544L15.6401 25.7371L15.6228 25.3015C15.6201 25.2906 15.6143 25.2845 15.6055 25.2832ZM15.8758 25.1679L15.8625 25.1699L15.6738 25.2648L15.6636 25.275L15.6605 25.2862L15.6789 25.7248L15.684 25.7371L15.6922 25.7442L15.8972 25.8391C15.9101 25.8425 15.92 25.8397 15.9268 25.8309L15.9308 25.8166L15.8962 25.1903C15.8928 25.1781 15.886 25.1706 15.8758 25.1679ZM15.1465 25.1699C15.142 25.1672 15.1366 25.1663 15.1315 25.1675C15.1263 25.1686 15.1218 25.1717 15.1189 25.1761L15.1128 25.1903L15.0781 25.8166C15.0788 25.8289 15.0846 25.837 15.0955 25.8411L15.1108 25.8391L15.3158 25.7442L15.326 25.736L15.3301 25.7248L15.3474 25.2862L15.3443 25.274L15.3341 25.2638L15.1465 25.1699Z" fill="url(#paint0_linear_317_52554)"/>
<path id="Vector_2" d="M15.0008 3.6001C20.6342 3.6001 25.2008 8.16664 25.2008 13.8001C25.2008 19.4336 20.6342 24.0001 15.0008 24.0001C9.36732 24.0001 4.80078 19.4336 4.80078 13.8001C4.80078 8.16664 9.36732 3.6001 15.0008 3.6001ZM15.0008 7.6801C14.7303 7.6801 14.4708 7.78756 14.2795 7.97885C14.0882 8.17014 13.9808 8.42958 13.9808 8.7001V13.8001C13.9808 14.0706 14.0883 14.33 14.2796 14.5212L17.3396 17.5812C17.532 17.767 17.7897 17.8698 18.0571 17.8675C18.3246 17.8652 18.5804 17.7579 18.7695 17.5688C18.9586 17.3797 19.0659 17.1239 19.0682 16.8564C19.0705 16.589 18.9677 16.3313 18.7819 16.139L16.0208 13.3778V8.7001C16.0208 8.42958 15.9133 8.17014 15.722 7.97885C15.5307 7.78756 15.2713 7.6801 15.0008 7.6801Z" fill="url(#paint1_linear_317_52554)"/>
</g>
</g>
<defs>
<linearGradient id="paint0_linear_317_52554" x1="15.5045" y1="25.167" x2="15.5045" y2="25.8503" gradientUnits="userSpaceOnUse">
<stop stop-color="#F18C73"/>
<stop offset="1" stop-color="#C743A4"/>
</linearGradient>
<linearGradient id="paint1_linear_317_52554" x1="15.0008" y1="3.6001" x2="15.0008" y2="24.0001" gradientUnits="userSpaceOnUse">
<stop stop-color="#F18C73"/>
<stop offset="1" stop-color="#C743A4"/>
</linearGradient>
</defs>
</svg>
