<svg width="26" height="27" viewBox="0 0 26 27" fill="none" xmlns="http://www.w3.org/2000/svg">
<g id="mingcute:time-line">
<g id="Group">
<path id="Vector" d="M12.9993 2.66699C18.9826 2.66699 23.8327 7.51708 23.8327 13.5003C23.8327 19.4836 18.9826 24.3337 12.9993 24.3337C7.0161 24.3337 2.16602 19.4836 2.16602 13.5003C2.16602 7.51708 7.0161 2.66699 12.9993 2.66699ZM12.9993 4.83366C10.7008 4.83366 8.49641 5.74675 6.87109 7.37207C5.24578 8.99738 4.33268 11.2018 4.33268 13.5003C4.33268 15.7989 5.24578 18.0033 6.87109 19.6286C8.49641 21.2539 10.7008 22.167 12.9993 22.167C15.2979 22.167 17.5023 21.2539 19.1276 19.6286C20.7529 18.0033 21.666 15.7989 21.666 13.5003C21.666 11.2018 20.7529 8.99738 19.1276 7.37207C17.5023 5.74675 15.2979 4.83366 12.9993 4.83366ZM12.9993 7.00033C13.2647 7.00036 13.5208 7.09778 13.7191 7.2741C13.9174 7.45042 14.0441 7.69339 14.0751 7.95691L14.0827 8.08366V13.0518L17.0153 15.9844C17.2096 16.1794 17.3224 16.441 17.3308 16.7161C17.3392 16.9912 17.2425 17.2592 17.0605 17.4656C16.8785 17.6721 16.6247 17.8015 16.3507 17.8276C16.0767 17.8537 15.803 17.7745 15.5853 17.6062L15.4834 17.5162L12.2334 14.2662C12.0651 14.0977 11.9569 13.8784 11.9258 13.6422L11.916 13.5003V8.08366C11.916 7.79634 12.0302 7.52079 12.2333 7.31763C12.4365 7.11446 12.712 7.00033 12.9993 7.00033Z" fill="#383D91"/>
</g>
</g>
</svg>
