<svg width="30" height="32" viewBox="0 0 30 32" fill="none" xmlns="http://www.w3.org/2000/svg">
<g id="Group">
<path id="Vector" d="M15.0007 0.548431C22.8249 0.548431 29.1673 6.89085 29.1673 14.7151C29.1673 22.5393 22.8249 28.8818 15.0007 28.8818C7.1764 28.8818 0.833984 22.5393 0.833984 14.7151C0.833984 6.89085 7.1764 0.548431 15.0007 0.548431ZM15.0007 3.38176C11.9949 3.38176 9.11219 4.57581 6.98677 6.70122C4.86136 8.82663 3.66732 11.7093 3.66732 14.7151C3.66732 17.7209 4.86136 20.6036 6.98677 22.729C9.11219 24.8544 11.9949 26.0484 15.0007 26.0484C18.0064 26.0484 20.8891 24.8544 23.0145 22.729C25.1399 20.6036 26.334 17.7209 26.334 14.7151C26.334 11.7093 25.1399 8.82663 23.0145 6.70122C20.8891 4.57581 18.0064 3.38176 15.0007 3.38176ZM15.0007 6.2151C15.3476 6.21514 15.6825 6.34254 15.9418 6.57311C16.2011 6.80369 16.3668 7.12141 16.4074 7.46601L16.4173 7.63177V14.1286L20.2522 17.9635C20.5063 18.2185 20.6538 18.5605 20.6648 18.9203C20.6758 19.2801 20.5494 19.6305 20.3114 19.9005C20.0733 20.1705 19.7415 20.3397 19.3831 20.3738C19.0248 20.408 18.667 20.3044 18.3822 20.0843L18.2491 19.9667L13.9991 15.7167C13.7789 15.4963 13.6375 15.2095 13.5967 14.9007L13.584 14.7151V7.63177C13.584 7.25604 13.7332 6.89571 13.9989 6.63003C14.2646 6.36435 14.6249 6.2151 15.0007 6.2151Z" fill="white"/>
</g>
</svg>
