<svg width="26" height="27" viewBox="0 0 26 27" fill="none" xmlns="http://www.w3.org/2000/svg">
<g id="mingcute:time-line">
<g id="Group">
<path id="Vector" d="M12.9993 2.6665C18.9826 2.6665 23.8327 7.51659 23.8327 13.4998C23.8327 19.4831 18.9826 24.3332 12.9993 24.3332C7.0161 24.3332 2.16602 19.4831 2.16602 13.4998C2.16602 7.51659 7.0161 2.6665 12.9993 2.6665ZM12.9993 4.83317C10.7008 4.83317 8.49641 5.74626 6.87109 7.37158C5.24578 8.99689 4.33268 11.2013 4.33268 13.4998C4.33268 15.7984 5.24578 18.0028 6.87109 19.6281C8.49641 21.2534 10.7008 22.1665 12.9993 22.1665C15.2979 22.1665 17.5023 21.2534 19.1276 19.6281C20.7529 18.0028 21.666 15.7984 21.666 13.4998C21.666 11.2013 20.7529 8.99689 19.1276 7.37158C17.5023 5.74626 15.2979 4.83317 12.9993 4.83317ZM12.9993 6.99984C13.2647 6.99987 13.5208 7.09729 13.7191 7.27361C13.9174 7.44993 14.0441 7.6929 14.0751 7.95642L14.0827 8.08317V13.0513L17.0153 15.9839C17.2096 16.1789 17.3224 16.4405 17.3308 16.7156C17.3392 16.9907 17.2425 17.2587 17.0605 17.4651C16.8785 17.6716 16.6247 17.801 16.3507 17.8271C16.0767 17.8532 15.803 17.774 15.5853 17.6057L15.4834 17.5158L12.2334 14.2658C12.0651 14.0972 11.9569 13.8779 11.9258 13.6418L11.916 13.4998V8.08317C11.916 7.79585 12.0302 7.5203 12.2333 7.31714C12.4365 7.11397 12.712 6.99984 12.9993 6.99984Z" fill="url(#paint0_linear_317_47508)"/>
</g>
</g>
<defs>
<linearGradient id="paint0_linear_317_47508" x1="12.9993" y1="2.6665" x2="12.9993" y2="24.3332" gradientUnits="userSpaceOnUse">
<stop stop-color="#F18C73"/>
<stop offset="1" stop-color="#C743A4"/>
</linearGradient>
</defs>
</svg>
