<svg width="42" height="46" viewBox="0 0 42 46" fill="none" xmlns="http://www.w3.org/2000/svg">
<g id="a" clip-path="url(#clip0_87_11591)">
<path id="Vector" d="M22.8567 45.4954C33.4296 45.4954 42.0006 35.4229 42.0006 22.9977C42.0006 10.5726 33.4296 0.5 22.8567 0.5C12.2839 0.5 3.71289 10.5726 3.71289 22.9977C3.71289 35.4229 12.2839 45.4954 22.8567 45.4954Z" fill="#F0AA00"/>
<path id="Vector_2" d="M23.3552 0.5H19.1445V45.5H23.3552V0.5Z" fill="#F0AA00"/>
<path id="Vector_3" d="M19.1438 45.4954C29.7167 45.4954 38.2877 35.4229 38.2877 22.9977C38.2877 10.5726 29.7167 0.5 19.1438 0.5C8.57099 0.5 0 10.5726 0 22.9977C0 35.4229 8.57099 45.4954 19.1438 45.4954Z" fill="#FFCC00"/>
<path id="Vector_4" d="M18.5476 28.7727C22.7863 25.2192 25.7999 20.7854 26.6197 15.3069C27.188 11.5253 28.2127 6.69919 27.3091 2.6485C24.8311 1.27091 22.0643 0.5 19.1438 0.5C8.57048 0.5 0 10.572 0 22.9977C0 28.0748 1.43462 32.7595 3.8474 36.5274C9.24121 34.9856 14.2577 32.3672 18.543 28.7727H18.5476Z" fill="#FCDC59"/>
<path id="Vector_5" d="M33.2666 22.5826C33.2666 32.1346 26.7968 39.8756 18.8178 39.8756C10.8389 39.8756 4.36914 32.13 4.36914 22.5826C4.36914 13.0352 10.8389 5.28967 18.8178 5.28967C26.7968 5.28967 33.2666 13.0307 33.2666 22.5826Z" fill="#DA8100"/>
<path id="Vector_6" d="M33.9657 22.9977C33.9657 32.317 27.7009 39.871 19.9688 39.871C12.2367 39.871 5.97656 32.317 5.97656 22.9977C5.97656 13.6784 12.2414 6.12439 19.9735 6.12439C27.7055 6.12439 33.9704 13.6784 33.9704 22.9977H33.9657Z" fill="#F0AA00"/>
<g id="Vector_7">
<path d="M18.6546 33.3434L21.2761 23.4386L19.1824 26.7009L16.9832 26.7223L18.6546 33.3434Z" fill="#BD610D"/>
<path d="M27.0164 25.9565L20.1043 19.8544L22.0007 23.2915L21.3378 25.8496L27.0164 25.9565Z" fill="#BD610D"/>
<path d="M23.8765 13.7286L16.9832 19.8622L20.2489 18.7241L22.0384 20.2837L23.8765 13.7286Z" fill="#BD610D"/>
<path d="M13.6148 13.9703L16.2665 23.8632L16.3884 19.7227L18.1573 18.1284L13.6148 13.9703Z" fill="#BD610D"/>
<path d="M10.248 25.403L18.7756 25.7468L15.6279 24.1909L15.0048 21.618L10.248 25.403Z" fill="#BD610D"/>
</g>
</g>
<defs>
<clipPath id="clip0_87_11591">
<rect width="42" height="45" fill="white" transform="translate(0 0.5)"/>
</clipPath>
</defs>
</svg>
