<svg width="19" height="19" viewBox="0 0 19 19" fill="#42478C" xmlns="http://www.w3.org/2000/svg">
<path id="Vector" d="M0.531144 0.531144C0.871339 0.191053 1.33268 0 1.81371 0C2.29475 0 2.75609 0.191053 3.09629 0.531144L9.51095 6.94581L15.9256 0.531144C16.2678 0.200691 16.726 0.0178398 17.2017 0.0219731C17.6773 0.0261064 18.1323 0.216894 18.4687 0.553243C18.805 0.889592 18.9958 1.34459 18.9999 1.82024C19.0041 2.2959 18.8212 2.75414 18.4908 3.09629L12.0761 9.51095L18.4908 15.9256C18.8212 16.2678 19.0041 16.726 18.9999 17.2017C18.9958 17.6773 18.805 18.1323 18.4687 18.4687C18.1323 18.805 17.6773 18.9958 17.2017 18.9999C16.726 19.0041 16.2678 18.8212 15.9256 18.4908L9.51095 12.0761L3.09629 18.4908C2.75414 18.8212 2.2959 19.0041 1.82024 18.9999C1.34459 18.9958 0.889592 18.805 0.553243 18.4687C0.216894 18.1323 0.0261064 17.6773 0.0219731 17.2017C0.0178398 16.726 0.200691 16.2678 0.531144 15.9256L6.94581 9.51095L0.531144 3.09629C0.191053 2.75609 0 2.29475 0 1.81371C0 1.33268 0.191053 0.871339 0.531144 0.531144Z" />
</svg>
