<svg width="57" height="57" viewBox="0 0 57 57" fill="none" xmlns="http://www.w3.org/2000/svg">
<g id="crown_3bu27qlftsg4 1">
<path id="Vector" d="M54.7573 19.3807C54.766 19.5375 54.7545 19.6971 54.7151 19.8557L51.1992 33.9192C51.0219 34.6277 50.3869 35.1259 49.6569 35.1297L28.5616 35.2363C28.5588 35.2363 28.5563 35.2363 28.5535 35.2363H7.45794C6.72408 35.2363 6.08462 34.7364 5.90733 34.0243L2.39144 19.9074C2.35096 19.7446 2.33924 19.5806 2.34947 19.4197C0.98935 18.9912 0 17.7184 0 16.2185C0 14.3679 1.50544 12.8625 3.35607 12.8625C5.20671 12.8625 6.71215 14.3679 6.71215 16.2185C6.71215 17.2607 6.23463 18.1932 5.48692 18.8092L9.88881 23.2443C11.0013 24.3654 12.5451 25.008 14.1245 25.008C15.992 25.008 17.7725 24.1212 18.8937 22.6353L26.1279 13.05C25.5202 12.4427 25.1439 11.6036 25.1439 10.6783C25.1439 8.8277 26.6494 7.32227 28.5 7.32227C30.3506 7.32227 31.8561 8.8277 31.8561 10.6783C31.8561 11.5759 31.4998 12.3905 30.9238 12.9933C30.9258 12.9958 30.9281 12.998 30.93 13.0007L38.1118 22.6125C39.2326 24.1127 41.0195 25.0082 42.8923 25.0082C44.4862 25.0082 45.985 24.3875 47.112 23.2603L51.5416 18.8307C50.7782 18.2149 50.2879 17.2735 50.2879 16.2185C50.2879 14.3679 51.7933 12.8625 53.6439 12.8625C55.4946 12.8625 57 14.3679 57 16.2185C57 17.6784 56.0614 18.92 54.7573 19.3807ZM50.8561 40.2438C50.8561 39.3612 50.1406 38.6456 49.258 38.6456H7.9197C7.0371 38.6456 6.32157 39.3612 6.32157 40.2438V44.0793C6.32157 44.9619 7.0371 45.6774 7.9197 45.6774H49.258C50.1406 45.6774 50.8561 44.9619 50.8561 44.0793V40.2438Z" fill="url(#paint0_linear_33_4137)"/>
</g>
<defs>
<linearGradient id="paint0_linear_33_4137" x1="28.5" y1="7.32227" x2="28.5" y2="45.6774" gradientUnits="userSpaceOnUse">
<stop stop-color="#F18D72"/>
<stop offset="1" stop-color="#C744A3"/>
</linearGradient>
</defs>
</svg>
