<svg width="27" height="27" viewBox="0 0 27 27" fill="none" xmlns="http://www.w3.org/2000/svg">
<path d="M3.79688 19.4062H23.2031V21.0938H3.79688V19.4062Z" fill="white"/>
<path d="M21.4126 12.1454L20.4228 6.86523L16.9082 11.0823L18.3185 13.7739L21.4126 12.1454Z" fill="white"/>
<path d="M10.0923 11.0823L6.57761 6.86523L5.58789 12.1454L8.68192 13.7739L10.0923 11.0823Z" fill="white"/>
<path d="M13.5 15.1875C13.966 15.1875 14.3438 14.6209 14.3438 13.9219C14.3438 13.2229 13.966 12.6562 13.5 12.6562C13.034 12.6562 12.6562 13.2229 12.6562 13.9219C12.6562 14.6209 13.034 15.1875 13.5 15.1875Z" fill="white"/>
<path d="M18.338 14.7171C18.2889 14.743 18.2352 14.7589 18.1799 14.764C18.1247 14.7691 18.0689 14.7632 18.016 14.7467C17.963 14.7302 17.9138 14.7034 17.8712 14.6679C17.8285 14.6323 17.7934 14.5887 17.7676 14.5395L13.5008 6.39355L9.23394 14.5395C9.2082 14.5887 9.17302 14.6323 9.13041 14.6679C9.08779 14.7034 9.03858 14.7302 8.9856 14.7467C8.93262 14.7632 8.8769 14.7691 8.82164 14.764C8.76638 14.7589 8.71266 14.743 8.66356 14.7171L1.51953 10.9578L3.69387 18.5625H23.3077L25.482 10.9578L18.338 14.7171ZM13.5008 16.0313C12.5701 16.0313 11.8133 15.085 11.8133 13.9219C11.8133 12.7588 12.5701 11.8125 13.5008 11.8125C14.4314 11.8125 15.1883 12.7588 15.1883 13.9219C15.1883 15.085 14.4314 16.0313 13.5008 16.0313Z" fill="white"/>
</svg>
