<svg width="30" height="30" viewBox="0 0 30 30" fill="none" xmlns="http://www.w3.org/2000/svg">
<g id="solar:dialog-2-bold">
<path id="Vector" fill-rule="evenodd" clip-rule="evenodd" d="M13.1863 26.9102L13.4988 26.3814C13.9988 25.5352 14.2488 25.1127 14.6488 24.8764C15.0488 24.6402 15.5688 24.6239 16.6088 24.5902C17.585 24.5589 18.2413 24.4739 18.8025 24.2414C19.9826 23.7518 20.9204 22.814 21.41 21.6339C21.7775 20.7477 21.7775 19.6252 21.7775 17.3802V16.4152C21.7775 13.2602 21.7775 11.6827 21.0675 10.5239C20.6699 9.87548 20.1247 9.33024 19.4763 8.93266C18.3175 8.22266 16.7388 8.22266 13.585 8.22266H10.6925C7.5375 8.22266 5.96 8.22266 4.80125 8.93266C4.15268 9.33059 3.60743 9.87628 3.21 10.5252C2.5 11.6827 2.5 13.2627 2.5 16.4152V17.3789C2.5 19.6252 2.5 20.7477 2.86625 21.6339C3.35619 22.8143 4.29441 23.752 5.475 24.2414C6.03625 24.4739 6.69125 24.5589 7.6675 24.5914C8.70875 24.6239 9.23 24.6402 9.62875 24.8764C10.0275 25.1127 10.2788 25.5352 10.7788 26.3814L11.0913 26.9102C11.2004 27.0902 11.3542 27.2391 11.5377 27.3424C11.7211 27.4458 11.9282 27.5 12.1388 27.5C12.3493 27.5 12.5564 27.4458 12.7398 27.3424C12.9233 27.2391 13.0771 27.0902 13.1863 26.9102ZM16.355 17.8614C16.6746 17.8614 16.9811 17.7345 17.2071 17.5085C17.433 17.2825 17.56 16.976 17.56 16.6564C17.56 16.3368 17.433 16.0303 17.2071 15.8043C16.9811 15.5784 16.6746 15.4514 16.355 15.4514C16.0354 15.4514 15.7289 15.5784 15.5029 15.8043C15.277 16.0303 15.15 16.3368 15.15 16.6564C15.15 16.976 15.277 17.2825 15.5029 17.5085C15.7289 17.7345 16.0354 17.8614 16.355 17.8614ZM13.3425 16.6564C13.3477 16.8178 13.3204 16.9787 13.2622 17.1293C13.204 17.28 13.1162 17.4174 13.0038 17.5334C12.8915 17.6495 12.7569 17.7417 12.6082 17.8047C12.4595 17.8677 12.2996 17.9002 12.1381 17.9002C11.9766 17.9002 11.8168 17.8677 11.668 17.8047C11.5193 17.7417 11.3848 17.6495 11.2725 17.5334C11.1601 17.4174 11.0722 17.28 11.014 17.1293C10.9559 16.9787 10.9285 16.8178 10.9338 16.6564C10.9338 16.3368 11.0607 16.0303 11.2867 15.8043C11.5127 15.5784 11.8192 15.4514 12.1388 15.4514C12.4583 15.4514 12.7648 15.5784 12.9908 15.8043C13.2168 16.0303 13.3438 16.3368 13.3438 16.6564M7.9225 17.8614C8.24209 17.8614 8.54858 17.7345 8.77456 17.5085C9.00055 17.2825 9.1275 16.976 9.1275 16.6564C9.1275 16.3368 9.00055 16.0303 8.77456 15.8043C8.54858 15.5784 8.24209 15.4514 7.9225 15.4514C7.60291 15.4514 7.29642 15.5784 7.07044 15.8043C6.84446 16.0303 6.7175 16.3368 6.7175 16.6564C6.7175 16.976 6.84446 17.2825 7.07044 17.5085C7.29642 17.7345 7.60291 17.8614 7.9225 17.8614Z" fill="url(#paint0_linear_317_52549)"/>
<path id="Vector_2" d="M18.9627 2.5C20.4014 2.5 21.5464 2.5 22.4652 2.5875C23.4064 2.67625 24.2027 2.865 24.9114 3.3C25.6401 3.74661 26.253 4.35908 26.7002 5.0875C27.1352 5.79625 27.3227 6.5925 27.4127 7.53375C27.5002 8.45375 27.5002 9.5975 27.5002 11.0375V12.0212C27.5002 13.0462 27.5002 13.8612 27.4552 14.5212C27.4089 15.1975 27.3127 15.7788 27.0877 16.3212C26.8081 16.9959 26.3951 17.6071 25.8736 18.1183C25.3521 18.6295 24.7327 19.0302 24.0527 19.2962C23.8935 19.3579 23.7543 19.4088 23.6352 19.4487C23.6527 18.8625 23.6527 18.195 23.6527 17.4425V16.3263C23.6527 14.825 23.6527 13.5662 23.5552 12.5437C23.4527 11.4725 23.2314 10.4688 22.6652 9.54375C22.113 8.64316 21.3557 7.88589 20.4552 7.33375C19.5327 6.76875 18.5277 6.54625 17.4552 6.445C16.4339 6.3475 15.1752 6.3475 13.6727 6.3475H10.6039C9.58391 6.3475 8.67641 6.3475 7.87891 6.3775C7.91641 6.24875 7.96641 6.1025 8.02641 5.9275C8.12641 5.63417 8.25766 5.355 8.42016 5.09C8.86681 4.36021 9.47974 3.74642 10.2089 3.29875C10.9189 2.865 11.7152 2.67625 12.6564 2.58625C13.5739 2.5 14.7189 2.5 16.1589 2.5H18.9627Z" fill="url(#paint1_linear_317_52549)"/>
</g>
<defs>
<linearGradient id="paint0_linear_317_52549" x1="12.1388" y1="8.22266" x2="12.1388" y2="27.5" gradientUnits="userSpaceOnUse">
<stop stop-color="#F18C73"/>
<stop offset="1" stop-color="#C743A4"/>
</linearGradient>
<linearGradient id="paint1_linear_317_52549" x1="17.6895" y1="2.5" x2="17.6895" y2="19.4487" gradientUnits="userSpaceOnUse">
<stop stop-color="#F18C73"/>
<stop offset="1" stop-color="#C743A4"/>
</linearGradient>
</defs>
</svg>
