<svg width="20" height="22" viewBox="0 0 20 22" fill="none" xmlns="http://www.w3.org/2000/svg">
<path d="M11.9741 2.87229L13.3984 0H6.1641L7.58834 2.87229C3.26543 3.88025 0.113281 7.75646 0.113281 12.2891C0.113281 17.6226 4.44139 22 9.78125 22C15.1143 22 19.4492 17.6289 19.4492 12.2891C19.4492 7.75423 16.2949 3.87973 11.9741 2.87229ZM11.3203 1.28906L9.78125 4.39291L8.24215 1.28906H11.3203ZM7.95852 12.9336C7.98138 12.998 8.00733 13.0611 8.03663 13.1222L5.2511 15.9077C4.58306 15.0731 4.14053 14.0508 4.01648 12.9336H7.95852ZM4.01648 11.6445C4.14053 10.5273 4.58306 9.50503 5.2511 8.67041L8.03663 11.4559C8.00733 11.517 7.98138 11.5801 7.95852 11.6445H4.01648ZM8.94813 14.0337C9.00927 14.063 9.07227 14.0889 9.13672 14.1118V18.0538C8.01953 17.9297 6.99722 17.4872 6.16259 16.8192L8.94813 14.0337ZM8.94813 10.5444L6.16259 7.75891C6.99722 7.09088 8.01953 6.64838 9.13672 6.52429V10.4663C9.07227 10.4892 9.00923 10.5151 8.94813 10.5444ZM9.78125 11.6445C10.1366 11.6445 10.4258 11.9337 10.4258 12.2891C10.4258 12.6445 10.1366 12.9336 9.78125 12.9336C9.42586 12.9336 9.13672 12.6445 9.13672 12.2891C9.13672 11.9337 9.42586 11.6445 9.78125 11.6445ZM10.4258 14.1118C10.4902 14.0889 10.5533 14.063 10.6144 14.0337L13.3999 16.8192C12.5653 17.4872 11.543 17.9297 10.4258 18.0538V14.1118ZM11.5259 13.1222C11.5552 13.0611 11.5811 12.9895 11.604 12.925H15.546C15.422 14.0421 14.9794 15.0731 14.3114 15.9077L11.5259 13.1222ZM11.604 11.6445C11.5811 11.5801 11.5552 11.517 11.5259 11.4559L14.3114 8.67041C14.9794 9.50503 15.422 10.5273 15.546 11.6445H11.604ZM10.6144 10.5444C10.5532 10.5151 10.4902 10.4892 10.4258 10.4663V6.52429C11.543 6.64838 12.5653 7.09088 13.3999 7.75891L10.6144 10.5444ZM9.78125 20.7109C5.16112 20.7109 1.40234 16.9329 1.40234 12.2891C1.40234 8.27991 4.28563 4.82131 8.17942 4.0642L8.77763 5.27059C5.34189 5.75962 2.69141 8.72038 2.69141 12.2891C2.69141 16.1984 5.87191 19.3789 9.78125 19.3789C13.6906 19.3789 16.8711 16.1984 16.8711 12.2891C16.8711 8.72038 14.2206 5.75962 10.7849 5.27059L11.3831 4.0642C15.2769 4.82131 18.1602 8.27991 18.1602 12.2891C18.1602 16.9329 14.4014 20.7109 9.78125 20.7109Z" fill="white"/>
</svg>
