<svg width="56" height="56" viewBox="0 0 56 56" fill="none" xmlns="http://www.w3.org/2000/svg">
<g id="Group">
<path id="Vector" d="M28.001 35.2544C30.0163 35.2544 31.6504 33.6427 31.6504 31.655V15.2439C31.6504 13.2559 30.0163 11.6445 28.001 11.6445C25.9856 11.6445 24.3516 13.2559 24.3516 15.2439V31.6553C24.3516 33.643 25.9856 35.2544 28.001 35.2544Z" fill="url(#paint0_linear_33_1673)"/>
<path id="Vector_2" d="M28.001 37.2139C27.0404 37.2139 26.0971 37.5968 25.4198 38.2678C24.7399 38.9358 24.3516 39.863 24.3516 40.8104C24.3516 41.7578 24.7399 42.6879 25.4198 43.3559C26.0971 44.0268 27.0404 44.4098 28.001 44.4098C28.9615 44.4098 29.9016 44.0268 30.5818 43.3559C31.2589 42.6879 31.6504 41.7578 31.6504 40.8104C31.6504 39.863 31.2589 38.9358 30.5818 38.2678C29.9016 37.5968 28.9615 37.2139 28.001 37.2139Z" fill="url(#paint1_linear_33_1673)"/>
<path id="Vector_3" d="M28 0.411133C12.561 0.411133 0 12.7997 0 28.0276C0 43.2554 12.5607 55.644 28 55.644C43.4393 55.644 55.9997 43.2554 55.9997 28.0276C55.9997 12.7997 43.4393 0.411133 28 0.411133ZM28 51.3247C14.9754 51.3247 4.37929 40.8737 4.37929 28.0276C4.37929 15.1814 14.9754 4.73043 28 4.73043C41.0243 4.73043 51.6204 15.1814 51.6204 28.0276C51.6204 40.8737 41.0246 51.3247 28 51.3247Z" fill="url(#paint2_linear_33_1673)"/>
</g>
<defs>
<linearGradient id="paint0_linear_33_1673" x1="28.001" y1="11.6445" x2="28.001" y2="35.2544" gradientUnits="userSpaceOnUse">
<stop stop-color="#EE8974"/>
<stop offset="1" stop-color="#CA4A9F"/>
</linearGradient>
<linearGradient id="paint1_linear_33_1673" x1="28.001" y1="37.2139" x2="28.001" y2="44.4098" gradientUnits="userSpaceOnUse">
<stop stop-color="#EE8974"/>
<stop offset="1" stop-color="#CA4A9F"/>
</linearGradient>
<linearGradient id="paint2_linear_33_1673" x1="27.9999" y1="0.411133" x2="27.9999" y2="55.644" gradientUnits="userSpaceOnUse">
<stop stop-color="#EE8974"/>
<stop offset="1" stop-color="#CA4A9F"/>
</linearGradient>
</defs>
</svg>
