<svg width="29" height="19" viewBox="0 0 29 19" fill="none" xmlns="http://www.w3.org/2000/svg">
<path id="Vector" d="M14.5 5.7C13.4512 5.7 12.4453 6.10036 11.7037 6.81299C10.9621 7.52563 10.5455 8.49218 10.5455 9.5C10.5455 10.5078 10.9621 11.4744 11.7037 12.187C12.4453 12.8996 13.4512 13.3 14.5 13.3C15.5488 13.3 16.5547 12.8996 17.2963 12.187C18.0379 11.4744 18.4545 10.5078 18.4545 9.5C18.4545 8.49218 18.0379 7.52563 17.2963 6.81299C16.5547 6.10036 15.5488 5.7 14.5 5.7ZM14.5 15.8333C12.752 15.8333 11.0756 15.1661 9.83952 13.9783C8.60349 12.7906 7.90909 11.1797 7.90909 9.5C7.90909 7.8203 8.60349 6.20939 9.83952 5.02166C11.0756 3.83393 12.752 3.16667 14.5 3.16667C16.248 3.16667 17.9244 3.83393 19.1605 5.02166C20.3965 6.20939 21.0909 7.8203 21.0909 9.5C21.0909 11.1797 20.3965 12.7906 19.1605 13.9783C17.9244 15.1661 16.248 15.8333 14.5 15.8333ZM14.5 0C7.90909 0 2.28045 3.93933 0 9.5C2.28045 15.0607 7.90909 19 14.5 19C21.0909 19 26.7195 15.0607 29 9.5C26.7195 3.93933 21.0909 0 14.5 0Z" fill="#5A5EA6"/>
</svg>
