<svg width="31" height="31" viewBox="0 0 31 31" fill="none" xmlns="http://www.w3.org/2000/svg">
<mask id="path-1-outside-1_3020_3443" maskUnits="userSpaceOnUse" x="0" y="0.0107422" width="31" height="31" fill="black">
<rect fill="white" y="0.0107422" width="31" height="31"/>
<path d="M29.5469 15.9533C29.4268 15.9533 29.3115 15.9056 29.2265 15.8206C29.1416 15.7356 29.0938 15.6204 29.0938 15.5002C29.1034 12.4762 28.0964 9.53662 26.2346 7.15365C26.1932 7.10734 26.1618 7.05302 26.1422 6.99405C26.1227 6.93507 26.1155 6.87272 26.1211 6.81085C26.1267 6.74899 26.1449 6.68893 26.1747 6.63441C26.2045 6.5799 26.2452 6.53208 26.2942 6.49395C26.3432 6.45581 26.3996 6.42816 26.4598 6.41272C26.5199 6.39728 26.5826 6.39437 26.644 6.40419C26.7053 6.414 26.764 6.43632 26.8163 6.46976C26.8687 6.5032 26.9136 6.54704 26.9483 6.59857C28.936 9.13903 30.011 12.2745 30.0001 15.5002C30.0001 15.6204 29.9523 15.7356 29.8674 15.8206C29.7824 15.9056 29.6671 15.9533 29.5469 15.9533Z"/>
<path d="M23.2893 4.26271C23.2 4.26248 23.1127 4.23652 23.0378 4.18795C20.8112 2.70671 18.1971 1.91514 15.5229 1.91232C12.8486 1.9095 10.2328 2.69555 8.00311 4.17209C7.95343 4.20496 7.89775 4.22773 7.83927 4.23909C7.78078 4.25045 7.72063 4.25018 7.66225 4.23829C7.60387 4.22641 7.5484 4.20314 7.49901 4.16981C7.44962 4.13649 7.40728 4.09377 7.3744 4.04408C7.34153 3.99439 7.31876 3.93872 7.3074 3.88023C7.29604 3.82174 7.29631 3.76159 7.3082 3.70321C7.32008 3.64483 7.34335 3.58936 7.37668 3.53997C7.41 3.49059 7.45272 3.44824 7.50241 3.41537C9.88216 1.84197 12.6732 1.00553 15.526 1.01077C18.3789 1.01601 21.1668 1.86269 23.5408 3.44482C23.6213 3.49893 23.6823 3.57744 23.7149 3.66881C23.7474 3.76019 23.7498 3.8596 23.7217 3.95243C23.6935 4.04525 23.6363 4.1266 23.5585 4.18449C23.4806 4.24238 23.3863 4.27377 23.2893 4.27404V4.26271Z"/>
<path d="M1.45319 15.9533C1.33302 15.9533 1.21776 15.9056 1.13278 15.8206C1.04781 15.7356 1.00007 15.6204 1.00007 15.5002C0.994113 13.559 1.38082 11.6367 2.13694 9.84876C2.89306 8.06087 4.00297 6.44436 5.39991 5.09646C5.48764 5.01264 5.60507 4.9671 5.72638 4.96986C5.84768 4.97262 5.96292 5.02346 6.04675 5.11119C6.13057 5.19892 6.17611 5.31635 6.17335 5.43766C6.17059 5.55896 6.11975 5.6742 6.03202 5.75802C4.72352 7.02022 3.68356 8.53381 2.97459 10.2079C2.26562 11.882 1.90226 13.6822 1.90632 15.5002C1.90632 15.6204 1.85858 15.7356 1.7736 15.8206C1.68862 15.9056 1.57337 15.9533 1.45319 15.9533Z"/>
<path d="M23.6314 27.4129C23.5454 27.4126 23.4613 27.3878 23.3888 27.3415C23.3164 27.2952 23.2586 27.2292 23.2223 27.1513C23.1859 27.0734 23.1725 26.9867 23.1836 26.9014C23.1946 26.8162 23.2297 26.7358 23.2848 26.6697C24.3723 25.3625 25.1675 23.4548 25.6478 21.0057C25.6566 20.9449 25.6776 20.8865 25.7097 20.8341C25.7417 20.7817 25.7841 20.7363 25.8342 20.7008C25.8843 20.6653 25.9411 20.6403 26.0012 20.6274C26.0613 20.6146 26.1233 20.614 26.1836 20.6259C26.2439 20.6377 26.3011 20.6617 26.3519 20.6963C26.4026 20.731 26.4457 20.7756 26.4787 20.8274C26.5116 20.8793 26.5337 20.9373 26.5435 20.9979C26.5534 21.0585 26.5508 21.1205 26.5359 21.1801C26.0284 23.7879 25.1766 25.8315 23.9803 27.2565C23.9371 27.3064 23.8834 27.3463 23.8231 27.3733C23.7629 27.4003 23.6974 27.4138 23.6314 27.4129Z"/>
<path d="M26.545 17.7409H26.5223C26.4025 17.7345 26.2901 17.6808 26.2099 17.5916C26.1296 17.5024 26.088 17.385 26.0941 17.2651C26.1372 16.445 26.1372 15.8242 26.1372 15.5251C26.1364 13.4868 25.5526 11.4912 24.4547 9.77385C23.3567 8.05648 21.7905 6.68901 19.9407 5.83279C19.8372 5.77923 19.7583 5.68785 19.7204 5.57763C19.6825 5.46741 19.6885 5.34683 19.7373 5.24095C19.786 5.13507 19.8736 5.05203 19.982 5.00909C20.0903 4.96615 20.211 4.9666 20.3191 5.01037C22.3248 5.93502 24.0245 7.41371 25.2179 9.2722C26.4113 11.1307 27.0486 13.2916 27.0548 15.5002C27.0548 15.8242 27.0548 16.4608 27.0094 17.3127C27.003 17.4305 26.9509 17.5411 26.8641 17.6211C26.7774 17.7011 26.6629 17.744 26.545 17.7409Z"/>
<path d="M2.78538 20.761C2.68774 20.7615 2.59256 20.7304 2.51401 20.6724C2.43547 20.6143 2.37777 20.5325 2.3495 20.4391C2.32123 20.3456 2.32391 20.2455 2.35714 20.1537C2.39036 20.0619 2.45236 19.9832 2.5339 19.9295C3.79585 19.1003 3.95671 17.1292 3.95671 15.5047C3.95671 12.4402 5.17407 9.50127 7.341 7.33435C9.50792 5.16742 12.4469 3.95006 15.5114 3.95006C15.6316 3.95006 15.7468 3.9978 15.8318 4.08277C15.9168 4.16775 15.9645 4.283 15.9645 4.40318C15.9645 4.52336 15.9168 4.63861 15.8318 4.72359C15.7468 4.80857 15.6316 4.85631 15.5114 4.85631C12.688 4.85631 9.98025 5.97757 7.98342 7.97356C5.98658 9.96955 4.86416 12.6769 4.86296 15.5002C4.86296 17.3512 4.65452 19.6146 3.03233 20.6817C2.95993 20.7325 2.87382 20.7601 2.78538 20.761Z"/>
<path d="M19.2451 29.3387C19.1563 29.3383 19.0696 29.3119 18.9957 29.2626C18.9218 29.2134 18.864 29.1435 18.8295 29.0616C18.7949 28.9798 18.7852 28.8896 18.8015 28.8023C18.8178 28.715 18.8594 28.6345 18.9212 28.5706C22.6255 24.7598 23.1783 18.7491 23.1783 15.5002C23.1778 14.1489 22.8209 12.8216 22.1434 11.6524C21.466 10.4831 20.492 9.5133 19.3199 8.84082C18.1478 8.16835 16.819 7.81703 15.4677 7.82233C14.1164 7.82762 12.7904 8.18935 11.6236 8.87099C11.5207 8.92032 11.4031 8.92905 11.2941 8.89544C11.1851 8.86183 11.0928 8.78836 11.0356 8.68969C10.9784 8.59102 10.9605 8.4744 10.9855 8.36312C11.0105 8.25184 11.0766 8.15408 11.1705 8.08935C12.4747 7.32757 13.9568 6.92339 15.4672 6.91761C16.9776 6.91182 18.4628 7.30465 19.7728 8.05642C21.0828 8.80818 22.1713 9.89228 22.9283 11.1993C23.6854 12.5062 24.0842 13.9898 24.0845 15.5002C24.0845 18.8805 23.5 25.1563 19.5714 29.1982C19.5293 29.2424 19.4787 29.2776 19.4226 29.3017C19.3665 29.3259 19.3062 29.3384 19.2451 29.3387Z"/>
<path d="M7.36874 15.9533C7.24856 15.9533 7.13331 15.9056 7.04833 15.8206C6.96335 15.7356 6.91561 15.6204 6.91561 15.5002C6.91686 13.5077 7.61042 11.5776 8.87765 10.0401C8.91397 9.98996 8.96017 9.94783 9.0134 9.91627C9.06662 9.88471 9.12575 9.86438 9.18713 9.85655C9.24852 9.84872 9.31085 9.85354 9.3703 9.87072C9.42975 9.8879 9.48505 9.91707 9.53279 9.95644C9.58053 9.99582 9.6197 10.0445 9.64789 10.0996C9.67607 10.1547 9.69268 10.215 9.69668 10.2768C9.70067 10.3385 9.69198 10.4004 9.67113 10.4587C9.65028 10.517 9.61772 10.5703 9.57546 10.6155C8.44351 11.9919 7.82378 13.7182 7.82186 15.5002C7.82186 15.6204 7.77413 15.7356 7.68915 15.8206C7.60417 15.9056 7.48892 15.9533 7.36874 15.9533Z"/>
<path d="M3.84343 23.7992C3.73312 23.8006 3.62608 23.7618 3.54237 23.6899C3.45866 23.6181 3.40405 23.5182 3.38876 23.4089C3.37347 23.2997 3.39856 23.1886 3.45932 23.0965C3.52009 23.0044 3.61235 22.9377 3.71882 22.9088C5.6378 22.3786 6.39679 19.6372 6.67772 18.049C6.70026 17.9307 6.76889 17.8261 6.86853 17.7583C6.91786 17.7248 6.97332 17.7013 7.03174 17.6891C7.09016 17.677 7.1504 17.6765 7.20901 17.6877C7.26763 17.6988 7.32347 17.7214 7.37335 17.7542C7.42323 17.7869 7.46617 17.8291 7.49973 17.8785C7.53329 17.9278 7.5568 17.9833 7.56892 18.0417C7.58104 18.1001 7.58154 18.1603 7.57038 18.219C7.25093 20.0156 6.35827 23.1331 3.96124 23.7924C3.92243 23.7998 3.88283 23.8021 3.84343 23.7992Z"/>
<path d="M15.022 30.0002C14.9265 30.0004 14.8334 29.9704 14.756 29.9145C14.6786 29.8586 14.6208 29.7796 14.5909 29.6889C14.561 29.5983 14.5605 29.5004 14.5895 29.4095C14.6185 29.3185 14.6755 29.239 14.7524 29.1823C18.6719 26.2778 19.8455 21.4475 20.1355 17.9086C20.1403 17.8491 20.1567 17.7911 20.1839 17.7379C20.2111 17.6848 20.2484 17.6375 20.2939 17.5988C20.3393 17.5601 20.392 17.5307 20.4487 17.5123C20.5055 17.4939 20.5654 17.4869 20.6249 17.4917C20.6844 17.4965 20.7424 17.5129 20.7956 17.5401C20.8487 17.5672 20.896 17.6046 20.9347 17.65C20.9734 17.6955 21.0028 17.7481 21.0212 17.8049C21.0395 17.8617 21.0465 17.9216 21.0418 17.9811C20.7359 21.708 19.4921 26.817 15.2939 29.9119C15.2152 29.9699 15.1198 30.0009 15.022 30.0002Z"/>
<path d="M5.7171 26.0422C5.59692 26.053 5.47737 26.0156 5.38475 25.9383C5.29212 25.861 5.23401 25.75 5.22319 25.6298C5.21238 25.5096 5.24974 25.3901 5.32707 25.2975C5.4044 25.2048 5.51536 25.1467 5.63554 25.1359C9.66835 24.3951 9.87226 16.9797 9.87226 15.4979C9.8746 14.2211 10.3109 12.9829 11.1096 11.9867C11.9082 10.9905 13.0218 10.2953 14.2676 10.0152C15.5134 9.73522 16.8173 9.88697 17.9655 10.4456C19.1137 11.0042 20.0379 11.9366 20.5864 13.0896C20.6137 13.1435 20.63 13.2023 20.6342 13.2626C20.6384 13.3229 20.6306 13.3834 20.6111 13.4406C20.5916 13.4978 20.5608 13.5505 20.5207 13.5957C20.4805 13.6408 20.4317 13.6775 20.3771 13.7035C20.3225 13.7295 20.2633 13.7443 20.203 13.747C20.1426 13.7498 20.0823 13.7405 20.0256 13.7196C19.9689 13.6987 19.9169 13.6667 19.8728 13.6254C19.8286 13.5841 19.7932 13.5345 19.7685 13.4793C19.3084 12.5116 18.533 11.729 17.5695 11.2601C16.606 10.7912 15.5117 10.6638 14.4663 10.8988C13.4208 11.1338 12.4864 11.7173 11.8162 12.5534C11.1461 13.3896 10.7802 14.4287 10.7785 15.5002C10.7785 17.7658 10.4183 25.1812 5.79413 26.0286C5.7688 26.0349 5.74306 26.0394 5.7171 26.0422Z"/>
<path d="M11.0277 29.2797C10.9232 29.2801 10.8217 29.2442 10.7406 29.1783C10.6594 29.1123 10.6036 29.0203 10.5825 28.9179C10.5614 28.8155 10.5764 28.709 10.6249 28.6163C10.6735 28.5237 10.7525 28.4507 10.8487 28.4097C12.4729 27.7282 13.8085 26.5015 14.6255 24.9411C14.6832 24.8356 14.7804 24.7574 14.8958 24.7236C15.0112 24.6898 15.1352 24.7033 15.2407 24.761C15.3461 24.8186 15.4243 24.9159 15.4581 25.0312C15.4919 25.1466 15.4785 25.2706 15.4208 25.3761C14.5058 27.118 13.0113 28.4859 11.1954 29.2435C11.1423 29.2661 11.0854 29.2784 11.0277 29.2797Z"/>
<path d="M16.1412 23.1671C16.0763 23.1679 16.012 23.154 15.9532 23.1263C15.8986 23.1018 15.8493 23.0668 15.8083 23.0232C15.7673 22.9796 15.7353 22.9282 15.7143 22.8722C15.6932 22.8162 15.6834 22.7565 15.6856 22.6967C15.6877 22.6369 15.7016 22.5781 15.7266 22.5236C16.7091 20.3107 17.2318 17.9212 17.2627 15.5002C17.2627 15.0321 17.0768 14.5832 16.7458 14.2522C16.4148 13.9212 15.9659 13.7353 15.4978 13.7353C15.0297 13.7353 14.5808 13.9212 14.2498 14.2522C13.9188 14.5832 13.7329 15.0321 13.7329 15.5002C13.7329 15.6204 13.6851 15.7356 13.6002 15.8206C13.5152 15.9056 13.3999 15.9533 13.2798 15.9533C13.1596 15.9533 13.0443 15.9056 12.9593 15.8206C12.8744 15.7356 12.8266 15.6204 12.8266 15.5002C12.8266 14.7918 13.1081 14.1124 13.609 13.6114C14.1099 13.1105 14.7894 12.829 15.4978 12.829C16.2062 12.829 16.8857 13.1105 17.3866 13.6114C17.8875 14.1124 18.169 14.7918 18.169 15.5002C18.1355 18.05 17.5852 20.5665 16.5513 22.8975C16.5161 22.9771 16.4587 23.0448 16.3859 23.0926C16.3132 23.1404 16.2283 23.1663 16.1412 23.1671Z"/>
<path d="M7.75163 27.6779C7.63145 27.6807 7.51513 27.6355 7.42824 27.5524C7.34135 27.4694 7.29101 27.3552 7.28831 27.235C7.28561 27.1148 7.33075 26.9985 7.41382 26.9116C7.49688 26.8247 7.61106 26.7744 7.73124 26.7717C10.7604 26.6222 11.9974 22.7389 12.4891 19.5058C12.4978 19.4455 12.5186 19.3876 12.5503 19.3356C12.5819 19.2835 12.6237 19.2384 12.6732 19.2028C12.7227 19.1673 12.7789 19.1421 12.8383 19.1288C12.8978 19.1154 12.9593 19.1142 13.0192 19.1252C13.1374 19.1442 13.2433 19.2091 13.3138 19.3059C13.3843 19.4027 13.4136 19.5235 13.3953 19.6418C12.6001 24.7553 10.6562 27.5329 7.77429 27.6734L7.75163 27.6779Z"/>
<path d="M28.5954 21.0487C28.5394 21.0492 28.484 21.0384 28.4323 21.017C28.3768 20.9955 28.326 20.9632 28.283 20.922C28.24 20.8809 28.2055 20.8316 28.1815 20.7771C28.1575 20.7226 28.1445 20.664 28.1432 20.6044C28.1419 20.5449 28.1524 20.4857 28.174 20.4302C28.7848 18.8585 29.0967 17.1865 29.0938 15.5002C29.0938 15.38 29.1416 15.2648 29.2265 15.1798C29.3115 15.0948 29.4268 15.0471 29.5469 15.0471C29.6671 15.0471 29.7824 15.0948 29.8674 15.1798C29.9523 15.2648 30.0001 15.38 30.0001 15.5002C30.0026 17.2973 29.6699 19.0791 29.0191 20.7542C28.9868 20.8406 28.9289 20.915 28.8532 20.9677C28.7775 21.0203 28.6876 21.0486 28.5954 21.0487Z"/>
</mask>
<path d="M29.5469 15.9533C29.4268 15.9533 29.3115 15.9056 29.2265 15.8206C29.1416 15.7356 29.0938 15.6204 29.0938 15.5002C29.1034 12.4762 28.0964 9.53662 26.2346 7.15365C26.1932 7.10734 26.1618 7.05302 26.1422 6.99405C26.1227 6.93507 26.1155 6.87272 26.1211 6.81085C26.1267 6.74899 26.1449 6.68893 26.1747 6.63441C26.2045 6.5799 26.2452 6.53208 26.2942 6.49395C26.3432 6.45581 26.3996 6.42816 26.4598 6.41272C26.5199 6.39728 26.5826 6.39437 26.644 6.40419C26.7053 6.414 26.764 6.43632 26.8163 6.46976C26.8687 6.5032 26.9136 6.54704 26.9483 6.59857C28.936 9.13903 30.011 12.2745 30.0001 15.5002C30.0001 15.6204 29.9523 15.7356 29.8674 15.8206C29.7824 15.9056 29.6671 15.9533 29.5469 15.9533Z" fill="white"/>
<path d="M23.2893 4.26271C23.2 4.26248 23.1127 4.23652 23.0378 4.18795C20.8112 2.70671 18.1971 1.91514 15.5229 1.91232C12.8486 1.9095 10.2328 2.69555 8.00311 4.17209C7.95343 4.20496 7.89775 4.22773 7.83927 4.23909C7.78078 4.25045 7.72063 4.25018 7.66225 4.23829C7.60387 4.22641 7.5484 4.20314 7.49901 4.16981C7.44962 4.13649 7.40728 4.09377 7.3744 4.04408C7.34153 3.99439 7.31876 3.93872 7.3074 3.88023C7.29604 3.82174 7.29631 3.76159 7.3082 3.70321C7.32008 3.64483 7.34335 3.58936 7.37668 3.53997C7.41 3.49059 7.45272 3.44824 7.50241 3.41537C9.88216 1.84197 12.6732 1.00553 15.526 1.01077C18.3789 1.01601 21.1668 1.86269 23.5408 3.44482C23.6213 3.49893 23.6823 3.57744 23.7149 3.66881C23.7474 3.76019 23.7498 3.8596 23.7217 3.95243C23.6935 4.04525 23.6363 4.1266 23.5585 4.18449C23.4806 4.24238 23.3863 4.27377 23.2893 4.27404V4.26271Z" fill="white"/>
<path d="M1.45319 15.9533C1.33302 15.9533 1.21776 15.9056 1.13278 15.8206C1.04781 15.7356 1.00007 15.6204 1.00007 15.5002C0.994113 13.559 1.38082 11.6367 2.13694 9.84876C2.89306 8.06087 4.00297 6.44436 5.39991 5.09646C5.48764 5.01264 5.60507 4.9671 5.72638 4.96986C5.84768 4.97262 5.96292 5.02346 6.04675 5.11119C6.13057 5.19892 6.17611 5.31635 6.17335 5.43766C6.17059 5.55896 6.11975 5.6742 6.03202 5.75802C4.72352 7.02022 3.68356 8.53381 2.97459 10.2079C2.26562 11.882 1.90226 13.6822 1.90632 15.5002C1.90632 15.6204 1.85858 15.7356 1.7736 15.8206C1.68862 15.9056 1.57337 15.9533 1.45319 15.9533Z" fill="white"/>
<path d="M23.6314 27.4129C23.5454 27.4126 23.4613 27.3878 23.3888 27.3415C23.3164 27.2952 23.2586 27.2292 23.2223 27.1513C23.1859 27.0734 23.1725 26.9867 23.1836 26.9014C23.1946 26.8162 23.2297 26.7358 23.2848 26.6697C24.3723 25.3625 25.1675 23.4548 25.6478 21.0057C25.6566 20.9449 25.6776 20.8865 25.7097 20.8341C25.7417 20.7817 25.7841 20.7363 25.8342 20.7008C25.8843 20.6653 25.9411 20.6403 26.0012 20.6274C26.0613 20.6146 26.1233 20.614 26.1836 20.6259C26.2439 20.6377 26.3011 20.6617 26.3519 20.6963C26.4026 20.731 26.4457 20.7756 26.4787 20.8274C26.5116 20.8793 26.5337 20.9373 26.5435 20.9979C26.5534 21.0585 26.5508 21.1205 26.5359 21.1801C26.0284 23.7879 25.1766 25.8315 23.9803 27.2565C23.9371 27.3064 23.8834 27.3463 23.8231 27.3733C23.7629 27.4003 23.6974 27.4138 23.6314 27.4129Z" fill="white"/>
<path d="M26.545 17.7409H26.5223C26.4025 17.7345 26.2901 17.6808 26.2099 17.5916C26.1296 17.5024 26.088 17.385 26.0941 17.2651C26.1372 16.445 26.1372 15.8242 26.1372 15.5251C26.1364 13.4868 25.5526 11.4912 24.4547 9.77385C23.3567 8.05648 21.7905 6.68901 19.9407 5.83279C19.8372 5.77923 19.7583 5.68785 19.7204 5.57763C19.6825 5.46741 19.6885 5.34683 19.7373 5.24095C19.786 5.13507 19.8736 5.05203 19.982 5.00909C20.0903 4.96615 20.211 4.9666 20.3191 5.01037C22.3248 5.93502 24.0245 7.41371 25.2179 9.2722C26.4113 11.1307 27.0486 13.2916 27.0548 15.5002C27.0548 15.8242 27.0548 16.4608 27.0094 17.3127C27.003 17.4305 26.9509 17.5411 26.8641 17.6211C26.7774 17.7011 26.6629 17.744 26.545 17.7409Z" fill="white"/>
<path d="M2.78538 20.761C2.68774 20.7615 2.59256 20.7304 2.51401 20.6724C2.43547 20.6143 2.37777 20.5325 2.3495 20.4391C2.32123 20.3456 2.32391 20.2455 2.35714 20.1537C2.39036 20.0619 2.45236 19.9832 2.5339 19.9295C3.79585 19.1003 3.95671 17.1292 3.95671 15.5047C3.95671 12.4402 5.17407 9.50127 7.341 7.33435C9.50792 5.16742 12.4469 3.95006 15.5114 3.95006C15.6316 3.95006 15.7468 3.9978 15.8318 4.08277C15.9168 4.16775 15.9645 4.283 15.9645 4.40318C15.9645 4.52336 15.9168 4.63861 15.8318 4.72359C15.7468 4.80857 15.6316 4.85631 15.5114 4.85631C12.688 4.85631 9.98025 5.97757 7.98342 7.97356C5.98658 9.96955 4.86416 12.6769 4.86296 15.5002C4.86296 17.3512 4.65452 19.6146 3.03233 20.6817C2.95993 20.7325 2.87382 20.7601 2.78538 20.761Z" fill="white"/>
<path d="M19.2451 29.3387C19.1563 29.3383 19.0696 29.3119 18.9957 29.2626C18.9218 29.2134 18.864 29.1435 18.8295 29.0616C18.7949 28.9798 18.7852 28.8896 18.8015 28.8023C18.8178 28.715 18.8594 28.6345 18.9212 28.5706C22.6255 24.7598 23.1783 18.7491 23.1783 15.5002C23.1778 14.1489 22.8209 12.8216 22.1434 11.6524C21.466 10.4831 20.492 9.5133 19.3199 8.84082C18.1478 8.16835 16.819 7.81703 15.4677 7.82233C14.1164 7.82762 12.7904 8.18935 11.6236 8.87099C11.5207 8.92032 11.4031 8.92905 11.2941 8.89544C11.1851 8.86183 11.0928 8.78836 11.0356 8.68969C10.9784 8.59102 10.9605 8.4744 10.9855 8.36312C11.0105 8.25184 11.0766 8.15408 11.1705 8.08935C12.4747 7.32757 13.9568 6.92339 15.4672 6.91761C16.9776 6.91182 18.4628 7.30465 19.7728 8.05642C21.0828 8.80818 22.1713 9.89228 22.9283 11.1993C23.6854 12.5062 24.0842 13.9898 24.0845 15.5002C24.0845 18.8805 23.5 25.1563 19.5714 29.1982C19.5293 29.2424 19.4787 29.2776 19.4226 29.3017C19.3665 29.3259 19.3062 29.3384 19.2451 29.3387Z" fill="white"/>
<path d="M7.36874 15.9533C7.24856 15.9533 7.13331 15.9056 7.04833 15.8206C6.96335 15.7356 6.91561 15.6204 6.91561 15.5002C6.91686 13.5077 7.61042 11.5776 8.87765 10.0401C8.91397 9.98996 8.96017 9.94783 9.0134 9.91627C9.06662 9.88471 9.12575 9.86438 9.18713 9.85655C9.24852 9.84872 9.31085 9.85354 9.3703 9.87072C9.42975 9.8879 9.48505 9.91707 9.53279 9.95644C9.58053 9.99582 9.6197 10.0445 9.64789 10.0996C9.67607 10.1547 9.69268 10.215 9.69668 10.2768C9.70067 10.3385 9.69198 10.4004 9.67113 10.4587C9.65028 10.517 9.61772 10.5703 9.57546 10.6155C8.44351 11.9919 7.82378 13.7182 7.82186 15.5002C7.82186 15.6204 7.77413 15.7356 7.68915 15.8206C7.60417 15.9056 7.48892 15.9533 7.36874 15.9533Z" fill="white"/>
<path d="M3.84343 23.7992C3.73312 23.8006 3.62608 23.7618 3.54237 23.6899C3.45866 23.6181 3.40405 23.5182 3.38876 23.4089C3.37347 23.2997 3.39856 23.1886 3.45932 23.0965C3.52009 23.0044 3.61235 22.9377 3.71882 22.9088C5.6378 22.3786 6.39679 19.6372 6.67772 18.049C6.70026 17.9307 6.76889 17.8261 6.86853 17.7583C6.91786 17.7248 6.97332 17.7013 7.03174 17.6891C7.09016 17.677 7.1504 17.6765 7.20901 17.6877C7.26763 17.6988 7.32347 17.7214 7.37335 17.7542C7.42323 17.7869 7.46617 17.8291 7.49973 17.8785C7.53329 17.9278 7.5568 17.9833 7.56892 18.0417C7.58104 18.1001 7.58154 18.1603 7.57038 18.219C7.25093 20.0156 6.35827 23.1331 3.96124 23.7924C3.92243 23.7998 3.88283 23.8021 3.84343 23.7992Z" fill="white"/>
<path d="M15.022 30.0002C14.9265 30.0004 14.8334 29.9704 14.756 29.9145C14.6786 29.8586 14.6208 29.7796 14.5909 29.6889C14.561 29.5983 14.5605 29.5004 14.5895 29.4095C14.6185 29.3185 14.6755 29.239 14.7524 29.1823C18.6719 26.2778 19.8455 21.4475 20.1355 17.9086C20.1403 17.8491 20.1567 17.7911 20.1839 17.7379C20.2111 17.6848 20.2484 17.6375 20.2939 17.5988C20.3393 17.5601 20.392 17.5307 20.4487 17.5123C20.5055 17.4939 20.5654 17.4869 20.6249 17.4917C20.6844 17.4965 20.7424 17.5129 20.7956 17.5401C20.8487 17.5672 20.896 17.6046 20.9347 17.65C20.9734 17.6955 21.0028 17.7481 21.0212 17.8049C21.0395 17.8617 21.0465 17.9216 21.0418 17.9811C20.7359 21.708 19.4921 26.817 15.2939 29.9119C15.2152 29.9699 15.1198 30.0009 15.022 30.0002Z" fill="white"/>
<path d="M5.7171 26.0422C5.59692 26.053 5.47737 26.0156 5.38475 25.9383C5.29212 25.861 5.23401 25.75 5.22319 25.6298C5.21238 25.5096 5.24974 25.3901 5.32707 25.2975C5.4044 25.2048 5.51536 25.1467 5.63554 25.1359C9.66835 24.3951 9.87226 16.9797 9.87226 15.4979C9.8746 14.2211 10.3109 12.9829 11.1096 11.9867C11.9082 10.9905 13.0218 10.2953 14.2676 10.0152C15.5134 9.73522 16.8173 9.88697 17.9655 10.4456C19.1137 11.0042 20.0379 11.9366 20.5864 13.0896C20.6137 13.1435 20.63 13.2023 20.6342 13.2626C20.6384 13.3229 20.6306 13.3834 20.6111 13.4406C20.5916 13.4978 20.5608 13.5505 20.5207 13.5957C20.4805 13.6408 20.4317 13.6775 20.3771 13.7035C20.3225 13.7295 20.2633 13.7443 20.203 13.747C20.1426 13.7498 20.0823 13.7405 20.0256 13.7196C19.9689 13.6987 19.9169 13.6667 19.8728 13.6254C19.8286 13.5841 19.7932 13.5345 19.7685 13.4793C19.3084 12.5116 18.533 11.729 17.5695 11.2601C16.606 10.7912 15.5117 10.6638 14.4663 10.8988C13.4208 11.1338 12.4864 11.7173 11.8162 12.5534C11.1461 13.3896 10.7802 14.4287 10.7785 15.5002C10.7785 17.7658 10.4183 25.1812 5.79413 26.0286C5.7688 26.0349 5.74306 26.0394 5.7171 26.0422Z" fill="white"/>
<path d="M11.0277 29.2797C10.9232 29.2801 10.8217 29.2442 10.7406 29.1783C10.6594 29.1123 10.6036 29.0203 10.5825 28.9179C10.5614 28.8155 10.5764 28.709 10.6249 28.6163C10.6735 28.5237 10.7525 28.4507 10.8487 28.4097C12.4729 27.7282 13.8085 26.5015 14.6255 24.9411C14.6832 24.8356 14.7804 24.7574 14.8958 24.7236C15.0112 24.6898 15.1352 24.7033 15.2407 24.761C15.3461 24.8186 15.4243 24.9159 15.4581 25.0312C15.4919 25.1466 15.4785 25.2706 15.4208 25.3761C14.5058 27.118 13.0113 28.4859 11.1954 29.2435C11.1423 29.2661 11.0854 29.2784 11.0277 29.2797Z" fill="white"/>
<path d="M16.1412 23.1671C16.0763 23.1679 16.012 23.154 15.9532 23.1263C15.8986 23.1018 15.8493 23.0668 15.8083 23.0232C15.7673 22.9796 15.7353 22.9282 15.7143 22.8722C15.6932 22.8162 15.6834 22.7565 15.6856 22.6967C15.6877 22.6369 15.7016 22.5781 15.7266 22.5236C16.7091 20.3107 17.2318 17.9212 17.2627 15.5002C17.2627 15.0321 17.0768 14.5832 16.7458 14.2522C16.4148 13.9212 15.9659 13.7353 15.4978 13.7353C15.0297 13.7353 14.5808 13.9212 14.2498 14.2522C13.9188 14.5832 13.7329 15.0321 13.7329 15.5002C13.7329 15.6204 13.6851 15.7356 13.6002 15.8206C13.5152 15.9056 13.3999 15.9533 13.2798 15.9533C13.1596 15.9533 13.0443 15.9056 12.9593 15.8206C12.8744 15.7356 12.8266 15.6204 12.8266 15.5002C12.8266 14.7918 13.1081 14.1124 13.609 13.6114C14.1099 13.1105 14.7894 12.829 15.4978 12.829C16.2062 12.829 16.8857 13.1105 17.3866 13.6114C17.8875 14.1124 18.169 14.7918 18.169 15.5002C18.1355 18.05 17.5852 20.5665 16.5513 22.8975C16.5161 22.9771 16.4587 23.0448 16.3859 23.0926C16.3132 23.1404 16.2283 23.1663 16.1412 23.1671Z" fill="white"/>
<path d="M7.75163 27.6779C7.63145 27.6807 7.51513 27.6355 7.42824 27.5524C7.34135 27.4694 7.29101 27.3552 7.28831 27.235C7.28561 27.1148 7.33075 26.9985 7.41382 26.9116C7.49688 26.8247 7.61106 26.7744 7.73124 26.7717C10.7604 26.6222 11.9974 22.7389 12.4891 19.5058C12.4978 19.4455 12.5186 19.3876 12.5503 19.3356C12.5819 19.2835 12.6237 19.2384 12.6732 19.2028C12.7227 19.1673 12.7789 19.1421 12.8383 19.1288C12.8978 19.1154 12.9593 19.1142 13.0192 19.1252C13.1374 19.1442 13.2433 19.2091 13.3138 19.3059C13.3843 19.4027 13.4136 19.5235 13.3953 19.6418C12.6001 24.7553 10.6562 27.5329 7.77429 27.6734L7.75163 27.6779Z" fill="white"/>
<path d="M28.5954 21.0487C28.5394 21.0492 28.484 21.0384 28.4323 21.017C28.3768 20.9955 28.326 20.9632 28.283 20.922C28.24 20.8809 28.2055 20.8316 28.1815 20.7771C28.1575 20.7226 28.1445 20.664 28.1432 20.6044C28.1419 20.5449 28.1524 20.4857 28.174 20.4302C28.7848 18.8585 29.0967 17.1865 29.0938 15.5002C29.0938 15.38 29.1416 15.2648 29.2265 15.1798C29.3115 15.0948 29.4268 15.0471 29.5469 15.0471C29.6671 15.0471 29.7824 15.0948 29.8674 15.1798C29.9523 15.2648 30.0001 15.38 30.0001 15.5002C30.0026 17.2973 29.6699 19.0791 29.0191 20.7542C28.9868 20.8406 28.9289 20.915 28.8532 20.9677C28.7775 21.0203 28.6876 21.0486 28.5954 21.0487Z" fill="white"/>
<path d="M26.2346 7.15365L26.3925 7.03024L26.3837 7.02034L26.2346 7.15365ZM26.1422 6.99405L25.9524 7.05691L26.1422 6.99405ZM26.1747 6.63441L25.9992 6.53854L26.1747 6.63441ZM26.2942 6.49395L26.1714 6.33608L26.2942 6.49395ZM26.8163 6.46976L26.7087 6.6383L26.8163 6.46976ZM26.9483 6.59857L26.7824 6.71026L26.7864 6.71619L26.7908 6.72182L26.9483 6.59857ZM23.2893 4.26271H23.4893V4.06324L23.2898 4.06271L23.2893 4.26271ZM23.0378 4.18795L22.927 4.35448L22.929 4.35575L23.0378 4.18795ZM15.5229 1.91232L15.5231 1.71232L15.5229 1.91232ZM8.00311 4.17209L8.11348 4.33888L8.11354 4.33884L8.00311 4.17209ZM7.83927 4.23909L7.80113 4.04276L7.83927 4.23909ZM7.66225 4.23829L7.70215 4.04231H7.70215L7.66225 4.23829ZM7.3744 4.04408L7.20761 4.15444L7.20761 4.15444L7.3744 4.04408ZM7.3074 3.88023L7.11107 3.91836V3.91836L7.3074 3.88023ZM7.3082 3.70321L7.11222 3.66331V3.66331L7.3082 3.70321ZM7.37668 3.53997L7.54247 3.65184L7.37668 3.53997ZM7.50241 3.41537L7.39211 3.24854L7.39205 3.24857L7.50241 3.41537ZM15.526 1.01077L15.5257 1.21077L15.526 1.01077ZM23.5408 3.44482L23.6523 3.27882L23.6517 3.27839L23.5408 3.44482ZM23.7149 3.66881L23.9033 3.60168L23.9033 3.60168L23.7149 3.66881ZM23.7217 3.95243L23.913 4.01047V4.01047L23.7217 3.95243ZM23.5585 4.18449L23.6778 4.34496L23.6778 4.34496L23.5585 4.18449ZM23.2893 4.27404H23.0893V4.47459L23.2898 4.47404L23.2893 4.27404ZM1.00007 15.5002H1.20007L1.20007 15.4996L1.00007 15.5002ZM2.13694 9.84876L1.95274 9.77086L2.13694 9.84876ZM5.39991 5.09646L5.26174 4.95186L5.26104 4.95254L5.39991 5.09646ZM5.72638 4.96986L5.72183 5.16981L5.72638 4.96986ZM6.04675 5.11119L5.90214 5.24935L5.90214 5.24935L6.04675 5.11119ZM6.17335 5.43766L6.3733 5.44221L6.17335 5.43766ZM6.03202 5.75802L5.89385 5.61342L5.89317 5.61408L6.03202 5.75802ZM2.97459 10.2079L2.79043 10.1299L2.97459 10.2079ZM1.90632 15.5002H2.10632L2.10632 15.4998L1.90632 15.5002ZM23.6314 27.4129L23.6343 27.2129L23.6321 27.2129L23.6314 27.4129ZM23.3888 27.3415L23.4966 27.173L23.3888 27.3415ZM23.2223 27.1513L23.4035 27.0667L23.2223 27.1513ZM23.2848 26.6697L23.4384 26.7977L23.4385 26.7976L23.2848 26.6697ZM25.6478 21.0057L25.8443 21.0442L25.8457 21.0343L25.6478 21.0057ZM25.7097 20.8341L25.8803 20.9384H25.8803L25.7097 20.8341ZM25.8342 20.7008L25.7186 20.5377L25.8342 20.7008ZM26.3519 20.6963L26.4647 20.5312L26.3519 20.6963ZM26.4787 20.8274L26.3099 20.9347L26.3099 20.9347L26.4787 20.8274ZM26.5435 20.9979L26.3461 21.0299L26.5435 20.9979ZM26.5359 21.1801L26.3416 21.1317L26.3396 21.1419L26.5359 21.1801ZM23.9803 27.2565L24.1315 27.3875L24.1335 27.3851L23.9803 27.2565ZM23.8231 27.3733L23.7414 27.1908L23.8231 27.3733ZM26.545 17.7409L26.5503 17.5409H26.545V17.7409ZM26.5223 17.7409L26.5116 17.9409H26.5223V17.7409ZM26.2099 17.5916L26.3585 17.4578L26.2099 17.5916ZM26.0941 17.2651L25.8944 17.2547L25.8944 17.2548L26.0941 17.2651ZM26.1372 15.5251H26.3372V15.5251L26.1372 15.5251ZM24.4547 9.77385L24.2862 9.88158L24.4547 9.77385ZM19.9407 5.83279L19.8487 6.0106L19.8567 6.01429L19.9407 5.83279ZM19.7204 5.57763L19.5312 5.64265L19.7204 5.57763ZM19.7373 5.24095L19.5556 5.15736L19.7373 5.24095ZM19.982 5.00909L20.0556 5.19502L19.982 5.00909ZM20.3191 5.01037L20.4029 4.82854L20.3942 4.825L20.3191 5.01037ZM25.2179 9.2722L25.0496 9.38027L25.2179 9.2722ZM27.0548 15.5002H27.2548L27.2548 15.4997L27.0548 15.5002ZM27.0094 17.3127L27.2091 17.3236L27.2092 17.3233L27.0094 17.3127ZM2.78538 20.761L2.78633 20.961L2.7873 20.961L2.78538 20.761ZM2.51401 20.6724L2.39519 20.8332L2.39519 20.8332L2.51401 20.6724ZM2.3495 20.4391L2.54093 20.3812L2.54093 20.3812L2.3495 20.4391ZM2.35714 20.1537L2.16907 20.0856H2.16907L2.35714 20.1537ZM2.5339 19.9295L2.42407 19.7624L2.42385 19.7625L2.5339 19.9295ZM15.5114 3.95006V3.75006V3.95006ZM15.8318 4.08277L15.9732 3.94135L15.8318 4.08277ZM15.8318 4.72359L15.9732 4.86501L15.8318 4.72359ZM15.5114 4.85631V5.05631V4.85631ZM7.98342 7.97356L7.84202 7.83211L7.98342 7.97356ZM4.86296 15.5002L4.66296 15.5001V15.5002H4.86296ZM3.03233 20.6817L2.92237 20.5145L2.91746 20.518L3.03233 20.6817ZM19.2451 29.3387L19.2443 29.5387L19.2459 29.5387L19.2451 29.3387ZM18.9957 29.2626L18.8848 29.429L18.9957 29.2626ZM18.8295 29.0616L19.0137 28.9839L19.0137 28.9839L18.8295 29.0616ZM18.8015 28.8023L18.9981 28.8391L18.9981 28.8391L18.8015 28.8023ZM18.9212 28.5706L18.7778 28.4312L18.7774 28.4316L18.9212 28.5706ZM23.1783 15.5002H23.3783V15.5001L23.1783 15.5002ZM22.1434 11.6524L21.9704 11.7526L22.1434 11.6524ZM19.3199 8.84082L19.4194 8.66735L19.3199 8.84082ZM15.4677 7.82233L15.4669 7.62233L15.4677 7.82233ZM11.6236 8.87099L11.7101 9.05132L11.7174 9.0478L11.7245 9.04368L11.6236 8.87099ZM11.2941 8.89544L11.353 8.70432L11.2941 8.89544ZM11.0356 8.68969L10.8626 8.78999L11.0356 8.68969ZM10.9855 8.36312L11.1807 8.40696L10.9855 8.36312ZM11.1705 8.08935L11.0696 7.91665L11.0631 7.92043L11.057 7.92468L11.1705 8.08935ZM15.4672 6.91761L15.4664 6.71761L15.4672 6.91761ZM19.7728 8.05642L19.6732 8.22988L19.7728 8.05642ZM22.9283 11.1993L23.1014 11.099V11.099L22.9283 11.1993ZM24.0845 15.5002H24.2845V15.5002L24.0845 15.5002ZM19.5714 29.1982L19.428 29.0588L19.4266 29.0602L19.5714 29.1982ZM19.4226 29.3017L19.3435 29.118L19.3435 29.118L19.4226 29.3017ZM7.04833 15.8206L7.18975 15.6792L7.04833 15.8206ZM6.91561 15.5002L6.71561 15.5001V15.5002H6.91561ZM8.87765 10.0401L9.03228 10.1675L9.03957 10.1575L8.87765 10.0401ZM9.0134 9.91627L9.1154 10.0883L9.0134 9.91627ZM9.18713 9.85655L9.16182 9.65816L9.18713 9.85655ZM9.3703 9.87072L9.31478 10.0629L9.3703 9.87072ZM9.64789 10.0996L9.82594 10.0085L9.82594 10.0085L9.64789 10.0996ZM9.69668 10.2768L9.49709 10.2897V10.2897L9.69668 10.2768ZM9.67113 10.4587L9.85944 10.5261V10.5261L9.67113 10.4587ZM9.57546 10.6155L9.42908 10.4786L9.42099 10.4885L9.57546 10.6155ZM7.82186 15.5002L7.62186 15.5V15.5002H7.82186ZM7.68915 15.8206L7.54773 15.6792L7.68915 15.8206ZM3.84343 23.7992L3.85801 23.5997L3.84942 23.5991L3.84081 23.5992L3.84343 23.7992ZM3.54237 23.6899L3.4121 23.8417H3.4121L3.54237 23.6899ZM3.38876 23.4089L3.19069 23.4366L3.38876 23.4089ZM3.71882 22.9088L3.7712 23.1018L3.77208 23.1016L3.71882 22.9088ZM6.67772 18.049L6.48124 18.0116L6.48078 18.0142L6.67772 18.049ZM6.86853 17.7583L6.98101 17.9237L6.86853 17.7583ZM7.37335 17.7542L7.26361 17.9214H7.26361L7.37335 17.7542ZM7.57038 18.219L7.37389 18.1816L7.37347 18.184L7.57038 18.219ZM3.96124 23.7924L3.99866 23.9889L4.00654 23.9874L4.01428 23.9852L3.96124 23.7924ZM15.022 30.0002L15.0234 29.8002L15.0217 29.8002L15.022 30.0002ZM14.756 29.9145L14.8731 29.7523L14.756 29.9145ZM14.7524 29.1823L14.8711 29.3433L14.8715 29.343L14.7524 29.1823ZM20.1355 17.9086L20.3349 17.9249L20.3349 17.9245L20.1355 17.9086ZM20.1839 17.7379L20.0058 17.6469L20.1839 17.7379ZM20.2939 17.5988L20.4236 17.751L20.2939 17.5988ZM20.6249 17.4917L20.6409 17.2923L20.6249 17.4917ZM20.7956 17.5401L20.8866 17.362L20.7956 17.5401ZM20.9347 17.65L21.087 17.5204L20.9347 17.65ZM21.0212 17.8049L20.8309 17.8665L21.0212 17.8049ZM21.0418 17.9811L21.2411 17.9974L21.2412 17.997L21.0418 17.9811ZM15.2939 29.9119L15.4126 30.0728L15.4126 30.0728L15.2939 29.9119ZM5.7171 26.0422L5.73503 26.2414L5.73794 26.2411L5.7171 26.0422ZM5.38475 25.9383L5.25657 26.0918L5.25657 26.0918L5.38475 25.9383ZM5.22319 25.6298L5.024 25.6477L5.22319 25.6298ZM5.32707 25.2975L5.4806 25.4256H5.4806L5.32707 25.2975ZM5.63554 25.1359L5.65346 25.3351L5.66263 25.3343L5.67167 25.3326L5.63554 25.1359ZM9.87226 15.4979L9.67226 15.4976V15.4979H9.87226ZM11.1096 11.9867L10.9535 11.8616L11.1096 11.9867ZM14.2676 10.0152L14.2237 9.82012L14.2676 10.0152ZM17.9655 10.4456L17.878 10.6254L17.9655 10.4456ZM20.5864 13.0896L20.4057 13.1755L20.408 13.18L20.5864 13.0896ZM20.6342 13.2626L20.4347 13.2766V13.2766L20.6342 13.2626ZM20.6111 13.4406L20.8004 13.5052V13.5052L20.6111 13.4406ZM20.5207 13.5957L20.3713 13.4627L20.3713 13.4627L20.5207 13.5957ZM20.3771 13.7035L20.4631 13.884H20.4631L20.3771 13.7035ZM20.203 13.747L20.2121 13.9468L20.203 13.747ZM19.7685 13.4793L19.9512 13.3977L19.9491 13.3934L19.7685 13.4793ZM17.5695 11.2601L17.482 11.44L17.5695 11.2601ZM14.4663 10.8988L14.5101 11.094L14.4663 10.8988ZM11.8162 12.5534L11.6602 12.4284V12.4284L11.8162 12.5534ZM10.7785 15.5002L10.5785 15.4999V15.5002H10.7785ZM5.79413 26.0286L5.75801 25.8315L5.74565 25.8345L5.79413 26.0286ZM11.0277 29.2797L11.0283 29.4798L11.0322 29.4797L11.0277 29.2797ZM10.5825 28.9179L10.3866 28.9582L10.5825 28.9179ZM10.6249 28.6163L10.4478 28.5235L10.6249 28.6163ZM10.8487 28.4097L10.7713 28.2253L10.7704 28.2257L10.8487 28.4097ZM14.6255 24.9411L14.45 24.8451L14.4484 24.8483L14.6255 24.9411ZM14.8958 24.7236L14.952 24.9156L14.8958 24.7236ZM15.2407 24.761L15.1447 24.9364L15.2407 24.761ZM15.4581 25.0312L15.2662 25.0874L15.4581 25.0312ZM15.4208 25.3761L15.2453 25.2801L15.2437 25.2831L15.4208 25.3761ZM11.1954 29.2435L11.1184 29.0589L11.1169 29.0595L11.1954 29.2435ZM16.1412 23.1671L16.1394 22.9671L16.1386 22.9671L16.1412 23.1671ZM15.9532 23.1263L16.0384 22.9453L16.0349 22.9438L15.9532 23.1263ZM15.6856 22.6967L15.8854 22.7038L15.6856 22.6967ZM15.7266 22.5236L15.9084 22.6071L15.9094 22.6048L15.7266 22.5236ZM17.2627 15.5002L17.4627 15.5028V15.5002H17.2627ZM16.7458 14.2522L16.6044 14.3936L16.7458 14.2522ZM14.2498 14.2522L14.3912 14.3936L14.2498 14.2522ZM13.6002 15.8206L13.7416 15.962L13.6002 15.8206ZM15.4978 12.829V12.629V12.829ZM17.3866 13.6114L17.2452 13.7528L17.3866 13.6114ZM18.169 15.5002L18.369 15.5028V15.5002H18.169ZM16.5513 22.8975L16.3685 22.8164L16.3685 22.8165L16.5513 22.8975ZM16.3859 23.0926L16.2761 22.9255L16.2761 22.9255L16.3859 23.0926ZM7.75163 27.6779L7.75613 27.8779L7.77365 27.8775L7.79084 27.8741L7.75163 27.6779ZM7.42824 27.5524L7.29003 27.697L7.29003 27.697L7.42824 27.5524ZM7.28831 27.235L7.08836 27.2395L7.28831 27.235ZM7.73124 26.7717L7.73574 26.9717L7.7411 26.9715L7.73124 26.7717ZM12.4891 19.5058L12.6868 19.5359L12.687 19.5346L12.4891 19.5058ZM12.5503 19.3356L12.3794 19.2317L12.5503 19.3356ZM12.6732 19.2028L12.5566 19.0404H12.5566L12.6732 19.2028ZM12.8383 19.1288L12.8821 19.3239H12.8821L12.8383 19.1288ZM13.0192 19.1252L12.9831 19.322L12.9876 19.3227L13.0192 19.1252ZM13.3138 19.3059L13.4755 19.1882V19.1882L13.3138 19.3059ZM13.3953 19.6418L13.5929 19.6725L13.593 19.6723L13.3953 19.6418ZM7.77429 27.6734L7.76455 27.4737L7.74968 27.4744L7.73507 27.4773L7.77429 27.6734ZM28.5954 21.0487L28.595 20.8487L28.5937 20.8487L28.5954 21.0487ZM28.4323 21.017L28.5088 20.8322L28.5046 20.8306L28.4323 21.017ZM28.283 20.922L28.4213 20.7775V20.7775L28.283 20.922ZM28.1815 20.7771L27.9985 20.8577V20.8577L28.1815 20.7771ZM28.1432 20.6044L28.3432 20.6001L28.1432 20.6044ZM28.174 20.4302L28.3603 20.5028L28.3604 20.5027L28.174 20.4302ZM29.2265 15.1798L29.368 15.3212L29.2265 15.1798ZM29.8674 15.1798L29.7259 15.3212L29.8674 15.1798ZM29.0191 20.7542L28.8326 20.6818L28.8317 20.6842L29.0191 20.7542ZM29.5469 15.7533C29.4798 15.7533 29.4154 15.7267 29.368 15.6792L29.0851 15.962C29.2076 16.0845 29.3737 16.1533 29.5469 16.1533V15.7533ZM29.368 15.6792C29.3205 15.6317 29.2938 15.5673 29.2938 15.5002H28.8938C28.8938 15.6734 28.9626 15.8396 29.0851 15.962L29.368 15.6792ZM29.2938 15.5008C29.3036 12.432 28.2816 9.44882 26.3922 7.03051L26.077 7.27678C27.9112 9.62442 28.9033 12.5204 28.8938 15.4996L29.2938 15.5008ZM26.3837 7.02034C26.3606 6.99447 26.343 6.96413 26.3321 6.93118L25.9524 7.05691C25.9805 7.1419 26.0258 7.22021 26.0855 7.28696L26.3837 7.02034ZM26.3321 6.93118C26.3212 6.89824 26.3172 6.86341 26.3203 6.82885L25.9219 6.79286C25.9139 6.88203 25.9242 6.97191 25.9524 7.05691L26.3321 6.93118ZM26.3203 6.82885C26.3234 6.79429 26.3336 6.76074 26.3502 6.73028L25.9992 6.53854C25.9563 6.61712 25.93 6.70369 25.9219 6.79286L26.3203 6.82885ZM26.3502 6.73028C26.3669 6.69983 26.3896 6.67312 26.417 6.65182L26.1714 6.33608C26.1007 6.39105 26.0421 6.45996 25.9992 6.53854L26.3502 6.73028ZM26.417 6.65182C26.4444 6.63051 26.4759 6.61507 26.5095 6.60644L26.41 6.219C26.3233 6.24125 26.2421 6.28111 26.1714 6.33608L26.417 6.65182ZM26.5095 6.60644C26.5431 6.59782 26.5781 6.59619 26.6124 6.60167L26.6756 6.2067C26.5871 6.19255 26.4968 6.19674 26.41 6.219L26.5095 6.60644ZM26.6124 6.60167C26.6466 6.60716 26.6794 6.61962 26.7087 6.6383L26.924 6.30121C26.8485 6.25301 26.764 6.22084 26.6756 6.2067L26.6124 6.60167ZM26.7087 6.6383C26.7379 6.65698 26.763 6.68148 26.7824 6.71026L27.1142 6.48688C27.0642 6.41261 26.9994 6.34941 26.924 6.30121L26.7087 6.6383ZM26.7908 6.72182C28.7509 9.22691 29.8109 12.3188 29.8001 15.4995L30.2001 15.5009C30.2112 12.2303 29.1212 9.05115 27.1058 6.47533L26.7908 6.72182ZM29.8001 15.5002C29.8001 15.5673 29.7734 15.6317 29.7259 15.6792L30.0088 15.962C30.1313 15.8396 30.2001 15.6734 30.2001 15.5002H29.8001ZM29.7259 15.6792C29.6785 15.7267 29.6141 15.7533 29.5469 15.7533V16.1533C29.7202 16.1533 29.8863 16.0845 30.0088 15.962L29.7259 15.6792ZM23.2898 4.06271C23.239 4.06258 23.1893 4.0478 23.1466 4.02014L22.929 4.35575C23.0361 4.42524 23.161 4.46237 23.2888 4.46271L23.2898 4.06271ZM23.1486 4.02143C20.8892 2.5184 18.2367 1.71519 15.5231 1.71232L15.5226 2.11232C18.1576 2.1151 20.7332 2.89502 22.927 4.35447L23.1486 4.02143ZM15.5231 1.71232C12.8094 1.70946 10.1552 2.50708 7.89269 4.00533L8.11354 4.33884C10.3105 2.88403 12.8877 2.10954 15.5226 2.11232L15.5231 1.71232ZM7.89275 4.00529C7.86497 4.02368 7.83384 4.03641 7.80113 4.04276L7.8774 4.43542C7.96167 4.41905 8.04189 4.38625 8.11348 4.33888L7.89275 4.00529ZM7.80113 4.04276C7.76843 4.04911 7.73479 4.04896 7.70215 4.04231L7.62234 4.43427C7.70646 4.4514 7.79313 4.45179 7.8774 4.43542L7.80113 4.04276ZM7.70215 4.04231C7.6695 4.03567 7.63849 4.02266 7.61087 4.00402L7.38715 4.33561C7.45831 4.38362 7.53823 4.41715 7.62235 4.43427L7.70215 4.04231ZM7.61087 4.00402C7.58326 3.98539 7.55958 3.9615 7.5412 3.93372L7.20761 4.15444C7.25498 4.22603 7.31599 4.28759 7.38715 4.33561L7.61087 4.00402ZM7.5412 3.93372C7.52281 3.90593 7.51008 3.8748 7.50373 3.8421L7.11107 3.91836C7.12744 4.00263 7.16024 4.08285 7.20761 4.15444L7.5412 3.93372ZM7.50373 3.8421C7.49738 3.80939 7.49753 3.77576 7.50418 3.74311L7.11222 3.66331C7.09509 3.74743 7.0947 3.83409 7.11107 3.91836L7.50373 3.8421ZM7.50418 3.74311C7.51082 3.71047 7.52383 3.67945 7.54247 3.65184L7.21088 3.42811C7.16287 3.49927 7.12934 3.57919 7.11222 3.66331L7.50418 3.74311ZM7.54247 3.65184C7.5611 3.62422 7.58499 3.60055 7.61277 3.58216L7.39205 3.24857C7.32046 3.29594 7.2589 3.35695 7.21088 3.42811L7.54247 3.65184ZM7.61271 3.5822C9.95964 2.0305 12.7122 1.2056 15.5257 1.21077L15.5264 0.810767C12.6342 0.805456 9.80468 1.65343 7.39211 3.24854L7.61271 3.5822ZM15.5257 1.21077C18.3392 1.21593 21.0886 2.05094 23.4299 3.61125L23.6517 3.27839C21.245 1.67444 18.4186 0.816078 15.5264 0.810767L15.5257 1.21077ZM23.4292 3.61082C23.4742 3.64105 23.5083 3.68491 23.5265 3.73595L23.9033 3.60168C23.8563 3.46997 23.7684 3.3568 23.6523 3.27882L23.4292 3.61082ZM23.5265 3.73595C23.5447 3.78699 23.546 3.84253 23.5303 3.89438L23.913 4.01047C23.9536 3.87667 23.9502 3.73338 23.9033 3.60168L23.5265 3.73595ZM23.5303 3.89438C23.5145 3.94624 23.4826 3.99168 23.4391 4.02402L23.6778 4.34496C23.79 4.26151 23.8725 4.14427 23.913 4.01047L23.5303 3.89438ZM23.4391 4.02402C23.3956 4.05636 23.3429 4.07389 23.2887 4.07404L23.2898 4.47404C23.4297 4.47365 23.5657 4.42841 23.6778 4.34496L23.4391 4.02402ZM23.4893 4.27404V4.26271H23.0893V4.27404H23.4893ZM1.45319 15.7533C1.38606 15.7533 1.32168 15.7267 1.27421 15.6792L0.991364 15.962C1.11385 16.0845 1.27997 16.1533 1.45319 16.1533V15.7533ZM1.27421 15.6792C1.22674 15.6317 1.20007 15.5673 1.20007 15.5002H0.800068C0.800068 15.6734 0.868879 15.8396 0.991364 15.962L1.27421 15.6792ZM1.20007 15.4996C1.19419 13.5854 1.57553 11.6897 2.32115 9.92666L1.95274 9.77086C1.18611 11.5836 0.794031 13.5327 0.800069 15.5008L1.20007 15.4996ZM2.32115 9.92666C3.06676 8.16361 4.16125 6.56956 5.53878 5.24039L5.26104 4.95254C3.84469 6.31916 2.71936 7.95812 1.95274 9.77086L2.32115 9.92666ZM5.53808 5.24107C5.58745 5.19389 5.65355 5.16825 5.72183 5.16981L5.73093 4.76991C5.5566 4.76594 5.38783 4.83139 5.26175 4.95186L5.53808 5.24107ZM5.72183 5.16981C5.7901 5.17136 5.85496 5.19998 5.90214 5.24935L6.19135 4.97302C6.07088 4.84694 5.90527 4.77388 5.73093 4.76991L5.72183 5.16981ZM5.90214 5.24935C5.94932 5.29873 5.97495 5.36483 5.9734 5.4331L6.3733 5.44221C6.37727 5.26787 6.31182 5.0991 6.19135 4.97302L5.90214 5.24935ZM5.9734 5.4331C5.97185 5.50138 5.94323 5.56624 5.89386 5.61342L6.17019 5.90263C6.29627 5.78216 6.36933 5.61654 6.3733 5.44221L5.9734 5.4331ZM5.89317 5.61408C4.56527 6.89498 3.5099 8.431 2.79043 10.1299L3.15876 10.2859C3.85722 8.63661 4.88176 7.14545 6.17087 5.90197L5.89317 5.61408ZM2.79043 10.1299C2.07095 11.8289 1.7022 13.6557 1.70632 15.5007L2.10632 15.4998C2.10232 13.7087 2.4603 11.9352 3.15876 10.2859L2.79043 10.1299ZM1.70632 15.5002C1.70632 15.5673 1.67965 15.6317 1.63218 15.6792L1.91502 15.962C2.03751 15.8396 2.10632 15.6734 2.10632 15.5002H1.70632ZM1.63218 15.6792C1.58471 15.7267 1.52033 15.7533 1.45319 15.7533V16.1533C1.62641 16.1533 1.79254 16.0845 1.91502 15.962L1.63218 15.6792ZM23.6321 27.2129C23.584 27.2127 23.537 27.1989 23.4966 27.173L23.2811 27.51C23.3855 27.5768 23.5068 27.6124 23.6307 27.6129L23.6321 27.2129ZM23.4966 27.173C23.4561 27.1471 23.4238 27.1103 23.4035 27.0667L23.041 27.2358C23.0934 27.3482 23.1767 27.4433 23.2811 27.51L23.4966 27.173ZM23.4035 27.0667C23.3832 27.0232 23.3757 26.9748 23.3819 26.9272L22.9852 26.8757C22.9693 26.9986 22.9886 27.1235 23.041 27.2358L23.4035 27.0667ZM23.3819 26.9272C23.3881 26.8795 23.4077 26.8347 23.4384 26.7977L23.1311 26.5417C23.0518 26.637 23.0012 26.7528 22.9852 26.8757L23.3819 26.9272ZM23.4385 26.7976C24.5552 25.4553 25.3601 23.5118 25.8441 21.0442L25.4515 20.9672C24.9749 23.3978 24.1893 25.2696 23.131 26.5418L23.4385 26.7976ZM25.8457 21.0343C25.8507 21.0003 25.8624 20.9677 25.8803 20.9384L25.5391 20.7298C25.4929 20.8053 25.4625 20.8894 25.4499 20.9771L25.8457 21.0343ZM25.8803 20.9384C25.8982 20.9092 25.9219 20.8838 25.9499 20.864L25.7186 20.5377C25.6463 20.5889 25.5853 20.6542 25.5391 20.7298L25.8803 20.9384ZM25.9499 20.864C25.9779 20.8441 26.0096 20.8302 26.0432 20.823L25.9593 20.4319C25.8727 20.4505 25.7908 20.4864 25.7186 20.5377L25.9499 20.864ZM26.0432 20.823C26.0767 20.8158 26.1114 20.8155 26.1451 20.8221L26.2222 20.4296C26.1353 20.4125 26.0458 20.4133 25.9593 20.4319L26.0432 20.823ZM26.1451 20.8221C26.1787 20.8287 26.2107 20.8421 26.239 20.8615L26.4647 20.5312C26.3915 20.4812 26.309 20.4467 26.2222 20.4296L26.1451 20.8221ZM26.239 20.8615C26.2674 20.8808 26.2915 20.9057 26.3099 20.9347L26.6475 20.7201C26.6 20.6454 26.5378 20.5811 26.4647 20.5312L26.239 20.8615ZM26.3099 20.9347C26.3283 20.9637 26.3406 20.9961 26.3461 21.0299L26.741 20.9658C26.7268 20.8785 26.695 20.7948 26.6475 20.7201L26.3099 20.9347ZM26.3461 21.0299C26.3516 21.0638 26.3502 21.0984 26.3419 21.1317L26.73 21.2285C26.7514 21.1426 26.7551 21.0532 26.741 20.9658L26.3461 21.0299ZM26.3396 21.1419C25.8358 23.7305 24.9939 25.738 23.8271 27.128L24.1335 27.3851C25.3592 25.9249 26.221 23.8452 26.7322 21.2183L26.3396 21.1419ZM23.8292 27.1256C23.805 27.1534 23.775 27.1757 23.7414 27.1908L23.9049 27.5558C23.9918 27.5169 24.0691 27.4595 24.1314 27.3875L23.8292 27.1256ZM23.7414 27.1908C23.7077 27.2059 23.6711 27.2134 23.6343 27.2129L23.6285 27.6128C23.7237 27.6142 23.8181 27.5947 23.9049 27.5558L23.7414 27.1908ZM26.545 17.5409H26.5223V17.9409H26.545V17.5409ZM26.5331 17.5412C26.4661 17.5376 26.4034 17.5076 26.3585 17.4578L26.0612 17.7254C26.1769 17.8539 26.3389 17.9313 26.5116 17.9406L26.5331 17.5412ZM26.3585 17.4578C26.3137 17.4079 26.2904 17.3424 26.2939 17.2754L25.8944 17.2548C25.8855 17.4276 25.9455 17.5968 26.0612 17.7254L26.3585 17.4578ZM26.2939 17.2756C26.3372 16.4502 26.3372 15.8252 26.3372 15.5251H25.9372C25.9372 15.8232 25.9372 16.4398 25.8944 17.2547L26.2939 17.2756ZM26.3372 15.5251C26.3364 13.4486 25.7417 11.4156 24.6232 9.66612L24.2862 9.88158C25.3636 11.5668 25.9364 13.525 25.9372 15.5252L26.3372 15.5251ZM24.6232 9.66612C23.5047 7.91661 21.9091 6.52354 20.0247 5.65129L19.8567 6.01429C21.6718 6.85448 23.2088 8.19636 24.2862 9.88158L24.6232 9.66612ZM20.0326 5.65515C19.9748 5.62524 19.9307 5.57419 19.9095 5.51262L19.5312 5.64265C19.5859 5.80152 19.6996 5.93323 19.8488 6.01043L20.0326 5.65515ZM19.9095 5.51262C19.8884 5.45105 19.8917 5.38369 19.9189 5.32454L19.5556 5.15736C19.4853 5.30998 19.4766 5.48378 19.5312 5.64265L19.9095 5.51262ZM19.9189 5.32454C19.9462 5.26539 19.9951 5.21901 20.0556 5.19502L19.9083 4.82316C19.7521 4.88505 19.6258 5.00475 19.5556 5.15736L19.9189 5.32454ZM20.0556 5.19502C20.1162 5.17103 20.1836 5.17129 20.244 5.19573L20.3942 4.825C20.2385 4.76192 20.0644 4.76126 19.9083 4.82316L20.0556 5.19502ZM20.2353 5.192C22.2065 6.10069 23.8768 7.55385 25.0496 9.38027L25.3862 9.16414C24.1722 7.27356 22.4432 5.76935 20.4028 4.82874L20.2353 5.192ZM25.0496 9.38027C26.2224 11.2067 26.8487 13.3303 26.8548 15.5008L27.2548 15.4997C27.2485 13.2529 26.6002 11.0547 25.3862 9.16414L25.0496 9.38027ZM26.8548 15.5002C26.8548 15.8231 26.8548 16.4556 26.8097 17.3021L27.2092 17.3233C27.2548 16.4661 27.2548 15.8253 27.2548 15.5002H26.8548ZM26.8097 17.3018C26.8061 17.3676 26.777 17.4294 26.7286 17.4741L26.9997 17.7681C27.1247 17.6529 27.1999 17.4934 27.2091 17.3236L26.8097 17.3018ZM26.7286 17.4741C26.6801 17.5187 26.6162 17.5427 26.5503 17.541L26.5397 17.9408C26.7097 17.9453 26.8747 17.8834 26.9997 17.7681L26.7286 17.4741ZM2.78443 20.561C2.72988 20.5613 2.67671 20.5439 2.63283 20.5115L2.39519 20.8332C2.5084 20.9169 2.6456 20.9617 2.78633 20.961L2.78443 20.561ZM2.63284 20.5115C2.58896 20.4791 2.55673 20.4334 2.54093 20.3812L2.15806 20.497C2.19881 20.6317 2.28198 20.7496 2.39519 20.8332L2.63284 20.5115ZM2.54093 20.3812C2.52514 20.3289 2.52664 20.273 2.5452 20.2217L2.16907 20.0856C2.12118 20.218 2.11732 20.3622 2.15806 20.497L2.54093 20.3812ZM2.5452 20.2217C2.56376 20.1704 2.5984 20.1265 2.64394 20.0965L2.42385 19.7625C2.30633 19.8399 2.21697 19.9533 2.16907 20.0856L2.5452 20.2217ZM2.64373 20.0967C3.33466 19.6426 3.70897 18.8861 3.91267 18.0634C4.11668 17.2395 4.15671 16.3207 4.15671 15.5047H3.75671C3.75671 16.3132 3.71631 17.1922 3.5244 17.9673C3.33218 18.7436 2.99509 19.3871 2.42407 19.7624L2.64373 20.0967ZM4.15671 15.5047C4.15671 12.4933 5.353 9.60518 7.48242 7.47577L7.19958 7.19292C4.99515 9.39736 3.75671 12.3872 3.75671 15.5047H4.15671ZM7.48242 7.47577C9.61184 5.34635 12.4999 4.15006 15.5114 4.15006V3.75006C12.3939 3.75006 9.40401 4.98849 7.19958 7.19292L7.48242 7.47577ZM15.5114 4.15006C15.5785 4.15006 15.6429 4.17672 15.6904 4.22419L15.9732 3.94135C15.8507 3.81887 15.6846 3.75006 15.5114 3.75006V4.15006ZM15.6904 4.22419C15.7379 4.27167 15.7645 4.33605 15.7645 4.40318H16.1645C16.1645 4.22996 16.0957 4.06383 15.9732 3.94135L15.6904 4.22419ZM15.7645 4.40318C15.7645 4.47031 15.7379 4.5347 15.6904 4.58217L15.9732 4.86501C16.0957 4.74253 16.1645 4.5764 16.1645 4.40318H15.7645ZM15.6904 4.58217C15.6429 4.62964 15.5785 4.65631 15.5114 4.65631V5.05631C15.6846 5.05631 15.8507 4.98749 15.9732 4.86501L15.6904 4.58217ZM15.5114 4.65631C12.635 4.65631 9.87637 5.79863 7.84202 7.83211L8.12481 8.11501C10.0841 6.15651 12.7411 5.05631 15.5114 5.05631V4.65631ZM7.84202 7.83211C5.80768 9.86559 4.66418 12.6237 4.66296 15.5001L5.06296 15.5003C5.06414 12.73 6.16547 10.0735 8.12481 8.11501L7.84202 7.83211ZM4.66296 15.5002C4.66296 16.421 4.61071 17.4279 4.36307 18.3321C4.11584 19.2348 3.679 20.0169 2.92242 20.5146L3.14225 20.8488C4.00786 20.2794 4.48633 19.3963 4.74886 18.4378C5.01099 17.4807 5.06296 16.4305 5.06296 15.5002H4.66296ZM2.91746 20.518C2.87818 20.5455 2.83146 20.5605 2.78347 20.561L2.7873 20.961C2.91619 20.9597 3.04168 20.9195 3.1472 20.8454L2.91746 20.518ZM19.2459 29.1387C19.1963 29.1385 19.1479 29.1237 19.1066 29.0962L18.8848 29.429C18.9913 29.5 19.1163 29.5381 19.2443 29.5387L19.2459 29.1387ZM19.1066 29.0962C19.0653 29.0687 19.033 29.0296 19.0137 28.9839L18.6452 29.1394C18.6949 29.2573 18.7783 29.358 18.8848 29.429L19.1066 29.0962ZM19.0137 28.9839C18.9945 28.9382 18.989 28.8878 18.9981 28.8391L18.6049 28.7656C18.5814 28.8915 18.5954 29.0214 18.6452 29.1394L19.0137 28.9839ZM18.9981 28.8391C19.0072 28.7903 19.0305 28.7453 19.065 28.7096L18.7774 28.4316C18.6884 28.5236 18.6284 28.6398 18.6049 28.7656L18.9981 28.8391ZM19.0646 28.71C22.8281 24.8382 23.3783 18.7546 23.3783 15.5002H22.9783C22.9783 18.7436 22.4228 24.6814 18.7778 28.4312L19.0646 28.71ZM23.3783 15.5001C23.3778 14.1136 23.0116 12.7518 22.3165 11.5521L21.9704 11.7526C22.6302 12.8914 22.9778 14.1841 22.9783 15.5003L23.3783 15.5001ZM22.3165 11.5521C21.6214 10.3524 20.6221 9.35733 19.4194 8.66735L19.2204 9.0143C20.362 9.66926 21.3106 10.6138 21.9704 11.7526L22.3165 11.5521ZM19.4194 8.66735C18.2168 7.97736 16.8534 7.61689 15.4669 7.62233L15.4685 8.02233C16.7846 8.01717 18.0788 8.35934 19.2204 9.0143L19.4194 8.66735ZM15.4669 7.62233C14.0804 7.62776 12.7199 7.99891 11.5227 8.6983L11.7245 9.04368C12.8609 8.37979 14.1524 8.02748 15.4685 8.02233L15.4669 7.62233ZM11.5371 8.69066C11.4796 8.71822 11.4139 8.72309 11.353 8.70432L11.2352 9.08656C11.3923 9.135 11.5618 9.12242 11.7101 9.05132L11.5371 8.69066ZM11.353 8.70432C11.2922 8.68554 11.2406 8.6445 11.2086 8.58938L10.8626 8.78999C10.945 8.93222 11.0781 9.03812 11.2352 9.08656L11.353 8.70432ZM11.2086 8.58938C11.1767 8.53426 11.1667 8.46912 11.1807 8.40696L10.7904 8.31929C10.7543 8.47969 10.7801 8.64777 10.8626 8.78999L11.2086 8.58938ZM11.1807 8.40696C11.1946 8.34479 11.2315 8.29018 11.284 8.25402L11.057 7.92468C10.9216 8.01798 10.8264 8.15889 10.7904 8.31929L11.1807 8.40696ZM11.2713 8.26205C12.5452 7.51802 13.9928 7.12325 15.468 7.11761L15.4664 6.71761C13.9209 6.72353 12.4042 7.13713 11.0696 7.91665L11.2713 8.26205ZM15.468 7.11761C16.9432 7.11196 18.3937 7.49563 19.6732 8.22988L19.8723 7.88295C18.5318 7.11367 17.012 6.71169 15.4664 6.71761L15.468 7.11761ZM19.6732 8.22988C20.9527 8.96413 22.0159 10.023 22.7553 11.2995L23.1014 11.099C22.3267 9.76159 21.2129 8.65223 19.8723 7.88295L19.6732 8.22988ZM22.7553 11.2995C23.4947 12.576 23.8842 14.025 23.8845 15.5003L24.2845 15.5002C24.2842 13.9546 23.8761 12.4364 23.1014 11.099L22.7553 11.2995ZM23.8845 15.5002C23.8845 18.8739 23.2977 25.0775 19.428 29.0588L19.7148 29.3376C23.7023 25.2351 24.2845 18.8871 24.2845 15.5002H23.8845ZM19.4266 29.0602C19.4031 29.0849 19.3748 29.1045 19.3435 29.118L19.5017 29.4854C19.5825 29.4506 19.6555 29.3999 19.7162 29.3362L19.4266 29.0602ZM19.3435 29.118C19.3122 29.1315 19.2785 29.1385 19.2444 29.1387L19.2459 29.5387C19.3339 29.5383 19.4209 29.5202 19.5017 29.4854L19.3435 29.118ZM7.36874 15.7533C7.30161 15.7533 7.23722 15.7267 7.18975 15.6792L6.90691 15.962C7.0294 16.0845 7.19552 16.1533 7.36874 16.1533V15.7533ZM7.18975 15.6792C7.14228 15.6317 7.11561 15.5673 7.11561 15.5002H6.71561C6.71561 15.6734 6.78443 15.8396 6.90691 15.962L7.18975 15.6792ZM7.11561 15.5003C7.11683 13.5542 7.79425 11.669 9.03198 10.1673L8.72331 9.91286C7.42659 11.4862 6.71689 13.4612 6.71561 15.5001L7.11561 15.5003ZM9.03957 10.1575C9.05986 10.1295 9.08567 10.1059 9.1154 10.0883L8.91139 9.74424C8.83467 9.78973 8.76808 9.85045 8.71572 9.92266L9.03957 10.1575ZM9.1154 10.0883C9.14513 10.0707 9.17816 10.0593 9.21245 10.0549L9.16182 9.65816C9.07334 9.66945 8.98811 9.69874 8.91139 9.74424L9.1154 10.0883ZM9.21245 10.0549C9.24674 10.0506 9.28157 10.0533 9.31478 10.0629L9.42583 9.67858C9.34014 9.65382 9.25029 9.64687 9.16182 9.65816L9.21245 10.0549ZM9.31478 10.0629C9.34799 10.0725 9.37888 10.0888 9.40554 10.1107L9.66004 9.80215C9.59122 9.7454 9.51152 9.70335 9.42583 9.67858L9.31478 10.0629ZM9.40554 10.1107C9.43221 10.1327 9.45409 10.16 9.46984 10.1907L9.82594 10.0085C9.78531 9.92914 9.72885 9.85889 9.66004 9.80215L9.40554 10.1107ZM9.46984 10.1907C9.48559 10.2215 9.49486 10.2552 9.49709 10.2897L9.89626 10.2638C9.8905 10.1748 9.86656 10.0879 9.82594 10.0085L9.46984 10.1907ZM9.49709 10.2897C9.49933 10.3242 9.49447 10.3588 9.48283 10.3913L9.85944 10.5261C9.88949 10.4421 9.90202 10.3528 9.89626 10.2638L9.49709 10.2897ZM9.48283 10.3913C9.47118 10.4239 9.45299 10.4537 9.42938 10.4789L9.72154 10.7521C9.78246 10.687 9.82939 10.61 9.85944 10.5261L9.48283 10.3913ZM9.42099 10.4885C8.25965 11.9006 7.62383 13.6717 7.62186 15.5L8.02186 15.5004C8.02373 13.7646 8.62737 12.0832 9.72993 10.7426L9.42099 10.4885ZM7.62186 15.5002C7.62186 15.5673 7.5952 15.6317 7.54773 15.6792L7.83057 15.962C7.95305 15.8396 8.02186 15.6734 8.02186 15.5002H7.62186ZM7.54773 15.6792C7.50026 15.7267 7.43587 15.7533 7.36874 15.7533V16.1533C7.54196 16.1533 7.70808 16.0845 7.83057 15.962L7.54773 15.6792ZM3.84081 23.5992C3.77919 23.6 3.7194 23.5783 3.67264 23.5382L3.4121 23.8417C3.53276 23.9453 3.68705 24.0013 3.84604 23.9992L3.84081 23.5992ZM3.67264 23.5382C3.62588 23.498 3.59537 23.4422 3.58683 23.3812L3.19069 23.4366C3.21272 23.5941 3.29145 23.7381 3.4121 23.8417L3.67264 23.5382ZM3.58683 23.3812C3.57828 23.3202 3.5923 23.2581 3.62625 23.2067L3.2924 22.9863C3.20481 23.1191 3.16865 23.2792 3.19069 23.4366L3.58683 23.3812ZM3.62625 23.2067C3.66019 23.1552 3.71173 23.118 3.7712 23.1018L3.66643 22.7158C3.51298 22.7574 3.37998 22.8536 3.2924 22.9863L3.62625 23.2067ZM3.77208 23.1016C4.81359 22.8138 5.51786 21.9333 5.9922 20.9636C6.46875 19.9893 6.73277 18.886 6.87467 18.0839L6.48078 18.0142C6.34174 18.8002 6.0858 19.8618 5.63288 20.7878C5.17775 21.7183 4.54303 22.4736 3.66556 22.716L3.77208 23.1016ZM6.8742 18.0864C6.88681 18.0202 6.92523 17.9616 6.98101 17.9237L6.75605 17.593C6.61255 17.6906 6.5137 17.8412 6.48125 18.0116L6.8742 18.0864ZM6.98101 17.9237C7.00863 17.9049 7.03967 17.8917 7.07238 17.885L6.99111 17.4933C6.90697 17.5108 6.8271 17.5446 6.75605 17.593L6.98101 17.9237ZM7.07238 17.885C7.10508 17.8782 7.1388 17.8779 7.17161 17.8841L7.24641 17.4912C7.162 17.4751 7.07525 17.4758 6.99111 17.4933L7.07238 17.885ZM7.17161 17.8841C7.20442 17.8904 7.23568 17.903 7.26361 17.9214L7.48309 17.587C7.41125 17.5398 7.33083 17.5073 7.24641 17.4912L7.17161 17.8841ZM7.26361 17.9214C7.29154 17.9397 7.31558 17.9633 7.33436 17.991L7.6651 17.766C7.61677 17.6949 7.55492 17.6341 7.48309 17.587L7.26361 17.9214ZM7.33436 17.991C7.35314 18.0186 7.3663 18.0496 7.37309 18.0823L7.76475 18.0011C7.74729 17.9169 7.71343 17.837 7.6651 17.766L7.33436 17.991ZM7.37309 18.0823C7.37988 18.115 7.38015 18.1488 7.37391 18.1816L7.76685 18.2564C7.78292 18.1719 7.78221 18.0852 7.76475 18.0011L7.37309 18.0823ZM7.37347 18.184C7.21535 19.0732 6.91679 20.2794 6.36731 21.3402C5.81702 22.4026 5.03042 23.2909 3.9082 23.5996L4.01428 23.9852C5.28909 23.6346 6.14733 22.6346 6.72249 21.5242C7.29846 20.4122 7.60595 19.1614 7.76729 18.254L7.37347 18.184ZM3.92382 23.5959C3.90214 23.6001 3.88002 23.6013 3.85801 23.5997L3.82885 23.9987C3.88563 24.0028 3.94272 23.9995 3.99866 23.9889L3.92382 23.5959ZM15.0217 29.8002C14.9683 29.8003 14.9163 29.7835 14.8731 29.7523L14.6389 30.0766C14.7505 30.1572 14.8847 30.2004 15.0224 30.2002L15.0217 29.8002ZM14.8731 29.7523C14.8298 29.7211 14.7975 29.677 14.7808 29.6263L14.4009 29.7516C14.444 29.8823 14.5273 29.9961 14.6389 30.0766L14.8731 29.7523ZM14.7808 29.6263C14.7641 29.5757 14.7639 29.521 14.7801 29.4702L14.399 29.3487C14.3572 29.4798 14.3579 29.6208 14.4009 29.7516L14.7808 29.6263ZM14.7801 29.4702C14.7963 29.4194 14.8281 29.375 14.8711 29.3433L14.6338 29.0213C14.523 29.103 14.4408 29.2176 14.399 29.3487L14.7801 29.4702ZM14.8715 29.343C18.8619 26.386 20.0434 21.4814 20.3349 17.9249L19.9362 17.8922C19.6476 21.4135 18.482 26.1696 14.6333 29.0216L14.8715 29.343ZM20.3349 17.9245C20.3376 17.8912 20.3468 17.8587 20.362 17.829L20.0058 17.6469C19.9667 17.7234 19.943 17.8069 19.9362 17.8926L20.3349 17.9245ZM20.362 17.829C20.3772 17.7992 20.3981 17.7727 20.4236 17.751L20.1642 17.4465C20.0988 17.5023 20.0449 17.5704 20.0058 17.6469L20.362 17.829ZM20.4236 17.751C20.449 17.7293 20.4785 17.7129 20.5103 17.7026L20.3872 17.322C20.3054 17.3485 20.2296 17.3908 20.1642 17.4465L20.4236 17.751ZM20.5103 17.7026C20.5421 17.6923 20.5756 17.6884 20.609 17.6911L20.6409 17.2923C20.5552 17.2855 20.469 17.2956 20.3872 17.322L20.5103 17.7026ZM20.609 17.6911C20.6423 17.6937 20.6748 17.7029 20.7045 17.7181L20.8866 17.362C20.81 17.3229 20.7266 17.2992 20.6409 17.2923L20.609 17.6911ZM20.7045 17.7181C20.7343 17.7334 20.7608 17.7543 20.7825 17.7797L21.087 17.5204C21.0312 17.4549 20.9631 17.4011 20.8866 17.362L20.7045 17.7181ZM20.7825 17.7797C20.8041 17.8052 20.8206 17.8347 20.8309 17.8665L21.2115 17.7433C21.185 17.6616 21.1427 17.5858 21.087 17.5204L20.7825 17.7797ZM20.8309 17.8665C20.8412 17.8983 20.8451 17.9318 20.8424 17.9651L21.2412 17.997C21.248 17.9113 21.2379 17.8251 21.2115 17.7433L20.8309 17.8665ZM20.8425 17.9647C20.5381 21.6734 19.3025 26.7083 15.1752 29.7509L15.4126 30.0728C19.6817 26.9257 20.9338 21.7426 21.2411 17.9974L20.8425 17.9647ZM15.1752 29.7509C15.1313 29.7833 15.078 29.8006 15.0234 29.8002L15.0207 30.2002C15.1616 30.2012 15.2991 30.1565 15.4126 30.0728L15.1752 29.7509ZM5.69917 25.843C5.63182 25.849 5.56483 25.8281 5.51292 25.7848L5.25657 26.0918C5.38992 26.2031 5.56202 26.2569 5.73503 26.2414L5.69917 25.843ZM5.51292 25.7848C5.46102 25.7414 5.42845 25.6792 5.42239 25.6119L5.024 25.6477C5.03957 25.8208 5.12323 25.9805 5.25657 26.0918L5.51292 25.7848ZM5.42239 25.6119C5.41633 25.5445 5.43727 25.4776 5.4806 25.4256L5.17355 25.1693C5.06222 25.3026 5.00843 25.4747 5.024 25.6477L5.42239 25.6119ZM5.4806 25.4256C5.52394 25.3737 5.58612 25.3412 5.65346 25.3351L5.61761 24.9367C5.4446 24.9523 5.28487 25.036 5.17354 25.1693L5.4806 25.4256ZM5.67167 25.3326C6.74385 25.1357 7.55389 24.4947 8.16173 23.6419C8.76758 22.7918 9.17901 21.7233 9.45975 20.6452C10.0213 18.4886 10.0723 16.2441 10.0723 15.4979H9.67226C9.67226 16.2335 9.62126 18.4375 9.07265 20.5444C8.79832 21.5979 8.40261 22.6147 7.836 23.4097C7.27138 24.2019 6.54363 24.7657 5.5994 24.9392L5.67167 25.3326ZM10.0723 15.4983C10.0745 14.2668 10.4953 13.0727 11.2656 12.1118L10.9535 11.8616C10.1265 12.8932 9.67468 14.1754 9.67226 15.4976L10.0723 15.4983ZM11.2656 12.1118C12.0359 11.1509 13.1099 10.4805 14.3114 10.2104L14.2237 9.82012C12.9337 10.1101 11.7805 10.83 10.9535 11.8616L11.2656 12.1118ZM14.3114 10.2104C15.513 9.9403 16.7706 10.0867 17.878 10.6254L18.053 10.2658C16.864 9.68728 15.5138 9.53014 14.2237 9.82012L14.3114 10.2104ZM17.878 10.6254C18.9854 11.1642 19.8767 12.0634 20.4058 13.1755L20.767 13.0037C20.199 11.8097 19.242 10.8442 18.053 10.2658L17.878 10.6254ZM20.408 13.18C20.4233 13.2101 20.4323 13.243 20.4347 13.2766L20.8337 13.2486C20.8276 13.1617 20.8042 13.0769 20.7648 12.9992L20.408 13.18ZM20.4347 13.2766C20.4371 13.3103 20.4327 13.3441 20.4218 13.3761L20.8004 13.5052C20.8285 13.4227 20.8398 13.3355 20.8337 13.2486L20.4347 13.2766ZM20.4218 13.3761C20.4109 13.408 20.3937 13.4375 20.3713 13.4627L20.67 13.7287C20.728 13.6636 20.7723 13.5876 20.8004 13.5052L20.4218 13.3761ZM20.3713 13.4627C20.3488 13.4879 20.3216 13.5084 20.2911 13.5229L20.4631 13.884C20.5418 13.8466 20.6121 13.7937 20.67 13.7287L20.3713 13.4627ZM20.2911 13.5229C20.2606 13.5374 20.2275 13.5457 20.1938 13.5473L20.2121 13.9468C20.2991 13.9428 20.3845 13.9215 20.4631 13.884L20.2911 13.5229ZM20.1938 13.5473C20.1601 13.5488 20.1264 13.5436 20.0947 13.5319L19.9564 13.9073C20.0382 13.9374 20.1251 13.9508 20.2121 13.9468L20.1938 13.5473ZM20.0947 13.5319C20.063 13.5202 20.034 13.5024 20.0093 13.4793L19.7362 13.7715C19.7998 13.831 19.8747 13.8772 19.9564 13.9073L20.0947 13.5319ZM20.0093 13.4793C19.9847 13.4562 19.9649 13.4285 19.9511 13.3977L19.5859 13.5609C19.6215 13.6404 19.6725 13.712 19.7362 13.7715L20.0093 13.4793ZM19.9491 13.3934C19.4695 12.3847 18.6613 11.569 17.657 11.0803L17.482 11.44C18.4046 11.889 19.1473 12.6384 19.5879 13.5652L19.9491 13.3934ZM17.657 11.0803C16.6527 10.5915 15.5121 10.4587 14.4224 10.7037L14.5101 11.094C15.5113 10.8689 16.5593 10.9909 17.482 11.44L17.657 11.0803ZM14.4224 10.7037C13.3327 10.9487 12.3587 11.5568 11.6602 12.4284L11.9723 12.6785C12.6141 11.8778 13.509 11.319 14.5101 11.094L14.4224 10.7037ZM11.6602 12.4284C10.9617 13.2999 10.5803 14.383 10.5785 15.4999L10.9785 15.5005C10.9801 14.4744 11.3306 13.4792 11.9723 12.6785L11.6602 12.4284ZM10.5785 15.5002C10.5785 16.6266 10.4885 19.024 9.82869 21.2392C9.16582 23.4647 7.95314 25.4296 5.75808 25.8319L5.83018 26.2253C8.25926 25.7802 9.53877 23.6138 10.212 21.3533C10.8884 19.0826 10.9785 16.6395 10.9785 15.5002H10.5785ZM5.74565 25.8345C5.7294 25.8386 5.7129 25.8415 5.69626 25.8433L5.73794 26.2411C5.77323 26.2374 5.80821 26.2312 5.84262 26.2226L5.74565 25.8345ZM11.0271 29.0797C10.9687 29.0799 10.912 29.0599 10.8667 29.0231L10.6144 29.3335C10.7314 29.4285 10.8776 29.4802 11.0283 29.4797L11.0271 29.0797ZM10.8667 29.0231C10.8214 28.9862 10.7902 28.9348 10.7784 28.8776L10.3866 28.9582C10.417 29.1059 10.4975 29.2384 10.6144 29.3335L10.8667 29.0231ZM10.7784 28.8776C10.7666 28.8204 10.775 28.7609 10.8021 28.7092L10.4478 28.5235C10.3778 28.657 10.3562 28.8106 10.3866 28.9582L10.7784 28.8776ZM10.8021 28.7092C10.8292 28.6574 10.8734 28.6166 10.9271 28.5937L10.7704 28.2257C10.6317 28.2848 10.5177 28.39 10.4478 28.5235L10.8021 28.7092ZM10.9261 28.5942C12.5932 27.8946 13.9641 26.6355 14.8027 25.0338L14.4484 24.8483C13.6529 26.3675 12.3526 27.5617 10.7713 28.2253L10.9261 28.5942ZM14.801 25.0371C14.8332 24.9781 14.8875 24.9344 14.952 24.9156L14.8396 24.5317C14.6733 24.5804 14.5332 24.6931 14.4501 24.8451L14.801 25.0371ZM14.952 24.9156C15.0164 24.8967 15.0858 24.9042 15.1447 24.9364L15.3366 24.5855C15.1846 24.5024 15.0059 24.483 14.8396 24.5317L14.952 24.9156ZM15.1447 24.9364C15.2036 24.9686 15.2473 25.023 15.2662 25.0874L15.65 24.975C15.6014 24.8087 15.4886 24.6686 15.3366 24.5855L15.1447 24.9364ZM15.2662 25.0874C15.285 25.1519 15.2775 25.2212 15.2453 25.2801L15.5962 25.4721C15.6794 25.3201 15.6987 25.1413 15.65 24.975L15.2662 25.0874ZM15.2437 25.2831C14.3504 26.9838 12.8913 28.3192 11.1184 29.0589L11.2724 29.4281C13.1313 28.6525 14.6612 27.2523 15.5978 25.4691L15.2437 25.2831ZM11.1169 29.0595C11.0872 29.0722 11.0555 29.0791 11.0232 29.0798L11.0322 29.4797C11.1154 29.4778 11.1974 29.4601 11.2739 29.4274L11.1169 29.0595ZM16.1386 22.9671C16.104 22.9676 16.0697 22.9601 16.0384 22.9454L15.868 23.3072C15.9542 23.3479 16.0485 23.3683 16.1439 23.3671L16.1386 22.9671ZM16.0349 22.9438C16.0044 22.9301 15.9769 22.9105 15.954 22.8862L15.6626 23.1602C15.7217 23.223 15.7927 23.2736 15.8714 23.3088L16.0349 22.9438ZM15.954 22.8862C15.9311 22.8618 15.9132 22.8331 15.9015 22.8018L15.5271 22.9426C15.5574 23.0234 15.6035 23.0973 15.6626 23.1602L15.954 22.8862ZM15.9015 22.8018C15.8897 22.7705 15.8843 22.7372 15.8854 22.7038L15.4857 22.6896C15.4826 22.7758 15.4967 22.8618 15.5271 22.9426L15.9015 22.8018ZM15.8854 22.7038C15.8866 22.6704 15.8944 22.6375 15.9084 22.6071L15.5449 22.4402C15.5089 22.5186 15.4888 22.6034 15.4857 22.6896L15.8854 22.7038ZM15.9094 22.6048C16.9029 20.3671 17.4314 17.9509 17.4627 15.5028L17.0627 15.4977C17.0321 17.8916 16.5154 20.2543 15.5438 22.4425L15.9094 22.6048ZM17.4627 15.5002C17.4627 14.9791 17.2557 14.4793 16.8872 14.1108L16.6044 14.3936C16.8978 14.6871 17.0627 15.0852 17.0627 15.5002H17.4627ZM16.8872 14.1108C16.5187 13.7423 16.0189 13.5353 15.4978 13.5353V13.9353C15.9128 13.9353 16.3109 14.1002 16.6044 14.3936L16.8872 14.1108ZM15.4978 13.5353C14.9767 13.5353 14.4769 13.7423 14.1084 14.1108L14.3912 14.3936C14.6847 14.1002 15.0828 13.9353 15.4978 13.9353V13.5353ZM14.1084 14.1108C13.7399 14.4793 13.5329 14.9791 13.5329 15.5002H13.9329C13.9329 15.0852 14.0978 14.6871 14.3912 14.3936L14.1084 14.1108ZM13.5329 15.5002C13.5329 15.5673 13.5062 15.6317 13.4587 15.6792L13.7416 15.962C13.8641 15.8396 13.9329 15.6734 13.9329 15.5002H13.5329ZM13.4587 15.6792C13.4113 15.7267 13.3469 15.7533 13.2798 15.7533V16.1533C13.453 16.1533 13.6191 16.0845 13.7416 15.962L13.4587 15.6792ZM13.2798 15.7533C13.2126 15.7533 13.1482 15.7267 13.1008 15.6792L12.8179 15.962C12.9404 16.0845 13.1065 16.1533 13.2798 16.1533V15.7533ZM13.1008 15.6792C13.0533 15.6317 13.0266 15.5673 13.0266 15.5002H12.6266C12.6266 15.6734 12.6954 15.8396 12.8179 15.962L13.1008 15.6792ZM13.0266 15.5002C13.0266 14.8448 13.287 14.2163 13.7504 13.7528L13.4676 13.47C12.9291 14.0084 12.6266 14.7387 12.6266 15.5002H13.0266ZM13.7504 13.7528C14.2139 13.2894 14.8424 13.029 15.4978 13.029V12.629C14.7363 12.629 14.006 12.9315 13.4676 13.47L13.7504 13.7528ZM15.4978 13.029C16.1532 13.029 16.7818 13.2894 17.2452 13.7528L17.528 13.47C16.9896 12.9315 16.2593 12.629 15.4978 12.629V13.029ZM17.2452 13.7528C17.7086 14.2163 17.969 14.8448 17.969 15.5002H18.369C18.369 14.7387 18.0665 14.0084 17.528 13.47L17.2452 13.7528ZM17.969 15.4976C17.9358 18.0203 17.3914 20.5101 16.3685 22.8164L16.7341 22.9786C17.7789 20.6228 18.3351 18.0797 18.369 15.5028L17.969 15.4976ZM16.3685 22.8165C16.3488 22.8609 16.3167 22.8988 16.2761 22.9255L16.4958 23.2597C16.6006 23.1908 16.6834 23.0932 16.7342 22.9785L16.3685 22.8165ZM16.2761 22.9255C16.2354 22.9522 16.188 22.9666 16.1394 22.9671L16.1431 23.3671C16.2685 23.3659 16.391 23.3286 16.4958 23.2597L16.2761 22.9255ZM7.74713 27.478C7.67999 27.4795 7.61499 27.4543 7.56644 27.4079L7.29003 27.697C7.41526 27.8167 7.58292 27.8818 7.75613 27.8779L7.74713 27.478ZM7.56644 27.4079C7.51789 27.3615 7.48977 27.2977 7.48826 27.2305L7.08836 27.2395C7.09226 27.4127 7.1648 27.5773 7.29003 27.697L7.56644 27.4079ZM7.48826 27.2305C7.48675 27.1634 7.51197 27.0984 7.55838 27.0498L7.26925 26.7734C7.14953 26.8986 7.08446 27.0663 7.08836 27.2395L7.48826 27.2305ZM7.55838 27.0498C7.6048 27.0013 7.66859 26.9732 7.73574 26.9716L7.72674 26.5717C7.55353 26.5756 7.38897 26.6482 7.26925 26.7734L7.55838 27.0498ZM7.7411 26.9715C9.35519 26.8918 10.4722 25.8137 11.2379 24.3898C12.0032 22.9665 12.4397 21.161 12.6868 19.5359L12.2913 19.4758C12.0468 21.0837 11.6189 22.8364 10.8856 24.2004C10.1525 25.5637 9.13643 26.5021 7.72138 26.5719L7.7411 26.9715ZM12.687 19.5346C12.6919 19.5009 12.7035 19.4685 12.7212 19.4394L12.3794 19.2317C12.3337 19.3067 12.3037 19.3902 12.2911 19.4771L12.687 19.5346ZM12.7212 19.4394C12.7388 19.4104 12.7622 19.3851 12.7899 19.3653L12.5566 19.0404C12.4852 19.0916 12.425 19.1566 12.3794 19.2317L12.7212 19.4394ZM12.7899 19.3653C12.8175 19.3454 12.8489 19.3314 12.8821 19.3239L12.7945 18.9336C12.7088 18.9528 12.6279 18.9891 12.5566 19.0404L12.7899 19.3653ZM12.8821 19.3239C12.9153 19.3165 12.9497 19.3158 12.9831 19.3219L13.0553 18.9285C12.9689 18.9127 12.8802 18.9144 12.7945 18.9336L12.8821 19.3239ZM12.9876 19.3227C13.0536 19.3333 13.1128 19.3696 13.1521 19.4236L13.4755 19.1882C13.3739 19.0487 13.2213 18.955 13.0509 18.9277L12.9876 19.3227ZM13.1521 19.4236C13.1915 19.4777 13.2079 19.5452 13.1976 19.6113L13.593 19.6723C13.6193 19.5017 13.5771 19.3277 13.4755 19.1882L13.1521 19.4236ZM13.1977 19.611C12.8024 22.1525 12.1245 24.0917 11.2034 25.4078C10.2869 26.7174 9.13341 27.4069 7.76455 27.4737L7.78402 27.8732C9.29704 27.7994 10.5564 27.0299 11.5311 25.6372C12.5013 24.251 13.1929 22.2445 13.5929 19.6725L13.1977 19.611ZM7.73507 27.4773L7.71242 27.4818L7.79084 27.8741L7.8135 27.8695L7.73507 27.4773ZM28.5937 20.8487C28.5645 20.849 28.5357 20.8434 28.5088 20.8322L28.3557 21.2018C28.4322 21.2335 28.5143 21.2494 28.5971 21.2487L28.5937 20.8487ZM28.5046 20.8306C28.4736 20.8185 28.4453 20.8005 28.4213 20.7775L28.1448 21.0666C28.2068 21.1259 28.2799 21.1724 28.3599 21.2035L28.5046 20.8306ZM28.4213 20.7775C28.3972 20.7545 28.378 20.727 28.3646 20.6966L27.9985 20.8577C28.033 20.9363 28.0827 21.0072 28.1448 21.0666L28.4213 20.7775ZM28.3646 20.6966C28.3512 20.6661 28.3439 20.6333 28.3432 20.6001L27.9433 20.6088C27.9451 20.6946 27.9639 20.7792 27.9985 20.8577L28.3646 20.6966ZM28.3432 20.6001C28.3424 20.5668 28.3483 20.5338 28.3603 20.5028L27.9876 20.3577C27.9565 20.4376 27.9414 20.523 27.9433 20.6088L28.3432 20.6001ZM28.3604 20.5027C28.9802 18.9077 29.2968 17.211 29.2938 15.4999L28.8938 15.5006C28.8967 17.1619 28.5893 18.8092 27.9876 20.3578L28.3604 20.5027ZM29.2938 15.5002C29.2938 15.4331 29.3205 15.3687 29.368 15.3212L29.0851 15.0384C28.9626 15.1609 28.8938 15.327 28.8938 15.5002H29.2938ZM29.368 15.3212C29.4154 15.2738 29.4798 15.2471 29.5469 15.2471V14.8471C29.3737 14.8471 29.2076 14.9159 29.0851 15.0384L29.368 15.3212ZM29.5469 15.2471C29.6141 15.2471 29.6785 15.2738 29.7259 15.3212L30.0088 15.0384C29.8863 14.9159 29.7202 14.8471 29.5469 14.8471V15.2471ZM29.7259 15.3212C29.7734 15.3687 29.8001 15.4331 29.8001 15.5002H30.2001C30.2001 15.327 30.1313 15.1609 30.0088 15.0384L29.7259 15.3212ZM29.8001 15.5005C29.8025 17.2727 29.4744 19.0298 28.8326 20.6818L29.2055 20.8266C29.8653 19.1283 30.2026 17.3219 30.2001 15.4999L29.8001 15.5005ZM28.8317 20.6842C28.8137 20.7324 28.7814 20.774 28.7391 20.8034L28.9674 21.1319C29.0765 21.056 29.1599 20.9487 29.2064 20.8242L28.8317 20.6842ZM28.7391 20.8034C28.6968 20.8328 28.6465 20.8486 28.595 20.8487L28.5957 21.2487C28.7286 21.2485 28.8583 21.2077 28.9674 21.1319L28.7391 20.8034Z" fill="white" mask="url(#path-1-outside-1_3020_3443)"/>
</svg>
