<svg width="22" height="23" viewBox="0 0 22 23" fill="none" xmlns="http://www.w3.org/2000/svg">
<path d="M21.1133 5.03125H17.8379C18.0859 4.60647 18.2383 4.11987 18.2383 3.59375C18.2383 1.0925 16.4371 0.71875 15.3633 0.71875C14.0767 0.71875 12.1023 2.45022 11.0508 4.01709C9.99925 2.45022 8.02484 0.71875 6.73828 0.71875C5.66447 0.71875 3.86328 1.0925 3.86328 3.59375C3.86328 4.11987 4.01566 4.60647 4.26363 5.03125H0.988281C0.591531 5.03125 0.269531 5.35325 0.269531 5.75V10.0625C0.269531 10.4593 0.591531 10.7812 0.988281 10.7812H1.70703V21.5625C1.70703 21.9592 2.02903 22.2812 2.42578 22.2812H19.6758C20.0732 22.2812 20.3945 21.9592 20.3945 21.5625V10.7812H21.1133C21.5107 10.7812 21.832 10.4593 21.832 10.0625V5.75C21.832 5.35325 21.5107 5.03125 21.1133 5.03125ZM15.3633 2.15625C16.5722 2.15625 16.8008 2.66153 16.8008 3.59375C16.8008 4.38653 16.1561 5.03125 15.3633 5.03125H12.0685C12.7801 3.90281 14.5705 2.15625 15.3633 2.15625ZM12.4883 9.34375H9.61328V6.46875H11.0508H12.4883V9.34375ZM5.30078 3.59375C5.30078 2.66153 5.53006 2.15625 6.73828 2.15625C7.53106 2.15625 9.32147 3.90281 10.0323 5.03125H6.73828C5.9455 5.03125 5.30078 4.38653 5.30078 3.59375ZM1.70703 6.46875H8.17578V9.34375H1.70703V6.46875ZM3.14453 10.7812H8.17578V20.8438H3.14453V10.7812ZM9.61328 20.8438V10.7812H12.4883V20.8438H9.61328ZM18.957 20.8438H13.9258V10.7812H18.957V20.8438ZM20.3945 9.34375H13.9258V6.46875H20.3945V9.34375Z" fill="white"/>
</svg>
