<svg width="24" height="24" viewBox="0 0 24 24" fill="none" xmlns="http://www.w3.org/2000/svg">
<path d="M22.9785 11.9162C23.3303 10.9561 23.5304 9.80001 23.6024 8.95426C23.6382 8.53159 23.325 8.16011 22.9023 8.12392C22.4776 8.09397 22.1077 8.40179 22.072 8.82446C22.025 9.37289 21.9151 10.0579 21.7512 10.6889L17.3786 6.31639C16.7247 5.66244 15.7388 5.32878 14.6701 5.39244C13.6983 5.45277 12.7669 5.84089 12.1791 6.42912L10.1744 8.43301C9.65647 8.95051 9.03374 9.1606 8.46796 9.00835C8.05486 8.89768 7.73953 8.60898 7.6447 8.25498C7.53694 7.85355 7.72331 7.38761 8.16885 6.94207L10.4123 4.69776C10.9906 4.11975 11.6389 3.64294 12.328 3.27413C12.3508 3.26344 12.3733 3.25191 12.395 3.23897C14.1165 2.33856 16.0852 2.1114 17.8549 2.67329L22.6893 7.507C22.8395 7.65677 23.0354 7.73162 23.2322 7.73162C23.4285 7.73162 23.6253 7.65714 23.7751 7.507C24.075 7.20705 24.075 6.72077 23.7751 6.42082L18.8371 1.48347C18.8224 1.4673 18.8067 1.45192 18.7906 1.43697L17.6878 0.334385C17.3883 0.0344342 16.902 0.0344342 16.6016 0.334385C16.459 0.476978 16.385 0.661757 16.3781 0.848553C14.8989 0.757288 13.3886 1.06099 12.0018 1.72019C10.6029 1.05457 9.08952 0.759304 7.62206 0.850053C7.61536 0.662836 7.54134 0.477493 7.39842 0.334338C7.09847 0.0343873 6.61219 0.0343873 6.31224 0.334338L0.224963 6.42082C-0.0749877 6.72035 -0.0749877 7.20663 0.224963 7.507C0.375149 7.65677 0.571507 7.73162 0.76824 7.73162C0.964598 7.73162 1.16138 7.65714 1.3111 7.507L6.14537 2.67343C7.47811 2.2509 8.95283 2.27246 10.3556 2.71773C9.99593 2.98833 9.6515 3.28641 9.32619 3.61158L7.08272 5.85589C5.93622 7.00197 6.01318 8.09978 6.16089 8.65224C6.3976 9.53456 7.12889 10.2397 8.07032 10.4918C9.18228 10.7892 10.3442 10.4344 11.2602 9.51919L13.2653 7.51492C13.591 7.18877 14.1664 6.96288 14.7654 6.92543C15.3923 6.88423 15.9501 7.05982 16.2917 7.40214L22.0158 13.1263C22.376 13.4865 22.5142 13.8718 22.4152 14.2407C22.3228 14.5869 22.0329 14.8718 21.6776 14.9671C21.2957 15.0702 20.908 14.9384 20.5565 14.5864L20.2516 14.2815C20.2474 14.2773 20.2428 14.2738 20.2386 14.2697L18.3721 12.4033C18.0726 12.1033 17.5863 12.1033 17.2863 12.4033C16.986 12.7032 16.986 13.1891 17.2863 13.4895L19.1654 15.3685C19.1682 15.3713 19.1712 15.3736 19.174 15.3763L19.4708 15.6727C19.4716 15.6735 19.4724 15.6743 19.4732 15.6751C19.8809 16.0841 20.0448 16.5367 19.9337 16.9502C19.8397 17.2996 19.5531 17.5858 19.2024 17.6798C18.7868 17.7913 18.333 17.627 17.9236 17.2176L17.6195 16.9139C17.6168 16.9112 17.6138 16.9089 17.611 16.9062L15.7405 15.0357C15.4409 14.7358 14.9547 14.7358 14.6547 15.0357C14.3543 15.3357 14.3543 15.8215 14.6547 16.1219L16.5338 18.001C16.5358 18.003 16.538 18.0046 16.5401 18.0066C17.2499 18.7212 17.2395 19.5481 16.8611 19.9974C16.5525 20.3642 16.0999 20.3788 15.6198 20.0406C15.3594 19.8567 15.0125 19.853 14.7479 20.0311C14.4838 20.2091 14.3564 20.5319 14.4288 20.8423C14.6064 21.604 14.1946 22.0811 13.7507 22.2742C13.3613 22.4435 13.1833 22.8952 13.3522 23.2846C13.4774 23.5737 13.7599 23.7468 14.0569 23.7468C14.1588 23.7468 14.2624 23.726 14.3618 23.6819C15.1988 23.3188 15.7567 22.6266 15.9402 21.8004C16.7971 21.9277 17.558 21.5533 18.0355 20.9863C18.4237 20.5254 18.6579 19.9043 18.6566 19.2341C18.9711 19.2699 19.2885 19.2466 19.5997 19.1629C20.4841 18.9262 21.1805 18.2307 21.4172 17.3475C21.4892 17.0792 21.5158 16.8067 21.4992 16.5359C21.6909 16.5297 21.8835 16.5018 22.0749 16.4506C22.9643 16.2127 23.6632 15.5184 23.8991 14.6386C24.1412 13.7358 23.8509 12.789 23.1025 12.0402L22.9785 11.9162Z" fill="white"/>
<path d="M13.995 19.6573C13.7571 18.7674 13.0623 18.0685 12.1825 17.8331C12.0368 17.7938 11.8899 17.7688 11.7428 17.7571C11.767 17.4721 11.742 17.1829 11.6654 16.8971C11.4274 16.0073 10.7331 15.308 9.8533 15.0725C9.63898 15.0149 9.42228 14.9877 9.20638 14.9892C9.20497 14.669 9.14094 14.3473 9.01171 14.035C8.61735 13.0828 7.67845 12.4434 6.67506 12.4434C6.66737 12.4434 6.65945 12.4435 6.65162 12.4436C6.64637 11.7489 6.35542 11.0989 5.89923 10.6429C5.02465 9.76751 3.50441 9.51851 2.24948 10.6947C2.08528 10.0629 1.97512 9.37474 1.92811 8.8242C1.89234 8.40196 1.52461 8.09413 1.09777 8.12408C0.675102 8.16027 0.361464 8.53175 0.397651 8.95484C0.469744 9.80144 0.669665 10.9597 1.02122 11.9177L0.898085 12.0407C0.149309 12.7891 -0.141079 13.7363 0.101029 14.639C0.33648 15.5185 1.03538 16.2132 1.92478 16.4511C2.13698 16.5079 2.35078 16.5361 2.56377 16.537C2.56115 16.8586 2.62274 17.1806 2.75179 17.4919C3.14488 18.4407 4.09193 19.0789 5.11071 19.0829C5.10911 19.2991 5.13616 19.516 5.19368 19.7304C5.42913 20.6098 6.12803 21.3046 7.01743 21.5425C7.23375 21.6007 7.45088 21.629 7.66763 21.629C7.76137 21.629 7.85484 21.6233 7.94784 21.6127C8.00869 22.1983 8.27789 22.736 8.67932 23.1375C9.13939 23.598 9.79709 23.8908 10.4993 23.8908C11.1508 23.8908 11.8409 23.6383 12.4462 23.0334L13.2171 22.2622C13.9567 21.5222 14.2404 20.5729 13.995 19.6573ZM2.32289 14.9681C1.9672 14.8733 1.67766 14.5879 1.58489 14.2418C1.48589 13.8728 1.62399 13.4871 1.98384 13.1273L3.24847 11.8643C3.87495 11.2374 4.46778 11.3843 4.81348 11.7292C5.18275 12.0989 5.29455 12.732 4.71499 13.3167C4.71288 13.3188 4.71077 13.3207 4.70866 13.3229L3.44488 14.5866C3.44286 14.5887 3.44099 14.5907 3.43902 14.5927C3.08929 14.9405 2.70281 15.0708 2.32289 14.9681ZM4.17036 16.9042C4.00789 16.5114 4.13136 16.0793 4.51727 15.6864C4.52168 15.6821 4.52623 15.678 4.53063 15.6737C4.53481 15.6695 4.53832 15.6649 4.54235 15.6607L5.78186 14.4212C5.78612 14.4171 5.79067 14.4136 5.79484 14.4094C5.79986 14.4044 5.80436 14.3993 5.80928 14.3943C6.08664 14.1228 6.38546 13.9793 6.67468 13.9793C7.06407 13.9793 7.43306 14.2376 7.59239 14.6224C7.69139 14.8625 7.78003 15.3433 7.25419 15.8692L5.98998 17.1338C5.71919 17.4042 5.41881 17.5473 5.12013 17.5473C4.71738 17.5473 4.32715 17.2827 4.17036 16.9042ZM7.41553 20.0591C7.06027 19.9643 6.77073 19.6789 6.67796 19.3332C6.57943 18.966 6.71593 18.5827 7.0719 18.2244C7.0734 18.2229 7.07499 18.2215 7.07649 18.22L8.33681 16.9592C8.33821 16.9579 8.33971 16.9568 8.34112 16.9554C8.7014 16.5955 9.08699 16.4566 9.45556 16.556C9.80169 16.6483 10.0866 16.9383 10.1819 17.294C10.2842 17.6763 10.1528 18.0636 9.80164 18.4147L9.65619 18.5601C9.63209 18.5829 9.60819 18.6061 9.58447 18.6298C9.57795 18.6363 9.57242 18.6434 9.56619 18.6501L8.82801 19.388C8.82346 19.3924 8.81854 19.3961 8.81404 19.4006C8.80396 19.4107 8.79482 19.4209 8.78498 19.431L8.53701 19.679C8.18597 20.03 7.79784 20.1619 7.41553 20.0591ZM12.1309 21.1761L11.3596 21.9474C10.7722 22.5347 10.1358 22.4224 9.76508 22.0518C9.42819 21.7153 9.28124 21.1437 9.8539 20.5349L10.7104 19.6787C11.0587 19.347 11.428 19.2221 11.7847 19.3175C12.1308 19.4098 12.4158 19.6998 12.511 20.055C12.6135 20.4377 12.482 20.825 12.1309 21.1761Z" fill="white"/>
</svg>
