<svg width="17" height="17" viewBox="0 0 17 17" fill="none" xmlns="http://www.w3.org/2000/svg">
<path fill-rule="evenodd" clip-rule="evenodd" d="M7.56164 1.70534e-08C6.35576 0.000102747 5.16739 0.28857 4.09567 0.841333C3.02396 1.3941 2.09997 2.19513 1.40081 3.1776C0.701652 4.16007 0.247586 5.29549 0.0764994 6.48912C-0.0945875 7.68276 0.0222654 8.9 0.417309 10.0393C0.812353 11.1786 1.47413 12.2069 2.34743 13.0384C3.22074 13.8699 4.28024 14.4806 5.43754 14.8194C6.59484 15.1582 7.81639 15.2153 9.00027 14.986C10.1841 14.7567 11.296 14.2477 12.2431 13.5013L15.4922 16.7503C15.66 16.9123 15.8848 17.002 16.1181 17C16.3513 16.9979 16.5745 16.9044 16.7394 16.7394C16.9044 16.5745 16.9979 16.3513 17 16.1181C17.002 15.8848 16.9123 15.6601 16.7503 15.4923L13.5011 12.2433C14.3801 11.1282 14.9274 9.78825 15.0804 8.37667C15.2334 6.96509 14.9858 5.53896 14.3661 4.26149C13.7464 2.98402 12.7795 1.90683 11.5761 1.15319C10.3728 0.399546 8.98154 -9.53197e-05 7.56164 1.70534e-08ZM1.77872 7.562C1.77872 6.02833 2.38799 4.55747 3.4725 3.47301C4.557 2.38854 6.02791 1.77929 7.56164 1.77929C9.09537 1.77929 10.5663 2.38854 11.6508 3.47301C12.7353 4.55747 13.3446 6.02833 13.3446 7.562C13.3446 9.09566 12.7353 10.5665 11.6508 11.651C10.5663 12.7355 9.09537 13.3447 7.56164 13.3447C6.02791 13.3447 4.557 12.7355 3.4725 11.651C2.38799 10.5665 1.77872 9.09566 1.77872 7.562Z" fill="#787CA5"/>
</svg>
