<svg width="25" height="26" viewBox="0 0 25 26" fill="none" xmlns="http://www.w3.org/2000/svg">
<g id="Frame 107">
<g id="Vector">
<mask id="path-1-outside-1_2016_14271" maskUnits="userSpaceOnUse" x="0" y="2" width="24" height="23" fill="black">
<rect fill="white" y="2" width="24" height="23"/>
<path d="M14.5907 21.455C14.0493 21.455 13.538 21.2141 13.0437 20.9811C12.6651 20.8027 12.2738 20.6182 12.0001 20.6182C11.7265 20.6182 11.3351 20.8027 10.9566 20.9811C10.4622 21.2141 9.95101 21.455 9.4096 21.455C9.23966 21.455 9.07547 21.4305 8.92152 21.3822C8.18478 21.1511 7.81146 20.4675 7.48202 19.8643C7.29236 19.5171 7.09629 19.158 6.89494 19.0164C6.68822 18.8711 6.26966 18.8003 5.86485 18.7319C5.17443 18.6151 4.3918 18.4829 3.94153 17.8852C3.49521 17.2927 3.60504 16.5367 3.70189 15.8696C3.75951 15.4729 3.81915 15.0628 3.73786 14.8212C3.66391 14.6011 3.37567 14.3149 3.09685 14.0381C2.60108 13.5458 2.039 12.9877 2.039 12.2275C2.039 11.4673 2.60108 10.9093 3.09685 10.417C3.37563 10.1402 3.66391 9.85405 3.7379 9.63387C3.81907 9.39231 3.75947 8.98221 3.70185 8.58551C3.60495 7.91849 3.49513 7.16246 3.9414 6.56991C4.3918 5.97213 5.17443 5.83987 5.86485 5.72314C6.26966 5.65473 6.68813 5.58403 6.89494 5.43861C7.09629 5.2971 7.29236 4.93801 7.48194 4.59072C7.81134 3.98754 8.18469 3.30387 8.92143 3.07273C9.07539 3.02445 9.23953 3 9.40951 3C9.95092 3 10.4622 3.24086 10.9566 3.47387C11.3352 3.65224 11.7265 3.83673 12.0001 3.83673C12.2737 3.83673 12.6651 3.65224 13.0436 3.47387C13.538 3.2409 14.0492 3 14.5906 3C14.7606 3 14.9248 3.02445 15.0787 3.07273C15.8155 3.30387 16.1888 3.98754 16.5182 4.59072C16.7078 4.93797 16.9039 5.29701 17.1052 5.43861C17.3121 5.58403 17.7306 5.65473 18.1353 5.72314C18.8257 5.83987 19.6084 5.97213 20.0586 6.56983C20.5049 7.16234 20.3951 7.91836 20.2983 8.58543C20.2406 8.98212 20.181 9.39227 20.2623 9.63383C20.3362 9.85401 20.6246 10.1402 20.9033 10.417C21.3991 10.9093 21.9611 11.4673 21.9611 12.2275C21.9611 12.9877 21.399 13.5458 20.9033 14.0381C20.6245 14.3148 20.3362 14.601 20.2622 14.8212C20.181 15.0627 20.2406 15.4729 20.2983 15.8695C20.3952 16.5365 20.505 17.2926 20.0587 17.8851C19.6083 18.4828 18.8257 18.6151 18.1353 18.7319C17.7305 18.8003 17.312 18.871 17.1052 19.0164C16.9039 19.1579 16.7078 19.517 16.5183 19.8643C16.1889 20.4675 15.8155 21.1511 15.0788 21.3823C14.9249 21.4305 14.7607 21.455 14.5907 21.455ZM12.0001 19.3856C12.5682 19.3856 13.0943 19.6335 13.603 19.8732C13.9672 20.0448 14.3438 20.2223 14.5907 20.2223C14.6271 20.2223 14.6579 20.2182 14.6847 20.2098C14.9287 20.1333 15.1736 19.6848 15.3897 19.2891C15.6473 18.8174 15.9136 18.3296 16.3544 18.0196C16.8006 17.706 17.3674 17.6102 17.9155 17.5176C18.3678 17.4411 18.8804 17.3545 19.0272 17.1597C19.1698 16.9703 19.0981 16.4765 19.0348 16.0408C18.957 15.5058 18.8766 14.9525 19.0488 14.4404C19.2146 13.9471 19.6082 13.5563 19.9888 13.1783C20.3152 12.8542 20.6852 12.4869 20.6852 12.2275C20.6852 11.9681 20.3152 11.6008 19.9888 11.2767C19.6081 10.8987 19.2145 10.5079 19.0488 10.0145C18.8767 9.50252 18.957 8.9492 19.0348 8.41415C19.098 7.97851 19.1698 7.48472 19.0271 7.2953C18.8804 7.10052 18.3678 7.01393 17.9155 6.93751C17.3674 6.84485 16.8006 6.74908 16.3544 6.43541C15.9136 6.12544 15.6472 5.63771 15.3896 5.166C15.1736 4.77034 14.9286 4.32188 14.6846 4.24525C14.6579 4.23687 14.6271 4.23276 14.5906 4.23276C14.3438 4.23276 13.9672 4.41022 13.603 4.58188C13.0943 4.82157 12.5683 5.06948 12.0001 5.06948C11.4319 5.06948 10.9059 4.82165 10.3971 4.58188C10.0329 4.41026 9.65633 4.23276 9.40951 4.23276C9.37308 4.23276 9.34227 4.23682 9.31545 4.24525C9.07148 4.3218 8.82656 4.77034 8.61047 5.166C8.35291 5.63771 8.08655 6.12544 7.64578 6.43541C7.19963 6.74908 6.63283 6.84485 6.08468 6.93751C5.63239 7.01393 5.11977 7.10061 4.97304 7.29538C4.83038 7.48481 4.90214 7.97856 4.96539 8.41423C5.04316 8.94929 5.12356 9.50261 4.95142 10.0146C4.78561 10.5079 4.39197 10.8988 4.01135 11.2767C3.68496 11.6008 3.315 11.9681 3.315 12.2276C3.315 12.4871 3.68496 12.8544 4.01135 13.1785C4.39206 13.5564 4.78569 13.9473 4.95142 14.4405C5.12347 14.9526 5.04316 15.5059 4.96539 16.041C4.90218 16.4766 4.83038 16.9704 4.97312 17.1598C5.11977 17.3546 5.63243 17.4412 6.08468 17.5176C6.63283 17.6103 7.19963 17.7061 7.64569 18.0197C8.08659 18.3297 8.35296 18.8174 8.61051 19.2891C8.8266 19.6848 9.07152 20.1333 9.3155 20.2099C9.34231 20.2183 9.37303 20.2224 9.40956 20.2224C9.65633 20.2224 10.0329 20.0449 10.3971 19.8733C10.9059 19.6335 11.4318 19.3856 12.0001 19.3856Z"/>
<path d="M12.0001 17.7748C8.834 17.7748 6.25815 15.2863 6.25815 12.2275C6.25815 9.16868 8.83395 6.68017 12.0001 6.68017C13.2819 6.68017 14.4945 7.07932 15.5067 7.83456C16.9272 8.89429 17.7419 10.4955 17.7419 12.2275C17.7419 15.2863 15.1661 17.7748 12.0001 17.7748ZM12.0001 7.91297C9.53757 7.91297 7.53415 9.84849 7.53415 12.2275C7.53415 14.6066 9.53757 16.5421 12.0001 16.5421C14.4626 16.5421 16.466 14.6066 16.466 12.2275C16.466 10.8803 15.8321 9.63487 14.7268 8.81027C13.9401 8.22328 12.9971 7.91297 12.0001 7.91297Z"/>
<path d="M5.87497 23.9999C5.52189 23.9999 5.21192 23.7943 5.08533 23.4762L4.10109 21.004L1.54213 20.0532C1.27392 19.9535 1.07824 19.7319 1.0186 19.4604C0.95896 19.1888 1.04468 18.9094 1.24788 18.7132L4.43119 15.6775L4.90214 17.8224L9.81345 20.5848L6.47219 23.7606C6.31243 23.9149 6.10038 23.9999 5.87497 23.9999ZM2.61863 19.1324L4.73776 19.9199C4.96059 20.0026 5.1378 20.1737 5.22348 20.3892L6.03838 22.4363L8.80428 19.8048L5.44036 17.9199L4.73776 16.9449L2.61863 19.1324Z"/>
<path d="M18.1245 24C17.9028 24 17.6886 23.9157 17.5279 23.7606L16.4112 22.6818L17.3135 21.8101L17.9617 22.4363L18.7767 20.389C18.8624 20.1736 19.0395 20.0025 19.2626 19.9197L21.3814 19.1324L19.2626 17.3349L19.4006 15.8725L22.7522 18.7133C22.9553 18.9096 23.041 19.1888 22.9814 19.4603C22.9218 19.7319 22.7261 19.9535 22.4579 20.0532L19.899 21.0041L18.9147 23.4763C18.8116 23.7353 18.5822 23.9244 18.3012 23.9821C18.2424 23.9941 18.1831 24 18.1245 24Z"/>
</mask>
<path d="M14.5907 21.455C14.0493 21.455 13.538 21.2141 13.0437 20.9811C12.6651 20.8027 12.2738 20.6182 12.0001 20.6182C11.7265 20.6182 11.3351 20.8027 10.9566 20.9811C10.4622 21.2141 9.95101 21.455 9.4096 21.455C9.23966 21.455 9.07547 21.4305 8.92152 21.3822C8.18478 21.1511 7.81146 20.4675 7.48202 19.8643C7.29236 19.5171 7.09629 19.158 6.89494 19.0164C6.68822 18.8711 6.26966 18.8003 5.86485 18.7319C5.17443 18.6151 4.3918 18.4829 3.94153 17.8852C3.49521 17.2927 3.60504 16.5367 3.70189 15.8696C3.75951 15.4729 3.81915 15.0628 3.73786 14.8212C3.66391 14.6011 3.37567 14.3149 3.09685 14.0381C2.60108 13.5458 2.039 12.9877 2.039 12.2275C2.039 11.4673 2.60108 10.9093 3.09685 10.417C3.37563 10.1402 3.66391 9.85405 3.7379 9.63387C3.81907 9.39231 3.75947 8.98221 3.70185 8.58551C3.60495 7.91849 3.49513 7.16246 3.9414 6.56991C4.3918 5.97213 5.17443 5.83987 5.86485 5.72314C6.26966 5.65473 6.68813 5.58403 6.89494 5.43861C7.09629 5.2971 7.29236 4.93801 7.48194 4.59072C7.81134 3.98754 8.18469 3.30387 8.92143 3.07273C9.07539 3.02445 9.23953 3 9.40951 3C9.95092 3 10.4622 3.24086 10.9566 3.47387C11.3352 3.65224 11.7265 3.83673 12.0001 3.83673C12.2737 3.83673 12.6651 3.65224 13.0436 3.47387C13.538 3.2409 14.0492 3 14.5906 3C14.7606 3 14.9248 3.02445 15.0787 3.07273C15.8155 3.30387 16.1888 3.98754 16.5182 4.59072C16.7078 4.93797 16.9039 5.29701 17.1052 5.43861C17.3121 5.58403 17.7306 5.65473 18.1353 5.72314C18.8257 5.83987 19.6084 5.97213 20.0586 6.56983C20.5049 7.16234 20.3951 7.91836 20.2983 8.58543C20.2406 8.98212 20.181 9.39227 20.2623 9.63383C20.3362 9.85401 20.6246 10.1402 20.9033 10.417C21.3991 10.9093 21.9611 11.4673 21.9611 12.2275C21.9611 12.9877 21.399 13.5458 20.9033 14.0381C20.6245 14.3148 20.3362 14.601 20.2622 14.8212C20.181 15.0627 20.2406 15.4729 20.2983 15.8695C20.3952 16.5365 20.505 17.2926 20.0587 17.8851C19.6083 18.4828 18.8257 18.6151 18.1353 18.7319C17.7305 18.8003 17.312 18.871 17.1052 19.0164C16.9039 19.1579 16.7078 19.517 16.5183 19.8643C16.1889 20.4675 15.8155 21.1511 15.0788 21.3823C14.9249 21.4305 14.7607 21.455 14.5907 21.455ZM12.0001 19.3856C12.5682 19.3856 13.0943 19.6335 13.603 19.8732C13.9672 20.0448 14.3438 20.2223 14.5907 20.2223C14.6271 20.2223 14.6579 20.2182 14.6847 20.2098C14.9287 20.1333 15.1736 19.6848 15.3897 19.2891C15.6473 18.8174 15.9136 18.3296 16.3544 18.0196C16.8006 17.706 17.3674 17.6102 17.9155 17.5176C18.3678 17.4411 18.8804 17.3545 19.0272 17.1597C19.1698 16.9703 19.0981 16.4765 19.0348 16.0408C18.957 15.5058 18.8766 14.9525 19.0488 14.4404C19.2146 13.9471 19.6082 13.5563 19.9888 13.1783C20.3152 12.8542 20.6852 12.4869 20.6852 12.2275C20.6852 11.9681 20.3152 11.6008 19.9888 11.2767C19.6081 10.8987 19.2145 10.5079 19.0488 10.0145C18.8767 9.50252 18.957 8.9492 19.0348 8.41415C19.098 7.97851 19.1698 7.48472 19.0271 7.2953C18.8804 7.10052 18.3678 7.01393 17.9155 6.93751C17.3674 6.84485 16.8006 6.74908 16.3544 6.43541C15.9136 6.12544 15.6472 5.63771 15.3896 5.166C15.1736 4.77034 14.9286 4.32188 14.6846 4.24525C14.6579 4.23687 14.6271 4.23276 14.5906 4.23276C14.3438 4.23276 13.9672 4.41022 13.603 4.58188C13.0943 4.82157 12.5683 5.06948 12.0001 5.06948C11.4319 5.06948 10.9059 4.82165 10.3971 4.58188C10.0329 4.41026 9.65633 4.23276 9.40951 4.23276C9.37308 4.23276 9.34227 4.23682 9.31545 4.24525C9.07148 4.3218 8.82656 4.77034 8.61047 5.166C8.35291 5.63771 8.08655 6.12544 7.64578 6.43541C7.19963 6.74908 6.63283 6.84485 6.08468 6.93751C5.63239 7.01393 5.11977 7.10061 4.97304 7.29538C4.83038 7.48481 4.90214 7.97856 4.96539 8.41423C5.04316 8.94929 5.12356 9.50261 4.95142 10.0146C4.78561 10.5079 4.39197 10.8988 4.01135 11.2767C3.68496 11.6008 3.315 11.9681 3.315 12.2276C3.315 12.4871 3.68496 12.8544 4.01135 13.1785C4.39206 13.5564 4.78569 13.9473 4.95142 14.4405C5.12347 14.9526 5.04316 15.5059 4.96539 16.041C4.90218 16.4766 4.83038 16.9704 4.97312 17.1598C5.11977 17.3546 5.63243 17.4412 6.08468 17.5176C6.63283 17.6103 7.19963 17.7061 7.64569 18.0197C8.08659 18.3297 8.35296 18.8174 8.61051 19.2891C8.8266 19.6848 9.07152 20.1333 9.3155 20.2099C9.34231 20.2183 9.37303 20.2224 9.40956 20.2224C9.65633 20.2224 10.0329 20.0449 10.3971 19.8733C10.9059 19.6335 11.4318 19.3856 12.0001 19.3856Z" fill="url(#paint0_linear_2016_14271)"/>
<path d="M12.0001 17.7748C8.834 17.7748 6.25815 15.2863 6.25815 12.2275C6.25815 9.16868 8.83395 6.68017 12.0001 6.68017C13.2819 6.68017 14.4945 7.07932 15.5067 7.83456C16.9272 8.89429 17.7419 10.4955 17.7419 12.2275C17.7419 15.2863 15.1661 17.7748 12.0001 17.7748ZM12.0001 7.91297C9.53757 7.91297 7.53415 9.84849 7.53415 12.2275C7.53415 14.6066 9.53757 16.5421 12.0001 16.5421C14.4626 16.5421 16.466 14.6066 16.466 12.2275C16.466 10.8803 15.8321 9.63487 14.7268 8.81027C13.9401 8.22328 12.9971 7.91297 12.0001 7.91297Z" fill="url(#paint1_linear_2016_14271)"/>
<path d="M5.87497 23.9999C5.52189 23.9999 5.21192 23.7943 5.08533 23.4762L4.10109 21.004L1.54213 20.0532C1.27392 19.9535 1.07824 19.7319 1.0186 19.4604C0.95896 19.1888 1.04468 18.9094 1.24788 18.7132L4.43119 15.6775L4.90214 17.8224L9.81345 20.5848L6.47219 23.7606C6.31243 23.9149 6.10038 23.9999 5.87497 23.9999ZM2.61863 19.1324L4.73776 19.9199C4.96059 20.0026 5.1378 20.1737 5.22348 20.3892L6.03838 22.4363L8.80428 19.8048L5.44036 17.9199L4.73776 16.9449L2.61863 19.1324Z" fill="url(#paint2_linear_2016_14271)"/>
<path d="M18.1245 24C17.9028 24 17.6886 23.9157 17.5279 23.7606L16.4112 22.6818L17.3135 21.8101L17.9617 22.4363L18.7767 20.389C18.8624 20.1736 19.0395 20.0025 19.2626 19.9197L21.3814 19.1324L19.2626 17.3349L19.4006 15.8725L22.7522 18.7133C22.9553 18.9096 23.041 19.1888 22.9814 19.4603C22.9218 19.7319 22.7261 19.9535 22.4579 20.0532L19.899 21.0041L18.9147 23.4763C18.8116 23.7353 18.5822 23.9244 18.3012 23.9821C18.2424 23.9941 18.1831 24 18.1245 24Z" fill="url(#paint3_linear_2016_14271)"/>
<path d="M14.5907 21.455C14.0493 21.455 13.538 21.2141 13.0437 20.9811C12.6651 20.8027 12.2738 20.6182 12.0001 20.6182C11.7265 20.6182 11.3351 20.8027 10.9566 20.9811C10.4622 21.2141 9.95101 21.455 9.4096 21.455C9.23966 21.455 9.07547 21.4305 8.92152 21.3822C8.18478 21.1511 7.81146 20.4675 7.48202 19.8643C7.29236 19.5171 7.09629 19.158 6.89494 19.0164C6.68822 18.8711 6.26966 18.8003 5.86485 18.7319C5.17443 18.6151 4.3918 18.4829 3.94153 17.8852C3.49521 17.2927 3.60504 16.5367 3.70189 15.8696C3.75951 15.4729 3.81915 15.0628 3.73786 14.8212C3.66391 14.6011 3.37567 14.3149 3.09685 14.0381C2.60108 13.5458 2.039 12.9877 2.039 12.2275C2.039 11.4673 2.60108 10.9093 3.09685 10.417C3.37563 10.1402 3.66391 9.85405 3.7379 9.63387C3.81907 9.39231 3.75947 8.98221 3.70185 8.58551C3.60495 7.91849 3.49513 7.16246 3.9414 6.56991C4.3918 5.97213 5.17443 5.83987 5.86485 5.72314C6.26966 5.65473 6.68813 5.58403 6.89494 5.43861C7.09629 5.2971 7.29236 4.93801 7.48194 4.59072C7.81134 3.98754 8.18469 3.30387 8.92143 3.07273C9.07539 3.02445 9.23953 3 9.40951 3C9.95092 3 10.4622 3.24086 10.9566 3.47387C11.3352 3.65224 11.7265 3.83673 12.0001 3.83673C12.2737 3.83673 12.6651 3.65224 13.0436 3.47387C13.538 3.2409 14.0492 3 14.5906 3C14.7606 3 14.9248 3.02445 15.0787 3.07273C15.8155 3.30387 16.1888 3.98754 16.5182 4.59072C16.7078 4.93797 16.9039 5.29701 17.1052 5.43861C17.3121 5.58403 17.7306 5.65473 18.1353 5.72314C18.8257 5.83987 19.6084 5.97213 20.0586 6.56983C20.5049 7.16234 20.3951 7.91836 20.2983 8.58543C20.2406 8.98212 20.181 9.39227 20.2623 9.63383C20.3362 9.85401 20.6246 10.1402 20.9033 10.417C21.3991 10.9093 21.9611 11.4673 21.9611 12.2275C21.9611 12.9877 21.399 13.5458 20.9033 14.0381C20.6245 14.3148 20.3362 14.601 20.2622 14.8212C20.181 15.0627 20.2406 15.4729 20.2983 15.8695C20.3952 16.5365 20.505 17.2926 20.0587 17.8851C19.6083 18.4828 18.8257 18.6151 18.1353 18.7319C17.7305 18.8003 17.312 18.871 17.1052 19.0164C16.9039 19.1579 16.7078 19.517 16.5183 19.8643C16.1889 20.4675 15.8155 21.1511 15.0788 21.3823C14.9249 21.4305 14.7607 21.455 14.5907 21.455ZM12.0001 19.3856C12.5682 19.3856 13.0943 19.6335 13.603 19.8732C13.9672 20.0448 14.3438 20.2223 14.5907 20.2223C14.6271 20.2223 14.6579 20.2182 14.6847 20.2098C14.9287 20.1333 15.1736 19.6848 15.3897 19.2891C15.6473 18.8174 15.9136 18.3296 16.3544 18.0196C16.8006 17.706 17.3674 17.6102 17.9155 17.5176C18.3678 17.4411 18.8804 17.3545 19.0272 17.1597C19.1698 16.9703 19.0981 16.4765 19.0348 16.0408C18.957 15.5058 18.8766 14.9525 19.0488 14.4404C19.2146 13.9471 19.6082 13.5563 19.9888 13.1783C20.3152 12.8542 20.6852 12.4869 20.6852 12.2275C20.6852 11.9681 20.3152 11.6008 19.9888 11.2767C19.6081 10.8987 19.2145 10.5079 19.0488 10.0145C18.8767 9.50252 18.957 8.9492 19.0348 8.41415C19.098 7.97851 19.1698 7.48472 19.0271 7.2953C18.8804 7.10052 18.3678 7.01393 17.9155 6.93751C17.3674 6.84485 16.8006 6.74908 16.3544 6.43541C15.9136 6.12544 15.6472 5.63771 15.3896 5.166C15.1736 4.77034 14.9286 4.32188 14.6846 4.24525C14.6579 4.23687 14.6271 4.23276 14.5906 4.23276C14.3438 4.23276 13.9672 4.41022 13.603 4.58188C13.0943 4.82157 12.5683 5.06948 12.0001 5.06948C11.4319 5.06948 10.9059 4.82165 10.3971 4.58188C10.0329 4.41026 9.65633 4.23276 9.40951 4.23276C9.37308 4.23276 9.34227 4.23682 9.31545 4.24525C9.07148 4.3218 8.82656 4.77034 8.61047 5.166C8.35291 5.63771 8.08655 6.12544 7.64578 6.43541C7.19963 6.74908 6.63283 6.84485 6.08468 6.93751C5.63239 7.01393 5.11977 7.10061 4.97304 7.29538C4.83038 7.48481 4.90214 7.97856 4.96539 8.41423C5.04316 8.94929 5.12356 9.50261 4.95142 10.0146C4.78561 10.5079 4.39197 10.8988 4.01135 11.2767C3.68496 11.6008 3.315 11.9681 3.315 12.2276C3.315 12.4871 3.68496 12.8544 4.01135 13.1785C4.39206 13.5564 4.78569 13.9473 4.95142 14.4405C5.12347 14.9526 5.04316 15.5059 4.96539 16.041C4.90218 16.4766 4.83038 16.9704 4.97312 17.1598C5.11977 17.3546 5.63243 17.4412 6.08468 17.5176C6.63283 17.6103 7.19963 17.7061 7.64569 18.0197C8.08659 18.3297 8.35296 18.8174 8.61051 19.2891C8.8266 19.6848 9.07152 20.1333 9.3155 20.2099C9.34231 20.2183 9.37303 20.2224 9.40956 20.2224C9.65633 20.2224 10.0329 20.0449 10.3971 19.8733C10.9059 19.6335 11.4318 19.3856 12.0001 19.3856Z" stroke="url(#paint4_linear_2016_14271)" stroke-width="0.6" mask="url(#path-1-outside-1_2016_14271)"/>
<path d="M12.0001 17.7748C8.834 17.7748 6.25815 15.2863 6.25815 12.2275C6.25815 9.16868 8.83395 6.68017 12.0001 6.68017C13.2819 6.68017 14.4945 7.07932 15.5067 7.83456C16.9272 8.89429 17.7419 10.4955 17.7419 12.2275C17.7419 15.2863 15.1661 17.7748 12.0001 17.7748ZM12.0001 7.91297C9.53757 7.91297 7.53415 9.84849 7.53415 12.2275C7.53415 14.6066 9.53757 16.5421 12.0001 16.5421C14.4626 16.5421 16.466 14.6066 16.466 12.2275C16.466 10.8803 15.8321 9.63487 14.7268 8.81027C13.9401 8.22328 12.9971 7.91297 12.0001 7.91297Z" stroke="url(#paint5_linear_2016_14271)" stroke-width="0.6" mask="url(#path-1-outside-1_2016_14271)"/>
<path d="M5.87497 23.9999C5.52189 23.9999 5.21192 23.7943 5.08533 23.4762L4.10109 21.004L1.54213 20.0532C1.27392 19.9535 1.07824 19.7319 1.0186 19.4604C0.95896 19.1888 1.04468 18.9094 1.24788 18.7132L4.43119 15.6775L4.90214 17.8224L9.81345 20.5848L6.47219 23.7606C6.31243 23.9149 6.10038 23.9999 5.87497 23.9999ZM2.61863 19.1324L4.73776 19.9199C4.96059 20.0026 5.1378 20.1737 5.22348 20.3892L6.03838 22.4363L8.80428 19.8048L5.44036 17.9199L4.73776 16.9449L2.61863 19.1324Z" stroke="url(#paint6_linear_2016_14271)" stroke-width="0.6" mask="url(#path-1-outside-1_2016_14271)"/>
<path d="M18.1245 24C17.9028 24 17.6886 23.9157 17.5279 23.7606L16.4112 22.6818L17.3135 21.8101L17.9617 22.4363L18.7767 20.389C18.8624 20.1736 19.0395 20.0025 19.2626 19.9197L21.3814 19.1324L19.2626 17.3349L19.4006 15.8725L22.7522 18.7133C22.9553 18.9096 23.041 19.1888 22.9814 19.4603C22.9218 19.7319 22.7261 19.9535 22.4579 20.0532L19.899 21.0041L18.9147 23.4763C18.8116 23.7353 18.5822 23.9244 18.3012 23.9821C18.2424 23.9941 18.1831 24 18.1245 24Z" stroke="url(#paint7_linear_2016_14271)" stroke-width="0.6" mask="url(#path-1-outside-1_2016_14271)"/>
</g>
</g>
<defs>
<linearGradient id="paint0_linear_2016_14271" x1="12" y1="3" x2="12" y2="24" gradientUnits="userSpaceOnUse">
<stop stop-color="#F18D72"/>
<stop offset="1" stop-color="#C744A3"/>
</linearGradient>
<linearGradient id="paint1_linear_2016_14271" x1="12" y1="3" x2="12" y2="24" gradientUnits="userSpaceOnUse">
<stop stop-color="#F18D72"/>
<stop offset="1" stop-color="#C744A3"/>
</linearGradient>
<linearGradient id="paint2_linear_2016_14271" x1="12" y1="3" x2="12" y2="24" gradientUnits="userSpaceOnUse">
<stop stop-color="#F18D72"/>
<stop offset="1" stop-color="#C744A3"/>
</linearGradient>
<linearGradient id="paint3_linear_2016_14271" x1="12" y1="3" x2="12" y2="24" gradientUnits="userSpaceOnUse">
<stop stop-color="#F18D72"/>
<stop offset="1" stop-color="#C744A3"/>
</linearGradient>
<linearGradient id="paint4_linear_2016_14271" x1="12" y1="3" x2="12" y2="24" gradientUnits="userSpaceOnUse">
<stop stop-color="#F18D72"/>
<stop offset="1" stop-color="#C744A3"/>
</linearGradient>
<linearGradient id="paint5_linear_2016_14271" x1="12" y1="3" x2="12" y2="24" gradientUnits="userSpaceOnUse">
<stop stop-color="#F18D72"/>
<stop offset="1" stop-color="#C744A3"/>
</linearGradient>
<linearGradient id="paint6_linear_2016_14271" x1="12" y1="3" x2="12" y2="24" gradientUnits="userSpaceOnUse">
<stop stop-color="#F18D72"/>
<stop offset="1" stop-color="#C744A3"/>
</linearGradient>
<linearGradient id="paint7_linear_2016_14271" x1="12" y1="3" x2="12" y2="24" gradientUnits="userSpaceOnUse">
<stop stop-color="#F18D72"/>
<stop offset="1" stop-color="#C744A3"/>
</linearGradient>
</defs>
</svg>
