<svg width="20" height="20" viewBox="0 0 20 20" fill="none" xmlns="http://www.w3.org/2000/svg">
<g id="Frame 108">
<g id="Vector">
<mask id="path-1-outside-1_1279_23128" maskUnits="userSpaceOnUse" x="-0.199951" y="1" width="19" height="19" fill="black">
<rect fill="white" x="-0.199951" y="1" width="19" height="19"/>
<path d="M11.6726 16.764C11.2395 16.764 10.8305 16.5713 10.435 16.3849C10.1321 16.2422 9.81906 16.0946 9.60016 16.0946C9.38126 16.0946 9.06814 16.2422 8.76533 16.3849C8.36985 16.5713 7.96085 16.764 7.52773 16.764C7.39178 16.764 7.26043 16.7444 7.13726 16.7058C6.54787 16.5209 6.24922 15.974 5.98567 15.4915C5.83394 15.2137 5.67708 14.9264 5.516 14.8131C5.35062 14.6969 5.01578 14.6402 4.69193 14.5855C4.13959 14.4921 3.51349 14.3863 3.15327 13.9082C2.79622 13.4341 2.88408 12.8293 2.96156 12.2957C3.00766 11.9783 3.05537 11.6502 2.99033 11.4569C2.93117 11.2808 2.70059 11.0519 2.47753 10.8305C2.08091 10.4366 1.63125 9.9902 1.63125 9.38202C1.63125 8.77385 2.08091 8.32744 2.47753 7.93357C2.70055 7.71216 2.93117 7.48324 2.99037 7.3071C3.0553 7.11385 3.00762 6.78576 2.96153 6.46841C2.88401 5.93479 2.79615 5.32997 3.15317 4.85593C3.51349 4.3777 4.13959 4.2719 4.69193 4.17851C5.01578 4.12378 5.35055 4.06722 5.516 3.95089C5.67708 3.83768 5.83394 3.55041 5.9856 3.27258C6.24912 2.79003 6.5478 2.2431 7.13719 2.05818C7.26036 2.01956 7.39167 2 7.52766 2C7.96078 2 8.36981 2.19268 8.7653 2.37909C9.06817 2.5218 9.38123 2.66938 9.60013 2.66938C9.81899 2.66938 10.1321 2.5218 10.435 2.37909C10.8304 2.19272 11.2394 2 11.6726 2C11.8085 2 11.9399 2.01956 12.063 2.05818C12.6524 2.2431 12.9511 2.79003 13.2146 3.27258C13.3663 3.55038 13.5232 3.83761 13.6842 3.95089C13.8497 4.06722 14.1845 4.12378 14.5083 4.17851C15.0606 4.2719 15.6868 4.3777 16.0469 4.85586C16.404 5.32987 16.3161 5.93469 16.2387 6.46834C16.1926 6.7857 16.1448 7.11381 16.2099 7.30706C16.269 7.48321 16.4997 7.71212 16.7227 7.9336C17.1193 8.32744 17.5689 8.77385 17.5689 9.38202C17.5689 9.9902 17.1193 10.4366 16.7227 10.8304C16.4996 11.0519 16.269 11.2808 16.2098 11.4569C16.1449 11.6502 16.1926 11.9783 16.2387 12.2956C16.3162 12.8292 16.404 13.434 16.047 13.9081C15.6867 14.3863 15.0606 14.4921 14.5083 14.5855C14.1844 14.6402 13.8496 14.6968 13.6842 14.8131C13.5232 14.9263 13.3663 15.2136 13.2147 15.4914C12.9511 15.974 12.6525 16.5209 12.0631 16.7058C11.94 16.7444 11.8086 16.764 11.6726 16.764ZM9.60009 15.1085C10.0546 15.1085 10.4755 15.3068 10.8825 15.4985C11.1738 15.6358 11.4751 15.7778 11.6726 15.7778C11.7017 15.7778 11.7264 15.7746 11.7478 15.7678C11.943 15.7066 12.139 15.3478 12.3118 15.0312C12.5179 14.6539 12.731 14.2637 13.0836 14.0157C13.4405 13.7648 13.8939 13.6882 14.3325 13.614C14.6943 13.5529 15.1044 13.4836 15.2218 13.3277C15.3359 13.1762 15.2785 12.7812 15.2279 12.4327C15.1657 12.0046 15.1014 11.562 15.2391 11.1524C15.3717 10.7577 15.6866 10.445 15.9911 10.1426C16.2522 9.88336 16.5482 9.58952 16.5482 9.38199C16.5482 9.17446 16.2522 8.88062 15.9911 8.62135C15.6866 8.31897 15.3717 8.0063 15.2391 7.61163C15.1014 7.20202 15.1657 6.75936 15.2279 6.33132C15.2785 5.98281 15.3359 5.58778 15.2217 5.43624C15.1044 5.28042 14.6943 5.21114 14.3325 5.15C13.8939 5.07588 13.4405 4.99926 13.0836 4.74833C12.7309 4.50035 12.5178 4.11016 12.3118 3.7328C12.1389 3.41627 11.943 3.05751 11.7477 2.9962C11.7264 2.98949 11.7017 2.9862 11.6726 2.9862C11.4751 2.9862 11.1738 3.12818 10.8825 3.2655C10.4755 3.45726 10.0547 3.65559 9.60013 3.65559C9.14559 3.65559 8.72477 3.45732 8.31773 3.2655C8.02641 3.12821 7.72511 2.9862 7.52766 2.9862C7.49851 2.9862 7.47386 2.98946 7.45241 2.9962C7.25723 3.05744 7.06129 3.41627 6.88842 3.7328C6.68238 4.11016 6.46929 4.50035 6.11667 4.74833C5.75975 4.99926 5.30631 5.07588 4.86779 5.15C4.50596 5.21114 4.09587 5.28049 3.97848 5.43631C3.86435 5.58785 3.92176 5.98285 3.97236 6.33138C4.03458 6.75943 4.09889 7.20208 3.96119 7.6117C3.82853 8.00633 3.51362 8.319 3.20913 8.62135C2.94802 8.88062 2.65205 9.17446 2.65205 9.38206C2.65205 9.58965 2.94802 9.8835 3.20913 10.1428C3.51369 10.4451 3.8286 10.7578 3.96119 11.1524C4.09882 11.5621 4.03458 12.0047 3.97236 12.4328C3.92179 12.7813 3.86435 13.1763 3.97855 13.3279C4.09587 13.4837 4.506 13.553 4.86779 13.6141C5.30631 13.6882 5.75975 13.7649 6.1166 14.0158C6.46932 14.2638 6.68241 14.6539 6.88846 15.0313C7.06133 15.3478 7.25727 15.7066 7.45245 15.7679C7.4739 15.7746 7.49848 15.7779 7.52769 15.7779C7.72511 15.7779 8.02641 15.6359 8.31773 15.4986C8.72473 15.3068 9.14552 15.1085 9.60009 15.1085Z"/>
<path d="M9.6001 13.8199C7.06725 13.8199 5.00657 11.829 5.00657 9.382C5.00657 6.93495 7.06721 4.94414 9.6001 4.94414C10.6256 4.94414 11.5956 5.26345 12.4054 5.86764C13.5418 6.71543 14.1936 7.99637 14.1936 9.38196C14.1936 11.829 12.1329 13.8199 9.6001 13.8199ZM9.6001 5.93038C7.6301 5.93038 6.02737 7.4788 6.02737 9.38203C6.02737 11.2853 7.6301 12.8337 9.6001 12.8337C11.5701 12.8337 13.1728 11.2853 13.1728 9.38203C13.1728 8.30426 12.6657 7.3079 11.7815 6.64821C11.1521 6.17862 10.3977 5.93038 9.6001 5.93038Z"/>
<path d="M4.70002 18.7999C4.41756 18.7999 4.16958 18.6354 4.06832 18.381L3.28092 16.4032L1.23375 15.6426C1.01919 15.5628 0.862642 15.3855 0.814929 15.1683C0.767217 14.951 0.835795 14.7276 0.998354 14.5706L3.545 12.142L3.92176 13.8579L7.85081 16.0679L5.1778 18.6085C5.05 18.7319 4.88036 18.7999 4.70002 18.7999ZM2.09495 14.906L3.79026 15.5359C3.96852 15.6021 4.11029 15.7389 4.17883 15.9113L4.83075 17.549L7.04347 15.4439L4.35234 13.9359L3.79026 13.1559L2.09495 14.906Z"/>
<path d="M14.4996 18.8C14.3223 18.8 14.1509 18.7326 14.0223 18.6085L13.129 17.7454L13.8509 17.0481L14.3694 17.549L15.0214 15.9112C15.09 15.7389 15.2317 15.602 15.4101 15.5358L17.1052 14.9059L15.4101 13.4679L15.5205 12.298L18.2018 14.5706C18.3643 14.7277 18.4329 14.9511 18.3852 15.1683C18.3375 15.3855 18.1809 15.5628 17.9664 15.6426L15.9192 16.4033L15.1318 18.381C15.0494 18.5883 14.8658 18.7396 14.641 18.7857C14.594 18.7953 14.5466 18.8 14.4996 18.8Z"/>
</mask>
<path d="M11.6726 16.764C11.2395 16.764 10.8305 16.5713 10.435 16.3849C10.1321 16.2422 9.81906 16.0946 9.60016 16.0946C9.38126 16.0946 9.06814 16.2422 8.76533 16.3849C8.36985 16.5713 7.96085 16.764 7.52773 16.764C7.39178 16.764 7.26043 16.7444 7.13726 16.7058C6.54787 16.5209 6.24922 15.974 5.98567 15.4915C5.83394 15.2137 5.67708 14.9264 5.516 14.8131C5.35062 14.6969 5.01578 14.6402 4.69193 14.5855C4.13959 14.4921 3.51349 14.3863 3.15327 13.9082C2.79622 13.4341 2.88408 12.8293 2.96156 12.2957C3.00766 11.9783 3.05537 11.6502 2.99033 11.4569C2.93117 11.2808 2.70059 11.0519 2.47753 10.8305C2.08091 10.4366 1.63125 9.9902 1.63125 9.38202C1.63125 8.77385 2.08091 8.32744 2.47753 7.93357C2.70055 7.71216 2.93117 7.48324 2.99037 7.3071C3.0553 7.11385 3.00762 6.78576 2.96153 6.46841C2.88401 5.93479 2.79615 5.32997 3.15317 4.85593C3.51349 4.3777 4.13959 4.2719 4.69193 4.17851C5.01578 4.12378 5.35055 4.06722 5.516 3.95089C5.67708 3.83768 5.83394 3.55041 5.9856 3.27258C6.24912 2.79003 6.5478 2.2431 7.13719 2.05818C7.26036 2.01956 7.39167 2 7.52766 2C7.96078 2 8.36981 2.19268 8.7653 2.37909C9.06817 2.5218 9.38123 2.66938 9.60013 2.66938C9.81899 2.66938 10.1321 2.5218 10.435 2.37909C10.8304 2.19272 11.2394 2 11.6726 2C11.8085 2 11.9399 2.01956 12.063 2.05818C12.6524 2.2431 12.9511 2.79003 13.2146 3.27258C13.3663 3.55038 13.5232 3.83761 13.6842 3.95089C13.8497 4.06722 14.1845 4.12378 14.5083 4.17851C15.0606 4.2719 15.6868 4.3777 16.0469 4.85586C16.404 5.32987 16.3161 5.93469 16.2387 6.46834C16.1926 6.7857 16.1448 7.11381 16.2099 7.30706C16.269 7.48321 16.4997 7.71212 16.7227 7.9336C17.1193 8.32744 17.5689 8.77385 17.5689 9.38202C17.5689 9.9902 17.1193 10.4366 16.7227 10.8304C16.4996 11.0519 16.269 11.2808 16.2098 11.4569C16.1449 11.6502 16.1926 11.9783 16.2387 12.2956C16.3162 12.8292 16.404 13.434 16.047 13.9081C15.6867 14.3863 15.0606 14.4921 14.5083 14.5855C14.1844 14.6402 13.8496 14.6968 13.6842 14.8131C13.5232 14.9263 13.3663 15.2136 13.2147 15.4914C12.9511 15.974 12.6525 16.5209 12.0631 16.7058C11.94 16.7444 11.8086 16.764 11.6726 16.764ZM9.60009 15.1085C10.0546 15.1085 10.4755 15.3068 10.8825 15.4985C11.1738 15.6358 11.4751 15.7778 11.6726 15.7778C11.7017 15.7778 11.7264 15.7746 11.7478 15.7678C11.943 15.7066 12.139 15.3478 12.3118 15.0312C12.5179 14.6539 12.731 14.2637 13.0836 14.0157C13.4405 13.7648 13.8939 13.6882 14.3325 13.614C14.6943 13.5529 15.1044 13.4836 15.2218 13.3277C15.3359 13.1762 15.2785 12.7812 15.2279 12.4327C15.1657 12.0046 15.1014 11.562 15.2391 11.1524C15.3717 10.7577 15.6866 10.445 15.9911 10.1426C16.2522 9.88336 16.5482 9.58952 16.5482 9.38199C16.5482 9.17446 16.2522 8.88062 15.9911 8.62135C15.6866 8.31897 15.3717 8.0063 15.2391 7.61163C15.1014 7.20202 15.1657 6.75936 15.2279 6.33132C15.2785 5.98281 15.3359 5.58778 15.2217 5.43624C15.1044 5.28042 14.6943 5.21114 14.3325 5.15C13.8939 5.07588 13.4405 4.99926 13.0836 4.74833C12.7309 4.50035 12.5178 4.11016 12.3118 3.7328C12.1389 3.41627 11.943 3.05751 11.7477 2.9962C11.7264 2.98949 11.7017 2.9862 11.6726 2.9862C11.4751 2.9862 11.1738 3.12818 10.8825 3.2655C10.4755 3.45726 10.0547 3.65559 9.60013 3.65559C9.14559 3.65559 8.72477 3.45732 8.31773 3.2655C8.02641 3.12821 7.72511 2.9862 7.52766 2.9862C7.49851 2.9862 7.47386 2.98946 7.45241 2.9962C7.25723 3.05744 7.06129 3.41627 6.88842 3.7328C6.68238 4.11016 6.46929 4.50035 6.11667 4.74833C5.75975 4.99926 5.30631 5.07588 4.86779 5.15C4.50596 5.21114 4.09587 5.28049 3.97848 5.43631C3.86435 5.58785 3.92176 5.98285 3.97236 6.33138C4.03458 6.75943 4.09889 7.20208 3.96119 7.6117C3.82853 8.00633 3.51362 8.319 3.20913 8.62135C2.94802 8.88062 2.65205 9.17446 2.65205 9.38206C2.65205 9.58965 2.94802 9.8835 3.20913 10.1428C3.51369 10.4451 3.8286 10.7578 3.96119 11.1524C4.09882 11.5621 4.03458 12.0047 3.97236 12.4328C3.92179 12.7813 3.86435 13.1763 3.97855 13.3279C4.09587 13.4837 4.506 13.553 4.86779 13.6141C5.30631 13.6882 5.75975 13.7649 6.1166 14.0158C6.46932 14.2638 6.68241 14.6539 6.88846 15.0313C7.06133 15.3478 7.25727 15.7066 7.45245 15.7679C7.4739 15.7746 7.49848 15.7779 7.52769 15.7779C7.72511 15.7779 8.02641 15.6359 8.31773 15.4986C8.72473 15.3068 9.14552 15.1085 9.60009 15.1085Z" fill="#F8F8F8"/>
<path d="M9.6001 13.8199C7.06725 13.8199 5.00657 11.829 5.00657 9.382C5.00657 6.93495 7.06721 4.94414 9.6001 4.94414C10.6256 4.94414 11.5956 5.26345 12.4054 5.86764C13.5418 6.71543 14.1936 7.99637 14.1936 9.38196C14.1936 11.829 12.1329 13.8199 9.6001 13.8199ZM9.6001 5.93038C7.6301 5.93038 6.02737 7.4788 6.02737 9.38203C6.02737 11.2853 7.6301 12.8337 9.6001 12.8337C11.5701 12.8337 13.1728 11.2853 13.1728 9.38203C13.1728 8.30426 12.6657 7.3079 11.7815 6.64821C11.1521 6.17862 10.3977 5.93038 9.6001 5.93038Z" fill="#F8F8F8"/>
<path d="M4.70002 18.7999C4.41756 18.7999 4.16958 18.6354 4.06832 18.381L3.28092 16.4032L1.23375 15.6426C1.01919 15.5628 0.862642 15.3855 0.814929 15.1683C0.767217 14.951 0.835795 14.7276 0.998354 14.5706L3.545 12.142L3.92176 13.8579L7.85081 16.0679L5.1778 18.6085C5.05 18.7319 4.88036 18.7999 4.70002 18.7999ZM2.09495 14.906L3.79026 15.5359C3.96852 15.6021 4.11029 15.7389 4.17883 15.9113L4.83075 17.549L7.04347 15.4439L4.35234 13.9359L3.79026 13.1559L2.09495 14.906Z" fill="#F8F8F8"/>
<path d="M14.4996 18.8C14.3223 18.8 14.1509 18.7326 14.0223 18.6085L13.129 17.7454L13.8509 17.0481L14.3694 17.549L15.0214 15.9112C15.09 15.7389 15.2317 15.602 15.4101 15.5358L17.1052 14.9059L15.4101 13.4679L15.5205 12.298L18.2018 14.5706C18.3643 14.7277 18.4329 14.9511 18.3852 15.1683C18.3375 15.3855 18.1809 15.5628 17.9664 15.6426L15.9192 16.4033L15.1318 18.381C15.0494 18.5883 14.8658 18.7396 14.641 18.7857C14.594 18.7953 14.5466 18.8 14.4996 18.8Z" fill="#F8F8F8"/>
<path d="M11.6726 16.764C11.2395 16.764 10.8305 16.5713 10.435 16.3849C10.1321 16.2422 9.81906 16.0946 9.60016 16.0946C9.38126 16.0946 9.06814 16.2422 8.76533 16.3849C8.36985 16.5713 7.96085 16.764 7.52773 16.764C7.39178 16.764 7.26043 16.7444 7.13726 16.7058C6.54787 16.5209 6.24922 15.974 5.98567 15.4915C5.83394 15.2137 5.67708 14.9264 5.516 14.8131C5.35062 14.6969 5.01578 14.6402 4.69193 14.5855C4.13959 14.4921 3.51349 14.3863 3.15327 13.9082C2.79622 13.4341 2.88408 12.8293 2.96156 12.2957C3.00766 11.9783 3.05537 11.6502 2.99033 11.4569C2.93117 11.2808 2.70059 11.0519 2.47753 10.8305C2.08091 10.4366 1.63125 9.9902 1.63125 9.38202C1.63125 8.77385 2.08091 8.32744 2.47753 7.93357C2.70055 7.71216 2.93117 7.48324 2.99037 7.3071C3.0553 7.11385 3.00762 6.78576 2.96153 6.46841C2.88401 5.93479 2.79615 5.32997 3.15317 4.85593C3.51349 4.3777 4.13959 4.2719 4.69193 4.17851C5.01578 4.12378 5.35055 4.06722 5.516 3.95089C5.67708 3.83768 5.83394 3.55041 5.9856 3.27258C6.24912 2.79003 6.5478 2.2431 7.13719 2.05818C7.26036 2.01956 7.39167 2 7.52766 2C7.96078 2 8.36981 2.19268 8.7653 2.37909C9.06817 2.5218 9.38123 2.66938 9.60013 2.66938C9.81899 2.66938 10.1321 2.5218 10.435 2.37909C10.8304 2.19272 11.2394 2 11.6726 2C11.8085 2 11.9399 2.01956 12.063 2.05818C12.6524 2.2431 12.9511 2.79003 13.2146 3.27258C13.3663 3.55038 13.5232 3.83761 13.6842 3.95089C13.8497 4.06722 14.1845 4.12378 14.5083 4.17851C15.0606 4.2719 15.6868 4.3777 16.0469 4.85586C16.404 5.32987 16.3161 5.93469 16.2387 6.46834C16.1926 6.7857 16.1448 7.11381 16.2099 7.30706C16.269 7.48321 16.4997 7.71212 16.7227 7.9336C17.1193 8.32744 17.5689 8.77385 17.5689 9.38202C17.5689 9.9902 17.1193 10.4366 16.7227 10.8304C16.4996 11.0519 16.269 11.2808 16.2098 11.4569C16.1449 11.6502 16.1926 11.9783 16.2387 12.2956C16.3162 12.8292 16.404 13.434 16.047 13.9081C15.6867 14.3863 15.0606 14.4921 14.5083 14.5855C14.1844 14.6402 13.8496 14.6968 13.6842 14.8131C13.5232 14.9263 13.3663 15.2136 13.2147 15.4914C12.9511 15.974 12.6525 16.5209 12.0631 16.7058C11.94 16.7444 11.8086 16.764 11.6726 16.764ZM9.60009 15.1085C10.0546 15.1085 10.4755 15.3068 10.8825 15.4985C11.1738 15.6358 11.4751 15.7778 11.6726 15.7778C11.7017 15.7778 11.7264 15.7746 11.7478 15.7678C11.943 15.7066 12.139 15.3478 12.3118 15.0312C12.5179 14.6539 12.731 14.2637 13.0836 14.0157C13.4405 13.7648 13.8939 13.6882 14.3325 13.614C14.6943 13.5529 15.1044 13.4836 15.2218 13.3277C15.3359 13.1762 15.2785 12.7812 15.2279 12.4327C15.1657 12.0046 15.1014 11.562 15.2391 11.1524C15.3717 10.7577 15.6866 10.445 15.9911 10.1426C16.2522 9.88336 16.5482 9.58952 16.5482 9.38199C16.5482 9.17446 16.2522 8.88062 15.9911 8.62135C15.6866 8.31897 15.3717 8.0063 15.2391 7.61163C15.1014 7.20202 15.1657 6.75936 15.2279 6.33132C15.2785 5.98281 15.3359 5.58778 15.2217 5.43624C15.1044 5.28042 14.6943 5.21114 14.3325 5.15C13.8939 5.07588 13.4405 4.99926 13.0836 4.74833C12.7309 4.50035 12.5178 4.11016 12.3118 3.7328C12.1389 3.41627 11.943 3.05751 11.7477 2.9962C11.7264 2.98949 11.7017 2.9862 11.6726 2.9862C11.4751 2.9862 11.1738 3.12818 10.8825 3.2655C10.4755 3.45726 10.0547 3.65559 9.60013 3.65559C9.14559 3.65559 8.72477 3.45732 8.31773 3.2655C8.02641 3.12821 7.72511 2.9862 7.52766 2.9862C7.49851 2.9862 7.47386 2.98946 7.45241 2.9962C7.25723 3.05744 7.06129 3.41627 6.88842 3.7328C6.68238 4.11016 6.46929 4.50035 6.11667 4.74833C5.75975 4.99926 5.30631 5.07588 4.86779 5.15C4.50596 5.21114 4.09587 5.28049 3.97848 5.43631C3.86435 5.58785 3.92176 5.98285 3.97236 6.33138C4.03458 6.75943 4.09889 7.20208 3.96119 7.6117C3.82853 8.00633 3.51362 8.319 3.20913 8.62135C2.94802 8.88062 2.65205 9.17446 2.65205 9.38206C2.65205 9.58965 2.94802 9.8835 3.20913 10.1428C3.51369 10.4451 3.8286 10.7578 3.96119 11.1524C4.09882 11.5621 4.03458 12.0047 3.97236 12.4328C3.92179 12.7813 3.86435 13.1763 3.97855 13.3279C4.09587 13.4837 4.506 13.553 4.86779 13.6141C5.30631 13.6882 5.75975 13.7649 6.1166 14.0158C6.46932 14.2638 6.68241 14.6539 6.88846 15.0313C7.06133 15.3478 7.25727 15.7066 7.45245 15.7679C7.4739 15.7746 7.49848 15.7779 7.52769 15.7779C7.72511 15.7779 8.02641 15.6359 8.31773 15.4986C8.72473 15.3068 9.14552 15.1085 9.60009 15.1085Z" stroke="#F8F8F8" stroke-width="0.48" mask="url(#path-1-outside-1_1279_23128)"/>
<path d="M9.6001 13.8199C7.06725 13.8199 5.00657 11.829 5.00657 9.382C5.00657 6.93495 7.06721 4.94414 9.6001 4.94414C10.6256 4.94414 11.5956 5.26345 12.4054 5.86764C13.5418 6.71543 14.1936 7.99637 14.1936 9.38196C14.1936 11.829 12.1329 13.8199 9.6001 13.8199ZM9.6001 5.93038C7.6301 5.93038 6.02737 7.4788 6.02737 9.38203C6.02737 11.2853 7.6301 12.8337 9.6001 12.8337C11.5701 12.8337 13.1728 11.2853 13.1728 9.38203C13.1728 8.30426 12.6657 7.3079 11.7815 6.64821C11.1521 6.17862 10.3977 5.93038 9.6001 5.93038Z" stroke="#F8F8F8" stroke-width="0.48" mask="url(#path-1-outside-1_1279_23128)"/>
<path d="M4.70002 18.7999C4.41756 18.7999 4.16958 18.6354 4.06832 18.381L3.28092 16.4032L1.23375 15.6426C1.01919 15.5628 0.862642 15.3855 0.814929 15.1683C0.767217 14.951 0.835795 14.7276 0.998354 14.5706L3.545 12.142L3.92176 13.8579L7.85081 16.0679L5.1778 18.6085C5.05 18.7319 4.88036 18.7999 4.70002 18.7999ZM2.09495 14.906L3.79026 15.5359C3.96852 15.6021 4.11029 15.7389 4.17883 15.9113L4.83075 17.549L7.04347 15.4439L4.35234 13.9359L3.79026 13.1559L2.09495 14.906Z" stroke="#F8F8F8" stroke-width="0.48" mask="url(#path-1-outside-1_1279_23128)"/>
<path d="M14.4996 18.8C14.3223 18.8 14.1509 18.7326 14.0223 18.6085L13.129 17.7454L13.8509 17.0481L14.3694 17.549L15.0214 15.9112C15.09 15.7389 15.2317 15.602 15.4101 15.5358L17.1052 14.9059L15.4101 13.4679L15.5205 12.298L18.2018 14.5706C18.3643 14.7277 18.4329 14.9511 18.3852 15.1683C18.3375 15.3855 18.1809 15.5628 17.9664 15.6426L15.9192 16.4033L15.1318 18.381C15.0494 18.5883 14.8658 18.7396 14.641 18.7857C14.594 18.7953 14.5466 18.8 14.4996 18.8Z" stroke="#F8F8F8" stroke-width="0.48" mask="url(#path-1-outside-1_1279_23128)"/>
</g>
</g>
</svg>
