<svg width="100" height="100" viewBox="0 0 100 100" fill="none" xmlns="http://www.w3.org/2000/svg">
<g id="Frame 80">
<g id="Vector">
<path d="M59.4208 80.4259C57.4519 80.4259 55.5929 79.5198 53.7952 78.6432C52.4185 77.9722 50.9955 77.2782 50.0005 77.2782C49.0055 77.2782 47.5822 77.9722 46.2058 78.6432C44.4082 79.5196 42.5491 80.4259 40.5804 80.4259C39.9624 80.4259 39.3654 80.3339 38.8055 80.1523C36.1265 79.2827 34.769 76.7111 33.571 74.442C32.8813 73.1357 32.1683 71.7849 31.4361 71.2522C30.6844 70.7055 29.1624 70.4392 27.6904 70.1818C25.1797 69.7427 22.3338 69.2452 20.6965 66.9967C19.0735 64.7677 19.4729 61.9236 19.8251 59.4142C20.0346 57.9218 20.2515 56.3789 19.9558 55.47C19.6869 54.6421 18.6388 53.5654 17.6249 52.5243C15.8221 50.6723 13.7782 48.573 13.7782 45.7131C13.7782 42.8532 15.8221 40.754 17.6249 38.9019C18.6387 37.8607 19.6869 36.7843 19.956 35.956C20.2512 35.0473 20.0344 33.5045 19.8249 32.0122C19.4726 29.5029 19.0732 26.6588 20.696 24.4297C22.3338 22.1809 25.1797 21.6833 27.6904 21.2442C29.1624 20.9868 30.6841 20.7209 31.4361 20.1738C32.1683 19.6415 32.8813 18.2906 33.5707 16.9841C34.7685 14.715 36.1261 12.1431 38.8052 11.2736C39.3651 11.092 39.9619 11 40.5801 11C42.5488 11 44.408 11.9061 46.2057 12.7826C47.5824 13.4537 49.0054 14.1477 50.0004 14.1477C50.9952 14.1477 52.4186 13.4537 53.795 12.7826C55.5927 11.9062 57.4518 11 59.4205 11C60.0385 11 60.6357 11.092 61.1954 11.2736C63.8744 12.1431 65.2319 14.715 66.4299 16.9841C67.1194 18.2905 67.8325 19.6411 68.5644 20.1738C69.3166 20.7209 70.8385 20.9868 72.3102 21.2442C74.8208 21.6833 77.6669 22.1809 79.3041 24.4294C80.9271 26.6583 80.5277 29.5024 80.1755 32.0119C79.966 33.5042 79.7491 35.0471 80.0447 35.9558C80.3136 36.7841 81.3621 37.8606 82.3755 38.9021C84.1786 40.754 86.2222 42.8532 86.2222 45.7131C86.2222 48.573 84.1783 50.6721 82.3755 52.5241C81.3618 53.5653 80.3135 54.6417 80.0444 55.47C79.7493 56.3788 79.966 57.9219 80.1755 59.4139C80.5278 61.9231 80.9272 64.7672 79.3044 66.9964C77.6666 69.245 74.8208 69.7427 72.3102 70.1818C70.8382 70.439 69.3163 70.7052 68.5644 71.2522C67.8325 71.7846 67.1193 73.1354 66.43 74.4419C65.2322 76.711 63.8746 79.2829 61.1955 80.1524C60.636 80.3337 60.0388 80.4259 59.4208 80.4259ZM50.0002 72.641C52.0663 72.641 53.9791 73.5736 55.8291 74.4753C57.1536 75.1209 58.523 75.7887 59.4207 75.7887C59.5532 75.7887 59.6652 75.7734 59.7627 75.7417C60.6499 75.4537 61.5405 73.7666 62.3263 72.2779C63.2629 70.5037 64.2314 68.6686 65.8343 67.5025C67.4566 66.3225 69.5177 65.9622 71.511 65.6137C73.1557 65.3262 75.0197 65.0001 75.5533 64.2673C76.0721 63.5548 75.8111 61.6973 75.5811 60.0584C75.2983 58.0455 75.006 55.964 75.6319 54.0378C76.2349 52.1821 77.6663 50.7118 79.0503 49.2898C80.2372 48.0706 81.5825 46.6888 81.5825 45.7129C81.5825 44.737 80.2372 43.3553 79.0503 42.1361C77.666 40.7142 76.2346 39.2439 75.6319 37.388C75.0063 35.4619 75.2983 33.3803 75.5811 31.3675C75.811 29.7287 76.0721 27.8711 75.553 27.1585C75.0197 26.4258 73.1555 26.1 71.511 25.8125C69.5177 25.464 67.4566 25.1037 65.8343 23.9237C64.2311 22.7576 63.2625 20.9228 62.326 19.1483C61.5402 17.6599 60.6496 15.9728 59.7622 15.6845C59.665 15.653 59.5532 15.6375 59.4205 15.6375C58.5229 15.6375 57.1536 16.3051 55.8293 16.9509C53.9793 17.8526 52.0665 18.7852 50.0004 18.7852C47.9343 18.7852 46.0215 17.8529 44.1713 16.9509C42.8471 16.3053 41.4776 15.6375 40.5801 15.6375C40.4476 15.6375 40.3355 15.6528 40.238 15.6845C39.3508 15.9725 38.4602 17.6599 37.6744 19.1483C36.7379 20.9228 35.7693 22.7576 34.1665 23.9237C32.5441 25.1037 30.483 25.464 28.4897 25.8125C26.8451 26.1 24.981 26.4261 24.4474 27.1588C23.9287 27.8714 24.1896 29.7289 24.4196 31.3678C24.7024 33.3806 24.9947 35.4622 24.3688 37.3883C23.7658 39.2441 22.3344 40.7144 20.9504 42.1361C19.7635 43.3553 18.4182 44.7371 18.4182 45.7132C18.4182 46.6894 19.7635 48.0712 20.9504 49.2904C22.3347 50.7123 23.7662 52.1826 24.3688 54.0382C24.9944 55.9645 24.7024 58.0458 24.4196 60.059C24.1897 61.6978 23.9287 63.5554 24.4477 64.268C24.981 65.0007 26.8452 65.3265 28.4897 65.614C30.483 65.9625 32.5441 66.3228 34.1661 67.5028C35.7694 68.6689 36.738 70.5037 37.6746 72.2782C38.4604 73.7666 39.351 75.4538 40.2382 75.742C40.3357 75.7735 40.4474 75.789 40.5802 75.789C41.4775 75.789 42.8471 75.1214 44.1713 74.4756C46.0213 73.5736 47.934 72.641 50.0002 72.641Z" fill="white"/>
<path d="M50.0002 66.5814C38.4873 66.5814 29.1205 57.2199 29.1205 45.713C29.1205 34.206 38.4871 24.8445 50.0002 24.8445C54.6615 24.8445 59.0708 26.346 62.7516 29.1871C67.9172 33.1737 70.8797 39.1972 70.8797 45.7128C70.8797 57.2199 61.5132 66.5814 50.0002 66.5814ZM50.0002 29.4821C41.0457 29.4821 33.7605 36.7634 33.7605 45.7131C33.7605 54.6628 41.0457 61.9441 50.0002 61.9441C58.9547 61.9441 66.2399 54.6628 66.2399 45.7131C66.2399 40.6451 63.9347 35.9598 59.9157 32.8577C57.0547 30.6495 53.6258 29.4821 50.0002 29.4821Z" fill="white"/>
<path d="M27.7272 89.9995C26.4433 89.9995 25.3161 89.2262 24.8558 88.0295L21.2767 78.7293L11.9714 75.1525C10.9961 74.7775 10.2845 73.9439 10.0676 72.9223C9.85076 71.9007 10.1625 70.8498 10.9014 70.1116L22.4771 58.6914L24.1896 66.7605L42.0489 77.1524L29.8989 89.0994C29.3179 89.6799 28.5468 89.9995 27.7272 89.9995ZM15.8859 71.6887L23.5919 74.6509C24.4022 74.9621 25.0465 75.6057 25.3581 76.4164L28.3214 84.1175L38.3792 74.2182L26.1468 67.1272L23.5919 63.4595L15.8859 71.6887Z" fill="white"/>
<path d="M72.2707 90C71.4648 90 70.6857 89.683 70.1014 89.0994L66.0407 85.0411L69.3218 81.7618L71.6789 84.1175L74.6426 76.4157C74.9542 75.6055 75.5982 74.9618 76.4093 74.6504L84.1143 71.6886L76.4093 64.9266L76.9113 59.425L89.0988 70.1119C89.8374 70.8503 90.1492 71.9008 89.9324 72.9221C89.7156 73.9438 89.004 74.7775 88.0287 75.1525L78.7235 78.7296L75.1445 88.0298C74.7696 89.0043 73.9353 89.7158 72.9134 89.9325C72.6996 89.9778 72.4842 90 72.2707 90Z" fill="white"/>
</g>
</g>
</svg>
