<svg width="25" height="25" viewBox="0 0 25 25" fill="none" xmlns="http://www.w3.org/2000/svg">
<g id="Frame 107">
<g id="Vector">
<mask id="path-1-outside-1_2016_11238" maskUnits="userSpaceOnUse" x="0" y="1.5" width="24" height="23" fill="black">
<rect fill="white" y="1.5" width="24" height="23"/>
<path d="M14.5907 20.955C14.0493 20.955 13.538 20.7141 13.0437 20.4811C12.6651 20.3027 12.2738 20.1182 12.0001 20.1182C11.7265 20.1182 11.3351 20.3027 10.9566 20.4811C10.4622 20.7141 9.95101 20.955 9.4096 20.955C9.23966 20.955 9.07547 20.9305 8.92152 20.8822C8.18478 20.6511 7.81146 19.9675 7.48202 19.3643C7.29236 19.0171 7.09629 18.658 6.89494 18.5164C6.68822 18.3711 6.26966 18.3003 5.86485 18.2319C5.17443 18.1151 4.3918 17.9829 3.94153 17.3852C3.49521 16.7927 3.60504 16.0367 3.70189 15.3696C3.75951 14.9729 3.81915 14.5628 3.73786 14.3212C3.66391 14.1011 3.37567 13.8149 3.09685 13.5381C2.60108 13.0458 2.039 12.4877 2.039 11.7275C2.039 10.9673 2.60108 10.4093 3.09685 9.91696C3.37563 9.6402 3.66391 9.35405 3.7379 9.13387C3.81907 8.89231 3.75947 8.48221 3.70185 8.08551C3.60495 7.41849 3.49513 6.66246 3.9414 6.06991C4.3918 5.47213 5.17443 5.33987 5.86485 5.22314C6.26966 5.15473 6.68813 5.08403 6.89494 4.93861C7.09629 4.7971 7.29236 4.43801 7.48194 4.09072C7.81134 3.48754 8.18469 2.80387 8.92143 2.57273C9.07539 2.52445 9.23953 2.5 9.40951 2.5C9.95092 2.5 10.4622 2.74086 10.9566 2.97387C11.3352 3.15224 11.7265 3.33673 12.0001 3.33673C12.2737 3.33673 12.6651 3.15224 13.0436 2.97387C13.538 2.7409 14.0492 2.5 14.5906 2.5C14.7606 2.5 14.9248 2.52445 15.0787 2.57273C15.8155 2.80387 16.1888 3.48754 16.5182 4.09072C16.7078 4.43797 16.9039 4.79701 17.1052 4.93861C17.3121 5.08403 17.7306 5.15473 18.1353 5.22314C18.8257 5.33987 19.6084 5.47213 20.0586 6.06983C20.5049 6.66234 20.3951 7.41836 20.2983 8.08543C20.2406 8.48212 20.181 8.89227 20.2623 9.13383C20.3362 9.35401 20.6246 9.64016 20.9033 9.917C21.3991 10.4093 21.9611 10.9673 21.9611 11.7275C21.9611 12.4877 21.399 13.0458 20.9033 13.5381C20.6245 13.8148 20.3362 14.101 20.2622 14.3212C20.181 14.5627 20.2406 14.9729 20.2983 15.3695C20.3952 16.0365 20.505 16.7926 20.0587 17.3851C19.6083 17.9828 18.8257 18.1151 18.1353 18.2319C17.7305 18.3003 17.312 18.371 17.1052 18.5164C16.9039 18.6579 16.7078 19.017 16.5183 19.3643C16.1889 19.9675 15.8155 20.6511 15.0788 20.8823C14.9249 20.9305 14.7607 20.955 14.5907 20.955ZM12.0001 18.8856C12.5682 18.8856 13.0943 19.1335 13.603 19.3732C13.9672 19.5448 14.3438 19.7223 14.5907 19.7223C14.6271 19.7223 14.6579 19.7182 14.6847 19.7098C14.9287 19.6333 15.1736 19.1848 15.3897 18.7891C15.6473 18.3174 15.9136 17.8296 16.3544 17.5196C16.8006 17.206 17.3674 17.1102 17.9155 17.0176C18.3678 16.9411 18.8804 16.8545 19.0272 16.6597C19.1698 16.4703 19.0981 15.9765 19.0348 15.5408C18.957 15.0058 18.8766 14.4525 19.0488 13.9404C19.2146 13.4471 19.6082 13.0563 19.9888 12.6783C20.3152 12.3542 20.6852 11.9869 20.6852 11.7275C20.6852 11.4681 20.3152 11.1008 19.9888 10.7767C19.6081 10.3987 19.2145 10.0079 19.0488 9.51454C18.8767 9.00252 18.957 8.4492 19.0348 7.91415C19.098 7.47851 19.1698 6.98472 19.0271 6.7953C18.8804 6.60052 18.3678 6.51393 17.9155 6.43751C17.3674 6.34485 16.8006 6.24908 16.3544 5.93541C15.9136 5.62544 15.6472 5.13771 15.3896 4.666C15.1736 4.27034 14.9286 3.82188 14.6846 3.74525C14.6579 3.73687 14.6271 3.73276 14.5906 3.73276C14.3438 3.73276 13.9672 3.91022 13.603 4.08188C13.0943 4.32157 12.5683 4.56948 12.0001 4.56948C11.4319 4.56948 10.9059 4.32165 10.3971 4.08188C10.0329 3.91026 9.65633 3.73276 9.40951 3.73276C9.37308 3.73276 9.34227 3.73682 9.31545 3.74525C9.07148 3.8218 8.82656 4.27034 8.61047 4.666C8.35291 5.13771 8.08655 5.62544 7.64578 5.93541C7.19963 6.24908 6.63283 6.34485 6.08468 6.43751C5.63239 6.51393 5.11977 6.60061 4.97304 6.79538C4.83038 6.98481 4.90214 7.47856 4.96539 7.91423C5.04316 8.44929 5.12356 9.00261 4.95142 9.51462C4.78561 10.0079 4.39197 10.3988 4.01135 10.7767C3.68496 11.1008 3.315 11.4681 3.315 11.7276C3.315 11.9871 3.68496 12.3544 4.01135 12.6785C4.39206 13.0564 4.78569 13.4473 4.95142 13.9405C5.12347 14.4526 5.04316 15.0059 4.96539 15.541C4.90218 15.9766 4.83038 16.4704 4.97312 16.6598C5.11977 16.8546 5.63243 16.9412 6.08468 17.0176C6.63283 17.1103 7.19963 17.2061 7.64569 17.5197C8.08659 17.8297 8.35296 18.3174 8.61051 18.7891C8.8266 19.1848 9.07152 19.6333 9.3155 19.7099C9.34231 19.7183 9.37303 19.7224 9.40956 19.7224C9.65633 19.7224 10.0329 19.5449 10.3971 19.3733C10.9059 19.1335 11.4318 18.8856 12.0001 18.8856Z"/>
<path d="M12.0001 17.2748C8.834 17.2748 6.25815 14.7863 6.25815 11.7275C6.25815 8.66868 8.83395 6.18017 12.0001 6.18017C13.2819 6.18017 14.4945 6.57932 15.5067 7.33456C16.9272 8.39429 17.7419 9.99547 17.7419 11.7275C17.7419 14.7863 15.1661 17.2748 12.0001 17.2748ZM12.0001 7.41297C9.53757 7.41297 7.53415 9.34849 7.53415 11.7275C7.53415 14.1066 9.53757 16.0421 12.0001 16.0421C14.4626 16.0421 16.466 14.1066 16.466 11.7275C16.466 10.3803 15.8321 9.13487 14.7268 8.31027C13.9401 7.72328 12.9971 7.41297 12.0001 7.41297Z"/>
<path d="M5.87497 23.4999C5.52189 23.4999 5.21192 23.2943 5.08533 22.9762L4.10109 20.504L1.54213 19.5532C1.27392 19.4535 1.07824 19.2319 1.0186 18.9604C0.95896 18.6888 1.04468 18.4094 1.24788 18.2132L4.43119 15.1775L4.90214 17.3224L9.81345 20.0848L6.47219 23.2606C6.31243 23.4149 6.10038 23.4999 5.87497 23.4999ZM2.61863 18.6324L4.73776 19.4199C4.96059 19.5026 5.1378 19.6737 5.22348 19.8892L6.03838 21.9363L8.80428 19.3048L5.44036 17.4199L4.73776 16.4449L2.61863 18.6324Z"/>
<path d="M18.1245 23.5C17.9028 23.5 17.6886 23.4157 17.5279 23.2606L16.4112 22.1818L17.3135 21.3101L17.9617 21.9363L18.7767 19.889C18.8624 19.6736 19.0395 19.5025 19.2626 19.4197L21.3814 18.6324L19.2626 16.8349L19.4006 15.3725L22.7522 18.2133C22.9553 18.4096 23.041 18.6888 22.9814 18.9603C22.9218 19.2319 22.7261 19.4535 22.4579 19.5532L19.899 20.5041L18.9147 22.9763C18.8116 23.2353 18.5822 23.4244 18.3012 23.4821C18.2424 23.4941 18.1831 23.5 18.1245 23.5Z"/>
</mask>
<path d="M14.5907 20.955C14.0493 20.955 13.538 20.7141 13.0437 20.4811C12.6651 20.3027 12.2738 20.1182 12.0001 20.1182C11.7265 20.1182 11.3351 20.3027 10.9566 20.4811C10.4622 20.7141 9.95101 20.955 9.4096 20.955C9.23966 20.955 9.07547 20.9305 8.92152 20.8822C8.18478 20.6511 7.81146 19.9675 7.48202 19.3643C7.29236 19.0171 7.09629 18.658 6.89494 18.5164C6.68822 18.3711 6.26966 18.3003 5.86485 18.2319C5.17443 18.1151 4.3918 17.9829 3.94153 17.3852C3.49521 16.7927 3.60504 16.0367 3.70189 15.3696C3.75951 14.9729 3.81915 14.5628 3.73786 14.3212C3.66391 14.1011 3.37567 13.8149 3.09685 13.5381C2.60108 13.0458 2.039 12.4877 2.039 11.7275C2.039 10.9673 2.60108 10.4093 3.09685 9.91696C3.37563 9.6402 3.66391 9.35405 3.7379 9.13387C3.81907 8.89231 3.75947 8.48221 3.70185 8.08551C3.60495 7.41849 3.49513 6.66246 3.9414 6.06991C4.3918 5.47213 5.17443 5.33987 5.86485 5.22314C6.26966 5.15473 6.68813 5.08403 6.89494 4.93861C7.09629 4.7971 7.29236 4.43801 7.48194 4.09072C7.81134 3.48754 8.18469 2.80387 8.92143 2.57273C9.07539 2.52445 9.23953 2.5 9.40951 2.5C9.95092 2.5 10.4622 2.74086 10.9566 2.97387C11.3352 3.15224 11.7265 3.33673 12.0001 3.33673C12.2737 3.33673 12.6651 3.15224 13.0436 2.97387C13.538 2.7409 14.0492 2.5 14.5906 2.5C14.7606 2.5 14.9248 2.52445 15.0787 2.57273C15.8155 2.80387 16.1888 3.48754 16.5182 4.09072C16.7078 4.43797 16.9039 4.79701 17.1052 4.93861C17.3121 5.08403 17.7306 5.15473 18.1353 5.22314C18.8257 5.33987 19.6084 5.47213 20.0586 6.06983C20.5049 6.66234 20.3951 7.41836 20.2983 8.08543C20.2406 8.48212 20.181 8.89227 20.2623 9.13383C20.3362 9.35401 20.6246 9.64016 20.9033 9.917C21.3991 10.4093 21.9611 10.9673 21.9611 11.7275C21.9611 12.4877 21.399 13.0458 20.9033 13.5381C20.6245 13.8148 20.3362 14.101 20.2622 14.3212C20.181 14.5627 20.2406 14.9729 20.2983 15.3695C20.3952 16.0365 20.505 16.7926 20.0587 17.3851C19.6083 17.9828 18.8257 18.1151 18.1353 18.2319C17.7305 18.3003 17.312 18.371 17.1052 18.5164C16.9039 18.6579 16.7078 19.017 16.5183 19.3643C16.1889 19.9675 15.8155 20.6511 15.0788 20.8823C14.9249 20.9305 14.7607 20.955 14.5907 20.955ZM12.0001 18.8856C12.5682 18.8856 13.0943 19.1335 13.603 19.3732C13.9672 19.5448 14.3438 19.7223 14.5907 19.7223C14.6271 19.7223 14.6579 19.7182 14.6847 19.7098C14.9287 19.6333 15.1736 19.1848 15.3897 18.7891C15.6473 18.3174 15.9136 17.8296 16.3544 17.5196C16.8006 17.206 17.3674 17.1102 17.9155 17.0176C18.3678 16.9411 18.8804 16.8545 19.0272 16.6597C19.1698 16.4703 19.0981 15.9765 19.0348 15.5408C18.957 15.0058 18.8766 14.4525 19.0488 13.9404C19.2146 13.4471 19.6082 13.0563 19.9888 12.6783C20.3152 12.3542 20.6852 11.9869 20.6852 11.7275C20.6852 11.4681 20.3152 11.1008 19.9888 10.7767C19.6081 10.3987 19.2145 10.0079 19.0488 9.51454C18.8767 9.00252 18.957 8.4492 19.0348 7.91415C19.098 7.47851 19.1698 6.98472 19.0271 6.7953C18.8804 6.60052 18.3678 6.51393 17.9155 6.43751C17.3674 6.34485 16.8006 6.24908 16.3544 5.93541C15.9136 5.62544 15.6472 5.13771 15.3896 4.666C15.1736 4.27034 14.9286 3.82188 14.6846 3.74525C14.6579 3.73687 14.6271 3.73276 14.5906 3.73276C14.3438 3.73276 13.9672 3.91022 13.603 4.08188C13.0943 4.32157 12.5683 4.56948 12.0001 4.56948C11.4319 4.56948 10.9059 4.32165 10.3971 4.08188C10.0329 3.91026 9.65633 3.73276 9.40951 3.73276C9.37308 3.73276 9.34227 3.73682 9.31545 3.74525C9.07148 3.8218 8.82656 4.27034 8.61047 4.666C8.35291 5.13771 8.08655 5.62544 7.64578 5.93541C7.19963 6.24908 6.63283 6.34485 6.08468 6.43751C5.63239 6.51393 5.11977 6.60061 4.97304 6.79538C4.83038 6.98481 4.90214 7.47856 4.96539 7.91423C5.04316 8.44929 5.12356 9.00261 4.95142 9.51462C4.78561 10.0079 4.39197 10.3988 4.01135 10.7767C3.68496 11.1008 3.315 11.4681 3.315 11.7276C3.315 11.9871 3.68496 12.3544 4.01135 12.6785C4.39206 13.0564 4.78569 13.4473 4.95142 13.9405C5.12347 14.4526 5.04316 15.0059 4.96539 15.541C4.90218 15.9766 4.83038 16.4704 4.97312 16.6598C5.11977 16.8546 5.63243 16.9412 6.08468 17.0176C6.63283 17.1103 7.19963 17.2061 7.64569 17.5197C8.08659 17.8297 8.35296 18.3174 8.61051 18.7891C8.8266 19.1848 9.07152 19.6333 9.3155 19.7099C9.34231 19.7183 9.37303 19.7224 9.40956 19.7224C9.65633 19.7224 10.0329 19.5449 10.3971 19.3733C10.9059 19.1335 11.4318 18.8856 12.0001 18.8856Z" fill="#383D91"/>
<path d="M12.0001 17.2748C8.834 17.2748 6.25815 14.7863 6.25815 11.7275C6.25815 8.66868 8.83395 6.18017 12.0001 6.18017C13.2819 6.18017 14.4945 6.57932 15.5067 7.33456C16.9272 8.39429 17.7419 9.99547 17.7419 11.7275C17.7419 14.7863 15.1661 17.2748 12.0001 17.2748ZM12.0001 7.41297C9.53757 7.41297 7.53415 9.34849 7.53415 11.7275C7.53415 14.1066 9.53757 16.0421 12.0001 16.0421C14.4626 16.0421 16.466 14.1066 16.466 11.7275C16.466 10.3803 15.8321 9.13487 14.7268 8.31027C13.9401 7.72328 12.9971 7.41297 12.0001 7.41297Z" fill="#383D91"/>
<path d="M5.87497 23.4999C5.52189 23.4999 5.21192 23.2943 5.08533 22.9762L4.10109 20.504L1.54213 19.5532C1.27392 19.4535 1.07824 19.2319 1.0186 18.9604C0.95896 18.6888 1.04468 18.4094 1.24788 18.2132L4.43119 15.1775L4.90214 17.3224L9.81345 20.0848L6.47219 23.2606C6.31243 23.4149 6.10038 23.4999 5.87497 23.4999ZM2.61863 18.6324L4.73776 19.4199C4.96059 19.5026 5.1378 19.6737 5.22348 19.8892L6.03838 21.9363L8.80428 19.3048L5.44036 17.4199L4.73776 16.4449L2.61863 18.6324Z" fill="#383D91"/>
<path d="M18.1245 23.5C17.9028 23.5 17.6886 23.4157 17.5279 23.2606L16.4112 22.1818L17.3135 21.3101L17.9617 21.9363L18.7767 19.889C18.8624 19.6736 19.0395 19.5025 19.2626 19.4197L21.3814 18.6324L19.2626 16.8349L19.4006 15.3725L22.7522 18.2133C22.9553 18.4096 23.041 18.6888 22.9814 18.9603C22.9218 19.2319 22.7261 19.4535 22.4579 19.5532L19.899 20.5041L18.9147 22.9763C18.8116 23.2353 18.5822 23.4244 18.3012 23.4821C18.2424 23.4941 18.1831 23.5 18.1245 23.5Z" fill="#383D91"/>
<path d="M14.5907 20.955C14.0493 20.955 13.538 20.7141 13.0437 20.4811C12.6651 20.3027 12.2738 20.1182 12.0001 20.1182C11.7265 20.1182 11.3351 20.3027 10.9566 20.4811C10.4622 20.7141 9.95101 20.955 9.4096 20.955C9.23966 20.955 9.07547 20.9305 8.92152 20.8822C8.18478 20.6511 7.81146 19.9675 7.48202 19.3643C7.29236 19.0171 7.09629 18.658 6.89494 18.5164C6.68822 18.3711 6.26966 18.3003 5.86485 18.2319C5.17443 18.1151 4.3918 17.9829 3.94153 17.3852C3.49521 16.7927 3.60504 16.0367 3.70189 15.3696C3.75951 14.9729 3.81915 14.5628 3.73786 14.3212C3.66391 14.1011 3.37567 13.8149 3.09685 13.5381C2.60108 13.0458 2.039 12.4877 2.039 11.7275C2.039 10.9673 2.60108 10.4093 3.09685 9.91696C3.37563 9.6402 3.66391 9.35405 3.7379 9.13387C3.81907 8.89231 3.75947 8.48221 3.70185 8.08551C3.60495 7.41849 3.49513 6.66246 3.9414 6.06991C4.3918 5.47213 5.17443 5.33987 5.86485 5.22314C6.26966 5.15473 6.68813 5.08403 6.89494 4.93861C7.09629 4.7971 7.29236 4.43801 7.48194 4.09072C7.81134 3.48754 8.18469 2.80387 8.92143 2.57273C9.07539 2.52445 9.23953 2.5 9.40951 2.5C9.95092 2.5 10.4622 2.74086 10.9566 2.97387C11.3352 3.15224 11.7265 3.33673 12.0001 3.33673C12.2737 3.33673 12.6651 3.15224 13.0436 2.97387C13.538 2.7409 14.0492 2.5 14.5906 2.5C14.7606 2.5 14.9248 2.52445 15.0787 2.57273C15.8155 2.80387 16.1888 3.48754 16.5182 4.09072C16.7078 4.43797 16.9039 4.79701 17.1052 4.93861C17.3121 5.08403 17.7306 5.15473 18.1353 5.22314C18.8257 5.33987 19.6084 5.47213 20.0586 6.06983C20.5049 6.66234 20.3951 7.41836 20.2983 8.08543C20.2406 8.48212 20.181 8.89227 20.2623 9.13383C20.3362 9.35401 20.6246 9.64016 20.9033 9.917C21.3991 10.4093 21.9611 10.9673 21.9611 11.7275C21.9611 12.4877 21.399 13.0458 20.9033 13.5381C20.6245 13.8148 20.3362 14.101 20.2622 14.3212C20.181 14.5627 20.2406 14.9729 20.2983 15.3695C20.3952 16.0365 20.505 16.7926 20.0587 17.3851C19.6083 17.9828 18.8257 18.1151 18.1353 18.2319C17.7305 18.3003 17.312 18.371 17.1052 18.5164C16.9039 18.6579 16.7078 19.017 16.5183 19.3643C16.1889 19.9675 15.8155 20.6511 15.0788 20.8823C14.9249 20.9305 14.7607 20.955 14.5907 20.955ZM12.0001 18.8856C12.5682 18.8856 13.0943 19.1335 13.603 19.3732C13.9672 19.5448 14.3438 19.7223 14.5907 19.7223C14.6271 19.7223 14.6579 19.7182 14.6847 19.7098C14.9287 19.6333 15.1736 19.1848 15.3897 18.7891C15.6473 18.3174 15.9136 17.8296 16.3544 17.5196C16.8006 17.206 17.3674 17.1102 17.9155 17.0176C18.3678 16.9411 18.8804 16.8545 19.0272 16.6597C19.1698 16.4703 19.0981 15.9765 19.0348 15.5408C18.957 15.0058 18.8766 14.4525 19.0488 13.9404C19.2146 13.4471 19.6082 13.0563 19.9888 12.6783C20.3152 12.3542 20.6852 11.9869 20.6852 11.7275C20.6852 11.4681 20.3152 11.1008 19.9888 10.7767C19.6081 10.3987 19.2145 10.0079 19.0488 9.51454C18.8767 9.00252 18.957 8.4492 19.0348 7.91415C19.098 7.47851 19.1698 6.98472 19.0271 6.7953C18.8804 6.60052 18.3678 6.51393 17.9155 6.43751C17.3674 6.34485 16.8006 6.24908 16.3544 5.93541C15.9136 5.62544 15.6472 5.13771 15.3896 4.666C15.1736 4.27034 14.9286 3.82188 14.6846 3.74525C14.6579 3.73687 14.6271 3.73276 14.5906 3.73276C14.3438 3.73276 13.9672 3.91022 13.603 4.08188C13.0943 4.32157 12.5683 4.56948 12.0001 4.56948C11.4319 4.56948 10.9059 4.32165 10.3971 4.08188C10.0329 3.91026 9.65633 3.73276 9.40951 3.73276C9.37308 3.73276 9.34227 3.73682 9.31545 3.74525C9.07148 3.8218 8.82656 4.27034 8.61047 4.666C8.35291 5.13771 8.08655 5.62544 7.64578 5.93541C7.19963 6.24908 6.63283 6.34485 6.08468 6.43751C5.63239 6.51393 5.11977 6.60061 4.97304 6.79538C4.83038 6.98481 4.90214 7.47856 4.96539 7.91423C5.04316 8.44929 5.12356 9.00261 4.95142 9.51462C4.78561 10.0079 4.39197 10.3988 4.01135 10.7767C3.68496 11.1008 3.315 11.4681 3.315 11.7276C3.315 11.9871 3.68496 12.3544 4.01135 12.6785C4.39206 13.0564 4.78569 13.4473 4.95142 13.9405C5.12347 14.4526 5.04316 15.0059 4.96539 15.541C4.90218 15.9766 4.83038 16.4704 4.97312 16.6598C5.11977 16.8546 5.63243 16.9412 6.08468 17.0176C6.63283 17.1103 7.19963 17.2061 7.64569 17.5197C8.08659 17.8297 8.35296 18.3174 8.61051 18.7891C8.8266 19.1848 9.07152 19.6333 9.3155 19.7099C9.34231 19.7183 9.37303 19.7224 9.40956 19.7224C9.65633 19.7224 10.0329 19.5449 10.3971 19.3733C10.9059 19.1335 11.4318 18.8856 12.0001 18.8856Z" stroke="#383D91" stroke-width="0.6" mask="url(#path-1-outside-1_2016_11238)"/>
<path d="M12.0001 17.2748C8.834 17.2748 6.25815 14.7863 6.25815 11.7275C6.25815 8.66868 8.83395 6.18017 12.0001 6.18017C13.2819 6.18017 14.4945 6.57932 15.5067 7.33456C16.9272 8.39429 17.7419 9.99547 17.7419 11.7275C17.7419 14.7863 15.1661 17.2748 12.0001 17.2748ZM12.0001 7.41297C9.53757 7.41297 7.53415 9.34849 7.53415 11.7275C7.53415 14.1066 9.53757 16.0421 12.0001 16.0421C14.4626 16.0421 16.466 14.1066 16.466 11.7275C16.466 10.3803 15.8321 9.13487 14.7268 8.31027C13.9401 7.72328 12.9971 7.41297 12.0001 7.41297Z" stroke="#383D91" stroke-width="0.6" mask="url(#path-1-outside-1_2016_11238)"/>
<path d="M5.87497 23.4999C5.52189 23.4999 5.21192 23.2943 5.08533 22.9762L4.10109 20.504L1.54213 19.5532C1.27392 19.4535 1.07824 19.2319 1.0186 18.9604C0.95896 18.6888 1.04468 18.4094 1.24788 18.2132L4.43119 15.1775L4.90214 17.3224L9.81345 20.0848L6.47219 23.2606C6.31243 23.4149 6.10038 23.4999 5.87497 23.4999ZM2.61863 18.6324L4.73776 19.4199C4.96059 19.5026 5.1378 19.6737 5.22348 19.8892L6.03838 21.9363L8.80428 19.3048L5.44036 17.4199L4.73776 16.4449L2.61863 18.6324Z" stroke="#383D91" stroke-width="0.6" mask="url(#path-1-outside-1_2016_11238)"/>
<path d="M18.1245 23.5C17.9028 23.5 17.6886 23.4157 17.5279 23.2606L16.4112 22.1818L17.3135 21.3101L17.9617 21.9363L18.7767 19.889C18.8624 19.6736 19.0395 19.5025 19.2626 19.4197L21.3814 18.6324L19.2626 16.8349L19.4006 15.3725L22.7522 18.2133C22.9553 18.4096 23.041 18.6888 22.9814 18.9603C22.9218 19.2319 22.7261 19.4535 22.4579 19.5532L19.899 20.5041L18.9147 22.9763C18.8116 23.2353 18.5822 23.4244 18.3012 23.4821C18.2424 23.4941 18.1831 23.5 18.1245 23.5Z" stroke="#383D91" stroke-width="0.6" mask="url(#path-1-outside-1_2016_11238)"/>
</g>
</g>
</svg>
