<svg width="21" height="21" viewBox="0 0 21 21" fill="none" xmlns="http://www.w3.org/2000/svg">
<g filter="url(#filter0_i_3020_3614)">
<path d="M12.973 18.455C12.4561 18.455 11.9681 18.2141 11.4962 17.9811C11.1349 17.8027 10.7613 17.6182 10.5001 17.6182C10.2389 17.6182 9.86534 17.8027 9.50403 17.9811C9.03214 18.2141 8.54414 18.455 8.02734 18.455C7.86513 18.455 7.70841 18.4305 7.56145 18.3822C6.85819 18.1511 6.50185 17.4675 6.18739 16.8643C6.00634 16.5171 5.81919 16.158 5.62699 16.0164C5.42966 15.8711 5.03013 15.8003 4.64372 15.7319C3.98468 15.6151 3.23763 15.4829 2.80782 14.8852C2.38179 14.2927 2.48663 13.5367 2.57908 12.8696C2.63408 12.4729 2.69101 12.0628 2.61341 11.8212C2.54282 11.6011 2.26769 11.3149 2.00154 11.0381C1.5283 10.5458 0.991775 9.98775 0.991775 9.22753C0.991775 8.46731 1.5283 7.9093 2.00154 7.41696C2.26765 7.1402 2.54282 6.85405 2.61345 6.63387C2.69093 6.39231 2.63404 5.98221 2.57904 5.58551C2.48655 4.91849 2.38171 4.16246 2.8077 3.56991C3.23763 2.97213 3.98468 2.83987 4.64372 2.72314C5.03013 2.65473 5.42958 2.58403 5.62699 2.43861C5.81919 2.2971 6.00634 1.93801 6.1873 1.59072C6.50173 0.987542 6.85811 0.303872 7.56137 0.07273C7.70833 0.0244509 7.86501 0 8.02726 0C8.54406 0 9.0321 0.240856 9.50399 0.473866C9.86538 0.652245 10.2389 0.836727 10.5001 0.836727C10.7612 0.836727 11.1349 0.652245 11.4962 0.473866C11.9681 0.240897 12.4561 0 12.9729 0C13.1351 0 13.2919 0.0244509 13.4388 0.07273C14.142 0.303872 14.4984 0.987542 14.8128 1.59072C14.9938 1.93797 15.181 2.29701 15.3732 2.43861C15.5706 2.58403 15.9701 2.65473 16.3564 2.72314C17.0155 2.83987 17.7626 2.97213 18.1923 3.56983C18.6184 4.16234 18.5135 4.91836 18.4211 5.58543C18.3661 5.98212 18.3091 6.39227 18.3867 6.63383C18.4573 6.85401 18.7325 7.14016 18.9986 7.417C19.4719 7.9093 20.0083 8.46731 20.0083 9.22753C20.0083 9.98775 19.4718 10.5458 18.9986 11.0381C18.7325 11.3148 18.4573 11.601 18.3867 11.8212C18.3092 12.0627 18.3661 12.4729 18.4211 12.8695C18.5136 13.5365 18.6184 14.2926 18.1924 14.8851C17.7625 15.4828 17.0155 15.6151 16.3564 15.7319C15.97 15.8003 15.5705 15.871 15.3732 16.0164C15.181 16.1579 14.9938 16.517 14.8129 16.8643C14.4985 17.4675 14.1421 18.1511 13.4388 18.3823C13.2919 18.4305 13.1352 18.455 12.973 18.455ZM10.5001 16.3856C11.0424 16.3856 11.5445 16.6335 12.0301 16.8732C12.3778 17.0448 12.7373 17.2223 12.9729 17.2223C13.0077 17.2223 13.0371 17.2182 13.0627 17.2098C13.2956 17.1333 13.5294 16.6848 13.7357 16.2891C13.9815 15.8174 14.2358 15.3296 14.6565 15.0196C15.0824 14.706 15.6234 14.6102 16.1466 14.5176C16.5784 14.4411 17.0677 14.3545 17.2077 14.1597C17.3439 13.9703 17.2754 13.4765 17.215 13.0408C17.1408 12.5058 17.0641 11.9525 17.2284 11.4404C17.3867 10.9471 17.7624 10.5563 18.1257 10.1783C18.4373 9.8542 18.7904 9.4869 18.7904 9.22749C18.7904 8.96808 18.4373 8.60077 18.1257 8.27669C17.7623 7.89871 17.3866 7.50787 17.2284 7.01454C17.0641 6.50252 17.1408 5.9492 17.215 5.41415C17.2754 4.97851 17.3439 4.48472 17.2077 4.2953C17.0677 4.10052 16.5783 4.01393 16.1466 3.93751C15.6234 3.84485 15.0824 3.74908 14.6565 3.43541C14.2357 3.12544 13.9814 2.63771 13.7356 2.166C13.5293 1.77034 13.2955 1.32188 13.0626 1.24525C13.0371 1.23687 13.0077 1.23276 12.9729 1.23276C12.7372 1.23276 12.3778 1.41022 12.0302 1.58188C11.5446 1.82157 11.0424 2.06948 10.5001 2.06948C9.95775 2.06948 9.45563 1.82165 8.96996 1.58188C8.62236 1.41026 8.26286 1.23276 8.02726 1.23276C7.99248 1.23276 7.96307 1.23682 7.93748 1.24525C7.70459 1.3218 7.4708 1.77034 7.26454 2.166C7.01869 2.63771 6.76443 3.12544 6.34369 3.43541C5.91783 3.74908 5.37679 3.84485 4.85356 3.93751C4.42183 4.01393 3.93251 4.10061 3.79244 4.29538C3.65627 4.48481 3.72477 4.97856 3.78514 5.41423C3.85938 5.94929 3.93612 6.50261 3.77181 7.01462C3.61353 7.50792 3.23779 7.89876 2.87447 8.27669C2.56292 8.60077 2.20977 8.96808 2.20977 9.22757C2.20977 9.48707 2.56292 9.85437 2.87447 10.1785C3.23787 10.5564 3.61362 10.9473 3.77181 11.4405C3.93604 11.9526 3.85938 12.5059 3.78514 13.041C3.72481 13.4766 3.65627 13.9704 3.79252 14.1598C3.93251 14.3546 4.42187 14.4412 4.85356 14.5176C5.37679 14.6103 5.91783 14.7061 6.34361 15.0197C6.76447 15.3297 7.01873 15.8174 7.26458 16.2891C7.47085 16.6848 7.70463 17.1333 7.93752 17.2099C7.96311 17.2183 7.99244 17.2224 8.0273 17.2224C8.26286 17.2224 8.62236 17.0449 8.96996 16.8733C9.45559 16.6335 9.95766 16.3856 10.5001 16.3856Z" fill="white"/>
<path d="M10.5001 14.7748C7.47791 14.7748 5.01914 12.2863 5.01914 9.22749C5.01914 6.16868 7.47786 3.68017 10.5001 3.68017C11.7236 3.68017 12.8811 4.07932 13.8473 4.83456C15.2033 5.89429 15.9809 7.49547 15.9809 9.22745C15.9809 12.2863 13.5222 14.7748 10.5001 14.7748ZM10.5001 4.91297C8.14949 4.91297 6.23714 6.84849 6.23714 9.22754C6.23714 11.6066 8.14949 13.5421 10.5001 13.5421C12.8506 13.5421 14.763 11.6066 14.763 9.22754C14.763 7.88033 14.1579 6.63487 13.1029 5.81027C12.3519 5.22328 11.4518 4.91297 10.5001 4.91297Z" fill="white"/>
<path d="M4.65338 20.9999C4.31635 20.9999 4.02047 20.7943 3.89964 20.4762C3.30683 18.9163 2.07259 17.6585 0.517489 17.0532C0.26147 16.9535 0.0746846 16.7319 0.017755 16.4604C-0.0391747 16.1888 0.0426514 15.9094 0.236614 15.7132L2.02401 13.9275C2.56211 13.3899 3.482 13.6641 3.63802 14.4085C3.69328 14.6722 3.85703 14.9003 4.08911 15.0371L4.91751 15.5252C6.68584 16.5672 6.9924 18.9992 5.53797 20.4474L5.22345 20.7606C5.07096 20.9149 4.86855 20.9999 4.65338 20.9999ZM2.6374 14.9512C2.11285 15.5184 2.3244 16.4358 3.04439 16.7161L3.56786 16.9199C3.78057 17.0026 3.94972 17.1737 4.0315 17.3892L4.08972 17.5424C4.42775 18.432 5.5703 18.6779 6.24435 18.0061C6.85378 17.3986 6.72415 16.379 5.98212 15.9434L4.39251 15.0103C4.29109 14.9508 4.20399 14.8697 4.13734 14.7728C3.84546 14.3485 3.23532 14.3045 2.88566 14.6827L2.6374 14.9512Z" fill="white"/>
<path d="M16.3461 21C16.1345 21 15.93 20.9157 15.7766 20.7606L15.1362 20.1124C14.9004 19.8738 14.9004 19.4898 15.1362 19.2512L15.3281 19.0569C15.4623 18.9211 15.6816 18.9211 15.8158 19.0569C15.9912 19.2344 16.2915 19.171 16.3802 18.9377L16.9687 17.389C17.0505 17.1736 17.2195 17.0025 17.4324 16.9197L17.5278 16.8826C18.4088 16.5397 18.6158 15.3866 17.9092 14.7586L17.6551 14.5328C17.515 14.4083 17.4424 14.2249 17.4592 14.0383C17.5027 13.5556 18.0771 13.3279 18.4395 13.6497L20.7634 15.7133C20.9573 15.9096 21.0392 16.1888 20.9823 16.4603C20.9253 16.7319 20.7386 16.9535 20.4825 17.0532C18.9275 17.6586 17.6932 18.9164 17.1004 20.4763C17.002 20.7353 16.783 20.9244 16.5148 20.9821C16.4587 20.9941 16.4021 21 16.3461 21Z" fill="white"/>
</g>
<defs>
<filter id="filter0_i_3020_3614" x="0" y="0" width="21" height="21" filterUnits="userSpaceOnUse" color-interpolation-filters="sRGB">
<feFlood flood-opacity="0" result="BackgroundImageFix"/>
<feBlend mode="normal" in="SourceGraphic" in2="BackgroundImageFix" result="shape"/>
<feColorMatrix in="SourceAlpha" type="matrix" values="0 0 0 0 0 0 0 0 0 0 0 0 0 0 0 0 0 0 127 0" result="hardAlpha"/>
<feOffset dy="1"/>
<feComposite in2="hardAlpha" operator="arithmetic" k2="-1" k3="1"/>
<feColorMatrix type="matrix" values="0 0 0 0 1 0 0 0 0 0.745833 0 0 0 0 0.745833 0 0 0 0.25 0"/>
<feBlend mode="normal" in2="shape" result="effect1_innerShadow_3020_3614"/>
</filter>
</defs>
</svg>
