<svg width="24" height="20" viewBox="0 0 24 20" fill="none" xmlns="http://www.w3.org/2000/svg">
<path d="M0.0390625 5.83969L1.85906 7.65969C7.44906 2.06969 16.5491 2.06969 22.1391 7.65969L23.9591 5.83969C17.3291 -0.790312 6.66906 -0.790312 0.0390625 5.83969Z" fill="url(#paint0_linear_3020_3708)"/>
<path d="M3.67906 9.47969L5.49906 11.2997C9.00906 7.78969 14.8591 7.78969 18.3691 11.2997L20.1891 9.47969C15.7691 4.92969 8.22906 4.92969 3.67906 9.47969Z" fill="url(#paint1_linear_3020_3708)"/>
<path d="M7.44906 13.2497L9.26906 15.0697C10.8291 13.5097 13.2991 13.5097 14.7291 15.0697L16.5491 13.2497C14.0791 10.6497 9.91906 10.6497 7.44906 13.2497Z" fill="url(#paint2_linear_3020_3708)"/>
<path d="M11.9991 19.0997C12.717 19.0997 13.2991 18.5177 13.2991 17.7997C13.2991 17.0817 12.717 16.4997 11.9991 16.4997C11.2811 16.4997 10.6991 17.0817 10.6991 17.7997C10.6991 18.5177 11.2811 19.0997 11.9991 19.0997Z" fill="url(#paint3_linear_3020_3708)"/>
<defs>
<linearGradient id="paint0_linear_3020_3708" x1="11.9992" y1="16.4995" x2="11.9992" y2="19.0995" gradientUnits="userSpaceOnUse">
<stop stop-color="#6EE130"/>
<stop offset="1" stop-color="#5BA01D"/>
</linearGradient>
<linearGradient id="paint1_linear_3020_3708" x1="11.9992" y1="16.4995" x2="11.9992" y2="19.0995" gradientUnits="userSpaceOnUse">
<stop stop-color="#6EE130"/>
<stop offset="1" stop-color="#5BA01D"/>
</linearGradient>
<linearGradient id="paint2_linear_3020_3708" x1="11.9992" y1="16.4995" x2="11.9992" y2="19.0995" gradientUnits="userSpaceOnUse">
<stop stop-color="#6EE130"/>
<stop offset="1" stop-color="#5BA01D"/>
</linearGradient>
<linearGradient id="paint3_linear_3020_3708" x1="11.9992" y1="16.4995" x2="11.9992" y2="19.0995" gradientUnits="userSpaceOnUse">
<stop stop-color="#6EE130"/>
<stop offset="1" stop-color="#5BA01D"/>
</linearGradient>
</defs>
</svg>
