<svg width="15" height="15" viewBox="0 0 15 15" fill="none" xmlns="http://www.w3.org/2000/svg">
<path id="Vector" d="M14.5312 5.625H9.375V0.46875C9.375 0.34443 9.32561 0.225201 9.23771 0.137294C9.1498 0.049386 9.03057 0 8.90625 0L6.09375 0C5.96943 0 5.8502 0.049386 5.76229 0.137294C5.67439 0.225201 5.625 0.34443 5.625 0.46875V5.625H0.46875C0.34443 5.625 0.225201 5.67439 0.137294 5.76229C0.049386 5.8502 0 5.96943 0 6.09375L0 8.90625C0 9.03057 0.049386 9.1498 0.137294 9.23771C0.225201 9.32561 0.34443 9.375 0.46875 9.375H5.625V14.5312C5.625 14.6556 5.67439 14.7748 5.76229 14.8627C5.8502 14.9506 5.96943 15 6.09375 15H8.90625C9.03057 15 9.1498 14.9506 9.23771 14.8627C9.32561 14.7748 9.375 14.6556 9.375 14.5312V9.375H14.5312C14.6556 9.375 14.7748 9.32561 14.8627 9.23771C14.9506 9.1498 15 9.03057 15 8.90625V6.09375C15 5.96943 14.9506 5.8502 14.8627 5.76229C14.7748 5.67439 14.6556 5.625 14.5312 5.625Z" fill="url(#paint0_linear_1969_4031)"/>
<defs>
<linearGradient id="paint0_linear_1969_4031" x1="7.5" y1="0" x2="7.5" y2="15" gradientUnits="userSpaceOnUse">
<stop stop-color="#F18D72"/>
<stop offset="1" stop-color="#C744A3"/>
</linearGradient>
</defs>
</svg>
