<svg width="26" height="27" viewBox="0 0 26 27" fill="none" xmlns="http://www.w3.org/2000/svg">
<g id="refresh_anqch9loq4pl 1" clip-path="url(#clip0_215_51682)">
<g id="Group">
<path id="Vector" d="M3.99846 13.6133C3.99846 8.66191 8.04137 4.61368 12.998 4.61368C14.3368 4.61368 15.6172 4.90057 16.8178 5.45839L18.4063 2.07425C16.7116 1.27204 14.9 0.878906 12.998 0.878906C5.98007 0.878906 0.263678 6.59529 0.263678 13.6133C0.263678 15.8446 0.842755 18.0281 1.95841 19.9512L-0.00195312 21.6619L6.4582 22.055L6.85134 15.5949L4.84848 17.3693C4.29065 16.2165 3.99846 14.9361 3.99846 13.6133Z" fill="white"/>
<path id="Vector_2" d="M25.9975 5.56501L19.5374 5.17188L19.1443 11.632L21.1471 9.85761C21.6837 11.0317 21.9706 12.312 21.9706 13.6349C21.9706 18.5863 17.9277 22.6345 12.971 22.6345C11.7119 22.6345 10.5165 22.3848 9.3584 21.8907L7.84961 25.3174C9.45934 26.0186 11.17 26.3905 12.9444 26.3905C19.9624 26.3905 25.6788 20.6741 25.6788 13.6561C25.6788 11.4248 25.0997 9.24135 23.9841 7.31818L25.9975 5.56501Z" fill="white"/>
</g>
</g>
<defs>
<clipPath id="clip0_215_51682">
<rect width="26" height="26" fill="white" transform="translate(-0.00195312 0.632812)"/>
</clipPath>
</defs>
</svg>
