<svg width="26" height="25" viewBox="0 0 26 25" fill="none" xmlns="http://www.w3.org/2000/svg">
<path id="Vector" fill-rule="evenodd" clip-rule="evenodd" d="M13 0C13.2652 0 13.5196 0.109747 13.7071 0.305097C13.8946 0.500448 14 0.765399 14 1.04167V23.9583C14 24.2346 13.8946 24.4996 13.7071 24.6949C13.5196 24.8903 13.2652 25 13 25C12.7348 25 12.4804 24.8903 12.2929 24.6949C12.1054 24.4996 12 24.2346 12 23.9583V1.04167C12 0.765399 12.1054 0.500448 12.2929 0.305097C12.4804 0.109747 12.7348 0 13 0ZM9 4.16667C9.26522 4.16667 9.51957 4.27641 9.70711 4.47176C9.89464 4.66711 10 4.93207 10 5.20833V19.7917C10 20.0679 9.89464 20.3329 9.70711 20.5282C9.51957 20.7236 9.26522 20.8333 9 20.8333C8.73478 20.8333 8.48043 20.7236 8.29289 20.5282C8.10536 20.3329 8 20.0679 8 19.7917V5.20833C8 4.93207 8.10536 4.66711 8.29289 4.47176C8.48043 4.27641 8.73478 4.16667 9 4.16667ZM17 4.16667C17.2652 4.16667 17.5196 4.27641 17.7071 4.47176C17.8946 4.66711 18 4.93207 18 5.20833V19.7917C18 20.0679 17.8946 20.3329 17.7071 20.5282C17.5196 20.7236 17.2652 20.8333 17 20.8333C16.7348 20.8333 16.4804 20.7236 16.2929 20.5282C16.1054 20.3329 16 20.0679 16 19.7917V5.20833C16 4.93207 16.1054 4.66711 16.2929 4.47176C16.4804 4.27641 16.7348 4.16667 17 4.16667ZM5 7.29167C5.26522 7.29167 5.51957 7.40141 5.70711 7.59676C5.89464 7.79211 6 8.05707 6 8.33333V16.6667C6 16.9429 5.89464 17.2079 5.70711 17.4032C5.51957 17.5986 5.26522 17.7083 5 17.7083C4.73478 17.7083 4.48043 17.5986 4.29289 17.4032C4.10536 17.2079 4 16.9429 4 16.6667V8.33333C4 8.05707 4.10536 7.79211 4.29289 7.59676C4.48043 7.40141 4.73478 7.29167 5 7.29167ZM21 7.29167C21.2652 7.29167 21.5196 7.40141 21.7071 7.59676C21.8946 7.79211 22 8.05707 22 8.33333V16.6667C22 16.9429 21.8946 17.2079 21.7071 17.4032C21.5196 17.5986 21.2652 17.7083 21 17.7083C20.7348 17.7083 20.4804 17.5986 20.2929 17.4032C20.1054 17.2079 20 16.9429 20 16.6667V8.33333C20 8.05707 20.1054 7.79211 20.2929 7.59676C20.4804 7.40141 20.7348 7.29167 21 7.29167ZM1 9.375C1.26522 9.375 1.51957 9.48475 1.70711 9.6801C1.89464 9.87545 2 10.1404 2 10.4167V14.5833C2 14.8596 1.89464 15.1246 1.70711 15.3199C1.51957 15.5153 1.26522 15.625 1 15.625C0.734784 15.625 0.48043 15.5153 0.292893 15.3199C0.105357 15.1246 0 14.8596 0 14.5833V10.4167C0 10.1404 0.105357 9.87545 0.292893 9.6801C0.48043 9.48475 0.734784 9.375 1 9.375ZM25 9.375C25.2652 9.375 25.5196 9.48475 25.7071 9.6801C25.8946 9.87545 26 10.1404 26 10.4167V14.5833C26 14.8596 25.8946 15.1246 25.7071 15.3199C25.5196 15.5153 25.2652 15.625 25 15.625C24.7348 15.625 24.4804 15.5153 24.2929 15.3199C24.1054 15.1246 24 14.8596 24 14.5833V10.4167C24 10.1404 24.1054 9.87545 24.2929 9.6801C24.4804 9.48475 24.7348 9.375 25 9.375Z" fill="url(#paint0_linear_33_6970)"/>
<defs>
<linearGradient id="paint0_linear_33_6970" x1="13" y1="0" x2="13" y2="25" gradientUnits="userSpaceOnUse">
<stop stop-color="#22E2F5"/>
<stop offset="1" stop-color="#0F466D"/>
</linearGradient>
</defs>
</svg>
