<svg width="16" height="24" viewBox="0 0 16 24" fill="none" xmlns="http://www.w3.org/2000/svg">
<path id="Vector" d="M4.34294 0.5385C4.38865 0.382993 4.4835 0.246478 4.6133 0.1494C4.7431 0.0523218 4.90085 -9.47797e-05 5.06294 1.28657e-07H11.0629C11.1817 9.02905e-05 11.2988 0.028389 11.4045 0.0825666C11.5102 0.136744 11.6015 0.215251 11.6709 0.311625C11.7403 0.407999 11.7859 0.519484 11.8038 0.636901C11.8217 0.754318 11.8115 0.874311 11.7739 0.987L9.10394 9H14.8129C14.9534 8.9999 15.091 9.03924 15.2102 9.11355C15.3294 9.18785 15.4253 9.29413 15.4871 9.42028C15.5488 9.54643 15.5739 9.68738 15.5595 9.82709C15.5451 9.96679 15.4917 10.0996 15.4054 10.2105L4.90544 23.7105C4.79787 23.8495 4.64493 23.9462 4.47329 23.984C4.30165 24.0217 4.12222 23.9979 3.96631 23.9168C3.81041 23.8357 3.68792 23.7025 3.62023 23.5403C3.55254 23.3782 3.54394 23.1974 3.59594 23.0295L6.29744 14.25H1.31294C1.19634 14.2501 1.08132 14.2229 0.977035 14.1708C0.872746 14.1186 0.782055 14.0429 0.712163 13.9496C0.642271 13.8562 0.595104 13.7479 0.574408 13.6331C0.553712 13.5184 0.560057 13.4004 0.592939 13.2885L4.34294 0.5385Z" fill="#FFD800"/>
</svg>
