<svg width="27" height="25" viewBox="0 0 27 25" fill="none" xmlns="http://www.w3.org/2000/svg">
<path d="M26.5264 5.98363C25.867 5.80222 25.8342 5.76968 25.6525 5.11282C25.5753 4.83444 25.3194 4.64001 25.0302 4.64001C24.7408 4.64001 24.4849 4.83455 24.4078 5.11293C24.226 5.76958 24.1933 5.80217 23.5339 5.98357C23.2546 6.06051 23.0596 6.31617 23.0596 6.60536C23.0596 6.89435 23.2545 7.15006 23.534 7.22716C24.1933 7.40856 24.226 7.4411 24.4078 8.09775C24.485 8.37624 24.7409 8.57067 25.0302 8.57067C25.3193 8.57067 25.5752 8.37629 25.6526 8.09764C25.8343 7.44099 25.867 7.40846 26.5268 7.227C26.8056 7.14995 27.0004 6.89435 27.0004 6.60531C27.0004 6.31628 26.8056 6.06062 26.5264 5.98363ZM25.0293 7.35841C24.8655 6.9792 24.6548 6.76884 24.275 6.60536C24.6548 6.44194 24.8655 6.23148 25.0293 5.85227C25.1921 6.23517 25.3991 6.44268 25.7813 6.60542C25.3991 6.7681 25.192 6.97567 25.0293 7.35841Z" fill="white"/>
<path d="M3.46686 1.65211C2.80753 1.4707 2.77483 1.43822 2.59295 0.78141C2.51575 0.503025 2.25988 0.308594 1.97068 0.308594C1.68144 0.308594 1.42546 0.503025 1.34826 0.781516C1.16643 1.43811 1.13379 1.47065 0.474293 1.65211C0.195064 1.72905 0 1.98476 0 2.2739C0 2.56283 0.194959 2.81849 0.474398 2.89564C1.13374 3.0771 1.16643 3.10963 1.34826 3.76654C1.42552 4.04493 1.68144 4.23931 1.97063 4.23931C2.25983 4.23931 2.51564 4.04493 2.593 3.76633C2.77483 3.10963 2.80758 3.07704 3.46723 2.89553C3.74609 2.81849 3.94084 2.56288 3.94084 2.27395C3.94084 1.9847 3.74599 1.72899 3.46686 1.65211ZM1.96979 3.02705C1.80589 2.64773 1.59527 2.43738 1.21547 2.27385C1.59527 2.11042 1.80594 1.90001 1.96979 1.52075C2.13263 1.9037 2.33956 2.11121 2.72178 2.2739C2.33951 2.43664 2.13258 2.64415 1.96979 3.02705Z" fill="white"/>
<path d="M10.7719 6.19223C10.1876 6.03145 10.1661 6.00998 10.005 5.42806C9.93029 5.15901 9.68291 4.97106 9.40337 4.97106C9.12377 4.97106 8.87639 5.15901 8.80167 5.42822C8.64062 6.00988 8.6191 6.03129 8.03496 6.19218C7.76486 6.26648 7.57617 6.5137 7.57617 6.7934C7.57617 7.073 7.76475 7.32017 8.03485 7.39458C8.6191 7.55542 8.64061 7.57677 8.80172 8.15875C8.87639 8.42791 9.12387 8.61596 9.40337 8.61596C9.68291 8.61596 9.93029 8.42796 10.005 8.15859C10.1661 7.57683 10.1876 7.55547 10.7722 7.39463C11.0419 7.32022 11.2302 7.07305 11.2302 6.79351C11.2302 6.51375 11.0418 6.26648 10.7719 6.19223ZM9.40337 7.38556C9.26752 7.1028 9.09392 6.92909 8.81111 6.7934C9.09387 6.65767 9.26752 6.48406 9.40337 6.20125C9.53921 6.48401 9.71281 6.65767 9.99552 6.7934C9.71276 6.92909 9.53916 7.10274 9.40337 7.38556Z" fill="white"/>
<path d="M12.81 13.6756C12.2049 13.6756 11.7127 14.1697 11.7127 14.7769C11.7127 15.2374 11.9961 15.6322 12.3967 15.7964V16.8766C12.3967 17.1048 12.5817 17.2899 12.81 17.2899C13.0382 17.2899 13.2232 17.1048 13.2232 16.8766V15.7964C13.6239 15.6322 13.9073 15.2374 13.9073 14.7769C13.9073 14.1696 13.415 13.6756 12.81 13.6756ZM12.81 15.0516C12.6607 15.0516 12.5392 14.9284 12.5392 14.7769C12.5392 14.6254 12.6607 14.5022 12.81 14.5022C12.9593 14.5022 13.0808 14.6254 13.0808 14.7769C13.0807 14.9284 12.9592 15.0516 12.81 15.0516Z" fill="white"/>
<path d="M24.451 9.9658L23.0672 7.83671C22.9131 7.59993 22.6543 7.45791 22.3737 7.45549V4.29928C22.3737 3.91944 22.0647 3.61052 21.6849 3.61052H15.9655V3.0026C15.9655 2.62281 15.6565 2.31384 15.2767 2.31384H10.3425C9.96263 2.31384 9.65371 2.62281 9.65371 3.0026V3.61052H3.9344C3.55461 3.61052 3.24564 3.91949 3.24564 4.29928V9.35704L2.21099 10.3917C2.03016 10.5724 1.95407 10.8303 2.00738 11.0815L2.30591 12.4888C2.06397 12.5957 1.89453 12.8377 1.89453 13.1187V22.6464C1.89453 23.0262 2.2035 23.3351 2.58329 23.3351H2.96673V24.0031C2.96673 24.3829 3.2757 24.6919 3.65549 24.6919H5.55994C5.93973 24.6919 6.2487 24.3829 6.2487 24.0031V23.3351H19.3706V24.0031C19.3706 24.3829 19.6796 24.6919 20.0594 24.6919H21.9638C22.3435 24.6919 22.6525 24.3829 22.6525 24.0031V23.3351H23.036C23.4158 23.3351 23.7247 23.0262 23.7247 22.6464V13.1188C23.7247 12.7917 23.4953 12.5177 23.1891 12.4477L24.3978 10.9634C24.6311 10.6767 24.6525 10.2758 24.451 9.9658ZM21.8287 8.28184L21.2328 9.19857L20.6369 8.28184H21.8287ZM17.2077 10.8701H17.8983L18.404 12.43H17.8824C17.9555 11.8414 17.7117 11.2359 17.2077 10.8701ZM10.7728 18.6938H14.8465C15.2263 18.6938 15.5352 18.3848 15.5352 18.005V14.8716H21.2924V20.8934H4.32685V14.8716H10.084V18.0049C10.084 18.3848 10.393 18.6938 10.7728 18.6938ZM14.7087 13.2565V17.8673H10.9105V13.2565H14.7087ZM11.8102 9.7295L11.5453 9.46435H12.2039L12.7612 10.0221C12.6873 10.0863 12.6186 10.1568 12.5567 10.2333C12.3595 10.0017 12.1012 9.82622 11.8102 9.7295ZM13.0262 11.1276C13.1009 10.73 13.4465 10.4414 13.8479 10.4414C13.8999 10.4414 13.9526 10.4463 14.0043 10.4561C14.4585 10.5422 14.7582 10.984 14.6722 11.4409C14.5976 11.8385 14.252 12.127 13.8508 12.127C13.7987 12.127 13.7461 12.1221 13.6941 12.1121C13.2399 12.0261 12.9402 11.5845 13.0262 11.1276ZM14.6211 9.80575L14.9899 9.43661C14.9907 9.43577 14.9914 9.43493 14.9922 9.43408H15.651L15.0028 10.0828C14.8904 9.97377 14.7623 9.88011 14.6211 9.80575ZM14.9704 8.60758L14.0072 7.64359V6.98452L15.629 8.60763L14.9704 8.60758ZM14.2259 9.03183L13.6282 9.62994C13.6019 9.63342 13.5758 9.63737 13.5499 9.64212L12.9401 9.03183L13.583 8.38841L14.2259 9.03183ZM13.1807 7.62197C13.1795 7.62313 13.1783 7.62408 13.1771 7.62524L12.1767 8.62651C12.173 8.63015 12.17 8.63416 12.1664 8.63785H11.5067L13.1807 6.96248V7.62197ZM12.1116 11.1482C12.2029 11.6039 11.9086 12.0492 11.4555 12.1408C11.4005 12.152 11.3446 12.1576 11.2892 12.1576C10.8926 12.1576 10.5478 11.8732 10.4692 11.4812C10.3778 11.0254 10.6721 10.5802 11.1254 10.4886C11.1805 10.4774 11.2364 10.4718 11.2918 10.4718C11.6882 10.4718 12.033 10.7562 12.1116 11.1482ZM15.5277 11.7648C15.6828 11.5229 15.9466 11.3785 16.2333 11.3785C16.3931 11.3785 16.5492 11.4247 16.6847 11.5122C16.996 11.7133 17.1298 12.0879 17.043 12.43H15.4219C15.3658 12.2108 15.3963 11.9699 15.5277 11.7648ZM16.2304 10.0435L17.1535 8.62324L18.0204 9.95694L17.9642 10.0436L16.2304 10.0435ZM17.9174 8.28184H19.1091L18.5132 9.19862L17.9174 8.28184ZM19.873 8.62313L20.7399 9.95689L20.6835 10.0436H19.0625L19.0061 9.95694L19.873 8.62313ZM10.4803 3.14039H15.139V3.61057H10.4803V3.14039ZM4.07204 4.43708H21.5472V7.45528H17.3797C17.0961 7.45528 16.8341 7.59793 16.6788 7.83686L16.4221 8.23184L14.1024 5.91032C13.9637 5.77147 13.7793 5.69501 13.5831 5.69501C13.3867 5.69501 13.2023 5.77142 13.0636 5.91021L10.4634 8.51255C10.3249 8.65129 10.2486 8.83565 10.2486 9.03172C10.2486 9.22805 10.325 9.41251 10.4635 9.55105L10.6763 9.76404C10.1997 9.95367 9.84455 10.3514 9.69885 10.8274C9.46497 10.7054 9.20209 10.6386 8.92914 10.6386C8.80637 10.6386 8.68498 10.6521 8.56675 10.6787L8.33778 8.44315C8.30381 8.11224 8.06234 7.84356 7.73681 7.77459L5.73802 7.35039C5.68634 7.33947 5.6335 7.33394 5.58077 7.33394C5.37932 7.33394 5.19022 7.41214 5.04836 7.55405L4.07199 8.53037L4.07204 4.43708ZM9.75875 12.43H8.10247C8.05728 12.1166 8.18938 11.7903 8.46935 11.6045C8.60672 11.5135 8.76566 11.4653 8.92919 11.4653C9.21174 11.4653 9.4733 11.6065 9.62898 11.843C9.74736 12.0228 9.78771 12.2319 9.75875 12.43ZM6.92676 11.8296L7.2332 12.43H6.79962L5.13611 11.581L6.23773 10.4794L6.45964 10.9141C6.53268 11.0573 6.6777 11.1396 6.82804 11.1396C6.89122 11.1396 6.95545 11.1251 7.01557 11.0944C7.21886 10.9906 7.29954 10.7417 7.19581 10.5384L6.85214 9.86503L7.57835 9.13882L7.77958 11.1034C7.70364 11.1764 7.63588 11.2555 7.57629 11.3395C7.45273 11.2245 7.26605 11.1925 7.10706 11.2736C6.90366 11.3774 6.82303 11.6264 6.92676 11.8296ZM4.68228 10.866L4.45595 9.79932L5.5226 10.0256L4.68228 10.866ZM4.98139 12.43H4.2872L4.52176 12.1955L4.98139 12.43ZM4.754 9.01759L5.22175 8.54983L5.34774 9.14357L4.754 9.01759ZM6.00349 8.25183L7.07009 8.47811L6.22972 9.31849L6.00349 8.25183ZM3.67426 10.0974L3.80025 10.6911L3.20651 10.5651L3.67426 10.0974ZM3.97517 11.5731L3.13484 12.4135L2.90856 11.3469L3.97517 11.5731ZM5.4222 23.8655H3.79329V23.3352H5.4222V23.8655ZM21.826 23.8655H20.1972V23.3352H21.826V23.8655ZM22.8982 22.5087H2.72104V13.2565H10.084V14.0451H4.18911C3.80932 14.0451 3.50035 14.3541 3.50035 14.7339V21.0312C3.50035 21.411 3.80932 21.7199 4.18911 21.7199H21.4302C21.81 21.7199 22.119 21.411 22.119 21.0312V14.7339C22.119 14.354 21.81 14.0451 21.4302 14.0451H15.5352V13.2565H22.8982V22.5087ZM22.1377 12.43H19.2729L18.7672 10.8701H20.9789L20.7493 11.5783C20.679 11.7954 20.798 12.0285 21.015 12.0989C21.0573 12.1126 21.1003 12.1192 21.1425 12.1192C21.3168 12.1192 21.4789 12.008 21.5356 11.8332L21.8478 10.8701H23.4078L22.1377 12.43ZM21.7821 10.0435L21.7258 9.95684L22.5926 8.62308L23.5157 10.0435L21.7821 10.0435Z" fill="white"/>
<path d="M4.51887 24.0035V22.9222H3.38086V24.0035C3.38086 24.155 3.50484 24.279 3.65634 24.279H4.79435C4.64285 24.279 4.51887 24.155 4.51887 24.0035Z" fill="white"/>
</svg>
