<svg width="23" height="22" viewBox="0 0 23 22" fill="none" xmlns="http://www.w3.org/2000/svg">
<path d="M19.9074 0H3.81133C3.02869 0.000875721 2.27836 0.312165 1.72495 0.865574C1.17154 1.41898 0.860251 2.16932 0.859375 2.95195L0.859375 19.048C0.860262 19.8307 1.17156 20.581 1.72496 21.1344C2.27837 21.6878 3.02869 21.9991 3.81133 22H19.9074C20.6901 21.9991 21.4404 21.6878 21.9938 21.1344C22.5472 20.581 22.8585 19.8307 22.8594 19.048V2.95195C22.8585 2.16932 22.5472 1.41898 21.9938 0.865574C21.4404 0.312165 20.6901 0.000875721 19.9074 0ZM21.8281 19.048C21.8275 19.5573 21.625 20.0455 21.2649 20.4055C20.9048 20.7656 20.4166 20.9682 19.9074 20.9688H3.81133C3.3021 20.9682 2.8139 20.7656 2.45383 20.4055C2.09375 20.0455 1.8912 19.5573 1.89062 19.048V2.95195C1.89119 2.44273 2.09374 1.95452 2.45381 1.59444C2.81389 1.23436 3.3021 1.03182 3.81133 1.03125H19.9074C20.4166 1.03182 20.9049 1.23436 21.2649 1.59444C21.625 1.95452 21.8276 2.44273 21.8281 2.95195V19.048ZM12.224 4.98502C12.1273 4.88833 11.9961 4.83401 11.8594 4.83401C11.7226 4.83401 11.5915 4.88833 11.4948 4.98502L6.39375 10.0861C6.21037 10.2699 6.10739 10.5189 6.10739 10.7785C6.10739 11.0381 6.21037 11.2872 6.39375 11.471L6.93829 12.0155C7.12213 12.1989 7.37116 12.3018 7.63078 12.3018C7.8904 12.3018 8.13943 12.1989 8.32326 12.0155L11.8596 8.4792L15.3959 12.0155C15.5798 12.1989 15.8288 12.3018 16.0884 12.3018C16.348 12.3018 16.5971 12.1989 16.7809 12.0155L17.325 11.471C17.5083 11.2872 17.6113 11.0381 17.6113 10.7785C17.6113 10.5189 17.5083 10.2699 17.325 10.0861L12.224 4.98502ZM16.088 11.2499L12.224 7.38581C12.1273 7.28912 11.9961 7.2348 11.8594 7.2348C11.7226 7.2348 11.5915 7.28912 11.4948 7.38581L7.63073 11.2496L7.15967 10.7785L11.8594 6.07883L16.5591 10.7785L16.088 11.2499ZM12.224 9.84938C12.1273 9.75269 11.9961 9.69837 11.8594 9.69837C11.7226 9.69837 11.5915 9.75269 11.4948 9.84938L6.39375 14.9502C6.21039 15.1341 6.10742 15.3831 6.10742 15.6427C6.10742 15.9023 6.21039 16.1514 6.39375 16.3352L6.93834 16.8798C7.12215 17.0631 7.37117 17.1661 7.6308 17.1661C7.89042 17.1661 8.13945 17.0631 8.32326 16.8798L11.8596 13.3434L15.3959 16.8798C15.5797 17.0631 15.8288 17.1661 16.0884 17.1661C16.348 17.1661 16.597 17.0631 16.7808 16.8798L17.325 16.3351C17.5083 16.1513 17.6113 15.9023 17.6113 15.6427C17.6113 15.3831 17.5083 15.1341 17.325 14.9502L12.224 9.84938ZM16.088 16.1142L12.224 12.2502C12.1273 12.1535 11.9961 12.0992 11.8594 12.0992C11.7226 12.0992 11.5915 12.1535 11.4948 12.2502L7.63073 16.1142L7.15962 15.6431L11.8594 10.943L16.5591 15.6427L16.088 16.1142Z" fill="white"/>
</svg>
