<svg width="26" height="26" viewBox="0 0 26 26" fill="none" xmlns="http://www.w3.org/2000/svg">
<path id="Vector" d="M22.5113 26H3.48867C2.56374 25.999 1.67698 25.6311 1.02295 24.977C0.368923 24.323 0.00103494 23.4363 0 22.5113L0 3.48867C0.00104836 2.56374 0.36894 1.67699 1.02297 1.02297C1.67699 0.368942 2.56374 0.00104904 3.48867 1.90735e-06H22.5113C23.4363 0.00104904 24.323 0.368942 24.977 1.02297C25.6311 1.67699 25.999 2.56374 26 3.48867V22.5113C25.999 23.4363 25.6311 24.323 24.977 24.977C24.323 25.6311 23.4363 25.999 22.5113 26ZM24.7812 3.48867C24.7806 2.88686 24.5412 2.3099 24.1156 1.88435C23.6901 1.45881 23.1131 1.21944 22.5113 1.21875H3.48867C2.88686 1.21944 2.3099 1.45881 1.88435 1.88435C1.45881 2.3099 1.21944 2.88686 1.21875 3.48867V22.5113C1.21942 23.1131 1.45879 23.6901 1.88434 24.1157C2.30988 24.5412 2.88686 24.7806 3.48867 24.7812H22.5113C23.1131 24.7806 23.6901 24.5412 24.1157 24.1157C24.5412 23.6901 24.7806 23.1131 24.7812 22.5113V3.48867ZM13.4309 20.1086C13.3166 20.2229 13.1616 20.2871 13 20.2871C12.8384 20.2871 12.6834 20.2229 12.5691 20.1086L6.54063 14.0801C6.32391 13.8629 6.2022 13.5686 6.2022 13.2618C6.2022 12.9549 6.32391 12.6606 6.54063 12.4434L7.18418 11.7998C7.40143 11.5832 7.69574 11.4615 8.00257 11.4615C8.30939 11.4615 8.6037 11.5832 8.82096 11.7998L13.0003 15.9791L17.1796 11.7998C17.3968 11.5832 17.6911 11.4615 17.9979 11.4615C18.3048 11.4615 18.5991 11.5832 18.8163 11.7998L19.4594 12.4434C19.676 12.6606 19.7977 12.9549 19.7977 13.2618C19.7977 13.5686 19.676 13.8629 19.4594 14.0801L13.4309 20.1086ZM17.9974 12.7047L13.4309 17.2713C13.3166 17.3856 13.1616 17.4498 13 17.4498C12.8384 17.4498 12.6834 17.3856 12.5691 17.2713L8.00252 12.705L7.4458 13.2617L13 18.8159L18.5542 13.2617L17.9974 12.7047ZM13.4309 14.3598C13.3166 14.4741 13.1616 14.5383 13 14.5383C12.8384 14.5383 12.6834 14.4741 12.5691 14.3598L6.54063 8.33153C6.32393 8.1143 6.20224 7.81999 6.20224 7.51316C6.20224 7.20633 6.32393 6.91203 6.54063 6.6948L7.18423 6.0512C7.40146 5.8345 7.69576 5.71281 8.00259 5.71281C8.30942 5.71281 8.60373 5.8345 8.82096 6.0512L13.0003 10.2305L17.1796 6.0512C17.3968 5.83449 17.6911 5.71279 17.9979 5.71279C18.3047 5.71279 18.5991 5.83449 18.8163 6.0512L19.4594 6.69485C19.676 6.9121 19.7977 7.20638 19.7977 7.51319C19.7977 7.81999 19.676 8.11428 19.4594 8.33153L13.4309 14.3598ZM17.9974 6.95591L13.4309 11.5225C13.3166 11.6368 13.1616 11.701 13 11.701C12.8384 11.701 12.6834 11.6368 12.5691 11.5225L8.00252 6.95591L7.44575 7.51273L13 13.0674L18.5542 7.51314L17.9974 6.95591Z" fill="url(#paint0_linear_102_71968)"/>
<defs>
<linearGradient id="paint0_linear_102_71968" x1="13" y1="26" x2="13" y2="0" gradientUnits="userSpaceOnUse">
<stop stop-color="#F18D72"/>
<stop offset="1" stop-color="#C744A3"/>
</linearGradient>
</defs>
</svg>
