<svg width="26" height="26" viewBox="0 0 26 26" fill="none" xmlns="http://www.w3.org/2000/svg">
<path id="Vector" d="M22.5113 0H3.48867C2.56374 0.00103494 1.67698 0.368923 1.02295 1.02295C0.368923 1.67698 0.00103494 2.56374 0 3.48867L0 22.5113C0.00104836 23.4363 0.36894 24.323 1.02297 24.977C1.67699 25.6311 2.56374 25.999 3.48867 26H22.5113C23.4363 25.999 24.323 25.6311 24.977 24.977C25.6311 24.323 25.999 23.4363 26 22.5113V3.48867C25.999 2.56374 25.6311 1.67698 24.977 1.02295C24.323 0.368923 23.4363 0.00103494 22.5113 0ZM24.7812 22.5113C24.7806 23.1131 24.5412 23.6901 24.1156 24.1156C23.6901 24.5412 23.1131 24.7806 22.5113 24.7812H3.48867C2.88686 24.7806 2.3099 24.5412 1.88435 24.1156C1.45881 23.6901 1.21944 23.1131 1.21875 22.5113V3.48867C1.21942 2.88686 1.45879 2.30988 1.88434 1.88434C2.30988 1.45879 2.88686 1.21942 3.48867 1.21875H22.5113C23.1131 1.21942 23.6901 1.45879 24.1157 1.88434C24.5412 2.30988 24.7806 2.88686 24.7812 3.48867V22.5113ZM13.4309 5.89139C13.3166 5.77712 13.1616 5.71292 13 5.71292C12.8384 5.71292 12.6834 5.77712 12.5691 5.89139L6.54063 11.9199C6.32391 12.1371 6.2022 12.4314 6.2022 12.7382C6.2022 13.0451 6.32391 13.3394 6.54063 13.5566L7.18418 14.2002C7.40143 14.4168 7.69574 14.5385 8.00257 14.5385C8.30939 14.5385 8.6037 14.4168 8.82096 14.2002L13.0003 10.0209L17.1796 14.2002C17.3968 14.4168 17.6911 14.5385 17.9979 14.5385C18.3048 14.5385 18.5991 14.4168 18.8163 14.2002L19.4594 13.5566C19.676 13.3394 19.7977 13.0451 19.7977 12.7382C19.7977 12.4314 19.676 12.1371 19.4594 11.9199L13.4309 5.89139ZM17.9974 13.2953L13.4309 8.72869C13.3166 8.61442 13.1616 8.55022 13 8.55022C12.8384 8.55022 12.6834 8.61442 12.5691 8.72869L8.00252 13.295L7.4458 12.7383L13 7.18407L18.5542 12.7383L17.9974 13.2953ZM13.4309 11.6402C13.3166 11.5259 13.1616 11.4617 13 11.4617C12.8384 11.4617 12.6834 11.5259 12.5691 11.6402L6.54063 17.6685C6.32393 17.8857 6.20224 18.18 6.20224 18.4868C6.20224 18.7937 6.32393 19.088 6.54063 19.3052L7.18423 19.9488C7.40146 20.1655 7.69576 20.2872 8.00259 20.2872C8.30942 20.2872 8.60373 20.1655 8.82096 19.9488L13.0003 15.7695L17.1796 19.9488C17.3968 20.1655 17.6911 20.2872 17.9979 20.2872C18.3047 20.2872 18.5991 20.1655 18.8163 19.9488L19.4594 19.3052C19.676 19.0879 19.7977 18.7936 19.7977 18.4868C19.7977 18.18 19.676 17.8857 19.4594 17.6685L13.4309 11.6402ZM17.9974 19.0441L13.4309 14.4775C13.3166 14.3632 13.1616 14.299 13 14.299C12.8384 14.299 12.6834 14.3632 12.5691 14.4775L8.00252 19.0441L7.44575 18.4873L13 12.9326L18.5542 18.4869L17.9974 19.0441Z" fill="url(#paint0_linear_102_71960)"/>
<defs>
<linearGradient id="paint0_linear_102_71960" x1="13" y1="0" x2="13" y2="26" gradientUnits="userSpaceOnUse">
<stop stop-color="#9DE476"/>
<stop offset="1" stop-color="#3F7D2F"/>
</linearGradient>
</defs>
</svg>
