<svg width="20" height="20" viewBox="0 0 20 20" fill="none" xmlns="http://www.w3.org/2000/svg">
<g id="codicon:account">
<path id="Vector" d="M6.74013 12.1914C6.31251 12.5204 5.93479 12.9137 5.62289 13.3405L5.62287 13.3405L5.62125 13.3428C5.34456 13.7368 5.12466 14.1674 4.96774 14.6219C3.83503 13.3903 3.142 11.7757 3.142 9.992C3.142 6.22298 6.2267 3.141 10 3.141C13.7732 3.141 16.8579 6.22289 16.858 9.99183C16.856 11.7063 16.2077 13.3535 15.0479 14.6076C14.889 14.1539 14.6697 13.7234 14.3955 13.3279C14.0872 12.8802 13.7085 12.4852 13.2742 12.1582L13.2742 12.1581C13.0115 11.9605 12.7313 11.7875 12.4372 11.6414C12.5342 11.5642 12.6266 11.4813 12.714 11.3931C12.9608 11.1494 13.1776 10.877 13.3597 10.5817L13.36 10.5812C13.73 9.97589 13.9207 9.278 13.91 8.56861C13.9152 8.04431 13.8132 7.52446 13.6103 7.04096L13.6098 7.03982C13.4097 6.57377 13.1218 6.15063 12.7616 5.79349L12.7608 5.79273C12.4007 5.44074 11.9781 5.159 11.5147 4.96196L11.5139 4.96164C11.0296 4.7588 10.509 4.65717 9.98395 4.66299C9.45895 4.6575 8.93836 4.75945 8.45421 4.96258C7.98453 5.15774 7.55946 5.44641 7.20486 5.81101C6.85089 6.16951 6.56877 6.59241 6.3737 7.05692L6.37368 7.05696C6.17065 7.54082 6.06867 8.06108 6.074 8.58578C6.07407 8.95095 6.12388 9.30063 6.22405 9.6342C6.32295 9.98004 6.45546 10.2957 6.63846 10.5947C6.80831 10.8995 7.04296 11.1661 7.28593 11.4091C7.37625 11.4994 7.47246 11.5835 7.57451 11.6615C7.28022 11.8109 7.00078 11.9883 6.74013 12.1914ZM6.74013 12.1914C6.74027 12.1913 6.7404 12.1912 6.74054 12.1911L6.832 12.31L6.7398 12.1917C6.73991 12.1916 6.74002 12.1915 6.74013 12.1914ZM1.85 9.992C1.85 12.4586 2.96627 14.6817 4.714 16.1785V16.1874L4.77191 16.2324L4.77301 16.2333C4.91632 16.3447 5.06285 16.4587 5.22598 16.5729L5.22577 16.5732L5.23483 16.5786C5.2798 16.6056 5.31372 16.6345 5.35858 16.6726C5.38233 16.6928 5.40915 16.7156 5.4423 16.7421L5.442 16.7425L5.45192 16.7492C6.79932 17.6613 8.38887 18.1491 10.0159 18.15H10.0161C11.6418 18.1491 13.2301 17.662 14.5769 16.7514C14.6237 16.7229 14.6648 16.6911 14.699 16.6646L14.6998 16.664C14.737 16.6352 14.7666 16.6124 14.7983 16.5929L14.8052 16.5887L14.8116 16.5838C14.879 16.5318 14.9502 16.4795 15.0232 16.4258L15.0329 16.4187C15.1087 16.363 15.1863 16.3058 15.2601 16.2484L15.2675 16.2427L15.2676 16.2425C15.2691 16.2415 15.2709 16.2403 15.2732 16.2388C15.2806 16.2339 15.302 16.2194 15.3201 16.1935C15.321 16.1923 15.3218 16.1911 15.3226 16.1899C17.0352 14.677 18.15 12.457 18.15 9.992C18.15 5.49701 14.4987 1.85 10 1.85C5.5013 1.85 1.85 5.49701 1.85 9.992ZM6.60974 14.4153L6.60981 14.4152C6.77942 14.1222 6.9786 13.8622 7.22259 13.6334L7.22264 13.6335L7.22607 13.6301C7.4567 13.3994 7.73462 13.184 8.0127 13.0139C8.30348 12.8458 8.61061 12.7227 8.95112 12.6298C9.2932 12.5382 9.64582 12.4919 9.99995 12.492L10.0011 12.492C11.0522 12.484 12.0648 12.8871 12.823 13.6151C13.1758 13.9682 13.4525 14.3825 13.6529 14.8592C13.7496 15.1083 13.8217 15.37 13.8689 15.6445C12.7293 16.4228 11.3812 16.8408 9.99976 16.843C8.56201 16.843 7.24375 16.3947 6.14647 15.6441C6.16239 15.5559 6.18491 15.4658 6.20908 15.3691C6.30131 15.0354 6.43596 14.7148 6.60974 14.4153ZM7.69136 9.53751L7.69143 9.53748L7.68951 9.53308C7.55727 9.22958 7.49064 8.90156 7.49399 8.57052H7.494V8.569C7.494 8.2358 7.5548 7.90531 7.68879 7.60755C7.82608 7.30245 8.00816 7.03097 8.23407 6.80507C8.4597 6.57943 8.73206 6.39826 9.03755 6.26079C9.33528 6.12681 9.66577 6.066 10 6.066C10.3497 6.066 10.6643 6.12664 10.9624 6.26079C11.2677 6.39814 11.5402 6.58027 11.766 6.80517C11.9918 7.03093 12.1739 7.30331 12.3112 7.60755C12.4452 7.90531 12.506 8.2358 12.506 8.569C12.506 8.91878 12.4454 9.23329 12.3113 9.53028L12.3106 9.53186C12.1799 9.83041 11.9953 10.1023 11.766 10.3339C11.5347 10.5625 11.2634 10.7465 10.9655 10.8769C10.3416 11.1322 9.64237 11.1322 9.01848 10.8769C8.72044 10.7464 8.44896 10.5622 8.21762 10.3335C7.98938 10.1065 7.81032 9.83624 7.69136 9.53751Z" fill="white" stroke="white" stroke-width="0.3"/>
</g>
</svg>
