<svg width="24" height="24" viewBox="0 0 24 24" fill="none" xmlns="http://www.w3.org/2000/svg">
<path d="M22.2122 10.5455C22.2122 10.008 21.7764 9.57227 21.2389 9.57227H15.6647C15.1272 9.57227 14.6914 10.008 14.6914 10.5455V13.4654C14.6914 14.0029 15.1272 14.4387 15.6647 14.4387H21.2389C21.7764 14.4387 22.2122 14.0029 22.2122 13.4654V10.5455ZM17.4798 13.1528C16.8532 13.1528 16.3453 12.6448 16.3453 12.0182C16.3453 11.3916 16.8532 10.8836 17.4798 10.8836C18.1065 10.8836 18.6144 11.3916 18.6144 12.0182C18.6144 12.6447 18.1065 13.1528 17.4798 13.1528Z" fill="#52D2BB"/>
<path d="M13.4105 8.2441H20.6208V5.32427C20.6208 4.59245 20.055 3.99707 19.323 3.99707H3.83908C3.10727 3.99707 2.48242 4.59245 2.48242 5.32427V18.7732C2.48242 19.505 3.10727 20.1004 3.83908 20.1004H19.323C20.0549 20.1004 20.6208 19.505 20.6208 18.7732V15.7649H13.4237L13.4105 8.2441Z" fill="#52D2BB"/>
</svg>
