<svg width="23" height="19" viewBox="0 0 23 19" fill="none" xmlns="http://www.w3.org/2000/svg">
<g id="Group 178">
<path id="Vector" d="M22.4989 7.82251C22.4989 7.22318 22.0131 6.7373 21.4137 6.7373H15.1985C14.5992 6.7373 14.1133 7.22318 14.1133 7.82251V11.0781C14.1133 11.6774 14.5992 12.1633 15.1985 12.1633H21.4137C22.0131 12.1633 22.4989 11.6774 22.4989 11.0781V7.82251ZM17.2224 10.7296C16.5237 10.7296 15.9573 10.1632 15.9573 9.46451C15.9573 8.76584 16.5237 8.19947 17.2224 8.19947C17.9211 8.19947 18.4874 8.76584 18.4874 9.46451C18.4874 10.1631 17.9211 10.7296 17.2224 10.7296Z" fill="white"/>
<path id="Vector_2" d="M12.6847 5.25789H20.7242V2.00228C20.7242 1.18631 20.0933 0.522461 19.2772 0.522461H2.01267C1.1967 0.522461 0.5 1.18631 0.5 2.00228V16.9978C0.5 17.8138 1.1967 18.4776 2.01267 18.4776H19.2772C20.0932 18.4776 20.7242 17.8138 20.7242 16.9978V13.6435H12.6994L12.6847 5.25789Z" fill="white"/>
</g>
</svg>
