<svg width="20" height="20" viewBox="0 0 20 20" fill="none" xmlns="http://www.w3.org/2000/svg">
<g id="material-symbols:account-balance-wallet-outline">
<path id="Vector" d="M4.16667 17.5C3.70833 17.5 3.31611 17.3369 2.99 17.0108C2.66389 16.6847 2.50056 16.2922 2.5 15.8333V4.16667C2.5 3.70833 2.66333 3.31611 2.99 2.99C3.31667 2.66389 3.70889 2.50056 4.16667 2.5H15.8333C16.2917 2.5 16.6842 2.66333 17.0108 2.99C17.3375 3.31667 17.5006 3.70889 17.5 4.16667V6.25H15.8333V4.16667H4.16667V15.8333H15.8333V13.75H17.5V15.8333C17.5 16.2917 17.3369 16.6842 17.0108 17.0108C16.6847 17.3375 16.2922 17.5006 15.8333 17.5H4.16667ZM10.8333 14.1667C10.375 14.1667 9.98278 14.0036 9.65667 13.6775C9.33056 13.3514 9.16722 12.9589 9.16667 12.5V7.5C9.16667 7.04167 9.33 6.64944 9.65667 6.32333C9.98333 5.99722 10.3756 5.83389 10.8333 5.83333H16.6667C17.125 5.83333 17.5175 5.99667 17.8442 6.32333C18.1708 6.65 18.3339 7.04222 18.3333 7.5V12.5C18.3333 12.9583 18.1703 13.3508 17.8442 13.6775C17.5181 14.0042 17.1256 14.1672 16.6667 14.1667H10.8333ZM16.6667 12.5V7.5H10.8333V12.5H16.6667ZM13.3333 11.25C13.6806 11.25 13.9758 11.1286 14.2192 10.8858C14.4625 10.6431 14.5839 10.3478 14.5833 10C14.5828 9.65222 14.4614 9.35722 14.2192 9.115C13.9769 8.87278 13.6817 8.75111 13.3333 8.75C12.985 8.74889 12.69 8.87056 12.4483 9.115C12.2067 9.35944 12.085 9.65444 12.0833 10C12.0817 10.3456 12.2033 10.6408 12.4483 10.8858C12.6933 11.1308 12.9883 11.2522 13.3333 11.25Z" fill="white"/>
</g>
</svg>
