<svg width="30" height="30" viewBox="0 0 30 30" fill="none" xmlns="http://www.w3.org/2000/svg">
<g id="Frame 48">
<g id="Group 168">
<path id="Vector" d="M28.0377 12.6408C28.0377 11.9315 27.4627 11.3564 26.7534 11.3564H19.3976C18.6883 11.3564 18.1133 11.9315 18.1133 12.6408V16.4938C18.1133 17.2031 18.6883 17.7781 19.3976 17.7781H26.7534C27.4627 17.7781 28.0377 17.2031 28.0377 16.4938V12.6408ZM21.7929 16.0813C20.966 16.0813 20.2957 15.411 20.2957 14.5841C20.2957 13.7572 20.966 13.0869 21.7929 13.0869C22.6198 13.0869 23.2901 13.7572 23.2901 14.5841C23.2901 15.4109 22.6198 16.0813 21.7929 16.0813Z" fill="url(#paint0_linear_33_869)"/>
<path id="Vector_2" d="M16.4207 9.6044H25.9354V5.75137C25.9354 4.78567 25.1888 4 24.2229 4H3.79025C2.82455 4 2 4.78567 2 5.75137V23.4986C2 24.4643 2.82455 25.25 3.79025 25.25H24.2229C25.1887 25.25 25.9354 24.4643 25.9354 23.4986V19.5288H16.4381L16.4207 9.6044Z" fill="url(#paint1_linear_33_869)"/>
</g>
</g>
<defs>
<linearGradient id="paint0_linear_33_869" x1="23.0755" y1="11.3564" x2="23.0755" y2="17.7781" gradientUnits="userSpaceOnUse">
<stop stop-color="#F18D72"/>
<stop offset="1" stop-color="#C744A3"/>
</linearGradient>
<linearGradient id="paint1_linear_33_869" x1="13.9677" y1="4" x2="13.9677" y2="25.25" gradientUnits="userSpaceOnUse">
<stop stop-color="#F18D72"/>
<stop offset="1" stop-color="#C744A3"/>
</linearGradient>
</defs>
</svg>
