<svg width="24" height="16" viewBox="0 0 24 16" fill="none" xmlns="http://www.w3.org/2000/svg">
<path d="M5.37114 12.1824C10.297 14.0145 14.489 14.3713 19.2393 11.5197C19.2045 11.5694 18.2648 12.8962 15.7938 13.5761C16.3158 14.2561 17.0293 15.0355 17.0293 15.0355C18.6128 15.0355 20.1616 14.6043 21.5015 13.7751C22.5456 13.1117 23.1372 11.9674 23.0154 10.7734C22.8066 8.73346 22.3019 6.74334 21.5189 4.83618C20.527 2.34855 18.143 0.623755 15.3761 0.374972C15.1325 0.35838 14.9585 0.35838 14.8541 0.35838L14.5757 0.623706C17.7602 1.4861 19.3437 2.82942 19.3785 2.8792C14.4886 0.524202 8.71134 0.491067 3.78665 2.7797C3.78665 2.7797 5.3528 1.30369 8.81569 0.524202L8.60688 0.325195C8.24143 0.325195 7.89339 0.358379 7.52799 0.408107C4.96994 0.822712 2.82958 2.49773 1.90727 4.80295C1.10678 6.79307 0.58475 8.88269 0.393346 11.0055C0.288939 12.1332 0.845793 13.2444 1.82028 13.8912C3.10798 14.7038 4.63931 15.135 6.18806 15.135C6.18806 15.135 6.8145 14.3555 7.44099 13.659C5.09176 12.9956 4.13469 11.6689 4.11728 11.6191L4.55939 11.8343C4.82369 11.963 5.09465 12.0796 5.37114 12.1824ZM8.10226 10.7402C6.97114 10.707 6.08365 9.79486 6.11847 8.70028C6.15329 7.67206 7.02337 6.84284 8.10226 6.80966C9.23337 6.84284 10.1209 7.75497 10.086 8.84955C10.0338 9.87782 9.18114 10.707 8.10226 10.7402ZM15.2021 10.7402C14.071 10.707 13.1835 9.79486 13.2183 8.70028C13.2531 7.67206 14.1232 6.84284 15.2021 6.80966C16.3332 6.84284 17.2207 7.75497 17.1859 8.84955C17.1511 9.87782 16.281 10.707 15.2021 10.7402Z" fill="white"/>
</svg>
