<svg width="24" height="14" viewBox="0 0 24 14" fill="none" xmlns="http://www.w3.org/2000/svg">
<path d="M23.635 11.8688C23.6065 11.809 23.58 11.7594 23.5553 11.7197C23.1472 11.004 22.3674 10.1256 21.2162 9.08408L21.1919 9.06023L21.1797 9.04854L21.1674 9.03655H21.155C20.6326 8.55159 20.3017 8.22551 20.1632 8.05856C19.9097 7.74055 19.8529 7.41864 19.9914 7.09248C20.0893 6.84606 20.457 6.32563 21.0937 5.53051C21.4285 5.10911 21.6937 4.77138 21.8896 4.51694C23.3022 2.68836 23.9146 1.51987 23.7267 1.01102L23.6537 0.892107C23.6047 0.820518 23.4781 0.755026 23.2743 0.695299C23.0699 0.635696 22.8087 0.62584 22.4902 0.665561L18.9633 0.689284C18.9062 0.66957 18.8246 0.671408 18.7183 0.695299C18.6121 0.71919 18.559 0.731177 18.559 0.731177L18.4976 0.761041L18.4489 0.796919C18.4081 0.820643 18.3632 0.862369 18.3141 0.922013C18.2654 0.981448 18.2246 1.0512 18.192 1.13068C17.808 2.09263 17.3714 2.98699 16.8814 3.81374C16.5793 4.30672 16.3019 4.73396 16.0485 5.09571C15.7955 5.45733 15.5832 5.72376 15.4119 5.89455C15.2403 6.06551 15.0855 6.20246 14.9464 6.30592C14.8075 6.40942 14.7015 6.45315 14.6282 6.43715C14.5546 6.42115 14.4853 6.40528 14.4197 6.38941C14.3055 6.31782 14.2136 6.22046 14.1444 6.09725C14.0748 5.97403 14.0279 5.81895 14.0034 5.63213C13.9791 5.44517 13.9647 5.28437 13.9605 5.14917C13.9567 5.01414 13.9585 4.82313 13.9668 4.5767C13.9753 4.33015 13.9791 4.16333 13.9791 4.07587C13.9791 3.77373 13.9851 3.44581 13.9973 3.09204C14.0096 2.73827 14.0196 2.45797 14.028 2.25147C14.0363 2.04476 14.0402 1.82607 14.0402 1.59551C14.0402 1.36496 14.0257 1.18414 13.9973 1.05291C13.9691 0.921845 13.9259 0.794622 13.869 0.671282C13.8117 0.548068 13.7279 0.452755 13.618 0.385092C13.5078 0.317512 13.3708 0.263883 13.2077 0.224037C12.775 0.128682 12.2239 0.0770989 11.5543 0.0690796C10.0358 0.0532079 9.06005 0.148688 8.62733 0.355395C8.45588 0.442731 8.30073 0.56206 8.16201 0.713008C8.01501 0.887972 7.99451 0.983453 8.10063 0.999157C8.59057 1.07062 8.93741 1.24158 9.14155 1.51185L9.21511 1.65507C9.27233 1.75841 9.32947 1.94135 9.38664 2.20365C9.44374 2.46595 9.48058 2.7561 9.4968 3.07395C9.53755 3.6544 9.53755 4.15126 9.4968 4.56459C9.45592 4.97809 9.41731 5.29999 9.38047 5.53055C9.34362 5.7611 9.28855 5.94793 9.21511 6.09098C9.14155 6.23408 9.0926 6.32154 9.06807 6.35328C9.04358 6.38503 9.02316 6.40503 9.00694 6.41288C8.90082 6.45248 8.79046 6.47265 8.67623 6.47265C8.56183 6.47265 8.42311 6.41694 8.25986 6.30558C8.09664 6.19423 7.92725 6.04128 7.75169 5.84648C7.57612 5.65163 7.37812 5.37935 7.1576 5.02959C6.93725 4.67983 6.70863 4.26646 6.47185 3.78947L6.27595 3.44355C6.15349 3.22102 5.9862 2.89699 5.77392 2.47175C5.5615 2.04635 5.37376 1.63486 5.21054 1.23736C5.1453 1.07041 5.04729 0.943314 4.91667 0.855853L4.85538 0.819974C4.81463 0.788231 4.74922 0.754525 4.65948 0.718605C4.56962 0.682727 4.47585 0.656998 4.37779 0.641168L1.02222 0.664892C0.67932 0.664892 0.446662 0.740533 0.324156 0.891605L0.275127 0.963069C0.250635 1.00287 0.238281 1.06644 0.238281 1.15395C0.238281 1.24141 0.262774 1.34875 0.311802 1.47585C0.801655 2.59689 1.33436 3.67804 1.90991 4.71947C2.48547 5.7609 2.98562 6.59979 3.41006 7.23541C3.83458 7.87149 4.2673 8.47181 4.70821 9.03609C5.14912 9.60058 5.44097 9.96232 5.58377 10.1212C5.72673 10.2805 5.83903 10.3995 5.92066 10.479L6.22688 10.7651C6.42282 10.956 6.71056 11.1845 7.09021 11.4508C7.46996 11.7172 7.89036 11.9795 8.35165 12.2381C8.81302 12.4963 9.34976 12.7069 9.96216 12.8699C10.5745 13.033 11.1704 13.0984 11.7502 13.0669H13.1586C13.4442 13.0428 13.6606 12.9554 13.8077 12.8044L13.8564 12.7447C13.8892 12.6972 13.9198 12.6235 13.9482 12.5243C13.9768 12.4249 13.991 12.3155 13.991 12.1964C13.9827 11.8546 14.0094 11.5466 14.0705 11.2723C14.1315 10.9982 14.2011 10.7914 14.2789 10.6522C14.3567 10.5132 14.4444 10.3958 14.5421 10.3006C14.64 10.2053 14.7097 10.1475 14.7507 10.1276C14.7913 10.1076 14.8238 10.0941 14.8483 10.0859C15.0442 10.0223 15.2748 10.0839 15.5404 10.2709C15.8058 10.4577 16.0547 10.6884 16.2876 10.9626C16.5203 11.237 16.7998 11.5449 17.1264 11.8866C17.4531 12.2285 17.7388 12.4827 17.9836 12.6499L18.2284 12.793C18.392 12.8885 18.6042 12.9759 18.8656 13.0554C19.1264 13.1349 19.3549 13.1547 19.5512 13.115L22.6862 13.0674C22.9963 13.0674 23.2376 13.0174 23.4087 12.9182C23.5802 12.8188 23.6821 12.7094 23.7149 12.5903C23.7477 12.4711 23.7495 12.3358 23.7211 12.1846C23.6921 12.0338 23.6635 11.9284 23.635 11.8688Z" fill="white"/>
</svg>
