<svg width="49" height="49" viewBox="0 0 49 49" fill="none" xmlns="http://www.w3.org/2000/svg">
<g id="Group 141">
<path id="Rectangle 43" opacity="0.8" d="M0 10C0 4.47715 4.47715 0 10 0H39C44.5228 0 49 4.47715 49 10V39C49 44.5228 44.5228 49 39 49H10C4.47715 49 0 44.5228 0 39V10Z" fill="#484C92"/>
<path id="Vector" d="M24.73 26.685V22.4136H35.7207C35.885 23.1364 36.0164 23.81 36.0164 24.7793C36.0164 31.3507 31.515 36.0164 24.7464 36.0164C17.9779 36.0164 13 30.8414 13 24.5C13 18.1586 18.2571 13 24.73 13C27.9007 13 30.5457 14.1336 32.5829 16.0064L29.2479 19.1771C28.41 18.3886 26.9314 17.4686 24.73 17.4686C20.8529 17.4686 17.6821 20.6393 17.6821 24.5C17.6821 28.3607 20.8529 31.5314 24.73 31.5314C29.2314 31.5314 30.8743 28.4757 31.1864 26.685H24.7136H24.73Z" fill="white"/>
</g>
</svg>
