<svg width="49" height="49" viewBox="0 0 49 49" fill="none" xmlns="http://www.w3.org/2000/svg">
<g id="Group 140">
<path id="Rectangle 43" opacity="0.8" d="M0 10C0 4.47715 4.47715 0 10 0H39C44.5228 0 49 4.47715 49 10V39C49 44.5228 44.5228 49 39 49H10C4.47715 49 0 44.5228 0 39V10Z" fill="#484C92"/>
<path id="Vector" d="M30.6025 18.4286C30.6028 17.6977 30.9001 16.9968 31.429 16.4802C31.958 15.9635 32.6752 15.6734 33.423 15.6736C34.1708 15.6739 34.8879 15.9644 35.4165 16.4815C35.945 16.9985 36.2419 17.6995 36.2416 18.4305C36.2414 19.1614 35.9441 19.8623 35.4151 20.3789C34.8862 20.8956 34.1689 21.1857 33.4211 21.1855C32.6733 21.1852 31.9563 20.8947 31.4277 20.3776C30.8991 19.8606 30.6023 19.1596 30.6025 18.4286ZM38.0718 13.8828C37.2087 13.0392 36.1225 12.447 34.9347 12.1725C33.7468 11.898 32.5042 11.952 31.346 12.3284C30.1878 12.7049 29.1596 13.389 28.3765 14.3042C27.5934 15.2193 27.0864 16.3295 26.912 17.5103L20.9028 26.4127C20.0948 26.4531 19.2943 26.6551 18.5558 27.0151L13.9201 23.474C13.4029 23.1056 12.7595 22.9481 12.1256 23.0347C11.4918 23.1213 10.9172 23.4453 10.5232 23.9382C10.1291 24.4311 9.94642 25.0544 10.0137 25.6764C10.0809 26.2985 10.3928 26.8707 10.8836 27.2723L15.461 30.7711C15.2426 31.6096 15.219 32.4852 15.3918 33.3337C15.5646 34.1822 15.9295 34.9822 16.4598 35.675C16.99 36.3678 17.6721 36.9358 18.4561 37.3374C19.2401 37.739 20.1062 37.9641 20.9907 37.996C21.8753 38.028 22.7559 37.8661 23.5681 37.5221C24.3803 37.1782 25.1035 36.6609 25.6846 36.0083C26.2657 35.3557 26.6901 34.5842 26.9265 33.7505C27.163 32.9167 27.2055 32.0418 27.0511 31.1899L34.3625 24.7909C35.5706 24.6205 36.7064 24.1249 37.6426 23.3594C38.5789 22.594 39.2788 21.589 39.664 20.4569C40.0491 19.3248 40.1044 18.1103 39.8235 16.9492C39.5427 15.7882 38.9349 14.7265 38.0718 13.8828ZM21.2072 36.07C20.1581 36.07 19.152 35.6626 18.4103 34.9376C17.6685 34.2125 17.2517 33.2291 17.2517 32.2038L17.2536 32.1431L19.2191 33.6437C19.4743 33.8386 19.7662 33.9825 20.0782 34.0671C20.3903 34.1517 20.7163 34.1754 21.0377 34.1368C21.3591 34.0983 21.6696 33.9983 21.9514 33.8424C22.2333 33.6866 22.481 33.478 22.6804 33.2286C22.8798 32.9792 23.0269 32.6939 23.1135 32.3889C23.2001 32.0839 23.2243 31.7652 23.1849 31.4511C23.1454 31.1369 23.0431 30.8334 22.8837 30.5579C22.7242 30.2824 22.5109 30.0403 22.2557 29.8454L20.3917 28.4202C20.9337 28.3088 21.4936 28.31 22.0351 28.4236C22.5766 28.5372 23.0877 28.7606 23.5352 29.0795C23.9828 29.3984 24.3568 29.8056 24.6331 30.2748C24.9095 30.744 25.0819 31.2646 25.1393 31.8031C25.1967 32.3415 25.1378 32.8857 24.9663 33.4005C24.7949 33.9152 24.5148 34.3891 24.1441 34.7913C23.7734 35.1935 23.3205 35.5152 22.8146 35.7355C22.3086 35.9557 21.761 36.0697 21.2072 36.07ZM33.4211 23.0203C32.1752 23.0203 30.9804 22.5366 30.0994 21.6755C29.2184 20.8143 28.7235 19.6464 28.7235 18.4286C28.7235 17.2108 29.2184 16.0429 30.0994 15.1818C30.9804 14.3207 32.1752 13.8369 33.4211 13.8369C34.667 13.8369 35.8619 14.3207 36.7429 15.1818C37.6239 16.0429 38.1188 17.2108 38.1188 18.4286C38.1188 19.6464 37.6239 20.8143 36.7429 21.6755C35.8619 22.5366 34.667 23.0203 33.4211 23.0203Z" fill="white"/>
</g>
</svg>
