<svg width="49" height="49" viewBox="0 0 49 49" fill="none" xmlns="http://www.w3.org/2000/svg">
<g id="Group 137">
<path id="Rectangle 43" opacity="0.8" d="M0 10C0 4.47715 4.47715 0 10 0H39C44.5228 0 49 4.47715 49 10V39C49 44.5228 44.5228 49 39 49H10C4.47715 49 0 44.5228 0 39V10Z" fill="#484C92"/>
<path id="Vector" d="M35.9998 15.7042L32.362 34.0449C32.362 34.0449 31.8535 35.3166 30.4542 34.7061L22.0219 28.2522C23.1553 27.2334 31.9478 19.3285 32.3324 18.97C32.9267 18.4152 32.5579 18.085 31.867 18.5046L18.8796 26.7523L13.869 25.0655C13.869 25.0655 13.0802 24.7856 13.0043 24.1751C12.9279 23.5646 13.8946 23.234 13.8946 23.234L34.3211 15.2208C34.3211 15.2208 35.9998 14.4832 35.9998 15.7042Z" fill="white"/>
</g>
</svg>
