<svg width="49" height="49" viewBox="0 0 49 49" fill="none" xmlns="http://www.w3.org/2000/svg">
<g id="Group 138">
<path id="Rectangle 44" opacity="0.8" d="M0 10C0 4.47715 4.47715 0 10 0H39C44.5228 0 49 4.47715 49 10V39C49 44.5228 44.5228 49 39 49H10C4.47715 49 0 44.5228 0 39V10Z" fill="#484C92"/>
<path id="Vector" d="M37.8568 30.5466C37.8241 30.478 37.7936 30.4211 37.7653 30.3755C37.2969 29.554 36.4017 28.5456 35.0803 27.3502L35.0524 27.3228L35.0384 27.3094L35.0243 27.2956H35.0101C34.4104 26.7389 34.0306 26.3646 33.8715 26.173C33.5806 25.8079 33.5154 25.4384 33.6744 25.064C33.7868 24.7812 34.2088 24.1838 34.9396 23.271C35.324 22.7873 35.6285 22.3997 35.8533 22.1076C37.4747 20.0086 38.1777 18.6673 37.962 18.0832L37.8783 17.9467C37.822 17.8645 37.6767 17.7893 37.4427 17.7208C37.2081 17.6524 36.9083 17.641 36.5427 17.6866L32.4942 17.7139C32.4286 17.6912 32.335 17.6934 32.213 17.7208C32.0911 17.7482 32.0302 17.762 32.0302 17.762L31.9597 17.7962L31.9038 17.8374C31.8569 17.8647 31.8053 17.9126 31.7491 17.981C31.6931 18.0492 31.6462 18.1293 31.6088 18.2205C31.168 19.3248 30.6669 20.3514 30.1045 21.3004C29.7577 21.8663 29.4392 22.3567 29.1484 22.7719C28.8579 23.1871 28.6142 23.4929 28.4176 23.6889C28.2206 23.8852 28.0429 24.0424 27.8832 24.1611C27.7239 24.2799 27.6022 24.3301 27.518 24.3118C27.4335 24.2934 27.354 24.2752 27.2787 24.257C27.1476 24.1748 27.0421 24.063 26.9626 23.9216C26.8827 23.7802 26.829 23.6022 26.8009 23.3877C26.7729 23.1731 26.7563 22.9885 26.7516 22.8333C26.7472 22.6783 26.7493 22.4591 26.7588 22.1762C26.7685 21.8932 26.7729 21.7017 26.7729 21.6013C26.7729 21.2545 26.7798 20.8781 26.7938 20.472C26.8079 20.0659 26.8194 19.7441 26.829 19.5071C26.8386 19.2698 26.843 19.0188 26.843 18.7541C26.843 18.4895 26.8265 18.2819 26.7938 18.1313C26.7615 17.9808 26.7119 17.8348 26.6465 17.6932C26.5808 17.5518 26.4846 17.4424 26.3584 17.3647C26.2319 17.2871 26.0746 17.2256 25.8874 17.1798C25.3907 17.0704 24.7581 17.0112 23.9895 17.0019C22.2464 16.9837 21.1264 17.0933 20.6297 17.3306C20.4329 17.4309 20.2548 17.5678 20.0956 17.7411C19.9268 17.9419 19.9033 18.0515 20.0251 18.0696C20.5875 18.1516 20.9856 18.3478 21.2199 18.6581L21.3044 18.8225C21.3701 18.9411 21.4357 19.1511 21.5013 19.4522C21.5668 19.7533 21.6091 20.0863 21.6277 20.4512C21.6745 21.1175 21.6745 21.6878 21.6277 22.1623C21.5808 22.6369 21.5365 23.0064 21.4942 23.2711C21.4519 23.5358 21.3887 23.7502 21.3044 23.9144C21.2199 24.0787 21.1638 24.1791 21.1356 24.2155C21.1075 24.2519 21.084 24.2749 21.0654 24.2839C20.9436 24.3294 20.8169 24.3525 20.6858 24.3525C20.5545 24.3525 20.3953 24.2886 20.2079 24.1608C20.0205 24.0329 19.8261 23.8574 19.6245 23.6337C19.423 23.4101 19.1957 23.0975 18.9426 22.6961C18.6897 22.2946 18.4272 21.8201 18.1554 21.2725L17.9306 20.8755C17.79 20.62 17.598 20.2481 17.3543 19.7599C17.1105 19.2716 16.8949 18.7993 16.7076 18.343C16.6327 18.1514 16.5202 18.0055 16.3703 17.9051L16.2999 17.8639C16.2531 17.8275 16.178 17.7888 16.075 17.7475C15.9719 17.7063 15.8643 17.6768 15.7517 17.6586L11.8999 17.6859C11.5063 17.6859 11.2392 17.7727 11.0986 17.9461L11.0423 18.0281C11.0142 18.0738 11 18.1468 11 18.2473C11 18.3476 11.0281 18.4709 11.0844 18.6168C11.6467 19.9036 12.2582 21.1446 12.9188 22.3401C13.5795 23.5355 14.1536 24.4985 14.6408 25.2281C15.1281 25.9582 15.6249 26.6473 16.131 27.2951C16.6371 27.943 16.9721 28.3583 17.136 28.5407C17.3001 28.7235 17.429 28.8601 17.5227 28.9513L17.8742 29.2798C18.0992 29.4989 18.4294 29.7612 18.8652 30.0669C19.3011 30.3727 19.7837 30.6738 20.3132 30.9706C20.8428 31.267 21.4589 31.5088 22.1619 31.6958C22.8648 31.883 23.5489 31.9582 24.2143 31.9219H25.831C26.1589 31.8944 26.4073 31.794 26.5761 31.6207L26.6321 31.5521C26.6697 31.4976 26.7049 31.413 26.7374 31.2991C26.7703 31.1851 26.7866 31.0594 26.7866 30.9227C26.777 30.5304 26.8077 30.1768 26.8778 29.862C26.9479 29.5473 27.0277 29.31 27.1171 29.1502C27.2063 28.9906 27.3071 28.8558 27.4192 28.7466C27.5315 28.6372 27.6116 28.5709 27.6586 28.548C27.7053 28.5251 27.7425 28.5095 27.7706 28.5001C27.9956 28.4272 28.2603 28.4978 28.5651 28.7125C28.8698 28.9269 29.1555 29.1917 29.4228 29.5064C29.6899 29.8214 30.0108 30.1748 30.3856 30.5672C30.7607 30.9596 31.0886 31.2514 31.3696 31.4433L31.6507 31.6076C31.8384 31.7172 32.0821 31.8176 32.382 31.9088C32.6814 32 32.9438 32.0228 33.169 31.9772L36.7677 31.9226C37.1236 31.9226 37.4006 31.8652 37.597 31.7513C37.7939 31.6372 37.9108 31.5116 37.9485 31.3749C37.9862 31.2381 37.9882 31.0828 37.9557 30.9092C37.9223 30.7361 37.8895 30.6151 37.8568 30.5466Z" fill="white"/>
</g>
</svg>
