<svg width="49" height="49" viewBox="0 0 49 49" fill="none" xmlns="http://www.w3.org/2000/svg">
<g id="Group 139">
<path id="Rectangle 43" opacity="0.8" d="M0 10C0 4.47715 4.47715 0 10 0H39C44.5228 0 49 4.47715 49 10V39C49 44.5228 44.5228 49 39 49H10C4.47715 49 0 44.5228 0 39V10Z" fill="#484C92"/>
<path id="Vector" d="M30 36V13H26.3333C24.3884 13 22.5232 13.6058 21.1479 14.6841C19.7726 15.7625 19 17.225 19 18.75V20.1875C19 21.7125 19.7726 23.175 21.1479 24.2534C22.5232 25.3317 24.3884 25.9375 26.3333 25.9375H30M19 36L24.5 25.9375" stroke="white" stroke-width="5" stroke-linecap="round" stroke-linejoin="round"/>
</g>
</svg>
