<svg width="29" height="23" viewBox="0 0 29 23" fill="none" xmlns="http://www.w3.org/2000/svg">
<path d="M7.37976 10.0952L7.37978 10.0952L10.0255 12.8172L10.384 13.186L10.7425 12.8172L21.6203 1.62617L21.2618 1.27767L21.6203 1.62616C23.0798 0.124565 25.4402 0.124661 26.8996 1.62616C28.3668 3.13573 28.3668 5.5888 26.8996 7.09837L13.0236 21.3738L13.0236 21.3739C12.2923 22.1264 11.3375 22.5 10.3841 22.5C9.43077 22.5 8.47602 22.1264 7.74447 21.3738L2.1005 15.5674C0.633168 14.0578 0.633168 11.6048 2.1005 10.0952C3.55991 8.59379 5.92041 8.59363 7.37976 10.0952Z" fill="white" stroke="white"/>
</svg>
