<svg width="156" height="155" viewBox="0 0 156 155" fill="none" xmlns="http://www.w3.org/2000/svg">
<path d="M78.2083 155L102.597 76.7299L83.1186 102.509L62.6587 102.679L78.2083 155Z" fill="#25296D"/>
<path d="M156 96.6271L91.6955 48.4071L109.338 75.5676L103.171 95.7824L156 96.6271Z" fill="#25296D"/>
<path d="M126.789 0L62.6587 48.4683L93.0402 39.4753L109.689 51.7992L126.789 0Z" fill="#25296D"/>
<path d="M31.3214 1.90961L55.9909 80.0849L57.1253 47.3662L73.5814 34.768L31.3214 1.90961Z" fill="#25296D"/>
<path d="M0 92.2528L79.334 94.97L50.0498 82.6752L44.2529 62.3433L0 92.2528Z" fill="#25296D"/>
<g filter="url(#filter0_i_3057_16177)">
<path d="M79.1282 121L94.1363 73.028L82.1499 88.8282L69.5592 88.932L79.1282 121Z" fill="url(#paint0_linear_3057_16177)"/>
<path d="M127 85.223L87.428 55.6688L98.285 72.3156L94.49 84.7053L127 85.223Z" fill="url(#paint1_linear_3057_16177)"/>
<path d="M109.024 26L69.5592 55.7064L88.2555 50.1946L98.5009 57.7479L109.024 26Z" fill="url(#paint2_linear_3057_16177)"/>
<path d="M50.2747 27.1704L65.4559 75.0843L66.154 55.0309L76.2809 47.3094L50.2747 27.1704Z" fill="url(#paint3_linear_3057_16177)"/>
<path d="M31 82.542L79.8209 84.2074L61.7999 76.6719L58.2326 64.2104L31 82.542Z" fill="url(#paint4_linear_3057_16177)"/>
</g>
<defs>
<filter id="filter0_i_3057_16177" x="31" y="26" width="96" height="95" filterUnits="userSpaceOnUse" color-interpolation-filters="sRGB">
<feFlood flood-opacity="0" result="BackgroundImageFix"/>
<feBlend mode="normal" in="SourceGraphic" in2="BackgroundImageFix" result="shape"/>
<feColorMatrix in="SourceAlpha" type="matrix" values="0 0 0 0 0 0 0 0 0 0 0 0 0 0 0 0 0 0 127 0" result="hardAlpha"/>
<feOffset dy="-2"/>
<feComposite in2="hardAlpha" operator="arithmetic" k2="-1" k3="1"/>
<feColorMatrix type="matrix" values="0 0 0 0 0 0 0 0 0 0 0 0 0 0 0 0 0 0 0.25 0"/>
<feBlend mode="normal" in2="shape" result="effect1_innerShadow_3057_16177"/>
</filter>
<linearGradient id="paint0_linear_3057_16177" x1="79" y1="26" x2="79" y2="121" gradientUnits="userSpaceOnUse">
<stop stop-color="#F18D72"/>
<stop offset="1" stop-color="#C744A3"/>
</linearGradient>
<linearGradient id="paint1_linear_3057_16177" x1="79" y1="26" x2="79" y2="121" gradientUnits="userSpaceOnUse">
<stop stop-color="#F18D72"/>
<stop offset="1" stop-color="#C744A3"/>
</linearGradient>
<linearGradient id="paint2_linear_3057_16177" x1="79" y1="26" x2="79" y2="121" gradientUnits="userSpaceOnUse">
<stop stop-color="#F18D72"/>
<stop offset="1" stop-color="#C744A3"/>
</linearGradient>
<linearGradient id="paint3_linear_3057_16177" x1="79" y1="26" x2="79" y2="121" gradientUnits="userSpaceOnUse">
<stop stop-color="#F18D72"/>
<stop offset="1" stop-color="#C744A3"/>
</linearGradient>
<linearGradient id="paint4_linear_3057_16177" x1="79" y1="26" x2="79" y2="121" gradientUnits="userSpaceOnUse">
<stop stop-color="#F18D72"/>
<stop offset="1" stop-color="#C744A3"/>
</linearGradient>
</defs>
</svg>
