<svg width="37" height="36" viewBox="0 0 37 36" fill="none" xmlns="http://www.w3.org/2000/svg">
<g id="Frame 79">
<path id="Vector" d="M20.9382 7.55926L22.6324 4.03418L14.0272 4.03418L15.7213 7.55926C10.5792 8.7963 6.82977 13.5535 6.82977 19.1162C6.82977 25.6619 11.978 31.0342 18.3298 31.0342C24.6734 31.0342 29.8298 25.6697 29.8298 19.1162C29.8298 13.5507 26.0778 8.79567 20.9382 7.55926ZM20.1605 5.61621L18.3298 9.42548L16.499 5.61621L20.1605 5.61621ZM16.1616 19.9072C16.1888 19.9863 16.2197 20.0637 16.2546 20.1387L12.9412 23.5573C12.1466 22.533 11.6202 21.2783 11.4726 19.9072L16.1616 19.9072ZM11.4726 18.3252C11.6202 16.9541 12.1466 15.6994 12.9412 14.6751L16.2546 18.0937C16.2197 18.1687 16.1888 18.2461 16.1616 18.3252L11.4726 18.3252ZM17.3388 21.2574C17.4115 21.2934 17.4864 21.3251 17.5631 21.3532L17.5631 26.1912C16.2342 26.0389 15.0182 25.4958 14.0254 24.6759L17.3388 21.2574ZM17.3388 16.975L14.0254 13.5565C15.0182 12.7366 16.2342 12.1936 17.5631 12.0413L17.5631 16.8792C17.4864 16.9073 17.4115 16.9391 17.3388 16.975ZM18.3298 18.3252C18.7525 18.3252 19.0964 18.68 19.0964 19.1162C19.0964 19.5524 18.7525 19.9072 18.3298 19.9072C17.907 19.9072 17.5631 19.5524 17.5631 19.1162C17.5631 18.68 17.907 18.3252 18.3298 18.3252ZM19.0964 21.3532C19.1731 21.3251 19.2481 21.2934 19.3208 21.2574L22.6341 24.6759C21.6414 25.4958 20.4253 26.0389 19.0964 26.1912L19.0964 21.3532ZM20.405 20.1387C20.4398 20.0637 20.4707 19.9758 20.4979 19.8967L25.1869 19.8967C25.0394 21.2677 24.513 22.533 23.7184 23.5573L20.405 20.1387ZM20.4979 18.3252C20.4707 18.2461 20.4398 18.1687 20.405 18.0937L23.7184 14.6751C24.513 15.6994 25.0394 16.9541 25.1869 18.3252L20.4979 18.3252ZM19.3208 16.975C19.248 16.9391 19.1731 16.9073 19.0964 16.8792L19.0964 12.0413C20.4253 12.1936 21.6414 12.7366 22.6341 13.5565L19.3208 16.975ZM18.3298 29.4521C12.8342 29.4521 8.36311 24.8155 8.36311 19.1162C8.36311 14.1959 11.7928 9.95124 16.4244 9.02206L17.136 10.5026C13.0492 11.1028 9.89644 14.7365 9.89644 19.1162C9.89644 23.914 13.6796 27.8174 18.3298 27.8174C22.9799 27.8174 26.7631 23.914 26.7631 19.1162C26.7631 14.7365 23.6104 11.1028 19.5236 10.5026L20.2351 9.02206C24.8668 9.95124 28.2964 14.1959 28.2964 19.1162C28.2964 24.8155 23.8254 29.4521 18.3298 29.4521Z" fill="url(#paint0_linear_2269_26821)"/>
</g>
<defs>
<linearGradient id="paint0_linear_2269_26821" x1="18.3298" y1="4.03418" x2="18.3298" y2="31.0342" gradientUnits="userSpaceOnUse">
<stop stop-color="#3856F3"/>
<stop offset="1" stop-color="#5144C9"/>
</linearGradient>
</defs>
</svg>
