<svg width="44" height="36" viewBox="0 0 44 36" fill="none" xmlns="http://www.w3.org/2000/svg">
<g id="Frame 79">
<path id="Vector" d="M33.0298 10.8293L29.3842 10.8293C29.6602 10.3565 29.8298 9.8149 29.8298 9.2293C29.8298 6.4453 27.825 6.0293 26.6298 6.0293C25.1978 6.0293 23.0002 7.9565 21.8298 9.7005C20.6594 7.9565 18.4618 6.0293 17.0298 6.0293C15.8346 6.0293 13.8298 6.4453 13.8298 9.2293C13.8298 9.8149 13.9994 10.3565 14.2754 10.8293L10.6298 10.8293C10.1882 10.8293 9.82983 11.1877 9.82983 11.6293L9.82983 16.4293C9.82983 16.8709 10.1882 17.2293 10.6298 17.2293L11.4298 17.2293L11.4298 29.2293C11.4298 29.6709 11.7882 30.0293 12.2298 30.0293L31.4298 30.0293C31.8722 30.0293 32.2298 29.6709 32.2298 29.2293L32.2298 17.2293L33.0298 17.2293C33.4722 17.2293 33.8298 16.8709 33.8298 16.4293L33.8298 11.6293C33.8298 11.1877 33.4722 10.8293 33.0298 10.8293ZM26.6298 7.6293C27.9754 7.6293 28.2298 8.1917 28.2298 9.2293C28.2298 10.1117 27.5122 10.8293 26.6298 10.8293L22.9626 10.8293C23.7546 9.5733 25.7474 7.6293 26.6298 7.6293ZM23.4298 15.6293L20.2298 15.6293L20.2298 12.4293L21.8298 12.4293L23.4298 12.4293L23.4298 15.6293ZM15.4298 9.2293C15.4298 8.1917 15.685 7.6293 17.0298 7.6293C17.9122 7.6293 19.905 9.5733 20.6962 10.8293L17.0298 10.8293C16.1474 10.8293 15.4298 10.1117 15.4298 9.2293ZM11.4298 12.4293L18.6298 12.4293L18.6298 15.6293L11.4298 15.6293L11.4298 12.4293ZM13.0298 17.2293L18.6298 17.2293L18.6298 28.4293L13.0298 28.4293L13.0298 17.2293ZM20.2298 28.4293L20.2298 17.2293L23.4298 17.2293L23.4298 28.4293L20.2298 28.4293ZM30.6298 28.4293L25.0298 28.4293L25.0298 17.2293L30.6298 17.2293L30.6298 28.4293ZM32.2298 15.6293L25.0298 15.6293L25.0298 12.4293L32.2298 12.4293L32.2298 15.6293Z" fill="url(#paint0_linear_2269_26817)"/>
</g>
<defs>
<linearGradient id="paint0_linear_2269_26817" x1="21.8298" y1="6.0293" x2="21.8298" y2="30.0293" gradientUnits="userSpaceOnUse">
<stop stop-color="#3856F3"/>
<stop offset="1" stop-color="#5144C9"/>
</linearGradient>
</defs>
</svg>
