<svg width="36" height="36" viewBox="0 0 36 36" fill="none" xmlns="http://www.w3.org/2000/svg">
<g id="Frame 372">
<path id="Vector" d="M17.4021 27.9236C16.8811 28.2011 16.3826 28.4722 15.8802 28.7333C14.9314 29.2268 14.1337 29.0919 13.3835 28.3149C11.7557 26.6279 10.128 24.9403 8.50141 23.2521C7.7727 22.4964 7.64144 21.6643 8.10198 20.7137C8.35884 20.1832 8.62305 19.6557 8.89915 19.0959C8.32319 18.9034 7.76251 18.7151 7.20127 18.5279C6.47538 18.2861 5.7478 18.0491 5.02305 17.8038C3.94751 17.44 3.65727 16.2359 4.45445 15.4115C5.84398 13.975 7.23182 12.5344 8.84144 11.3556C9.24766 11.0581 9.68387 10.7999 10.1223 10.5546C11.1283 9.99189 12.1676 10.1462 13.2018 10.4543C13.6539 10.5887 14.1037 10.74 14.5371 10.9284C14.8137 11.0487 14.9919 11.0264 15.2267 10.8122C17.5481 8.69626 20.1721 7.11546 23.1079 6.10383C24.9965 5.45309 26.9331 5.06639 28.9258 5.00126C30.1518 4.96077 31.0525 5.90198 30.9976 7.17237C30.7741 12.3167 28.9637 16.8186 25.8649 20.7982C25.6816 21.0341 25.4966 21.27 25.2952 21.4888C25.1736 21.6209 25.1645 21.7306 25.2217 21.9008C25.4429 22.5644 25.6624 23.2298 25.848 23.9046C26.1654 25.0571 25.9968 26.138 25.3908 27.1654C24.6383 28.4423 23.7026 29.5648 22.7221 30.6504C22.1484 31.2853 21.56 31.9073 20.9676 32.5234C20.1704 33.3513 19.0118 33.0632 18.6581 31.9483C18.2672 30.7149 17.8898 29.4768 17.5062 28.2404C17.4751 28.1407 17.4412 28.0421 17.4021 27.923L17.4021 27.9236ZM29.3484 7.58019C29.3563 7.45345 29.3665 7.3267 29.3722 7.19995C29.3908 6.78803 29.2788 6.66774 28.8811 6.69414C28.4109 6.72524 27.9385 6.74578 27.4717 6.80622C23.9594 7.26391 20.7781 8.60179 17.9142 10.7436C14.1755 13.5396 11.5385 17.2645 9.53168 21.5141C9.4321 21.7247 9.47963 21.8796 9.63182 22.0369C11.281 23.7421 12.928 25.4497 14.5721 27.1601C14.7356 27.3303 14.8946 27.3655 15.1017 27.2505C15.5917 26.9794 16.0929 26.73 16.5801 26.4537C19.6969 24.688 22.4709 22.4799 24.7074 19.5964C27.4327 16.0833 29.0333 12.0967 29.3478 7.57961L29.3484 7.58019ZM23.8893 23.0368C23.6958 23.2216 23.5243 23.3871 23.3512 23.5514C22.0256 24.806 20.5931 25.9144 19.0678 26.8926C18.8878 27.0076 18.8545 27.1085 18.9235 27.3104C19.1028 27.8338 19.259 28.366 19.4236 28.8953C19.6415 29.5965 19.8587 30.2977 20.0856 31.03C20.1625 30.9596 20.2134 30.9197 20.2564 30.8722C20.8601 30.2138 21.4932 29.5812 22.0573 28.8882C22.73 28.0615 23.3699 27.203 23.9668 26.3163C24.1869 25.9895 24.3289 25.5506 24.3572 25.1516C24.4092 24.4222 24.1371 23.7392 23.8887 23.0374L23.8893 23.0368ZM5.83832 16.2999C7.20579 16.7552 8.47312 17.1765 9.7495 17.6014C10.8669 15.7184 12.1331 13.9803 13.6364 12.352C13.1385 12.2076 12.6972 12.0768 12.2542 11.9524C11.6058 11.7704 10.9982 11.8819 10.4499 12.2745C9.90056 12.6676 9.33706 13.0491 8.83295 13.4991C7.8355 14.3905 6.87482 15.3252 5.83832 16.2993L5.83832 16.2999Z" fill="url(#paint0_linear_2269_26811)"/>
<path id="Vector_2" d="M7.18006 29.5666C8.21222 29.421 9.15976 29.1195 10.0458 28.5565C10.176 28.4737 10.3316 28.41 10.4761 28.4091C10.728 28.4076 10.9299 28.6408 10.983 28.9275C11.0413 29.2434 10.9511 29.5512 10.6912 29.691C10.1113 30.0027 9.52856 30.3172 8.92667 30.5575C8.20584 30.8452 7.44948 30.9519 6.69033 30.9984C6.25368 31.0252 5.98107 30.7226 6.00103 30.2104C6.06369 28.6163 6.35107 27.0879 6.95615 25.6565C6.99527 25.5641 7.03558 25.4727 7.07988 25.3837C7.26269 25.0175 7.59876 24.8968 7.88214 25.0941C8.15834 25.286 8.25014 25.6886 8.0825 26.0515C7.74843 26.7753 7.51653 27.5441 7.36806 28.3487C7.29661 28.7365 7.24672 29.13 7.18006 29.5666Z" fill="url(#paint1_linear_2269_26811)"/>
<path id="Vector_3" d="M18 13.9687C18.0066 11.722 19.7627 9.98939 22.0231 10C24.2591 10.01 26.0105 11.7673 26 13.9894C25.9887 16.2161 24.1995 18.004 21.9867 18C19.7786 17.996 17.9941 16.1915 18 13.9687ZM19.909 13.988C19.9123 15.1547 20.8224 16.0629 21.9914 16.0649C23.1689 16.0669 24.0989 15.136 24.0903 13.9634C24.0817 12.8141 23.1431 11.8752 22 11.8725C20.8416 11.8699 19.9057 12.8167 19.909 13.988Z" fill="url(#paint2_linear_2269_26811)"/>
</g>
<defs>
<linearGradient id="paint0_linear_2269_26811" x1="17.5" y1="5" x2="17.5" y2="33" gradientUnits="userSpaceOnUse">
<stop stop-color="#3856F3"/>
<stop offset="1" stop-color="#5144C9"/>
</linearGradient>
<linearGradient id="paint1_linear_2269_26811" x1="8.5" y1="25" x2="8.5" y2="31" gradientUnits="userSpaceOnUse">
<stop stop-color="#3856F3"/>
<stop offset="1" stop-color="#5144C9"/>
</linearGradient>
<linearGradient id="paint2_linear_2269_26811" x1="22" y1="10" x2="22" y2="18" gradientUnits="userSpaceOnUse">
<stop stop-color="#3856F3"/>
<stop offset="1" stop-color="#5144C9"/>
</linearGradient>
</defs>
</svg>
