<svg width="163" height="143" viewBox="0 0 163 143" fill="none" xmlns="http://www.w3.org/2000/svg">
<path d="M156.095 6.58836H153.162C152.634 6.58836 152.109 6.50477 151.608 6.34069L138.301 1.98931C136.453 1.38472 134.421 1.90718 133.093 3.32866L124.247 12.7998M156.095 6.58836L157.959 13.421L159.203 19.6324L160.446 26.465L162 39.5091V41.9936M156.095 6.58836L124.247 12.7998M156.095 49.1368H157C159.761 49.1368 162 46.8982 162 44.1368V41.9936M156.095 49.1368H145.527L120.973 52.5531L113.203 53.7954M156.095 49.1368V52.2183C156.095 53.2448 155.779 54.2464 155.19 55.0871L155.049 55.2886C154.323 56.3249 153.231 57.0474 151.993 57.3105L139.311 60.0069L127.033 62.5748C126.317 62.7244 125.643 63.0293 125.058 63.4678L121.938 65.8054C121.308 66.2775 120.83 66.9228 120.56 67.6625V67.6625C120.049 69.0677 118.805 70.0771 117.325 70.2885L116.456 70.4124C114.59 70.6789 113.203 72.2778 113.203 74.1637V74.1637C113.203 74.4561 113.237 74.7475 113.304 75.0322L114.157 78.6552C114.347 79.4614 114.333 80.3022 114.118 81.102L112.511 87.065C112.352 87.6556 112.086 88.212 111.726 88.7065L107.297 94.791L101.695 101.189C101.09 101.879 100.307 102.39 99.4313 102.665L89.8919 105.661L80.8283 107.422C79.5243 107.675 78.1886 107.175 77.3727 106.126V106.126C76.8289 105.428 76.0423 104.959 75.169 104.814L70.6474 104.061C69.6199 103.89 68.6715 103.402 67.9346 102.666L62.2297 96.965M113.203 53.7954L110.716 49.758M113.203 53.7954L110.571 56.9035C110.054 57.5141 109.398 57.9918 108.658 58.2962L102.014 61.0299M110.716 49.758L109.332 41.9936M110.716 49.758L162 41.9936M106.676 27.0862L105.055 23.2003C104.179 21.0991 101.994 19.855 99.74 20.1739L69.1582 24.5008C68.6858 24.5676 68.2254 24.7017 67.791 24.8991L61.6081 27.7073M106.676 27.0862L77.0319 33.0702C76.291 33.2198 75.5948 33.539 74.998 34.0028V34.0028C73.8056 34.9295 73.1081 36.355 73.1081 37.8652V38.1013C73.1081 39.0219 73.3623 39.9246 73.8426 40.71L75.3672 43.2029C76.1056 44.4103 77.321 45.2481 78.712 45.5087L80.7678 45.8939C81.2533 45.9849 81.7495 46.0034 82.2403 45.9489L95.4865 44.4782L109.332 41.9936M106.676 27.0862L109.332 41.9936M61.6081 28.3284L58.5 31.4342M58.5 31.4342L54.7284 36.3805C53.9567 37.3927 53.6 38.6611 53.7311 39.9271L55.3185 55.261C55.3672 55.7309 55.4822 56.1916 55.6601 56.6292L58.6497 63.9825C59.1508 65.2149 60.1222 66.1968 61.3492 66.7109L68.3852 69.6593C68.8377 69.8488 69.3155 69.9708 69.8035 70.0213L78.0811 70.8769M58.5 31.4342V36.7139L59.3701 43.3792C59.4115 43.697 59.483 44.0098 59.5858 44.3134C60.3599 46.6014 61.7651 50.536 62.2297 51.0002C62.6731 51.4433 65.1263 55.5406 66.6809 58.1846C67.0265 58.7725 67.486 59.2837 68.0351 59.688L72.4258 62.9208C72.8768 63.2528 73.3853 63.4987 73.9256 63.6459V63.6459C75.5294 64.083 76.7667 65.3607 77.152 66.9777L78.0811 70.8769M78.0811 70.8769L102.014 61.0299M110.716 55.9694V55.9694C110.181 54.3654 108.548 53.3987 106.885 53.701L102.946 54.4165L86.9157 57.7079C85.7877 57.9395 85.8804 59.5804 87.0274 59.6835L102.014 61.0299M124.247 12.7998L123.414 13.692C122.638 14.5218 121.604 15.063 120.481 15.2267L108.902 16.914C107.922 17.0568 106.947 16.6228 106.397 15.7987V15.7987C105.815 14.9254 104.759 14.4951 103.732 14.7122L58.397 24.2949C57.45 24.495 56.5815 24.9657 55.8968 25.6499L49.3122 32.2294C49.0152 32.5263 48.6819 32.7845 48.3203 32.998L45.4478 34.6941C43.4449 35.8767 40.891 35.522 39.2862 33.8383L38.29 32.7931C36.872 31.3053 34.5701 31.101 32.9123 32.3159V32.3159C31.8103 33.1233 31.1843 34.4277 31.2437 35.7925L31.3749 38.8073C31.4293 40.0576 31.9506 41.2422 32.836 42.1268L34.9069 44.1962C35.4915 44.7803 36.26 45.1443 37.0823 45.2264L37.5378 45.2719C38.4044 45.3585 39.1756 45.8588 39.608 46.6148V46.6148C39.9628 47.2353 40.0564 47.9714 39.8682 48.661L39.6337 49.5201C39.3708 50.4833 38.8166 51.3416 38.0469 51.9776L23.4052 64.0759C23.1805 64.2615 22.9725 64.4664 22.7836 64.6883L10.996 78.5281C10.7562 78.8097 10.5483 79.117 10.3763 79.4445L4.50191 90.6252C4.24123 91.1213 4.06583 91.6578 3.98303 92.2121L1.10444 111.484C1.03516 111.948 1.03148 112.419 1.09351 112.884L2.24324 121.5L4.54251 130.18C4.84645 131.327 5.78629 132.195 6.95407 132.407V132.407C7.90176 132.58 8.71311 133.188 9.14413 134.049L10.4061 136.571C10.9541 137.666 11.8848 138.522 13.0219 138.977L19.6085 141.609C20.2499 141.866 20.9375 141.986 21.6279 141.964L38.4477 141.413C39.1678 141.389 39.8742 141.21 40.5187 140.888L51.7829 135.26C52.7151 134.795 53.4785 134.049 53.9664 133.128L55.0528 131.078C55.6684 129.916 55.8015 128.558 55.4235 127.299L54.7193 124.954C54.3528 123.733 54.4663 122.418 55.0366 121.278L55.415 120.522C55.8071 119.739 55.9864 118.866 55.9349 117.991L55.3919 108.767V104.056C55.3919 102.886 55.8024 101.752 56.552 100.854L57.7144 99.4599C58.2305 98.8411 58.8885 98.3561 59.6324 98.0464L62.2297 96.965M62.2297 96.965L57.5676 91.3747M85.957 92.364L91.6046 91.5341C92.3192 91.4291 93.0022 91.1736 93.6003 90.7687C96.2218 88.9939 100.56 85.8137 102.324 83.6104C104.09 81.4045 104.19 78.0562 103.973 76.1736C103.924 75.7472 103.785 75.3391 103.601 74.9513L103.437 74.6038M85.957 92.364L83.6249 92.7067C82.6448 92.8507 81.6441 92.7003 80.7496 92.2747L77.0858 90.5314C76.1174 90.0706 75.3228 89.3106 74.8193 88.3636L72.7786 84.5252C71.4361 82.0001 72.4811 78.8656 75.0702 77.6512L84.9917 72.9978C85.3563 72.8268 85.7401 72.7004 86.135 72.6215L97.2546 70.3993C99.5037 69.9498 101.77 71.0881 102.753 73.1606L103.437 74.6038M85.957 92.364L82.0431 84.677C81.6913 83.9861 81.5828 83.1969 81.7349 82.4368V82.4368C81.9745 81.2396 82.8296 80.2586 83.9829 79.8578L96.4189 75.5355L100.517 74.3979C101.485 74.1293 102.516 74.202 103.437 74.6038V74.6038M27.7297 130.507L19.7022 131.042C18.8518 131.098 18.001 130.937 17.2307 130.572L13.0955 128.615C12.7002 128.428 12.3312 128.189 11.9978 127.906L7.80972 124.349C6.83023 123.517 6.20867 122.34 6.07404 121.062L5.10333 111.847C5.06162 111.451 5.06735 111.052 5.12039 110.657L7.71004 91.3937C7.79447 90.7656 7.99752 90.1593 8.30839 89.6071L13.2563 80.8175C13.3736 80.6092 13.5056 80.4096 13.6514 80.2202L23.5813 67.3213C24.935 65.5628 27.2858 64.907 29.3543 65.7108L54.9933 75.6739C57.4791 76.6399 58.7693 79.3868 57.9254 81.9167L52.2299 98.9899C52.0597 99.5001 51.973 100.034 51.973 100.572V114.047L51.5168 117.921C51.4086 118.84 51.0478 119.71 50.4743 120.436L47.4047 124.322C46.9339 124.917 46.3335 125.398 45.6492 125.727L39.0508 128.902C38.5519 129.142 38.0167 129.298 37.4668 129.362L27.7297 130.507Z" stroke="white" stroke-width="2"/>
</svg>
