<svg width="235" height="235" viewBox="0 0 235 235" fill="none" xmlns="http://www.w3.org/2000/svg">
<g clip-path="url(#clip0_2111_17721)">
<circle cx="117.499" cy="117.499" r="108.284" fill="#0B1057" fill-opacity="0.75"/>
<g clip-path="url(#clip1_2111_17721)">
<path d="M43.3983 62.6878C43.4391 62.6878 43.4746 62.6541 43.4746 62.6115C43.4746 62.5689 43.4409 62.5352 43.3983 62.5352C43.3557 62.5352 43.322 62.5689 43.322 62.6115C43.322 62.6541 43.3557 62.6878 43.3983 62.6878Z" fill="#FF9899"/>
<path d="M43.3983 62.6878C43.4391 62.6878 43.4746 62.6541 43.4746 62.6115C43.4746 62.5689 43.4409 62.5352 43.3983 62.5352C43.3557 62.5352 43.322 62.5689 43.322 62.6115C43.322 62.6541 43.3557 62.6878 43.3983 62.6878Z" fill="#FF9899"/>
<path d="M36.5483 73.0889C36.465 73.0889 36.3975 73.0213 36.3975 72.938C36.3975 72.8547 36.465 72.7871 36.5483 72.7871C36.6317 72.7871 36.6992 72.8547 36.6992 72.938C36.6992 73.0213 36.6317 73.0889 36.5483 73.0889Z" fill="#FF9899"/>
<path d="M36.5483 73.0889C36.465 73.0889 36.3975 73.0213 36.3975 72.938C36.3975 72.8547 36.465 72.7871 36.5483 72.7871C36.6317 72.7871 36.6992 72.8547 36.6992 72.938C36.6992 73.0213 36.6317 73.0889 36.5483 73.0889Z" fill="#FF9899"/>
<path d="M31.1439 84.3177C31.2699 84.3177 31.3711 84.2165 31.3711 84.0905C31.3711 83.9645 31.2699 83.8633 31.1439 83.8633C31.0179 83.8633 30.9167 83.9645 30.9167 84.0905C30.9167 84.2165 31.0179 84.3177 31.1439 84.3177Z" fill="#FF9899"/>
<path d="M31.1439 84.3177C31.2699 84.3177 31.3711 84.2165 31.3711 84.0905C31.3711 83.9645 31.2699 83.8633 31.1439 83.8633C31.0179 83.8633 30.9167 83.9645 30.9167 84.0905C30.9167 84.2165 31.0179 84.3177 31.1439 84.3177Z" fill="#FF9899"/>
<path d="M27.2862 96.17C27.453 96.17 27.5879 96.0351 27.5879 95.8682C27.5879 95.7013 27.453 95.5664 27.2862 95.5664C27.1193 95.5664 26.9844 95.7013 26.9844 95.8682C26.9844 96.0351 27.1193 96.17 27.2862 96.17Z" fill="#FF9899"/>
<path d="M27.2862 96.17C27.453 96.17 27.5879 96.0351 27.5879 95.8682C27.5879 95.7013 27.453 95.5664 27.2862 95.5664C27.1193 95.5664 26.9844 95.7013 26.9844 95.8682C26.9844 96.0351 27.1193 96.17 27.2862 96.17Z" fill="#FF9899"/>
<path d="M25.0282 108.43C25.2376 108.43 25.4062 108.261 25.4062 108.052C25.4062 107.842 25.2376 107.674 25.0282 107.674C24.8187 107.674 24.6501 107.842 24.6501 108.052C24.6501 108.261 24.8187 108.43 25.0282 108.43Z" fill="#FF9899"/>
<path d="M25.0282 108.43C25.2376 108.43 25.4062 108.261 25.4062 108.052C25.4062 107.842 25.2376 107.674 25.0282 107.674C24.8187 107.674 24.6501 107.842 24.6501 108.052C24.6501 108.261 24.8187 108.43 25.0282 108.43Z" fill="#FF9899"/>
<path d="M24.4146 120.884C24.6648 120.884 24.8672 120.681 24.8672 120.431C24.8672 120.181 24.6648 119.979 24.4146 119.979C24.1643 119.979 23.962 120.181 23.962 120.431C23.962 120.681 24.1643 120.884 24.4146 120.884Z" fill="#FF9899"/>
<path d="M24.4146 120.884C24.6648 120.884 24.8672 120.681 24.8672 120.431C24.8672 120.181 24.6648 119.979 24.4146 119.979C24.1643 119.979 23.962 120.181 23.962 120.431C23.962 120.681 24.1643 120.884 24.4146 120.884Z" fill="#FF9899"/>
<path d="M25.4418 133.31C25.7346 133.31 25.9707 133.074 25.9707 132.781C25.9707 132.488 25.7346 132.252 25.4418 132.252C25.1489 132.252 24.9129 132.488 24.9129 132.781C24.9129 133.074 25.1489 133.31 25.4418 133.31Z" fill="#FF9899"/>
<path d="M25.4418 133.31C25.7346 133.31 25.9707 133.074 25.9707 132.781C25.9707 132.488 25.7346 132.252 25.4418 132.252C25.1489 132.252 24.9129 132.488 24.9129 132.781C24.9129 133.074 25.1489 133.31 25.4418 133.31Z" fill="#FF9899"/>
<path d="M28.0996 145.488C28.4333 145.488 28.7031 145.219 28.7031 144.885C28.7031 144.551 28.4333 144.281 28.0996 144.281C27.766 144.281 27.4962 144.551 27.4962 144.885C27.4962 145.219 27.766 145.488 28.0996 145.488Z" fill="#FF9899"/>
<path d="M28.0996 145.488C28.4333 145.488 28.7031 145.219 28.7031 144.885C28.7031 144.551 28.4333 144.281 28.0996 144.281C27.766 144.281 27.4962 144.551 27.4962 144.885C27.4962 145.219 27.766 145.488 28.0996 145.488Z" fill="#FF9899"/>
<path d="M32.3515 157.204C32.7277 157.204 33.0312 156.9 33.0312 156.524C33.0312 156.147 32.7277 155.844 32.3515 155.844C31.9752 155.844 31.6717 156.147 31.6717 156.524C31.6717 156.9 31.9752 157.204 32.3515 157.204Z" fill="#FF9899"/>
<path d="M32.3515 157.204C32.7277 157.204 33.0312 156.9 33.0312 156.524C33.0312 156.147 32.7277 155.844 32.3515 155.844C31.9752 155.844 31.6717 156.147 31.6717 156.524C31.6717 156.9 31.9752 157.204 32.3515 157.204Z" fill="#FF9899"/>
<path d="M38.1286 168.243C38.5458 168.243 38.8848 167.904 38.8848 167.487C38.8848 167.07 38.5458 166.73 38.1286 166.73C37.7115 166.73 37.3725 167.07 37.3725 167.487C37.3725 167.904 37.7115 168.243 38.1286 168.243Z" fill="#FF9899"/>
<path d="M38.1286 168.243C38.5458 168.243 38.8848 167.904 38.8848 167.487C38.8848 167.07 38.5458 166.73 38.1286 166.73C37.7115 166.73 37.3725 167.07 37.3725 167.487C37.3725 167.904 37.7115 168.243 38.1286 168.243Z" fill="#FF9899"/>
<path d="M45.3217 178.41C45.7814 178.41 46.1523 178.037 46.1523 177.579C46.1523 177.121 45.7796 176.748 45.3217 176.748C44.8637 176.748 44.491 177.121 44.491 177.579C44.491 178.037 44.8637 178.41 45.3217 178.41Z" fill="#FF9899"/>
<path d="M45.3217 178.41C45.7814 178.41 46.1523 178.037 46.1523 177.579C46.1523 177.121 45.7796 176.748 45.3217 176.748C44.8637 176.748 44.491 177.121 44.491 177.579C44.491 178.037 44.8637 178.41 45.3217 178.41Z" fill="#FF9899"/>
<path d="M53.7922 187.531C54.2928 187.531 54.6992 187.125 54.6992 186.624C54.6992 186.123 54.2928 185.717 53.7922 185.717C53.2917 185.717 52.8853 186.123 52.8853 186.624C52.8853 187.125 53.2917 187.531 53.7922 187.531Z" fill="#FF9899"/>
<path d="M53.7922 187.531C54.2928 187.531 54.6992 187.125 54.6992 186.624C54.6992 186.123 54.2928 185.717 53.7922 185.717C53.2917 185.717 52.8853 186.123 52.8853 186.624C52.8853 187.125 53.2917 187.531 53.7922 187.531Z" fill="#FF9899"/>
<path d="M63.3759 195.459C63.919 195.459 64.3574 195.019 64.3574 194.478C64.3574 193.936 63.9172 193.496 63.3759 193.496C62.8345 193.496 62.3944 193.936 62.3944 194.478C62.3944 195.019 62.8345 195.459 63.3759 195.459Z" fill="#FF9899"/>
<path d="M63.3759 195.459C63.919 195.459 64.3574 195.019 64.3574 194.478C64.3574 193.936 63.9172 193.496 63.3759 193.496C62.8345 193.496 62.3944 193.936 62.3944 194.478C62.3944 195.019 62.8345 195.459 63.3759 195.459Z" fill="#FF9899"/>
<path d="M73.9265 202.036C74.5105 202.036 74.9844 201.562 74.9844 200.978C74.9844 200.394 74.5105 199.92 73.9265 199.92C73.3426 199.92 72.8687 200.394 72.8687 200.978C72.8687 201.562 73.3426 202.036 73.9265 202.036Z" fill="#FF9899"/>
<path d="M73.9265 202.036C74.5105 202.036 74.9844 201.562 74.9844 200.978C74.9844 200.394 74.5105 199.92 73.9265 199.92C73.3426 199.92 72.8687 200.394 72.8687 200.978C72.8687 201.562 73.3426 202.036 73.9265 202.036Z" fill="#FF9899"/>
<path d="M85.2524 207.138C85.8789 207.138 86.3848 206.631 86.3848 206.006C86.3848 205.381 85.8771 204.873 85.2524 204.873C84.6276 204.873 84.12 205.381 84.12 206.006C84.12 206.631 84.6276 207.138 85.2524 207.138Z" fill="#FF9899"/>
<path d="M85.2524 207.138C85.8789 207.138 86.3848 206.631 86.3848 206.006C86.3848 205.381 85.8771 204.873 85.2524 204.873C84.6276 204.873 84.12 205.381 84.12 206.006C84.12 206.631 84.6276 207.138 85.2524 207.138Z" fill="#FF9899"/>
<path d="M97.1487 210.678C97.8161 210.678 98.3574 210.136 98.3574 209.469C98.3574 208.801 97.8161 208.26 97.1487 208.26C96.4813 208.26 95.94 208.801 95.94 209.469C95.94 210.136 96.4813 210.678 97.1487 210.678Z" fill="#FF9899"/>
<path d="M97.1487 210.678C97.8161 210.678 98.3574 210.136 98.3574 209.469C98.3574 208.801 97.8161 208.26 97.1487 208.26C96.4813 208.26 95.94 208.801 95.94 209.469C95.94 210.136 96.4813 210.678 97.1487 210.678Z" fill="#FF9899"/>
<path d="M109.396 212.6C110.106 212.6 110.68 212.025 110.68 211.317C110.68 210.608 110.105 210.033 109.396 210.033C108.688 210.033 108.113 210.608 108.113 211.317C108.113 212.025 108.688 212.6 109.396 212.6Z" fill="#FF9899"/>
<path d="M109.396 212.6C110.106 212.6 110.68 212.025 110.68 211.317C110.68 210.608 110.105 210.033 109.396 210.033C108.688 210.033 108.113 210.608 108.113 211.317C108.113 212.025 108.688 212.6 109.396 212.6Z" fill="#FF9899"/>
<path d="M120.432 211.705C120.34 210.96 120.87 210.281 121.616 210.189C122.361 210.098 123.039 210.628 123.131 211.373C123.223 212.118 122.693 212.797 121.947 212.889C121.202 212.98 120.524 212.45 120.432 211.705Z" fill="#FF9899"/>
<path d="M120.432 211.705C120.34 210.96 120.87 210.281 121.616 210.189C122.361 210.098 123.039 210.628 123.131 211.373C123.223 212.118 122.693 212.797 121.947 212.889C121.202 212.98 120.524 212.45 120.432 211.705Z" fill="#FF9899"/>
<path d="M134.093 211.521C133.3 211.521 132.657 210.878 132.657 210.085C132.657 209.291 133.3 208.648 134.093 208.648C134.886 208.648 135.529 209.291 135.529 210.085C135.529 210.878 134.886 211.521 134.093 211.521Z" fill="#FF9899"/>
<path d="M134.093 211.521C133.3 211.521 132.657 210.878 132.657 210.085C132.657 209.291 133.3 208.648 134.093 208.648C134.886 208.648 135.529 209.291 135.529 210.085C135.529 210.878 134.886 211.521 134.093 211.521Z" fill="#FF9899"/>
<path d="M146.101 208.533C146.935 208.533 147.611 207.857 147.611 207.022C147.611 206.188 146.935 205.512 146.101 205.512C145.267 205.512 144.59 206.188 144.59 207.022C144.59 207.857 145.267 208.533 146.101 208.533Z" fill="#FF9899"/>
<path d="M146.101 208.533C146.935 208.533 147.611 207.857 147.611 207.022C147.611 206.188 146.935 205.512 146.101 205.512C145.267 205.512 144.59 206.188 144.59 207.022C144.59 207.857 145.267 208.533 146.101 208.533Z" fill="#FF9899"/>
<path d="M157.591 203.967C158.468 203.967 159.178 203.257 159.178 202.38C159.178 201.503 158.468 200.793 157.591 200.793C156.714 200.793 156.004 201.503 156.004 202.38C156.004 203.257 156.714 203.967 157.591 203.967Z" fill="#FF9899"/>
<path d="M157.591 203.967C158.468 203.967 159.178 203.257 159.178 202.38C159.178 201.503 158.468 200.793 157.591 200.793C156.714 200.793 156.004 201.503 156.004 202.38C156.004 203.257 156.714 203.967 157.591 203.967Z" fill="#FF9899"/>
<path d="M168.352 197.899C167.435 197.899 166.691 197.155 166.691 196.238C166.691 195.32 167.435 194.576 168.352 194.576C169.27 194.576 170.014 195.32 170.014 196.238C170.014 197.155 169.27 197.899 168.352 197.899Z" fill="#FF9899"/>
<path d="M168.352 197.899C167.435 197.899 166.691 197.155 166.691 196.238C166.691 195.32 167.435 194.576 168.352 194.576C169.27 194.576 170.014 195.32 170.014 196.238C170.014 197.155 169.27 197.899 168.352 197.899Z" fill="#FF9899"/>
<path d="M176.895 189.87C176.258 189.151 176.325 188.053 177.044 187.417C177.762 186.781 178.86 186.847 179.497 187.566C180.133 188.285 180.066 189.383 179.347 190.019C178.629 190.655 177.531 190.589 176.895 189.87Z" fill="#FF9899"/>
<path d="M176.895 189.87C176.258 189.151 176.325 188.053 177.044 187.417C177.762 186.781 178.86 186.847 179.497 187.566C180.133 188.285 180.066 189.383 179.347 190.019C178.629 190.655 177.531 190.589 176.895 189.87Z" fill="#FF9899"/>
<path d="M185.168 180.243C185.008 179.255 185.679 178.324 186.667 178.164C187.655 178.004 188.586 178.676 188.746 179.664C188.906 180.652 188.234 181.583 187.246 181.743C186.258 181.902 185.328 181.231 185.168 180.243Z" fill="#FF9899"/>
<path d="M185.168 180.243C185.008 179.255 185.679 178.324 186.667 178.164C187.655 178.004 188.586 178.676 188.746 179.664C188.906 180.652 188.234 181.583 187.246 181.743C186.258 181.902 185.328 181.231 185.168 180.243Z" fill="#FF9899"/>
<path d="M194.483 171.994C193.44 171.994 192.594 171.149 192.594 170.106C192.594 169.062 193.44 168.217 194.483 168.217C195.526 168.217 196.371 169.062 196.371 170.106C196.371 171.149 195.526 171.994 194.483 171.994Z" fill="#FF9899"/>
<path d="M194.483 171.994C193.44 171.994 192.594 171.149 192.594 170.106C192.594 169.062 193.44 168.217 194.483 168.217C195.526 168.217 196.371 169.062 196.371 170.106C196.371 171.149 195.526 171.994 194.483 171.994Z" fill="#FF9899"/>
<path d="M198.686 159.658C198.512 158.588 199.238 157.579 200.308 157.405C201.378 157.23 202.387 157.957 202.561 159.027C202.736 160.097 202.009 161.106 200.939 161.28C199.869 161.455 198.861 160.728 198.686 159.658Z" fill="#FF9899"/>
<path d="M198.686 159.658C198.512 158.588 199.238 157.579 200.308 157.405C201.378 157.23 202.387 157.957 202.561 159.027C202.736 160.097 202.009 161.106 200.939 161.28C199.869 161.455 198.861 160.728 198.686 159.658Z" fill="#FF9899"/>
<path d="M205.265 149.89C204.139 149.89 203.226 148.977 203.226 147.85C203.226 146.724 204.139 145.811 205.265 145.811C206.392 145.811 207.305 146.724 207.305 147.85C207.305 148.977 206.392 149.89 205.265 149.89Z" fill="#FF9899"/>
<path d="M205.265 149.89C204.139 149.89 203.226 148.977 203.226 147.85C203.226 146.724 204.139 145.811 205.265 145.811C206.392 145.811 207.305 146.724 207.305 147.85C207.305 148.977 206.392 149.89 205.265 149.89Z" fill="#FF9899"/>
<path d="M208.329 137.957C207.162 137.957 206.215 137.01 206.215 135.843C206.215 134.675 207.162 133.729 208.329 133.729C209.497 133.729 210.443 134.675 210.443 135.843C210.443 137.01 209.497 137.957 208.329 137.957Z" fill="#FF9899"/>
<path d="M208.329 137.957C207.162 137.957 206.215 137.01 206.215 135.843C206.215 134.675 207.162 133.729 208.329 133.729C209.497 133.729 210.443 134.675 210.443 135.843C210.443 137.01 209.497 137.957 208.329 137.957Z" fill="#FF9899"/>
<path d="M207.608 123.882C207.413 122.688 208.223 121.562 209.417 121.368C210.611 121.173 211.737 121.984 211.931 123.178C212.126 124.372 211.315 125.497 210.121 125.692C208.928 125.886 207.802 125.076 207.608 123.882Z" fill="#FF9899"/>
<path d="M207.608 123.882C207.413 122.688 208.223 121.562 209.417 121.368C210.611 121.173 211.737 121.984 211.931 123.178C212.126 124.372 211.315 125.497 210.121 125.692C208.928 125.886 207.802 125.076 207.608 123.882Z" fill="#FF9899"/>
<path d="M209.563 113.413C208.312 113.413 207.297 112.398 207.297 111.146C207.297 109.894 208.312 108.879 209.563 108.879C210.815 108.879 211.83 109.894 211.83 111.146C211.83 112.398 210.815 113.413 209.563 113.413Z" fill="#FF9899"/>
<path d="M209.563 113.413C208.312 113.413 207.297 112.398 207.297 111.146C207.297 109.894 208.312 108.879 209.563 108.879C210.815 108.879 211.83 109.894 211.83 111.146C211.83 112.398 210.815 113.413 209.563 113.413Z" fill="#FF9899"/>
<path d="M207.717 101.232C206.425 101.232 205.376 100.184 205.376 98.8903C205.376 97.5972 206.425 96.5488 207.717 96.5488C209.01 96.5488 210.059 97.5972 210.059 98.8903C210.059 100.184 209.01 101.232 207.717 101.232Z" fill="#FF9899"/>
<path d="M207.717 101.232C206.425 101.232 205.376 100.184 205.376 98.8903C205.376 97.5972 206.425 96.5488 207.717 96.5488C209.01 96.5488 210.059 97.5972 210.059 98.8903C210.059 100.184 209.01 101.232 207.717 101.232Z" fill="#FF9899"/>
<path d="M202.548 88.7019C201.604 87.7576 201.604 86.2267 202.548 85.2825C203.492 84.3383 205.022 84.3383 205.966 85.2825C206.91 86.2267 206.91 87.7576 205.966 88.7019C205.022 89.6461 203.492 89.6461 202.548 88.7019Z" fill="#FF9899"/>
<path d="M202.548 88.7019C201.604 87.7576 201.604 86.2267 202.548 85.2825C203.492 84.3383 205.022 84.3383 205.966 85.2825C206.91 86.2267 206.91 87.7576 205.966 88.7019C205.022 89.6461 203.492 89.6461 202.548 88.7019Z" fill="#FF9899"/>
<path d="M199.233 78.1547C197.856 78.1547 196.741 77.0388 196.741 75.6623C196.741 74.2858 197.856 73.1699 199.233 73.1699C200.609 73.1699 201.725 74.2858 201.725 75.6623C201.725 77.0388 200.609 78.1547 199.233 78.1547Z" fill="#FF9899"/>
<path d="M199.233 78.1547C197.856 78.1547 196.741 77.0388 196.741 75.6623C196.741 74.2858 197.856 73.1699 199.233 73.1699C200.609 73.1699 201.725 74.2858 201.725 75.6623C201.725 77.0388 200.609 78.1547 199.233 78.1547Z" fill="#FF9899"/>
<path d="M192.731 67.6804C191.312 67.6804 190.162 66.5304 190.162 65.1117C190.162 63.693 191.312 62.543 192.731 62.543C194.149 62.543 195.299 63.693 195.299 65.1117C195.299 66.5304 194.149 67.6804 192.731 67.6804Z" fill="#FF9899"/>
<path d="M192.731 67.6804C191.312 67.6804 190.162 66.5304 190.162 65.1117C190.162 63.693 191.312 62.543 192.731 62.543C194.149 62.543 195.299 63.693 195.299 65.1117C195.299 66.5304 194.149 67.6804 192.731 67.6804Z" fill="#FF9899"/>
<path d="M184.881 58.1674C183.421 58.1674 182.238 56.984 182.238 55.5242C182.238 54.0643 183.421 52.8809 184.881 52.8809C186.34 52.8809 187.523 54.0643 187.523 55.5242C187.523 56.984 186.34 58.1674 184.881 58.1674Z" fill="#FF9899"/>
<path d="M184.881 58.1674C183.421 58.1674 182.238 56.984 182.238 55.5242C182.238 54.0643 183.421 52.8809 184.881 52.8809C186.34 52.8809 187.523 54.0643 187.523 55.5242C187.523 56.984 186.34 58.1674 184.881 58.1674Z" fill="#FF9899"/>
<path d="M173.19 47.6822C172.842 46.2209 173.745 44.7547 175.206 44.4074C176.667 44.06 178.133 44.9631 178.481 46.4244C178.828 47.8857 177.925 49.3519 176.464 49.6992C175.003 50.0465 173.537 49.1435 173.19 47.6822Z" fill="#FF9899"/>
<path d="M173.19 47.6822C172.842 46.2209 173.745 44.7547 175.206 44.4074C176.667 44.06 178.133 44.9631 178.481 46.4244C178.828 47.8857 177.925 49.3519 176.464 49.6992C175.003 50.0465 173.537 49.1435 173.19 47.6822Z" fill="#FF9899"/>
<path d="M162.99 40.305C162.743 38.7816 163.779 37.347 165.302 37.1009C166.825 36.8547 168.259 37.8901 168.505 39.4135C168.752 40.9369 167.716 42.3715 166.193 42.6176C164.67 42.8638 163.236 41.8284 162.99 40.305Z" fill="#FF9899"/>
<path d="M162.99 40.305C162.743 38.7816 163.779 37.347 165.302 37.1009C166.825 36.8547 168.259 37.8901 168.505 39.4135C168.752 40.9369 167.716 42.3715 166.193 42.6176C164.67 42.8638 163.236 41.8284 162.99 40.305Z" fill="#FF9899"/>
<path d="M151.957 34.5419C151.702 32.9772 152.763 31.502 154.328 31.2469C155.892 30.9918 157.367 32.0534 157.622 33.6181C157.877 35.1827 156.816 36.658 155.251 36.9131C153.687 37.1682 152.212 36.1066 151.957 34.5419Z" fill="#FF9899"/>
<path d="M151.957 34.5419C151.702 32.9772 152.763 31.502 154.328 31.2469C155.892 30.9918 157.367 32.0534 157.622 33.6181C157.877 35.1827 156.816 36.658 155.251 36.9131C153.687 37.1682 152.212 36.1066 151.957 34.5419Z" fill="#FF9899"/>
<path d="M140.283 30.5107C139.906 28.9273 140.884 27.3385 142.467 26.9619C144.05 26.5852 145.639 27.5635 146.015 29.1468C146.392 30.7301 145.414 32.319 143.831 32.6956C142.248 33.0722 140.659 32.094 140.283 30.5107Z" fill="#FF9899"/>
<path d="M140.283 30.5107C139.906 28.9273 140.884 27.3385 142.467 26.9619C144.05 26.5852 145.639 27.5635 146.015 29.1468C146.392 30.7301 145.414 32.319 143.831 32.6956C142.248 33.0722 140.659 32.094 140.283 30.5107Z" fill="#FF9899"/>
<path d="M131.047 30.1874C129.379 30.1874 128.027 28.8346 128.027 27.1659C128.027 25.4973 129.379 24.1445 131.047 24.1445C132.716 24.1445 134.068 25.4973 134.068 27.1659C134.068 28.8346 132.716 30.1874 131.047 30.1874Z" fill="#FF9899"/>
<path d="M131.047 30.1874C129.379 30.1874 128.027 28.8346 128.027 27.1659C128.027 25.4973 129.379 24.1445 131.047 24.1445C132.716 24.1445 134.068 25.4973 134.068 27.1659C134.068 28.8346 132.716 30.1874 131.047 30.1874Z" fill="#FF9899"/>
<path d="M115.637 26.636C115.362 24.9475 116.507 23.3553 118.195 23.0797C119.884 22.8041 121.476 23.9495 121.751 25.638C122.027 27.3265 120.881 28.9187 119.193 29.1943C117.505 29.4699 115.913 28.3245 115.637 26.636Z" fill="#FF9899"/>
<path d="M115.637 26.636C115.362 24.9475 116.507 23.3553 118.195 23.0797C119.884 22.8041 121.476 23.9495 121.751 25.638C122.027 27.3265 120.881 28.9187 119.193 29.1943C117.505 29.4699 115.913 28.3245 115.637 26.636Z" fill="#FF9899"/>
<path d="M104.978 29.6312C103.391 28.8888 102.707 27.0006 103.449 25.4136C104.191 23.8266 106.079 23.142 107.666 23.8843C109.253 24.6267 109.937 26.515 109.195 28.102C108.453 29.6889 106.565 30.3736 104.978 29.6312Z" fill="#FF9899"/>
<path d="M104.978 29.6312C103.391 28.8888 102.707 27.0006 103.449 25.4136C104.191 23.8266 106.079 23.142 107.666 23.8843C109.253 24.6267 109.937 26.515 109.195 28.102C108.453 29.6889 106.565 30.3736 104.978 29.6312Z" fill="#FF9899"/>
<path d="M90.9406 29.5205C90.6551 27.7492 91.8593 26.0817 93.6303 25.7961C95.4013 25.5105 97.0684 26.7149 97.354 28.4861C97.6396 30.2574 96.4354 31.9249 94.6644 32.2105C92.8934 32.4961 91.2262 31.2918 90.9406 29.5205Z" fill="#FF9899"/>
<path d="M90.9406 29.5205C90.6551 27.7492 91.8593 26.0817 93.6303 25.7961C95.4013 25.5105 97.0684 26.7149 97.354 28.4861C97.6396 30.2574 96.4354 31.9249 94.6644 32.2105C92.8934 32.4961 91.2262 31.2918 90.9406 29.5205Z" fill="#FF9899"/>
<path d="M79.3832 34.3212C78.5787 32.6716 79.2637 30.6821 80.913 29.8776C82.5623 29.073 84.5515 29.758 85.3559 31.4077C86.1604 33.0573 85.4754 35.0468 83.8261 35.8513C82.1768 36.6559 80.1876 35.9708 79.3832 34.3212Z" fill="#FF9899"/>
<path d="M79.3832 34.3212C78.5787 32.6716 79.2637 30.6821 80.913 29.8776C82.5623 29.073 84.5515 29.758 85.3559 31.4077C86.1604 33.0573 85.4754 35.0468 83.8261 35.8513C82.1768 36.6559 80.1876 35.9708 79.3832 34.3212Z" fill="#FF9899"/>
<path d="M68.8112 40.6714C67.4838 39.3438 67.4838 37.1913 68.8112 35.8637C70.1385 34.5361 72.2907 34.5361 73.618 35.8637C74.9454 37.1913 74.9454 39.3438 73.618 40.6714C72.2907 41.999 70.1385 41.999 68.8112 40.6714Z" fill="#FF9899"/>
<path d="M68.8112 40.6714C67.4838 39.3438 67.4838 37.1913 68.8112 35.8637C70.1385 34.5361 72.2907 34.5361 73.618 35.8637C74.9454 37.1913 74.9454 39.3438 73.618 40.6714C72.2907 41.999 70.1385 41.999 68.8112 40.6714Z" fill="#FF9899"/>
<path d="M57.4572 45.6782C57.1499 43.7843 58.4358 41.9998 60.3293 41.6924C62.2229 41.3849 64.0072 42.671 64.3145 44.5649C64.6219 46.4588 63.336 48.2434 61.4424 48.5508C59.5489 48.8582 57.7646 47.5721 57.4572 45.6782Z" fill="#FF9899"/>
<path d="M57.4572 45.6782C57.1499 43.7843 58.4358 41.9998 60.3293 41.6924C62.2229 41.3849 64.0072 42.671 64.3145 44.5649C64.6219 46.4588 63.336 48.2434 61.4424 48.5508C59.5489 48.8582 57.7646 47.5721 57.4572 45.6782Z" fill="#FF9899"/>
<g clip-path="url(#clip2_2111_17721)">
<path d="M118.621 181.039L137.537 120.948L122.429 140.74L106.56 140.87L118.621 181.039Z" fill="url(#paint0_linear_2111_17721)"/>
<path d="M178.959 136.224L129.082 99.2032L142.766 120.055L137.983 135.575L178.959 136.224Z" fill="url(#paint1_linear_2111_17721)"/>
<path d="M156.302 62.0391L106.56 99.2502L130.125 92.3459L143.038 101.807L156.302 62.0391Z" fill="url(#paint2_linear_2111_17721)"/>
<path d="M82.2531 63.5051L101.388 123.524L102.268 98.4041L115.032 88.7319L82.2531 63.5051Z" fill="url(#paint3_linear_2111_17721)"/>
<path d="M57.959 132.865L119.494 134.952L96.7797 125.512L92.2834 109.903L57.959 132.865Z" fill="url(#paint4_linear_2111_17721)"/>
<path d="M119.087 169.039L134.095 121.067L122.109 136.867L109.518 136.971L119.087 169.039Z" fill="url(#paint5_linear_2111_17721)"/>
<path d="M166.959 133.262L127.387 103.708L138.244 120.355L134.449 132.744L166.959 133.262Z" fill="url(#paint6_linear_2111_17721)"/>
<path d="M148.983 74.0391L109.518 103.745L128.215 98.2336L138.46 105.787L148.983 74.0391Z" fill="url(#paint7_linear_2111_17721)"/>
<path d="M90.2337 75.2095L105.415 123.123L106.113 103.07L116.24 95.3485L90.2337 75.2095Z" fill="url(#paint8_linear_2111_17721)"/>
<path d="M70.959 130.581L119.78 132.246L101.759 124.711L98.1915 112.249L70.959 130.581Z" fill="url(#paint9_linear_2111_17721)"/>
</g>
<path d="M42.0956 120.431C43.46 120.431 44.5661 119.325 44.5661 117.961C44.5661 116.596 43.46 115.49 42.0956 115.49C40.7311 115.49 39.625 116.596 39.625 117.961C39.625 119.325 40.7311 120.431 42.0956 120.431Z" fill="#8F748D"/>
<path d="M42.8213 130.893C44.1055 130.893 45.1466 129.852 45.1466 128.567C45.1466 127.283 44.1055 126.242 42.8213 126.242C41.5371 126.242 40.4961 127.283 40.4961 128.567C40.4961 129.852 41.5371 130.893 42.8213 130.893Z" fill="#8F748D"/>
<path d="M44.9999 141.357C46.3643 141.357 47.4704 140.251 47.4704 138.887C47.4704 137.522 46.3643 136.416 44.9999 136.416C43.6354 136.416 42.5293 137.522 42.5293 138.887C42.5293 140.251 43.6354 141.357 44.9999 141.357Z" fill="#8F748D"/>
<path d="M48.6338 151.24C49.918 151.24 50.9591 150.199 50.9591 148.915C50.9591 147.631 49.918 146.59 48.6338 146.59C47.3496 146.59 46.3086 147.631 46.3086 148.915C46.3086 150.199 47.3496 151.24 48.6338 151.24Z" fill="#8F748D"/>
<path d="M53.7225 160.832C55.087 160.832 56.1931 159.726 56.1931 158.361C56.1931 156.997 55.087 155.891 53.7225 155.891C52.3581 155.891 51.252 156.997 51.252 158.361C51.252 159.726 52.3581 160.832 53.7225 160.832Z" fill="#8F748D"/>
<path d="M59.828 169.259C61.1924 169.259 62.2985 168.153 62.2985 166.789C62.2985 165.424 61.1924 164.318 59.828 164.318C58.4635 164.318 57.3574 165.424 57.3574 166.789C57.3574 168.153 58.4635 169.259 59.828 169.259Z" fill="#8F748D"/>
<path d="M67.0897 176.816C68.4542 176.816 69.5603 175.775 69.5603 174.491C69.5603 173.207 68.4542 172.166 67.0897 172.166C65.7252 172.166 64.6191 173.207 64.6191 174.491C64.6191 175.775 65.7252 176.816 67.0897 176.816Z" fill="#8F748D"/>
<path d="M75.5194 183.502C76.8838 183.502 77.9899 182.396 77.9899 181.031C77.9899 179.667 76.8838 178.561 75.5194 178.561C74.1549 178.561 73.0488 179.667 73.0488 181.031C73.0488 182.396 74.1549 183.502 75.5194 183.502Z" fill="#8F748D"/>
<path d="M84.8221 188.734C86.1866 188.734 87.2927 187.628 87.2927 186.264C87.2927 184.899 86.1866 183.793 84.8221 183.793C83.4577 183.793 82.3516 184.899 82.3516 186.264C82.3516 187.628 83.4577 188.734 84.8221 188.734Z" fill="#8F748D"/>
<path d="M94.5577 192.804C95.8418 192.804 96.8829 191.698 96.8829 190.334C96.8829 188.969 95.8418 187.863 94.5577 187.863C93.2735 187.863 92.2324 188.969 92.2324 190.334C92.2324 191.698 93.2735 192.804 94.5577 192.804Z" fill="#8F748D"/>
<path d="M104.873 195.42C106.237 195.42 107.343 194.314 107.343 192.949C107.343 191.585 106.237 190.479 104.873 190.479C103.508 190.479 102.402 191.585 102.402 192.949C102.402 194.314 103.508 195.42 104.873 195.42Z" fill="#8F748D"/>
<path d="M115.338 196.291C116.702 196.291 117.808 195.185 117.808 193.82C117.808 192.456 116.702 191.35 115.338 191.35C113.973 191.35 112.867 192.456 112.867 193.82C112.867 195.185 113.973 196.291 115.338 196.291Z" fill="#8F748D"/>
<path d="M126.098 195.998C127.462 195.998 128.568 194.892 128.568 193.527C128.568 192.163 127.462 191.057 126.098 191.057C124.733 191.057 123.627 192.163 123.627 193.527C123.627 194.892 124.733 195.998 126.098 195.998Z" fill="#8F748D"/>
<path d="M136.413 194.256C137.697 194.256 138.738 193.149 138.738 191.785C138.738 190.421 137.697 189.314 136.413 189.314C135.129 189.314 134.088 190.421 134.088 191.785C134.088 193.149 135.129 194.256 136.413 194.256Z" fill="#8F748D"/>
<path d="M146.441 190.768C147.806 190.768 148.912 189.727 148.912 188.442C148.912 187.158 147.806 186.117 146.441 186.117C145.077 186.117 143.971 187.158 143.971 188.442C143.971 189.727 145.077 190.768 146.441 190.768Z" fill="#8F748D"/>
<path d="M156.031 186.117C157.396 186.117 158.502 185.076 158.502 183.792C158.502 182.508 157.396 181.467 156.031 181.467C154.667 181.467 153.561 182.508 153.561 183.792C153.561 185.076 154.667 186.117 156.031 186.117Z" fill="#8F748D"/>
<path d="M164.754 180.304C166.118 180.304 167.224 179.198 167.224 177.834C167.224 176.469 166.118 175.363 164.754 175.363C163.389 175.363 162.283 176.469 162.283 177.834C162.283 179.198 163.389 180.304 164.754 180.304Z" fill="#8F748D"/>
<path d="M172.598 173.326C173.962 173.326 175.068 172.22 175.068 170.855C175.068 169.491 173.962 168.385 172.598 168.385C171.233 168.385 170.127 169.491 170.127 170.855C170.127 172.22 171.233 173.326 172.598 173.326Z" fill="#8F748D"/>
<path d="M179.57 165.189C180.935 165.189 182.041 164.083 182.041 162.719C182.041 161.354 180.935 160.248 179.57 160.248C178.206 160.248 177.1 161.354 177.1 162.719C177.1 164.083 178.206 165.189 179.57 165.189Z" fill="#8F748D"/>
<path d="M185.096 156.179C186.46 156.179 187.566 155.073 187.566 153.709C187.566 152.344 186.46 151.238 185.096 151.238C183.731 151.238 182.625 152.344 182.625 153.709C182.625 155.073 183.731 156.179 185.096 156.179Z" fill="#8F748D"/>
<path d="M189.453 146.299C190.817 146.299 191.924 145.258 191.924 143.974C191.924 142.689 190.817 141.648 189.453 141.648C188.089 141.648 186.982 142.689 186.982 143.974C186.982 145.258 188.089 146.299 189.453 146.299Z" fill="#8F748D"/>
<path d="M192.365 136.123C193.73 136.123 194.836 135.082 194.836 133.798C194.836 132.514 193.73 131.473 192.365 131.473C191.001 131.473 189.895 132.514 189.895 133.798C189.895 135.082 191.001 136.123 192.365 136.123Z" fill="#8F748D"/>
<path d="M193.822 125.662C195.187 125.662 196.293 124.556 196.293 123.191C196.293 121.827 195.187 120.721 193.822 120.721C192.458 120.721 191.352 121.827 191.352 123.191C191.352 124.556 192.458 125.662 193.822 125.662Z" fill="#8F748D"/>
<path d="M193.822 115.197C195.187 115.197 196.293 114.091 196.293 112.726C196.293 111.362 195.187 110.256 193.822 110.256C192.458 110.256 191.352 111.362 191.352 112.726C191.352 114.091 192.458 115.197 193.822 115.197Z" fill="#8F748D"/>
<path d="M192.365 104.734C193.73 104.734 194.836 103.628 194.836 102.264C194.836 100.899 193.73 99.793 192.365 99.793C191.001 99.793 189.895 100.899 189.895 102.264C189.895 103.628 191.001 104.734 192.365 104.734Z" fill="#8F748D"/>
<path d="M189.453 94.5622C190.817 94.5622 191.924 93.4561 191.924 92.0917C191.924 90.7272 190.817 89.6211 189.453 89.6211C188.089 89.6211 186.982 90.7272 186.982 92.0917C186.982 93.4561 188.089 94.5622 189.453 94.5622Z" fill="#8F748D"/>
<path d="M185.096 84.6798C186.46 84.6798 187.566 83.6387 187.566 82.3545C187.566 81.0703 186.46 80.0293 185.096 80.0293C183.731 80.0293 182.625 81.0703 182.625 82.3545C182.625 83.6387 183.731 84.6798 185.096 84.6798Z" fill="#8F748D"/>
<path d="M179.57 75.6661C180.935 75.6661 182.041 74.625 182.041 73.3409C182.041 72.0567 180.935 71.0156 179.57 71.0156C178.206 71.0156 177.1 72.0567 177.1 73.3409C177.1 74.625 178.206 75.6661 179.57 75.6661Z" fill="#8F748D"/>
<path d="M172.598 67.5294C173.962 67.5294 175.068 66.4883 175.068 65.2041C175.068 63.9199 173.962 62.8789 172.598 62.8789C171.233 62.8789 170.127 63.9199 170.127 65.2041C170.127 66.4883 171.233 67.5294 172.598 67.5294Z" fill="#8F748D"/>
<path d="M164.754 60.5544C166.118 60.5544 167.224 59.4483 167.224 58.0838C167.224 56.7194 166.118 55.6133 164.754 55.6133C163.389 55.6133 162.283 56.7194 162.283 58.0838C162.283 59.4483 163.389 60.5544 164.754 60.5544Z" fill="#8F748D"/>
<path d="M156.031 54.7419C157.396 54.7419 158.502 53.6358 158.502 52.2713C158.502 50.9069 157.396 49.8008 156.031 49.8008C154.667 49.8008 153.561 50.9069 153.561 52.2713C153.561 53.6358 154.667 54.7419 156.031 54.7419Z" fill="#8F748D"/>
<path d="M146.441 50.0896C147.806 50.0896 148.912 48.9835 148.912 47.619C148.912 46.2545 147.806 45.1484 146.441 45.1484C145.077 45.1484 143.971 46.2545 143.971 47.619C143.971 48.9835 145.077 50.0896 146.441 50.0896Z" fill="#8F748D"/>
<path d="M136.413 46.6036C137.697 46.6036 138.738 45.5626 138.738 44.2784C138.738 42.9942 137.697 41.9531 136.413 41.9531C135.129 41.9531 134.088 42.9942 134.088 44.2784C134.088 45.5626 135.129 46.6036 136.413 46.6036Z" fill="#8F748D"/>
<path d="M126.098 44.8571C127.462 44.8571 128.568 43.751 128.568 42.3866C128.568 41.0221 127.462 39.916 126.098 39.916C124.733 39.916 123.627 41.0221 123.627 42.3866C123.627 43.751 124.733 44.8571 126.098 44.8571Z" fill="#8F748D"/>
<path d="M115.338 44.5681C116.702 44.5681 117.808 43.462 117.808 42.0975C117.808 40.7331 116.702 39.627 115.338 39.627C113.973 39.627 112.867 40.7331 112.867 42.0975C112.867 43.462 113.973 44.5681 115.338 44.5681Z" fill="#8F748D"/>
<path d="M104.873 45.7302C106.237 45.7302 107.343 44.6241 107.343 43.2596C107.343 41.8952 106.237 40.7891 104.873 40.7891C103.508 40.7891 102.402 41.8952 102.402 43.2596C102.402 44.6241 103.508 45.7302 104.873 45.7302Z" fill="#8F748D"/>
<path d="M94.5577 48.0567C95.8418 48.0567 96.8829 47.0157 96.8829 45.7315C96.8829 44.4473 95.8418 43.4062 94.5577 43.4062C93.2735 43.4062 92.2324 44.4473 92.2324 45.7315C92.2324 47.0157 93.2735 48.0567 94.5577 48.0567Z" fill="#8F748D"/>
<path d="M84.8221 52.1286C86.1866 52.1286 87.2927 51.0225 87.2927 49.6581C87.2927 48.2936 86.1866 47.1875 84.8221 47.1875C83.4577 47.1875 82.3516 48.2936 82.3516 49.6581C82.3516 51.0225 83.4577 52.1286 84.8221 52.1286Z" fill="#8F748D"/>
<path d="M75.5194 57.3575C76.8838 57.3575 77.9899 56.3165 77.9899 55.0323C77.9899 53.7481 76.8838 52.707 75.5194 52.707C74.1549 52.707 73.0488 53.7481 73.0488 55.0323C73.0488 56.3165 74.1549 57.3575 75.5194 57.3575Z" fill="#8F748D"/>
<path d="M67.0897 64.0407C68.4542 64.0407 69.5603 62.9346 69.5603 61.5702C69.5603 60.2057 68.4542 59.0996 67.0897 59.0996C65.7252 59.0996 64.6191 60.2057 64.6191 61.5702C64.6191 62.9346 65.7252 64.0407 67.0897 64.0407Z" fill="#8F748D"/>
<path d="M59.828 71.5993C61.1924 71.5993 62.2985 70.4932 62.2985 69.1288C62.2985 67.7643 61.1924 66.6582 59.828 66.6582C58.4635 66.6582 57.3574 67.7643 57.3574 69.1288C57.3574 70.4932 58.4635 71.5993 59.828 71.5993Z" fill="#8F748D"/>
<path d="M53.7225 80.32C55.087 80.32 56.1931 79.2139 56.1931 77.8495C56.1931 76.485 55.087 75.3789 53.7225 75.3789C52.3581 75.3789 51.252 76.485 51.252 77.8495C51.252 79.2139 52.3581 80.32 53.7225 80.32Z" fill="#8F748D"/>
<path d="M48.6338 89.6208C49.918 89.6208 50.9591 88.5147 50.9591 87.1502C50.9591 85.7858 49.918 84.6797 48.6338 84.6797C47.3496 84.6797 46.3086 85.7858 46.3086 87.1502C46.3086 88.5147 47.3496 89.6208 48.6338 89.6208Z" fill="#8F748D"/>
<path d="M44.9999 99.5017C46.3643 99.5017 47.4704 98.3956 47.4704 97.0311C47.4704 95.6666 46.3643 94.5605 44.9999 94.5605C43.6354 94.5605 42.5293 95.6666 42.5293 97.0311C42.5293 98.3956 43.6354 99.5017 44.9999 99.5017Z" fill="#8F748D"/>
<path d="M42.8213 109.967C44.1055 109.967 45.1466 108.86 45.1466 107.496C45.1466 106.131 44.1055 105.025 42.8213 105.025C41.5371 105.025 40.4961 106.131 40.4961 107.496C40.4961 108.86 41.5371 109.967 42.8213 109.967Z" fill="#8F748D"/>
</g>
<g filter="url(#filter0_i_2111_17721)">
<circle cx="117.499" cy="117.499" r="113.284" stroke="#45428E" stroke-width="10"/>
</g>
</g>
<defs>
<filter id="filter0_i_2111_17721" x="-0.785156" y="-0.785156" width="236.568" height="240.568" filterUnits="userSpaceOnUse" color-interpolation-filters="sRGB">
<feFlood flood-opacity="0" result="BackgroundImageFix"/>
<feBlend mode="normal" in="SourceGraphic" in2="BackgroundImageFix" result="shape"/>
<feColorMatrix in="SourceAlpha" type="matrix" values="0 0 0 0 0 0 0 0 0 0 0 0 0 0 0 0 0 0 127 0" result="hardAlpha"/>
<feOffset dy="4"/>
<feGaussianBlur stdDeviation="2"/>
<feComposite in2="hardAlpha" operator="arithmetic" k2="-1" k3="1"/>
<feColorMatrix type="matrix" values="0 0 0 0 0.423529 0 0 0 0 0.407843 0 0 0 0 0.878431 0 0 0 1 0"/>
<feBlend mode="normal" in2="shape" result="effect1_innerShadow_2111_17721"/>
</filter>
<linearGradient id="paint0_linear_2111_17721" x1="118.459" y1="62.0391" x2="118.459" y2="181.039" gradientUnits="userSpaceOnUse">
<stop stop-color="#BF7F75"/>
<stop offset="1" stop-color="#B16685"/>
</linearGradient>
<linearGradient id="paint1_linear_2111_17721" x1="118.459" y1="62.0391" x2="118.459" y2="181.039" gradientUnits="userSpaceOnUse">
<stop stop-color="#BF7F75"/>
<stop offset="1" stop-color="#B16685"/>
</linearGradient>
<linearGradient id="paint2_linear_2111_17721" x1="118.459" y1="62.0391" x2="118.459" y2="181.039" gradientUnits="userSpaceOnUse">
<stop stop-color="#BF7F75"/>
<stop offset="1" stop-color="#B16685"/>
</linearGradient>
<linearGradient id="paint3_linear_2111_17721" x1="118.459" y1="62.0391" x2="118.459" y2="181.039" gradientUnits="userSpaceOnUse">
<stop stop-color="#BF7F75"/>
<stop offset="1" stop-color="#B16685"/>
</linearGradient>
<linearGradient id="paint4_linear_2111_17721" x1="118.459" y1="62.0391" x2="118.459" y2="181.039" gradientUnits="userSpaceOnUse">
<stop stop-color="#BF7F75"/>
<stop offset="1" stop-color="#B16685"/>
</linearGradient>
<linearGradient id="paint5_linear_2111_17721" x1="111.459" y1="77.0391" x2="153.959" y2="152.539" gradientUnits="userSpaceOnUse">
<stop stop-color="#FFA292"/>
<stop offset="1" stop-color="#F177AE"/>
</linearGradient>
<linearGradient id="paint6_linear_2111_17721" x1="111.459" y1="77.0391" x2="153.959" y2="152.539" gradientUnits="userSpaceOnUse">
<stop stop-color="#FFA292"/>
<stop offset="1" stop-color="#F177AE"/>
</linearGradient>
<linearGradient id="paint7_linear_2111_17721" x1="111.459" y1="77.0391" x2="153.959" y2="152.539" gradientUnits="userSpaceOnUse">
<stop stop-color="#FFA292"/>
<stop offset="1" stop-color="#F177AE"/>
</linearGradient>
<linearGradient id="paint8_linear_2111_17721" x1="111.459" y1="77.0391" x2="153.959" y2="152.539" gradientUnits="userSpaceOnUse">
<stop stop-color="#FFA292"/>
<stop offset="1" stop-color="#F177AE"/>
</linearGradient>
<linearGradient id="paint9_linear_2111_17721" x1="111.459" y1="77.0391" x2="153.959" y2="152.539" gradientUnits="userSpaceOnUse">
<stop stop-color="#FFA292"/>
<stop offset="1" stop-color="#F177AE"/>
</linearGradient>
<clipPath id="clip0_2111_17721">
<rect width="235" height="235" fill="white"/>
</clipPath>
<clipPath id="clip1_2111_17721">
<rect width="188" height="189.843" fill="white" transform="matrix(-1 0 0 1 211.959 23.0391)"/>
</clipPath>
<clipPath id="clip2_2111_17721">
<rect width="121" height="119" fill="white" transform="translate(57.959 62.0391)"/>
</clipPath>
</defs>
</svg>
