<svg width="235" height="236" viewBox="0 0 235 236" fill="none" xmlns="http://www.w3.org/2000/svg">
<g clip-path="url(#clip0_2111_18358)">
<circle cx="117.499" cy="118.499" r="108.284" fill="#0B1057" fill-opacity="0.75"/>
<ellipse cx="117.5" cy="118.5" rx="130.5" ry="133.5" fill="url(#paint0_radial_2111_18358)"/>
<g clip-path="url(#clip1_2111_18358)">
<path d="M118.622 182.039L137.539 121.948L122.431 141.74L106.562 141.87L118.622 182.039Z" fill="#BB4464"/>
<path d="M178.961 137.224L129.084 100.203L142.768 121.055L137.985 136.575L178.961 137.224Z" fill="#BB4464"/>
<path d="M156.304 63.0391L106.562 100.25L130.127 93.3459L143.04 102.807L156.304 63.0391Z" fill="#BB4464"/>
<path d="M82.2551 64.5051L101.39 124.524L102.27 99.4041L115.034 89.7319L82.2551 64.5051Z" fill="#BB4464"/>
<path d="M57.9609 133.865L119.496 135.952L96.7816 126.512L92.2853 110.903L57.9609 133.865Z" fill="#BB4464"/>
<path d="M119.089 170.039L134.097 122.067L122.111 137.867L109.52 137.971L119.089 170.039Z" fill="#C34564"/>
<path d="M166.961 134.262L127.389 104.708L138.246 121.355L134.451 133.744L166.961 134.262Z" fill="#C34564"/>
<path d="M148.985 75.0391L109.52 104.745L128.216 99.2336L138.462 106.787L148.985 75.0391Z" fill="#C34564"/>
<path d="M90.2356 76.2095L105.417 124.123L106.115 104.07L116.242 96.3485L90.2356 76.2095Z" fill="#C34564"/>
<path d="M70.9609 131.581L119.782 133.246L101.761 125.711L98.1935 113.249L70.9609 131.581Z" fill="#C34564"/>
<g filter="url(#filter0_d_2111_18358)">
<path d="M72.3714 107.85V124.72C72.3714 125.455 72.9314 125.98 73.8414 125.98H81.9614L82.3114 131.65C78.7064 132.14 74.4714 132.14 70.5164 132.14C67.0164 132.14 64.7764 129.9 64.7764 126.645V107.85H72.3714ZM94.6245 107.36C102.92 107.36 105.895 109.985 105.895 119.925C105.895 129.865 102.92 132.49 94.6245 132.49C86.3645 132.49 83.3895 129.865 83.3895 119.925C83.3895 109.985 86.3645 107.36 94.6245 107.36ZM94.6245 112.995C92.0345 112.995 91.3695 114.325 91.3695 119.925C91.3695 125.525 92.0345 126.855 94.6245 126.855C97.2145 126.855 97.8795 125.525 97.8795 119.925C97.8795 114.325 97.2145 112.995 94.6245 112.995ZM119.371 107.36C127.666 107.36 130.641 109.985 130.641 119.925C130.641 129.865 127.666 132.49 119.371 132.49C111.111 132.49 108.136 129.865 108.136 119.925C108.136 109.985 111.111 107.36 119.371 107.36ZM119.371 112.995C116.781 112.995 116.116 114.325 116.116 119.925C116.116 125.525 116.781 126.855 119.371 126.855C121.961 126.855 122.626 125.525 122.626 119.925C122.626 114.325 121.961 112.995 119.371 112.995ZM142.997 123.845L138.202 121.745C134.282 119.995 132.812 118 132.812 114.465C132.812 108.97 135.472 107.36 142.752 107.36C145.272 107.36 148.632 107.57 151.537 108.585L151.082 113.45C148.982 113.415 145.587 113.38 142.577 113.38C140.827 113.38 140.337 113.555 140.337 114.29C140.337 114.955 140.792 115.305 142.437 115.935L146.812 117.755C150.837 119.505 152.237 121.57 152.237 125.105C152.237 130.53 149.892 132.49 142.367 132.49C140.722 132.49 137.222 132.385 133.022 131.3L133.477 125.98C137.642 126.085 140.967 126.155 142.262 126.155C144.187 126.155 144.642 125.98 144.642 125.315C144.642 124.65 144.292 124.335 142.997 123.845ZM172.654 126.33L173.004 131.685C169.504 132.14 164.604 132.14 160.439 132.14C157.114 132.14 154.769 129.9 154.769 126.645V113.205C154.769 109.95 157.114 107.71 160.439 107.71C164.604 107.71 169.504 107.71 173.004 108.165L172.654 113.52H163.799C162.924 113.52 162.364 114.045 162.364 114.78V117.125H171.394V122.165H162.364V125.07C162.364 125.805 162.924 126.33 163.799 126.33H172.654Z" fill="white"/>
</g>
</g>
<path d="M42.0956 121.431C43.46 121.431 44.5661 120.325 44.5661 118.961C44.5661 117.596 43.46 116.49 42.0956 116.49C40.7311 116.49 39.625 117.596 39.625 118.961C39.625 120.325 40.7311 121.431 42.0956 121.431Z" fill="#B7405F"/>
<path d="M42.8213 131.893C44.1055 131.893 45.1466 130.852 45.1466 129.567C45.1466 128.283 44.1055 127.242 42.8213 127.242C41.5371 127.242 40.4961 128.283 40.4961 129.567C40.4961 130.852 41.5371 131.893 42.8213 131.893Z" fill="#B7405F"/>
<path d="M45.0018 142.357C46.3663 142.357 47.4724 141.251 47.4724 139.887C47.4724 138.522 46.3663 137.416 45.0018 137.416C43.6374 137.416 42.5312 138.522 42.5312 139.887C42.5312 141.251 43.6374 142.357 45.0018 142.357Z" fill="#B7405F"/>
<path d="M48.6338 152.24C49.918 152.24 50.9591 151.199 50.9591 149.915C50.9591 148.631 49.918 147.59 48.6338 147.59C47.3496 147.59 46.3086 148.631 46.3086 149.915C46.3086 151.199 47.3496 152.24 48.6338 152.24Z" fill="#B7405F"/>
<path d="M53.7245 161.832C55.0889 161.832 56.195 160.726 56.195 159.361C56.195 157.997 55.0889 156.891 53.7245 156.891C52.36 156.891 51.2539 157.997 51.2539 159.361C51.2539 160.726 52.36 161.832 53.7245 161.832Z" fill="#B7405F"/>
<path d="M59.8299 170.259C61.1944 170.259 62.3005 169.153 62.3005 167.789C62.3005 166.424 61.1944 165.318 59.8299 165.318C58.4655 165.318 57.3594 166.424 57.3594 167.789C57.3594 169.153 58.4655 170.259 59.8299 170.259Z" fill="#B7405F"/>
<path d="M67.0917 177.816C68.4561 177.816 69.5622 176.775 69.5622 175.491C69.5622 174.207 68.4561 173.166 67.0917 173.166C65.7272 173.166 64.6211 174.207 64.6211 175.491C64.6211 176.775 65.7272 177.816 67.0917 177.816Z" fill="#B7405F"/>
<path d="M75.5213 184.502C76.8858 184.502 77.9919 183.396 77.9919 182.031C77.9919 180.667 76.8858 179.561 75.5213 179.561C74.1569 179.561 73.0508 180.667 73.0508 182.031C73.0508 183.396 74.1569 184.502 75.5213 184.502Z" fill="#B7405F"/>
<path d="M84.8221 189.734C86.1866 189.734 87.2927 188.628 87.2927 187.264C87.2927 185.899 86.1866 184.793 84.8221 184.793C83.4577 184.793 82.3516 185.899 82.3516 187.264C82.3516 188.628 83.4577 189.734 84.8221 189.734Z" fill="#B7405F"/>
<path d="M94.5596 193.804C95.8438 193.804 96.8848 192.698 96.8848 191.334C96.8848 189.969 95.8438 188.863 94.5596 188.863C93.2754 188.863 92.2344 189.969 92.2344 191.334C92.2344 192.698 93.2754 193.804 94.5596 193.804Z" fill="#B7405F"/>
<path d="M104.873 196.42C106.237 196.42 107.343 195.314 107.343 193.949C107.343 192.585 106.237 191.479 104.873 191.479C103.508 191.479 102.402 192.585 102.402 193.949C102.402 195.314 103.508 196.42 104.873 196.42Z" fill="#B7405F"/>
<path d="M115.338 197.291C116.702 197.291 117.808 196.185 117.808 194.82C117.808 193.456 116.702 192.35 115.338 192.35C113.973 192.35 112.867 193.456 112.867 194.82C112.867 196.185 113.973 197.291 115.338 197.291Z" fill="#B7405F"/>
<path d="M126.099 196.998C127.464 196.998 128.57 195.892 128.57 194.527C128.57 193.163 127.464 192.057 126.099 192.057C124.735 192.057 123.629 193.163 123.629 194.527C123.629 195.892 124.735 196.998 126.099 196.998Z" fill="#B7405F"/>
<path d="M136.415 195.256C137.699 195.256 138.74 194.149 138.74 192.785C138.74 191.421 137.699 190.314 136.415 190.314C135.131 190.314 134.09 191.421 134.09 192.785C134.09 194.149 135.131 195.256 136.415 195.256Z" fill="#B7405F"/>
<path d="M146.443 191.768C147.808 191.768 148.914 190.727 148.914 189.442C148.914 188.158 147.808 187.117 146.443 187.117C145.079 187.117 143.973 188.158 143.973 189.442C143.973 190.727 145.079 191.768 146.443 191.768Z" fill="#B7405F"/>
<path d="M156.033 187.117C157.398 187.117 158.504 186.076 158.504 184.792C158.504 183.508 157.398 182.467 156.033 182.467C154.669 182.467 153.562 183.508 153.562 184.792C153.562 186.076 154.669 187.117 156.033 187.117Z" fill="#B7405F"/>
<path d="M164.756 181.304C166.12 181.304 167.226 180.198 167.226 178.834C167.226 177.469 166.12 176.363 164.756 176.363C163.391 176.363 162.285 177.469 162.285 178.834C162.285 180.198 163.391 181.304 164.756 181.304Z" fill="#B7405F"/>
<path d="M172.599 174.326C173.964 174.326 175.07 173.22 175.07 171.855C175.07 170.491 173.964 169.385 172.599 169.385C171.235 169.385 170.129 170.491 170.129 171.855C170.129 173.22 171.235 174.326 172.599 174.326Z" fill="#B7405F"/>
<path d="M179.572 166.189C180.937 166.189 182.043 165.083 182.043 163.719C182.043 162.354 180.937 161.248 179.572 161.248C178.208 161.248 177.102 162.354 177.102 163.719C177.102 165.083 178.208 166.189 179.572 166.189Z" fill="#B7405F"/>
<path d="M185.096 157.179C186.46 157.179 187.566 156.073 187.566 154.709C187.566 153.344 186.46 152.238 185.096 152.238C183.731 152.238 182.625 153.344 182.625 154.709C182.625 156.073 183.731 157.179 185.096 157.179Z" fill="#B7405F"/>
<path d="M189.455 147.299C190.819 147.299 191.925 146.258 191.925 144.974C191.925 143.689 190.819 142.648 189.455 142.648C188.09 142.648 186.984 143.689 186.984 144.974C186.984 146.258 188.09 147.299 189.455 147.299Z" fill="#B7405F"/>
<path d="M192.365 137.123C193.73 137.123 194.836 136.082 194.836 134.798C194.836 133.514 193.73 132.473 192.365 132.473C191.001 132.473 189.895 133.514 189.895 134.798C189.895 136.082 191.001 137.123 192.365 137.123Z" fill="#B7405F"/>
<path d="M193.822 126.662C195.187 126.662 196.293 125.556 196.293 124.191C196.293 122.827 195.187 121.721 193.822 121.721C192.458 121.721 191.352 122.827 191.352 124.191C191.352 125.556 192.458 126.662 193.822 126.662Z" fill="#B7405F"/>
<path d="M193.822 116.197C195.187 116.197 196.293 115.091 196.293 113.726C196.293 112.362 195.187 111.256 193.822 111.256C192.458 111.256 191.352 112.362 191.352 113.726C191.352 115.091 192.458 116.197 193.822 116.197Z" fill="#B7405F"/>
<path d="M192.365 105.734C193.73 105.734 194.836 104.628 194.836 103.264C194.836 101.899 193.73 100.793 192.365 100.793C191.001 100.793 189.895 101.899 189.895 103.264C189.895 104.628 191.001 105.734 192.365 105.734Z" fill="#B7405F"/>
<path d="M189.455 95.5622C190.819 95.5622 191.925 94.4561 191.925 93.0917C191.925 91.7272 190.819 90.6211 189.455 90.6211C188.09 90.6211 186.984 91.7272 186.984 93.0917C186.984 94.4561 188.09 95.5622 189.455 95.5622Z" fill="#B7405F"/>
<path d="M185.096 85.6798C186.46 85.6798 187.566 84.6387 187.566 83.3545C187.566 82.0703 186.46 81.0293 185.096 81.0293C183.731 81.0293 182.625 82.0703 182.625 83.3545C182.625 84.6387 183.731 85.6798 185.096 85.6798Z" fill="#B7405F"/>
<path d="M179.572 76.6661C180.937 76.6661 182.043 75.625 182.043 74.3409C182.043 73.0567 180.937 72.0156 179.572 72.0156C178.208 72.0156 177.102 73.0567 177.102 74.3409C177.102 75.625 178.208 76.6661 179.572 76.6661Z" fill="#B7405F"/>
<path d="M172.599 68.5294C173.964 68.5294 175.07 67.4883 175.07 66.2041C175.07 64.9199 173.964 63.8789 172.599 63.8789C171.235 63.8789 170.129 64.9199 170.129 66.2041C170.129 67.4883 171.235 68.5294 172.599 68.5294Z" fill="#B7405F"/>
<path d="M164.756 61.5544C166.12 61.5544 167.226 60.4483 167.226 59.0838C167.226 57.7194 166.12 56.6133 164.756 56.6133C163.391 56.6133 162.285 57.7194 162.285 59.0838C162.285 60.4483 163.391 61.5544 164.756 61.5544Z" fill="#B7405F"/>
<path d="M156.033 55.7419C157.398 55.7419 158.504 54.6358 158.504 53.2713C158.504 51.9069 157.398 50.8008 156.033 50.8008C154.669 50.8008 153.562 51.9069 153.562 53.2713C153.562 54.6358 154.669 55.7419 156.033 55.7419Z" fill="#B7405F"/>
<path d="M146.443 51.0896C147.808 51.0896 148.914 49.9835 148.914 48.619C148.914 47.2545 147.808 46.1484 146.443 46.1484C145.079 46.1484 143.973 47.2545 143.973 48.619C143.973 49.9835 145.079 51.0896 146.443 51.0896Z" fill="#B7405F"/>
<path d="M136.415 47.6036C137.699 47.6036 138.74 46.5626 138.74 45.2784C138.74 43.9942 137.699 42.9531 136.415 42.9531C135.131 42.9531 134.09 43.9942 134.09 45.2784C134.09 46.5626 135.131 47.6036 136.415 47.6036Z" fill="#B7405F"/>
<path d="M126.099 45.8571C127.464 45.8571 128.57 44.751 128.57 43.3866C128.57 42.0221 127.464 40.916 126.099 40.916C124.735 40.916 123.629 42.0221 123.629 43.3866C123.629 44.751 124.735 45.8571 126.099 45.8571Z" fill="#B7405F"/>
<path d="M115.338 45.5681C116.702 45.5681 117.808 44.462 117.808 43.0975C117.808 41.7331 116.702 40.627 115.338 40.627C113.973 40.627 112.867 41.7331 112.867 43.0975C112.867 44.462 113.973 45.5681 115.338 45.5681Z" fill="#B7405F"/>
<path d="M104.873 46.7302C106.237 46.7302 107.343 45.6241 107.343 44.2596C107.343 42.8952 106.237 41.7891 104.873 41.7891C103.508 41.7891 102.402 42.8952 102.402 44.2596C102.402 45.6241 103.508 46.7302 104.873 46.7302Z" fill="#B7405F"/>
<path d="M94.5596 49.0567C95.8438 49.0567 96.8848 48.0157 96.8848 46.7315C96.8848 45.4473 95.8438 44.4062 94.5596 44.4062C93.2754 44.4062 92.2344 45.4473 92.2344 46.7315C92.2344 48.0157 93.2754 49.0567 94.5596 49.0567Z" fill="#B7405F"/>
<path d="M84.8221 53.1286C86.1866 53.1286 87.2927 52.0225 87.2927 50.6581C87.2927 49.2936 86.1866 48.1875 84.8221 48.1875C83.4577 48.1875 82.3516 49.2936 82.3516 50.6581C82.3516 52.0225 83.4577 53.1286 84.8221 53.1286Z" fill="#B7405F"/>
<path d="M75.5213 58.3575C76.8858 58.3575 77.9919 57.3165 77.9919 56.0323C77.9919 54.7481 76.8858 53.707 75.5213 53.707C74.1569 53.707 73.0508 54.7481 73.0508 56.0323C73.0508 57.3165 74.1569 58.3575 75.5213 58.3575Z" fill="#B7405F"/>
<path d="M67.0917 65.0407C68.4561 65.0407 69.5622 63.9346 69.5622 62.5702C69.5622 61.2057 68.4561 60.0996 67.0917 60.0996C65.7272 60.0996 64.6211 61.2057 64.6211 62.5702C64.6211 63.9346 65.7272 65.0407 67.0917 65.0407Z" fill="#B7405F"/>
<path d="M59.8299 72.5993C61.1944 72.5993 62.3005 71.4932 62.3005 70.1288C62.3005 68.7643 61.1944 67.6582 59.8299 67.6582C58.4655 67.6582 57.3594 68.7643 57.3594 70.1288C57.3594 71.4932 58.4655 72.5993 59.8299 72.5993Z" fill="#B7405F"/>
<path d="M53.7245 81.32C55.0889 81.32 56.195 80.2139 56.195 78.8495C56.195 77.485 55.0889 76.3789 53.7245 76.3789C52.36 76.3789 51.2539 77.485 51.2539 78.8495C51.2539 80.2139 52.36 81.32 53.7245 81.32Z" fill="#B7405F"/>
<path d="M48.6338 90.6208C49.918 90.6208 50.9591 89.5147 50.9591 88.1502C50.9591 86.7858 49.918 85.6797 48.6338 85.6797C47.3496 85.6797 46.3086 86.7858 46.3086 88.1502C46.3086 89.5147 47.3496 90.6208 48.6338 90.6208Z" fill="#B7405F"/>
<path d="M45.0018 100.502C46.3663 100.502 47.4724 99.3956 47.4724 98.0311C47.4724 96.6666 46.3663 95.5605 45.0018 95.5605C43.6374 95.5605 42.5312 96.6666 42.5312 98.0311C42.5312 99.3956 43.6374 100.502 45.0018 100.502Z" fill="#B7405F"/>
<path d="M42.8213 110.967C44.1055 110.967 45.1466 109.86 45.1466 108.496C45.1466 107.131 44.1055 106.025 42.8213 106.025C41.5371 106.025 40.4961 107.131 40.4961 108.496C40.4961 109.86 41.5371 110.967 42.8213 110.967Z" fill="#B7405F"/>
<g filter="url(#filter1_i_2111_18358)">
<circle cx="117.499" cy="118.499" r="113.284" stroke="#45428E" stroke-width="10"/>
</g>
</g>
<defs>
<filter id="filter0_d_2111_18358" x="56.8773" y="105.459" width="124.027" height="40.9309" filterUnits="userSpaceOnUse" color-interpolation-filters="sRGB">
<feFlood flood-opacity="0" result="BackgroundImageFix"/>
<feColorMatrix in="SourceAlpha" type="matrix" values="0 0 0 0 0 0 0 0 0 0 0 0 0 0 0 0 0 0 127 0" result="hardAlpha"/>
<feOffset dy="6"/>
<feGaussianBlur stdDeviation="3.95"/>
<feComposite in2="hardAlpha" operator="out"/>
<feColorMatrix type="matrix" values="0 0 0 0 0 0 0 0 0 0 0 0 0 0 0 0 0 0 0.25 0"/>
<feBlend mode="normal" in2="BackgroundImageFix" result="effect1_dropShadow_2111_18358"/>
<feBlend mode="normal" in="SourceGraphic" in2="effect1_dropShadow_2111_18358" result="shape"/>
</filter>
<filter id="filter1_i_2111_18358" x="-0.785156" y="0.214844" width="236.57" height="240.568" filterUnits="userSpaceOnUse" color-interpolation-filters="sRGB">
<feFlood flood-opacity="0" result="BackgroundImageFix"/>
<feBlend mode="normal" in="SourceGraphic" in2="BackgroundImageFix" result="shape"/>
<feColorMatrix in="SourceAlpha" type="matrix" values="0 0 0 0 0 0 0 0 0 0 0 0 0 0 0 0 0 0 127 0" result="hardAlpha"/>
<feOffset dy="4"/>
<feGaussianBlur stdDeviation="2"/>
<feComposite in2="hardAlpha" operator="arithmetic" k2="-1" k3="1"/>
<feColorMatrix type="matrix" values="0 0 0 0 0.423529 0 0 0 0 0.407843 0 0 0 0 0.878431 0 0 0 1 0"/>
<feBlend mode="normal" in2="shape" result="effect1_innerShadow_2111_18358"/>
</filter>
<radialGradient id="paint0_radial_2111_18358" cx="0" cy="0" r="1" gradientUnits="userSpaceOnUse" gradientTransform="translate(117.5 118.5) rotate(90) scale(133.5 130.5)">
<stop stop-color="#BE385B"/>
<stop offset="0.171666" stop-color="#BE385B"/>
<stop offset="1" stop-color="#1D2057" stop-opacity="0"/>
</radialGradient>
<clipPath id="clip0_2111_18358">
<rect width="235" height="236" fill="white"/>
</clipPath>
<clipPath id="clip1_2111_18358">
<rect width="121" height="119" fill="white" transform="translate(57.9609 63.0391)"/>
</clipPath>
</defs>
</svg>
